<svg xmlns="http://www.w3.org/2000/svg" xmlns:xlink="http://www.w3.org/1999/xlink" width="84" height="83" viewBox="0 0 84 83">
  <defs>
    <clipPath id="clip-path">
      <rect id="Rectángulo_293495" data-name="Rectángulo 293495" width="84" height="83" transform="translate(584.046 9111.049)" fill="#fffae7"/>
    </clipPath>
  </defs>
  <g id="Enmascarar_grupo_700419" data-name="Enmascarar grupo 700419" transform="translate(-584.046 -9111.049)" clip-path="url(#clip-path)">
    <path id="opinion-del-cliente" d="M7.8,53.032a1.318,1.318,0,0,1-1.318-1.318V40.8a1.318,1.318,0,1,1,2.637,0V51.714A1.318,1.318,0,0,1,7.8,53.032ZM33.86,51.714V36.9a1.318,1.318,0,0,0-2.637,0V51.714a1.318,1.318,0,0,0,2.637,0Zm19.29,0V36.9a1.318,1.318,0,0,0-2.637,0V51.714a1.318,1.318,0,0,0,2.637,0Zm24.737,0V40.8a1.318,1.318,0,0,0-2.637,0V51.714a1.318,1.318,0,0,0,2.637,0ZM84.374,35.97V51.714a1.318,1.318,0,0,1-2.637,0V35.97c0-2.9-2.99-4.276-5.5-4.922a34.206,34.206,0,0,0-16.042-.22,7.233,7.233,0,0,1,.043.782v20.1a1.318,1.318,0,1,1-2.637,0V31.61c0-3.467-3.816-4.932-6.091-5.5a37.662,37.662,0,0,0-18.643,0c-2.784.716-6.1,2.251-6.1,5.5v20.1a1.318,1.318,0,1,1-2.637,0V31.61a7.4,7.4,0,0,1,.042-.782,34.2,34.2,0,0,0-16.041.22c-2.508.645-5.5,2.023-5.5,4.922V51.714a1.318,1.318,0,0,1-2.637,0V35.97c0-3.58,2.655-6.235,7.477-7.475a36.408,36.408,0,0,1,6.131-1.028C10.573,25.943,8.42,22.2,8.42,17.825c0-5.235,3.145-8.488,8.208-8.488s8.208,3.252,8.208,8.488c0,4.381-2.162,8.134-5.207,9.652a38.726,38.726,0,0,1,5.329.827c1.2-2.185,3.674-3.824,7.256-4.746A39.65,39.65,0,0,1,39.356,22.4c-3.5-1.5-6.019-5.695-6.019-10.625,0-5.647,3.391-9.156,8.85-9.156s8.85,3.508,8.85,9.156c0,4.941-2.535,9.143-6.041,10.634a42.333,42.333,0,0,1,7.154,1.146c3.541.879,6.042,2.544,7.256,4.751a38.73,38.73,0,0,1,5.339-.829c-3.045-1.518-5.207-5.271-5.207-9.652,0-5.235,3.145-8.488,8.208-8.488s8.208,3.252,8.208,8.488c0,4.372-2.153,8.119-5.188,9.643A36.427,36.427,0,0,1,76.9,28.495c4.821,1.24,7.477,3.9,7.477,7.475ZM16.628,25.561c3.072,0,5.571-3.471,5.571-7.737,0-5.091-3.491-5.851-5.571-5.851s-5.571.76-5.571,5.851C11.057,22.091,13.556,25.561,16.628,25.561Zm25.559-5.206c3.426,0,6.213-3.849,6.213-8.58,0-5.672-3.893-6.519-6.213-6.519s-6.213.847-6.213,6.519c0,4.731,2.787,8.58,6.213,8.58Zm25.559,5.206c3.072,0,5.571-3.471,5.571-7.737,0-5.091-3.491-5.851-5.571-5.851s-5.571.76-5.571,5.851C62.175,22.091,64.674,25.561,67.746,25.561ZM25.262,65.024a1.318,1.318,0,0,1-.366,1.381l-5.406,4.93L20.966,78.5a1.318,1.318,0,0,1-1.943,1.412L12.663,76.3,6.3,79.914A1.318,1.318,0,0,1,4.36,78.5l1.476-7.166L.43,66.405a1.318,1.318,0,0,1,.742-2.284l7.272-.811,3.019-6.665a1.318,1.318,0,0,1,2.4,0l3.019,6.665,7.271.811a1.319,1.319,0,0,1,1.108.9Zm-4.293,1.395-5.124-.571a1.318,1.318,0,0,1-1.055-.766l-2.127-4.7-2.127,4.7a1.318,1.318,0,0,1-1.055.766l-5.124.571,3.809,3.474a1.318,1.318,0,0,1,.4,1.24l-1.04,5.05,4.481-2.549a1.319,1.319,0,0,1,1.3,0L17.8,76.183l-1.04-5.05a1.319,1.319,0,0,1,.4-1.24Zm33.817-1.395a1.318,1.318,0,0,1-.366,1.381l-5.406,4.93L50.49,78.5a1.318,1.318,0,0,1-1.943,1.412L42.187,76.3l-6.36,3.618A1.318,1.318,0,0,1,33.884,78.5l1.476-7.166-5.406-4.93a1.318,1.318,0,0,1,.742-2.284l7.271-.811,3.019-6.665a1.318,1.318,0,0,1,2.4,0l3.019,6.665,7.271.811a1.318,1.318,0,0,1,1.108.9Zm-4.293,1.395-5.124-.571a1.318,1.318,0,0,1-1.055-.766l-2.127-4.7-2.127,4.7a1.318,1.318,0,0,1-1.055.766l-5.124.571,3.809,3.474a1.318,1.318,0,0,1,.4,1.24l-1.04,5.05,4.481-2.549a1.319,1.319,0,0,1,1.3,0l4.481,2.549-1.04-5.05a1.319,1.319,0,0,1,.4-1.24Zm33.817-1.395a1.318,1.318,0,0,1-.366,1.381l-5.406,4.93L80.013,78.5a1.318,1.318,0,0,1-1.943,1.412L71.711,76.3l-6.36,3.618A1.319,1.319,0,0,1,63.408,78.5l1.476-7.166-5.406-4.93a1.318,1.318,0,0,1,.742-2.284l7.272-.811,3.019-6.665a1.318,1.318,0,0,1,2.4,0L75.93,63.31l7.271.811a1.319,1.319,0,0,1,1.108.9Zm-4.293,1.395-5.124-.571a1.318,1.318,0,0,1-1.055-.766l-2.127-4.7-2.127,4.7a1.318,1.318,0,0,1-1.055.766l-5.124.571,3.809,3.474a1.319,1.319,0,0,1,.4,1.24l-1.04,5.05,4.481-2.549a1.319,1.319,0,0,1,1.3,0l4.481,2.549-1.04-5.05a1.319,1.319,0,0,1,.4-1.24Z" transform="translate(584 9111.168)"/>
  </g>
</svg>
