<svg xmlns="http://www.w3.org/2000/svg" xmlns:xlink="http://www.w3.org/1999/xlink" width="83" height="82" viewBox="0 0 83 82">
  <defs>
    <clipPath id="clip-path">
      <rect id="Rectángulo_293490" data-name="Rectángulo 293490" width="83" height="82" transform="translate(394 9105)" fill="#fffae7"/>
    </clipPath>
  </defs>
  <g id="Enmascarar_grupo_700417" data-name="Enmascarar grupo 700417" transform="translate(-394 -9105)" clip-path="url(#clip-path)">
    <g id="auto-confianza" transform="translate(394 9105.021)">
      <path id="Trazado_595232" data-name="Trazado 595232" d="M25.764,31.571A1.34,1.34,0,0,0,28.033,30.4l-1.08-6.481h5.118a2.684,2.684,0,0,0,2.68-2.68V7.841a2.684,2.684,0,0,0-2.68-2.68h-20.1a2.684,2.684,0,0,0-2.68,2.68v13.4a2.684,2.684,0,0,0,2.68,2.68h6.146ZM11.971,7.841h20.1v13.4h-6.7A1.34,1.34,0,0,0,24.05,22.8l.653,3.916-5.084-5.083a1.339,1.339,0,0,0-.947-.393h-6.7Z" transform="translate(1.431 -1.141)"/>
      <path id="Trazado_595233" data-name="Trazado 595233" d="M36.129,4.745v20.1a2.684,2.684,0,0,0,2.68,2.68h7.8l-1.08,6.481A1.339,1.339,0,0,0,47.653,35.3l10.364-7.772h7.594a2.684,2.684,0,0,0,2.68-2.68V4.745a2.684,2.684,0,0,0-2.68-2.68h-26.8a2.684,2.684,0,0,0-2.68,2.68Zm29.482,20.1H57.571a1.336,1.336,0,0,0-.8.268l-8.046,6.033.79-4.741a1.34,1.34,0,0,0-1.322-1.56H38.809l0-20.1h26.8Z" transform="translate(9.435 -2.065)"/>
      <path id="Trazado_595234" data-name="Trazado 595234" d="M63.352,32.15a1.34,1.34,0,0,0-1.33-1.178h-6.7a1.34,1.34,0,0,0-1.331,1.5L56.007,49.4,45.6,47.233a9.381,9.381,0,1,0-12.711,0L22.475,49.4,24.49,32.471a1.34,1.34,0,0,0-1.331-1.5h-6.7a1.34,1.34,0,0,0-1.33,1.178L12.265,55.533a4.019,4.019,0,0,0,4.324,4.631l9.25-.911V75.2h2.68V57.774a1.341,1.341,0,0,0-.44-.993,1.366,1.366,0,0,0-1.031-.34L16.346,57.5a1.342,1.342,0,0,1-1.091-.423,1.362,1.362,0,0,1-.336-1.169l2.726-22.252H21.65L19.712,49.943a2.012,2.012,0,0,0,.586,1.744,2.033,2.033,0,0,0,1.794.53l11.925-2.484H44.463l11.959,2.489a2.01,2.01,0,0,0,2.353-2.237L56.83,33.653h4.006l2.733,22.3A1.34,1.34,0,0,1,62.153,57.5L51.432,56.441a1.372,1.372,0,0,0-1.031.34,1.341,1.341,0,0,0-.44.993V75.2h2.68V59.253l9.268.912a4.018,4.018,0,0,0,4.312-4.587ZM39.24,47.054a6.7,6.7,0,1,1,6.7-6.7A6.7,6.7,0,0,1,39.24,47.054Z" transform="translate(2.303 6.551)"/>
      <path id="Trazado_595235" data-name="Trazado 595235" d="M66.973,59.872c-2.587-.8-3.229-1.44-4.026-4.026a1.608,1.608,0,0,0-3.073-.005c-.8,2.593-1.441,3.232-4.028,4.031a1.608,1.608,0,0,0-.005,3.073c2.593.8,3.232,1.441,4.031,4.028a1.608,1.608,0,0,0,3.073.005c.8-2.593,1.441-3.232,4.028-4.031a1.608,1.608,0,0,0,0-3.075ZM61.41,63.7a5.921,5.921,0,0,0-2.288-2.288,5.913,5.913,0,0,0,2.288-2.288A5.913,5.913,0,0,0,63.7,61.41,5.921,5.921,0,0,0,61.41,63.7Zm4.775-1.263h0l.005,0Z" transform="translate(14.976 13.636)"/>
      <path id="Trazado_595236" data-name="Trazado 595236" d="M13.3,35.1c-2.587-.8-3.229-1.44-4.026-4.026A1.608,1.608,0,0,0,6.2,31.067C5.4,33.66,4.757,34.3,2.17,35.1a1.608,1.608,0,0,0-.005,3.073c2.593.8,3.232,1.441,4.031,4.028a1.608,1.608,0,0,0,3.073.005c.8-2.593,1.441-3.232,4.028-4.031a1.608,1.608,0,0,0,0-3.075ZM7.733,38.924a5.922,5.922,0,0,0-2.288-2.288,5.913,5.913,0,0,0,2.288-2.288,5.913,5.913,0,0,0,2.288,2.288,5.922,5.922,0,0,0-2.288,2.288Zm4.775-1.263h0l.005,0Z" transform="translate(-1.032 6.247)"/>
      <path id="Trazado_595237" data-name="Trazado 595237" d="M45.834,15.505l-.683,4.181a1.34,1.34,0,0,0,1.971,1.388l3.494-1.93,3.493,1.93a1.34,1.34,0,0,0,1.971-1.389L55.4,15.505l2.878-2.95a1.34,1.34,0,0,0-.756-2.26L53.6,9.7,51.829,5.932a1.34,1.34,0,0,0-2.426,0L47.635,9.7l-3.922.6a1.34,1.34,0,0,0-.756,2.26Zm2.913-3.268a1.339,1.339,0,0,0,1.01-.755l.859-1.827.857,1.827a1.339,1.339,0,0,0,1.01.755l2.052.314-1.529,1.566a1.342,1.342,0,0,0-.364,1.152l.347,2.125-1.726-.954a1.341,1.341,0,0,0-1.3,0l-1.727.954.348-2.125a1.342,1.342,0,0,0-.364-1.152L46.7,12.55Z" transform="translate(11.357 -1.141)"/>
    </g>
  </g>
</svg>
