<svg xmlns="http://www.w3.org/2000/svg" xmlns:xlink="http://www.w3.org/1999/xlink" width="85" height="84" viewBox="0 0 85 84">
  <defs>
    <clipPath id="clip-path">
      <rect id="Rectángulo_293494" data-name="Rectángulo 293494" width="85" height="84" transform="translate(487 9223.609)" fill="#fffae7"/>
    </clipPath>
  </defs>
  <g id="Enmascarar_grupo_700418" data-name="Enmascarar grupo 700418" transform="translate(-487 -9223.609)" clip-path="url(#clip-path)">
    <g id="liderazgo" transform="translate(488.03 9224)">
      <g id="Grupo_874496" data-name="Grupo 874496" transform="translate(0 15.31)">
        <g id="Grupo_874495" data-name="Grupo 874495">
          <path id="Trazado_595238" data-name="Trazado 595238" d="M58.07,63.114H45.529V51.966A6.968,6.968,0,0,0,38.561,45H30.2v-7.65L49.124,23.831a1.381,1.381,0,0,0,.307-1.965l-4.18-5.574a1.393,1.393,0,0,0-1.909-.307l-14.283,9.88a9.754,9.754,0,1,0-15.426,2.411H12.085a1.393,1.393,0,0,0-1.031.46l-9,10.005a6.967,6.967,0,0,0,.279,9.587L9.7,55.742a1.4,1.4,0,0,0,2.132-.181l1.644-2.327V78.442a1.394,1.394,0,0,0,1.393,1.393h8.361a1.394,1.394,0,0,0,1.393-1.393v-22.3h9.754v6.967H30.2a1.394,1.394,0,0,0-1.393,1.393V78.442A1.394,1.394,0,0,0,30.2,79.836H58.07a1.394,1.394,0,0,0,1.393-1.393V64.507A1.393,1.393,0,0,0,58.07,63.114Zm-44.592-41.8a6.967,6.967,0,1,1,6.967,6.967A6.968,6.968,0,0,1,13.478,21.309Zm10.284,9.754-1.923,3.846-1.923-3.846ZM13.478,45.988,11.249,43.6l2.23-2.23Zm9.754,7.372a1.394,1.394,0,0,0-1.393,1.393v22.3H16.265V38.031a1.4,1.4,0,0,0-2.383-.989L8.308,42.615a1.394,1.394,0,0,0,0,1.951l4.557,4.752L10.51,52.607,4.267,46.392a4.181,4.181,0,0,1-.153-5.783l8.6-9.545h4.083l3.8,7.595a1.394,1.394,0,0,0,2.48,0l4.027-8.04,16.722-11.58L46.351,22.4,28,35.509a1.393,1.393,0,0,0-.585,1.129v9.754a1.394,1.394,0,0,0,1.393,1.393h9.754a4.18,4.18,0,0,1,4.18,4.18V63.114H37.168V54.753a1.394,1.394,0,0,0-1.393-1.393ZM56.677,77.049H31.594V65.9H56.677Z" transform="translate(-0.276 -11.536)"/>
        </g>
      </g>
      <g id="Grupo_874498" data-name="Grupo 874498" transform="translate(57.794)">
        <g id="Grupo_874497" data-name="Grupo 874497">
          <path id="Trazado_595239" data-name="Trazado 595239" d="M67.513,11.148a9.754,9.754,0,0,1-9.754-9.754,1.393,1.393,0,1,0-2.787,0,9.754,9.754,0,0,1-9.754,9.754,1.393,1.393,0,1,0,0,2.787,9.754,9.754,0,0,1,9.754,9.754,1.393,1.393,0,1,0,2.787,0,9.754,9.754,0,0,1,9.754-9.754,1.393,1.393,0,0,0,0-2.787Zm-11.148,6.8a12.651,12.651,0,0,0-5.407-5.407,12.653,12.653,0,0,0,5.407-5.407,12.653,12.653,0,0,0,5.407,5.407A12.653,12.653,0,0,0,56.365,17.948Z" transform="translate(-43.824)"/>
        </g>
      </g>
      <g id="Grupo_874500" data-name="Grupo 874500" transform="translate(43.034 35.104)">
        <g id="Grupo_874499" data-name="Grupo 874499">
          <rect id="Rectángulo_293491" data-name="Rectángulo 293491" width="4.71" height="2.787" transform="translate(0 2.785) rotate(-36.251)"/>
        </g>
      </g>
      <g id="Grupo_874502" data-name="Grupo 874502" transform="translate(50.011 22.564)">
        <g id="Grupo_874501" data-name="Grupo 874501">
          <rect id="Rectángulo_293492" data-name="Rectángulo 293492" width="17.279" height="2.787" transform="matrix(0.806, -0.592, 0.592, 0.806, 0, 10.222)"/>
        </g>
      </g>
      <g id="Grupo_874504" data-name="Grupo 874504" transform="translate(50.048 15.559)">
        <g id="Grupo_874503" data-name="Grupo 874503">
          <rect id="Rectángulo_293493" data-name="Rectángulo 293493" width="10.047" height="2.787" transform="translate(0 5.573) rotate(-33.692)"/>
        </g>
      </g>
    </g>
  </g>
</svg>
