<svg xmlns="http://www.w3.org/2000/svg" width="83.468" height="82.416" viewBox="0 0 83.468 82.416">
  <g id="cooperacion" transform="translate(0 -3.228)">
    <g id="Grupo_874478" data-name="Grupo 874478" transform="translate(0 3.228)">
      <path id="Trazado_595197" data-name="Trazado 595197" d="M79.523,171.452,57.592,184.525a3.835,3.835,0,0,0-1.615,4.655,4.1,4.1,0,0,1-3.075.042l-2.837-1.115a5.747,5.747,0,0,0-3.533-.224l-4.347,1.1q-.253.064-.5.149c-2.656-1.516-4.238-1.969-7.04-.886l-2.516.973a4.111,4.111,0,0,1-3.6-.3l-.84-.5a3.835,3.835,0,0,0-1.818-3.9L3.945,171.452A2.609,2.609,0,0,0,0,173.693v24.482a4.846,4.846,0,0,0,2.354,4.144l9.576,5.708a3.825,3.825,0,0,0,5.18-1.22l.409.242-1.242,1.73a4.3,4.3,0,0,0,4.244,6.745,4.3,4.3,0,0,0,5,3.59,4.3,4.3,0,0,0,6.029,3.278,4.3,4.3,0,0,0,7.392,1.235l3.216,1.905a4.3,4.3,0,0,0,6.48-3.322l.125.074a4.307,4.307,0,0,0,6.493-3.486,4.31,4.31,0,0,0,5.442-3.81,4.3,4.3,0,0,0,4.9-6.812l1.26-.736a3.827,3.827,0,0,0,4.674.588l2.315-1.38a1.223,1.223,0,1,0-1.252-2.1l-2.315,1.38a1.382,1.382,0,0,1-1.639-.165c-.008-.069-10.286-17.245-10.286-17.245a1.384,1.384,0,0,1,.481-1.891l21.931-13.073a.163.163,0,0,1,.248.141v24.482a2.39,2.39,0,0,1-1.161,2.043L77.551,201.6a1.223,1.223,0,0,0,1.252,2.1l2.312-1.378a4.846,4.846,0,0,0,2.354-4.144V173.693a2.609,2.609,0,0,0-3.945-2.241Zm-32.391,18.8a3.32,3.32,0,0,1,2.039.129l2.843,1.117a6.534,6.534,0,0,0,5.167-.18l8.337,14.072-1.351.789a6.55,6.55,0,0,0-.7.482l-17.83-10.559a1.223,1.223,0,0,0-1.846,1.052v.246a3.255,3.255,0,0,1-3.255,3.255.273.273,0,0,1-.266-.266v-5.8a3.334,3.334,0,0,1,1.791-2.958,1.223,1.223,0,0,0,.157-.077,3.357,3.357,0,0,1,.571-.2Zm-32.9,15.824a1.373,1.373,0,0,1-1.048-.152l-9.576-5.708a2.39,2.39,0,0,1-1.161-2.043V173.693a.15.15,0,0,1,.083-.142.166.166,0,0,1,.083-.024.157.157,0,0,1,.082.025l21.932,13.073a1.384,1.384,0,0,1,.481,1.891L15.077,205.444A1.372,1.372,0,0,1,14.23,206.078Zm5.843,7.041a1.857,1.857,0,0,1-1.809-2.915l1.744-2.43a1.851,1.851,0,0,1,.136-.168,1.229,1.229,0,0,0,.1-.1,1.857,1.857,0,0,1,2.778,2.439l0,0L21.28,212.37a1.845,1.845,0,0,1-1.207.749Zm3.619,3.268a1.857,1.857,0,0,1-.425-2.591l1.744-2.43h0l1.925-2.681a1.845,1.845,0,0,1,1.208-.75,1.873,1.873,0,0,1,.3-.025,1.858,1.858,0,0,1,1.5,2.94l-3.67,5.111A1.859,1.859,0,0,1,23.692,216.387Zm6.387,3.916a1.857,1.857,0,0,1-1.809-2.915l0,0,3.667-5.107a1.857,1.857,0,1,1,3.017,2.166l-3.67,5.111A1.845,1.845,0,0,1,30.079,220.3Zm4.438,2.127a1.857,1.857,0,0,1-.425-2.591l0-.005,1.218-1.7a1.857,1.857,0,0,1,3.015,2.168l-.7.972-.022.03-.5.7a1.859,1.859,0,0,1-2.591.425ZM63.976,211.97a1.86,1.86,0,0,1-2.545.651L58.6,210.947l0,0-8.754-5.186a1.223,1.223,0,1,0-1.246,2.1l8.758,5.189h0a1.858,1.858,0,0,1-1.9,3.2l-2.3-1.365-.006,0,0,0L46.7,211.056a1.223,1.223,0,1,0-1.246,2.1l6.45,3.821,0,0a1.858,1.858,0,0,1-1.894,3.2l-3.458-2.049-.007,0-2.529-1.5a1.223,1.223,0,0,0-1.246,2.1l2.529,1.5,0,0a1.858,1.858,0,0,1-1.9,3.195l-3.027-1.793a4.3,4.3,0,0,0-2.942-6.669,4.3,4.3,0,0,0-4.744-5.84,4.3,4.3,0,0,0-7.39-2.3,4.3,4.3,0,0,0-6.082-1.607l-.867-.512,8.319-14.042.614.362a6.541,6.541,0,0,0,5.725.476l2.516-.973a3.96,3.96,0,0,1,3.83.13,5.774,5.774,0,0,0-1.54,3.932v5.8a2.714,2.714,0,0,0,2.707,2.711h0a5.71,5.71,0,0,0,5.431-3.96l17.03,10.085a1.207,1.207,0,0,0,.174.085,1.234,1.234,0,0,0,.158.111,1.86,1.86,0,0,1,.651,2.545Z" transform="translate(0 -143.716)"/>
      <path id="Trazado_595198" data-name="Trazado 595198" d="M146.395,35.087h28.031a4.608,4.608,0,0,0,4.6-4.6V13.806a4.608,4.608,0,0,0-4.6-4.6h-6.748V7.266a4.043,4.043,0,0,0-4.038-4.038h-6.46a4.043,4.043,0,0,0-4.038,4.038V9.2h-6.748a4.608,4.608,0,0,0-4.6,4.6v9.187a1.223,1.223,0,1,0,2.445,0V20.721a7.318,7.318,0,0,0,4.9,1.879h.957v1.345a1.223,1.223,0,1,0,2.445,0V22.6h15.737v1.345a1.223,1.223,0,0,0,2.445,0V22.6h.957a7.318,7.318,0,0,0,4.9-1.879v9.763a2.16,2.16,0,0,1-2.157,2.157H146.395a2.16,2.16,0,0,1-2.157-2.157V28.709a1.223,1.223,0,1,0-2.445,0v1.774a4.608,4.608,0,0,0,4.6,4.6Zm9.193-27.82a1.594,1.594,0,0,1,1.592-1.593h6.46a1.594,1.594,0,0,1,1.592,1.593V9.2h-9.645V7.266Zm16.093,12.889h-.957V18.81a1.223,1.223,0,0,0-2.445,0v1.345H152.542V18.81a1.223,1.223,0,1,0-2.445,0v1.345h-.957a4.908,4.908,0,0,1-4.9-4.9V13.806a2.16,2.16,0,0,1,2.157-2.157h28.031a2.16,2.16,0,0,1,2.157,2.157v1.447A4.908,4.908,0,0,1,171.681,20.155Z" transform="translate(-118.676 -3.228)"/>
    </g>
  </g>
</svg>
