<svg xmlns="http://www.w3.org/2000/svg" xmlns:xlink="http://www.w3.org/1999/xlink" width="82" height="81" viewBox="0 0 82 81">
  <defs>
    <clipPath id="clip-path">
      <rect id="Rectángulo_293508" data-name="Rectángulo 293508" width="82" height="81" transform="translate(976 9105)" fill="#fffae7"/>
    </clipPath>
  </defs>
  <g id="Enmascarar_grupo_700428" data-name="Enmascarar grupo 700428" transform="translate(-976 -9105)" clip-path="url(#clip-path)">
    <g id="habilidades" transform="translate(976.641 9105)">
      <path id="Trazado_595256" data-name="Trazado 595256" d="M39.867,7.269h-26a6.613,6.613,0,0,0-6.6,6.6v26a1.552,1.552,0,0,0,1.552,1.552H19.688a1.552,1.552,0,0,0,1.552-1.552V38.315a3.1,3.1,0,1,1,6.209,0v1.552A1.552,1.552,0,0,0,29,41.419H39.867a1.552,1.552,0,0,0,1.552-1.552V30.553a6.209,6.209,0,0,0,0-12.418V8.822A1.552,1.552,0,0,0,39.867,7.269Zm4.657,17.075a3.1,3.1,0,0,1-3.1,3.1H39.867A1.552,1.552,0,0,0,38.315,29v9.314H30.553a6.209,6.209,0,1,0-12.418,0H10.374V13.866a3.493,3.493,0,0,1,3.493-3.493H38.315v9.314a1.552,1.552,0,0,0,1.552,1.552h1.552A3.1,3.1,0,0,1,44.524,24.344Z" transform="translate(-7.269 -7.269)"/>
      <path id="Trazado_595257" data-name="Trazado 595257" d="M46.72,27.449H45.168A1.552,1.552,0,0,0,43.615,29V39.867a1.552,1.552,0,0,0,1.552,1.552h9.314a6.209,6.209,0,0,0,12.418,0h9.314a1.552,1.552,0,0,0,1.552-1.552v-26a6.613,6.613,0,0,0-6.6-6.6h-26a1.552,1.552,0,0,0-1.552,1.552V19.688a1.552,1.552,0,0,0,1.552,1.552H46.72a3.1,3.1,0,0,1,0,6.209Zm0-9.314V10.374H71.168a3.493,3.493,0,0,1,3.493,3.493V38.315H65.347A1.552,1.552,0,0,0,63.8,39.867v1.552a3.1,3.1,0,0,1-6.209,0V39.867a1.552,1.552,0,0,0-1.552-1.552H46.72V30.553a6.209,6.209,0,0,0,0-12.418Z" transform="translate(2.953 -7.269)"/>
      <path id="Trazado_595258" data-name="Trazado 595258" d="M44.978,54.481a6.209,6.209,0,0,0,0,12.418v9.314a1.552,1.552,0,0,0,1.552,1.552h26a6.613,6.613,0,0,0,6.6-6.6v-26a1.552,1.552,0,0,0-1.552-1.552H66.71a1.552,1.552,0,0,0-1.552,1.552V46.72a3.1,3.1,0,0,1-6.209,0V45.168A1.552,1.552,0,0,0,57.4,43.615H46.531a1.552,1.552,0,0,0-1.552,1.552Zm1.552,3.1a1.552,1.552,0,0,0,1.552-1.552V46.72h7.761a6.209,6.209,0,0,0,12.418,0h7.761V71.168a3.493,3.493,0,0,1-3.493,3.493H48.083V65.347A1.552,1.552,0,0,0,46.531,63.8H44.978a3.1,3.1,0,0,1,0-6.209Z" transform="translate(1.59 2.953)"/>
      <path id="Trazado_595259" data-name="Trazado 595259" d="M7.269,72.531a6.613,6.613,0,0,0,6.6,6.6h26a1.552,1.552,0,0,0,1.552-1.552V66.71a1.552,1.552,0,0,0-1.552-1.552H38.315a3.1,3.1,0,1,1,0-6.209h1.552A1.552,1.552,0,0,0,41.419,57.4V46.531a1.552,1.552,0,0,0-1.552-1.552H30.553a6.209,6.209,0,0,0-12.418,0H8.822a1.552,1.552,0,0,0-1.552,1.552Zm3.1-24.448h9.314a1.552,1.552,0,0,0,1.552-1.552V44.978a3.1,3.1,0,1,1,6.209,0v1.552A1.552,1.552,0,0,0,29,48.083h9.314v7.761a6.209,6.209,0,1,0,0,12.418v7.761H13.866a3.493,3.493,0,0,1-3.493-3.493Z" transform="translate(-7.269 1.59)"/>
    </g>
  </g>
</svg>
