<svg xmlns="http://www.w3.org/2000/svg" xmlns:xlink="http://www.w3.org/1999/xlink" width="82" height="81" viewBox="0 0 82 81">
  <defs>
    <clipPath id="clip-path">
      <rect id="Rectángulo_293497" data-name="Rectángulo 293497" width="82" height="81" transform="translate(779 9108.168)" fill="#fffae7"/>
    </clipPath>
  </defs>
  <g id="Enmascarar_grupo_700421" data-name="Enmascarar grupo 700421" transform="translate(-779 -9108.168)" clip-path="url(#clip-path)">
    <g id="Page-1" transform="translate(779.54 9107.988)">
      <g id="_026---Idea" data-name="026---Idea">
        <path id="Shape" d="M75.742,40.124a2.752,2.752,0,0,0-2.7-2.233H70.384l-.2-1.171a2.766,2.766,0,0,0-2.3-2.28c-.261-.041-.526-.069-.786-.1A8.393,8.393,0,0,0,66.058,28.2a5.63,5.63,0,0,0-4.08-7.532A11.708,11.708,0,0,0,50.54,11.111c-.138,0-.26.018-.391.022a5.6,5.6,0,0,0-8.562-1.065A9.444,9.444,0,0,0,36.45,8.542a9.553,9.553,0,0,0-7.51,3.7A6.853,6.853,0,0,0,20.181,18.4a5.663,5.663,0,0,0-3.469,5.217,5.6,5.6,0,0,0,.138,1.174,11.073,11.073,0,0,0-1.32,9.494c-.369.051-.746.1-1.1.149a2.768,2.768,0,0,0-2.317,2.279l-.2,1.175H9.253a2.752,2.752,0,0,0-2.7,2.228L.528,71.048a4.128,4.128,0,0,0,4.06,4.915H33.282c1.139,1.88,4.6,2.752,7.865,2.752,3.229,0,6.658-.852,7.83-2.752H77.705a4.128,4.128,0,0,0,4.06-4.913ZM20.873,26.107a2.906,2.906,0,0,1,1.486-5.4,2.854,2.854,0,0,1,2.31,1.167,1.376,1.376,0,0,0,2.21-1.64,5.559,5.559,0,0,0-3.9-2.2,4.183,4.183,0,0,1,4.08-3.312,4.289,4.289,0,0,1,.5.055,9.04,9.04,0,0,0-.289.861,1.376,1.376,0,0,0,2.664.688,6.691,6.691,0,0,1,.714-1.723,6.794,6.794,0,0,1,5.8-3.312,6.683,6.683,0,0,1,3.645,1.1,5.593,5.593,0,0,0-.323,1.8,1.376,1.376,0,1,0,2.752,0,2.894,2.894,0,0,1,5.788,0,1.376,1.376,0,1,0,2.752,0c0-.106-.026-.206-.032-.312a8.931,8.931,0,0,1,8.148,6.888,5.583,5.583,0,0,0-1.78.887,1.376,1.376,0,0,0,1.651,2.2A2.9,2.9,0,0,1,63.3,27.615,2.935,2.935,0,0,1,62,28.821a1.376,1.376,0,0,0,.586,2.614,1.358,1.358,0,0,0,.583-.131,5.651,5.651,0,0,0,1.028-.643,5.877,5.877,0,0,1-1.164,5.868L63,36.564a5.943,5.943,0,0,1-7.017,1.288,5.461,5.461,0,0,1-.666-.416,4.686,4.686,0,0,0,.363-4.843,1.376,1.376,0,1,0-2.459,1.238,2.049,2.049,0,0,1-.663,2.594,2.076,2.076,0,0,1-2.988-.762,1.376,1.376,0,0,0-2.462,1.231A4.77,4.77,0,0,0,51.4,39.547a4.719,4.719,0,0,0,1.727-.34,8.144,8.144,0,0,0,1.613,1.1,8.476,8.476,0,0,0,6.355.588,8.77,8.77,0,0,1-5.666,3.474,1.376,1.376,0,0,0,.216,2.734,1.464,1.464,0,0,0,.219-.017,11.307,11.307,0,0,0,2.441-.713,12.3,12.3,0,0,1,1.026,2.362,1.419,1.419,0,0,1,.072.444,1.485,1.485,0,0,1-.9,1.365,1.558,1.558,0,0,1-1.776-.477,8.782,8.782,0,0,0-4.027-2.676c-2.973-1-4.121-1.886-4.608-2.855A13.208,13.208,0,0,0,50.2,44.1a1.376,1.376,0,0,0-.809-2.631,10.427,10.427,0,0,1-2.375.436,10.212,10.212,0,0,1-4.56-.688,1.376,1.376,0,0,0-1.542.384,5.892,5.892,0,0,1-9.5-6.889,1.38,1.38,0,0,0-2.368-1.419,8.593,8.593,0,0,0-.787,1.771A2.064,2.064,0,0,1,26.3,33.034V33a1.361,1.361,0,0,0-1.376-1.358,1.39,1.39,0,0,0-1.376,1.392,4.788,4.788,0,0,0,4.272,4.748,8.638,8.638,0,0,0,.125,1.376,8.408,8.408,0,0,1-9.513-11.515,5.546,5.546,0,0,0,1.024.816,1.376,1.376,0,0,0,1.42-2.357ZM14.819,37.16c.634-.094,1.289-.176,1.94-.261a11.109,11.109,0,0,0,12.067,4.9,8.619,8.619,0,0,0,13.5,2.288,13.209,13.209,0,0,0,2.872.52c.665,2.521,2.585,4.048,6.621,5.4a6.1,6.1,0,0,1,2.8,1.845,4.382,4.382,0,0,0,3.324,1.562,4.179,4.179,0,0,0,1.633-.333,4.236,4.236,0,0,0,2.572-3.9,4.082,4.082,0,0,0-.209-1.3,15.041,15.041,0,0,0-1.216-2.8A11.6,11.6,0,0,0,65.3,38.088a8.618,8.618,0,0,0,.793-1.109c.461.059.922.111,1.386.188l4.967,29.877a47.23,47.23,0,0,0-29.918,0V49.82a1.376,1.376,0,0,0-2.752,0V67.049a47.238,47.238,0,0,0-29.918-.011ZM3.517,72.7a1.365,1.365,0,0,1-.289-1.128L9.253,40.643h2.2L7.137,66.591a2.761,2.761,0,0,0,3.551,3.074,46.032,46.032,0,0,1,22.726-1.442L33,73.211H4.589A1.386,1.386,0,0,1,3.517,72.7Zm37.63,3.258c-3.315,0-5.216-.98-5.5-1.416l.473-5.71a29.4,29.4,0,0,1,4.428,1.485,1.389,1.389,0,0,0,.594.138,1.368,1.368,0,0,0,.6-.138,29.307,29.307,0,0,1,4.426-1.494l.473,5.718c-.279.438-2.181,1.417-5.5,1.417ZM78.777,72.7a1.386,1.386,0,0,1-1.072.506H49.294l-.413-5a46.045,46.045,0,0,1,22.736,1.454,2.76,2.76,0,0,0,3.539-3.081L70.842,40.644h2.2L79.07,71.575A1.365,1.365,0,0,1,78.777,72.7Z" transform="translate(-0.453 2.465)"/>
        <path id="Shape-2" data-name="Shape" d="M28.6,25.054A1.376,1.376,0,0,0,28.5,27a8.3,8.3,0,0,0,4.41,2.543,4.1,4.1,0,0,1-3.349,1.727,1.376,1.376,0,1,0,0,2.752,6.823,6.823,0,0,0,6.41-4.413A8.3,8.3,0,0,0,42.763,23a1.376,1.376,0,1,0-2.7-.517,5.484,5.484,0,0,1-2.279,3.493,5.616,5.616,0,0,1-7.243-.826,1.376,1.376,0,0,0-1.943-.1Z" transform="translate(7.538 6.158)"/>
        <path id="Shape-3" data-name="Shape" d="M25.081,24.79a1.376,1.376,0,0,0,1.376-1.376,3.577,3.577,0,0,1,3.577-3.577,1.376,1.376,0,1,0,0-2.752,6.336,6.336,0,0,0-6.329,6.329,1.376,1.376,0,0,0,1.376,1.376Z" transform="translate(6.257 4.93)"/>
        <path id="Shape-4" data-name="Shape" d="M33.718,2.752V1.376a1.376,1.376,0,0,0-2.752,0V2.752a1.376,1.376,0,0,0,2.752,0Z" transform="translate(8.352)"/>
        <path id="Shape-5" data-name="Shape" d="M49.959,7.757,48.583,9.133a1.376,1.376,0,1,0,1.946,1.946L51.9,9.7a1.376,1.376,0,1,0-1.946-1.946Z" transform="translate(13.314 2.117)"/>
        <path id="Shape-6" data-name="Shape" d="M15.444,11.481a1.376,1.376,0,0,0,.973-2.349L15.041,7.757A1.376,1.376,0,1,0,13.1,9.7l1.376,1.376a1.376,1.376,0,0,0,.973.4Z" transform="translate(3.074 2.117)"/>
        <path id="Shape-7" data-name="Shape" d="M23.709,7.536a1.4,1.4,0,0,0,.527-.1,1.376,1.376,0,0,0,.744-1.8L23.4,1.819a1.376,1.376,0,1,0-2.541,1.054l1.58,3.814a1.376,1.376,0,0,0,1.271.849Z" transform="translate(5.402 0.272)"/>
        <path id="Shape-8" data-name="Shape" d="M43.439,1.069a1.376,1.376,0,0,0-1.8.744L40.061,5.627a1.376,1.376,0,0,0,.744,1.8,1.4,1.4,0,0,0,.527.1A1.376,1.376,0,0,0,42.6,6.683l1.58-3.814a1.376,1.376,0,0,0-.744-1.8Z" transform="translate(10.946 0.278)"/>
        <path id="Shape-9" data-name="Shape" d="M54.046,19.744a1.376,1.376,0,0,0,.527-.106l3.813-1.58a1.376,1.376,0,0,0-1.053-2.543L53.519,17.1a1.376,1.376,0,0,0,.527,2.649Z" transform="translate(14.614 4.447)"/>
        <path id="Shape-10" data-name="Shape" d="M10.966,19.638A1.376,1.376,0,0,0,12.02,17.1l-3.814-1.58a1.376,1.376,0,1,0-1.053,2.543Z" transform="translate(1.236 4.447)"/>
      </g>
    </g>
  </g>
</svg>
