<svg xmlns="http://www.w3.org/2000/svg" xmlns:xlink="http://www.w3.org/1999/xlink" width="400" height="235" viewBox="0 0 400 235">
  <defs>
    <clipPath id="clip-path">
      <rect id="Rectángulo_293566" data-name="Rectángulo 293566" width="351.714" height="227.281" fill="none"/>
    </clipPath>
    <clipPath id="clip-path-3">
      <rect id="Rectángulo_293558" data-name="Rectángulo 293558" width="348.318" height="198.503" fill="none"/>
    </clipPath>
  </defs>
  <g id="Grupo_874610" data-name="Grupo 874610" transform="translate(-285 -14898)">
    <g id="Grupo_874609" data-name="Grupo 874609" transform="translate(306.545 14905.382)">
      <g id="Grupo_874608" data-name="Grupo 874608" clip-path="url(#clip-path)">
        <g id="Grupo_874607" data-name="Grupo 874607">
          <g id="Grupo_874606" data-name="Grupo 874606" clip-path="url(#clip-path)">
            <g id="Grupo_874605" data-name="Grupo 874605" transform="translate(3.395)" opacity="0.35">
              <g id="Grupo_874604" data-name="Grupo 874604">
                <g id="Grupo_874603" data-name="Grupo 874603" clip-path="url(#clip-path-3)">
                  <path id="Trazado_595376" data-name="Trazado 595376" d="M13.649,159.619,33.259,184.8A35.535,35.535,0,0,0,61.3,198.5H304.648a35.535,35.535,0,0,0,24.536-9.831l4.189-4a68.153,68.153,0,0,0,10.909-85.135,35.532,35.532,0,0,1-5.13-22.252h0a57.5,57.5,0,0,0-44.9-61.936L239.923,3.443a148.678,148.678,0,0,0-120.1,25.622c-6.3,4.645-10.775,7.753-11.468,7.734-1.4-.038-22.343,3.281-42.43,6.526A45.31,45.31,0,0,0,27.849,87.273,35.531,35.531,0,0,1,17,112.223a35.534,35.534,0,0,0-3.354,47.4" transform="translate(-6.15 0)" fill="#ffeeb0"/>
                </g>
              </g>
            </g>
            <path id="Trazado_595377" data-name="Trazado 595377" d="M581.982,91.284a10.311,10.311,0,0,0-6.745-6,13.073,13.073,0,0,0-25.791-2.449,10.485,10.485,0,0,0-1.184-.07,10.292,10.292,0,0,0-9.31,5.9,13.066,13.066,0,0,0-18.775,2.618Z" transform="translate(-233.007 -32.583)" fill="#fff"/>
            <path id="Trazado_595378" data-name="Trazado 595378" d="M74.989,157.017a6.924,6.924,0,0,0-4.53-4.031,8.779,8.779,0,0,0-17.319-1.645,7,7,0,0,0-.8-.047,6.911,6.911,0,0,0-6.252,3.964,8.773,8.773,0,0,0-12.608,1.758Z" transform="translate(-15 -64.756)" fill="#fff"/>
            <path id="Trazado_595379" data-name="Trazado 595379" d="M203.731,48.308a5.021,5.021,0,0,1,3.284-2.923,6.365,6.365,0,0,1,12.557-1.192,5.1,5.1,0,0,1,.576-.034,5.01,5.01,0,0,1,4.533,2.874,6.361,6.361,0,0,1,9.142,1.275Z" transform="translate(-91.259 -17.595)" fill="#fff"/>
            <path id="Trazado_595380" data-name="Trazado 595380" d="M145.052,64.635V59.2a2.019,2.019,0,0,0-2.019-2.019h-5.174A25.905,25.905,0,0,0,133.2,46.428l3.8-3.8a2.02,2.02,0,0,0,0-2.856l-3.843-3.843a2.02,2.02,0,0,0-2.856,0L126.3,39.932a25.967,25.967,0,0,0-10.549-3.9V29.9a2.02,2.02,0,0,0-2.02-2.019H108.3a2.02,2.02,0,0,0-2.019,2.019V36.44a26.034,26.034,0,0,0-9.622,4.412l-4.933-4.928a2.02,2.02,0,0,0-2.855,0l-3.844,3.844a2.021,2.021,0,0,0,0,2.856l5.136,5.136a26.107,26.107,0,0,0-3.729,9.42H79A2.019,2.019,0,0,0,76.977,59.2v5.434A2.019,2.019,0,0,0,79,66.655H86.43a26.083,26.083,0,0,0,3.729,9.413L85.023,81.2a2.02,2.02,0,0,0,0,2.856L88.867,87.9a2.019,2.019,0,0,0,2.855,0l4.933-4.927a25.941,25.941,0,0,0,9.622,4.419v6.54a2.02,2.02,0,0,0,2.019,2.02h5.434a2.02,2.02,0,0,0,2.02-2.02V87.809A25.992,25.992,0,0,0,126.3,83.9l4.006,4.006a2.021,2.021,0,0,0,2.856,0l3.843-3.843a2.019,2.019,0,0,0,0-2.856l-3.8-3.8a26.01,26.01,0,0,0,4.656-10.746h5.174a2.02,2.02,0,0,0,2.019-2.019m-21.125,4.811a13.967,13.967,0,0,1-5.345,4.88,13.539,13.539,0,0,1-3.687,1.3,13.955,13.955,0,0,1-7.229-.464A13.55,13.55,0,0,1,104.61,73.7a13.936,13.936,0,0,1-4.885-5.34,13.612,13.612,0,0,1-1.095-2.824,14,14,0,0,1,0-7.229,13.488,13.488,0,0,1,1.1-2.83,13.992,13.992,0,0,1,4.88-5.34,13.572,13.572,0,0,1,3.057-1.466A13.949,13.949,0,0,1,114.9,48.2a13.576,13.576,0,0,1,3.687,1.3,14.007,14.007,0,0,1,5.345,4.88,13.989,13.989,0,0,1,0,15.063" transform="translate(-34.481 -12.489)" fill="#ea5854"/>
            <path id="Trazado_595381" data-name="Trazado 595381" d="M149.081,57.18h-5.173a25.914,25.914,0,0,0-4.656-10.752l3.8-3.8a2.019,2.019,0,0,0,0-2.856l-3.843-3.843a2.021,2.021,0,0,0-2.856,0l-4.005,4.006a25.976,25.976,0,0,0-10.55-3.9V29.9a2.02,2.02,0,0,0-2.02-2.02h-5.434a2.02,2.02,0,0,0-2.02,2.02v6.54a26.042,26.042,0,0,0-9.622,4.412l-4.933-4.928a2.02,2.02,0,0,0-2.856,0l-3.843,3.844a2.019,2.019,0,0,0,0,2.856l5.136,5.136a26.1,26.1,0,0,0-3.729,9.42h-.691A39.625,39.625,0,0,0,106.54,69.645a13.981,13.981,0,0,1-.767-1.289,13.658,13.658,0,0,1-1.094-2.825,13.981,13.981,0,0,1,0-7.229,13.528,13.528,0,0,1,1.1-2.83,13.991,13.991,0,0,1,4.88-5.339,13.561,13.561,0,0,1,3.057-1.467,13.968,13.968,0,0,1,7.23-.465,13.549,13.549,0,0,1,3.687,1.3,14,14,0,0,1,5.345,4.88,13.99,13.99,0,0,1,0,15.063,13.977,13.977,0,0,1-4.086,4.134,39.207,39.207,0,0,0,17.637-5.216c.144-.563.274-1.132.381-1.709h2.328a39.644,39.644,0,0,0,4.865-3.971V59.2a2.02,2.02,0,0,0-2.019-2.019" transform="translate(-40.53 -12.488)" fill="#f97068"/>
            <rect id="Rectángulo_293559" data-name="Rectángulo 293559" width="44.41" height="28.99" transform="translate(153.217 179.999)" fill="#cbd0e9"/>
            <rect id="Rectángulo_293560" data-name="Rectángulo 293560" width="44.41" height="12.866" transform="translate(153.217 179.999)" fill="#9a9fbb"/>
            <path id="Trazado_595382" data-name="Trazado 595382" d="M337.808,210.175h-212.6v-110a10.638,10.638,0,0,1,10.638-10.638H327.17a10.638,10.638,0,0,1,10.638,10.638Z" transform="translate(-56.085 -40.107)" fill="#cbd0e9"/>
            <path id="Trazado_595539" data-name="Trazado 595539" d="M0,0H197.777V102.446H0Z" transform="translate(76.533 61.976)" fill="#ea3584"/>
            <path id="Trazado_595383" data-name="Trazado 595383" d="M337.808,297.831h-212.6v10.738a10.638,10.638,0,0,0,10.638,10.638H327.17a10.638,10.638,0,0,0,10.638-10.638Z" transform="translate(-56.085 -133.41)" fill="#a2a7c5"/>
            <path id="Trazado_595384" data-name="Trazado 595384" d="M318.517,315.5a4.023,4.023,0,1,0-4.023,4.023,4.023,4.023,0,0,0,4.023-4.023" transform="translate(-139.072 -139.521)" fill="#fff"/>
            <path id="Trazado_595385" data-name="Trazado 595385" d="M330.7,379.55H170.5a2.672,2.672,0,0,1-2.672-2.672,7.814,7.814,0,0,1,7.814-7.814H325.555a7.814,7.814,0,0,1,7.814,7.814,2.672,2.672,0,0,1-2.672,2.672" transform="translate(-75.178 -165.318)" fill="#a2a7c5"/>
            <path id="Trazado_595386" data-name="Trazado 595386" d="M444.4,151.115H402.975a1.21,1.21,0,0,1-1.21-1.21v-8.546a1.21,1.21,0,0,1,1.21-1.21H444.4a1.21,1.21,0,0,1,1.21,1.21v8.546a1.21,1.21,0,0,1-1.21,1.21" transform="translate(-179.966 -62.778)" fill="#ffeeb0"/>
            <path id="Trazado_595387" data-name="Trazado 595387" d="M410.75,149.8l-1.678.768.212-1.833-1.249-1.359,1.809-.365.907-1.608.906,1.608,1.809.365-1.249,1.359.212,1.833Z" transform="translate(-182.774 -65.131)" fill="#ff777a"/>
            <path id="Trazado_595388" data-name="Trazado 595388" d="M425.01,149.8l-1.678.768.212-1.833-1.249-1.359,1.809-.365.906-1.608.906,1.608,1.809.365-1.249,1.359.212,1.833Z" transform="translate(-189.162 -65.131)" fill="#ff777a"/>
            <path id="Trazado_595389" data-name="Trazado 595389" d="M439.27,149.8l-1.678.768.212-1.833-1.249-1.359,1.809-.365.906-1.608.906,1.608,1.809.365-1.249,1.359.212,1.833Z" transform="translate(-195.549 -65.131)" fill="#ff777a"/>
            <path id="Trazado_595390" data-name="Trazado 595390" d="M453.53,149.8l-1.678.768.212-1.833-1.249-1.359,1.809-.365.907-1.608.906,1.608,1.809.365L455,148.734l.212,1.833Z" transform="translate(-201.937 -65.131)" fill="#ff777a"/>
            <path id="Trazado_595391" data-name="Trazado 595391" d="M467.79,149.8l-1.678.768.212-1.833-1.249-1.359,1.809-.365.907-1.608.906,1.608,1.809.365-1.249,1.359.212,1.833Z" transform="translate(-208.325 -65.131)" fill="#f7f7f7"/>
            <path id="Trazado_595392" data-name="Trazado 595392" d="M200.919,143.843H156.754a2.42,2.42,0,0,1-2.42-2.42v-10.4a2.42,2.42,0,0,1,2.42-2.42h44.164a2.42,2.42,0,0,1,2.42,2.42v10.4a2.42,2.42,0,0,1-2.42,2.42" transform="translate(-69.132 -57.606)" fill="#fff"/>
            <path id="Trazado_595393" data-name="Trazado 595393" d="M169.912,138.939a4.273,4.273,0,1,0-4.273,4.273,4.273,4.273,0,0,0,4.273-4.273" transform="translate(-72.282 -60.322)" fill="#ff777a"/>
            <path id="Trazado_595394" data-name="Trazado 595394" d="M163.91,143.561a4.255,4.255,0,0,0,5.737,0,2.881,2.881,0,0,0-1.8-2.445,1.777,1.777,0,1,0-2.145,0,2.881,2.881,0,0,0-1.8,2.445" transform="translate(-73.422 -61.785)" fill="#f7f7f7"/>
            <rect id="Rectángulo_293562" data-name="Rectángulo 293562" width="22.774" height="0.815" transform="translate(100.73 76.387)" fill="#dcf1ff"/>
            <rect id="Rectángulo_293563" data-name="Rectángulo 293563" width="29.594" height="0.815" transform="translate(100.73 78.21)" fill="#dcf1ff"/>
            <rect id="Rectángulo_293564" data-name="Rectángulo 293564" width="29.594" height="0.815" transform="translate(100.73 80.032)" fill="#dcf1ff"/>
            <path id="Trazado_595395" data-name="Trazado 595395" d="M181.072,174.111H155.545a1.21,1.21,0,0,1-1.21-1.21v-4.57a1.21,1.21,0,0,1,1.21-1.21h25.528a1.21,1.21,0,0,1,1.21,1.21v4.57a1.21,1.21,0,0,1-1.21,1.21" transform="translate(-69.133 -74.86)" fill="#ffeeb0"/>
            <path id="Trazado_595396" data-name="Trazado 595396" d="M181.072,192H155.545a1.21,1.21,0,0,1-1.21-1.21v-4.57a1.21,1.21,0,0,1,1.21-1.21h25.528a1.21,1.21,0,0,1,1.21,1.21v4.57a1.21,1.21,0,0,1-1.21,1.21" transform="translate(-69.133 -82.874)" fill="#ffeeb0"/>
            <path id="Trazado_595397" data-name="Trazado 595397" d="M181.072,209.893H155.545a1.21,1.21,0,0,1-1.21-1.21v-4.571a1.21,1.21,0,0,1,1.21-1.21h25.528a1.21,1.21,0,0,1,1.21,1.21v4.571a1.21,1.21,0,0,1-1.21,1.21" transform="translate(-69.133 -90.888)" fill="#dcf1ff"/>
            <path id="Trazado_595398" data-name="Trazado 595398" d="M239.394,192H213.866a1.21,1.21,0,0,1-1.21-1.21v-4.57a1.21,1.21,0,0,1,1.21-1.21h25.528a1.21,1.21,0,0,1,1.21,1.21v4.57a1.21,1.21,0,0,1-1.21,1.21" transform="translate(-95.257 -82.874)" fill="#ff777a"/>
            <path id="Trazado_595399" data-name="Trazado 595399" d="M239.394,209.893H213.866a1.21,1.21,0,0,1-1.21-1.21v-4.571a1.21,1.21,0,0,1,1.21-1.21h25.528a1.21,1.21,0,0,1,1.21,1.21v4.571a1.21,1.21,0,0,1-1.21,1.21" transform="translate(-95.257 -90.888)" fill="#afd9ff"/>
            <path id="Trazado_595400" data-name="Trazado 595400" d="M457.3,198.333H431.769a1.21,1.21,0,0,1-1.21-1.21v-4.571a1.21,1.21,0,0,1,1.21-1.21H457.3a1.21,1.21,0,0,1,1.21,1.21v4.571a1.21,1.21,0,0,1-1.21,1.21" transform="translate(-192.864 -85.71)" fill="#ff777a"/>
            <path id="Trazado_595401" data-name="Trazado 595401" d="M457.3,216.224H431.769a1.21,1.21,0,0,1-1.21-1.21v-4.57a1.21,1.21,0,0,1,1.21-1.21H457.3a1.21,1.21,0,0,1,1.21,1.21v4.57a1.21,1.21,0,0,1-1.21,1.21" transform="translate(-192.864 -93.724)" fill="#ffeeb0"/>
            <path id="Trazado_595402" data-name="Trazado 595402" d="M457.3,234.115H431.769a1.21,1.21,0,0,1-1.21-1.21v-4.57a1.21,1.21,0,0,1,1.21-1.21H457.3a1.21,1.21,0,0,1,1.21,1.21v4.57a1.21,1.21,0,0,1-1.21,1.21" transform="translate(-192.864 -101.738)" fill="#dcf1ff"/>
            <path id="Trazado_595403" data-name="Trazado 595403" d="M251,120.137c-1.261,31.869-16.082,35.1,0,58.086s71.472,14.844,72.413-2.56-10.755-27.891-3.092-49.671S251,120.137,251,120.137" transform="translate(-109.102 -51.298)" fill="#252384"/>
            <path id="Trazado_595404" data-name="Trazado 595404" d="M260.452,130.718c-1.868,14.485-6.838,28.77-4.286,36.622,0,0,.279-8.834,1.934-10.962,0,0-1.651,12.4,3.407,22.456s59.655,8.142,59.655,8.142,1.118-11.015,0-19-3.245-11.083-3.857-15.359c0,0,3.366,6.952,4.676,9.612a19.77,19.77,0,0,1,1.487,6.561s.355-7.092-2.411-12.52-1.107-20.394-.288-26.214-38.511-12.722-42.791-10.389-17.525,11.05-17.525,11.05" transform="translate(-114.427 -53.396)" fill="#0c0835"/>
            <path id="Trazado_595405" data-name="Trazado 595405" d="M250.183,210.4c-18.977,6.428-32.589,8.848-36.522,21.251s-9.446,26.505-9.446,26.505H332.543s-6.353-29.228-13.31-34.068-34.182-12.95-42.5-14.34-26.549.652-26.549.652" transform="translate(-91.476 -93.739)" fill="#fff"/>
            <path id="Trazado_595406" data-name="Trazado 595406" d="M381.246,262.215s.484,11.636-1.216,19.662h4.35Z" transform="translate(-170.23 -117.456)" fill="#dcedff"/>
            <path id="Trazado_595407" data-name="Trazado 595407" d="M257.973,270.521s-.372,8.922.932,15.077H255.57Z" transform="translate(-114.48 -121.177)" fill="#dcedff"/>
            <path id="Trazado_595408" data-name="Trazado 595408" d="M219.712,235.666c1.663-4.384,7.03-9.53,7.035-9.536-6.513,2.995-11.072,6.726-13.085,13.078-3.932,12.4-9.445,26.506-9.445,26.506H214.57c-.454-13.209,3.479-25.662,5.142-30.048" transform="translate(-91.477 -101.292)" fill="#dcedff"/>
            <path id="Trazado_595409" data-name="Trazado 595409" d="M308.69,230.946s-9.226-.605-14.822-4.84-4.84-8.47-4.84-8.47a33.211,33.211,0,0,1-5.6,0c-1.513-.3.659-16.062,9.48-16.35s27.3,3.371,29.567,3.493,9.753,6.83,7.864,15.329c-.3,1.361-3.956-2.472-5.62-.506s-3.025,10.285-16.032,11.344" transform="translate(-126.761 -90.157)" fill="#0058c6"/>
            <path id="Trazado_595410" data-name="Trazado 595410" d="M310.775,229.317A46.52,46.52,0,0,1,294.7,207.286c-.79-2.309.544-3.6,2.994-3.993Z" transform="translate(-131.907 -91.063)" fill="#0e35af"/>
            <path id="Trazado_595411" data-name="Trazado 595411" d="M330.393,234.223c6.489-4.153,12.463-14.362,14.279-17.765s1.887-6.607-3.67-7.2-10.609,24.963-10.609,24.963" transform="translate(-147.996 -93.731)" fill="#0e35af"/>
            <path id="Trazado_595412" data-name="Trazado 595412" d="M327.214,169.912c-1.672,13.493-2.629,20.707,1.884,26.3,0,0-8.041,16.334-13.789,19.662,0,0-13.763-9.831-17.544-25.561a19.189,19.189,0,0,0,2.571-8.622,130.577,130.577,0,0,0-.454-14.066Z" transform="translate(-133.38 -75.087)" fill="#ffc5c7"/>
            <path id="Trazado_595413" data-name="Trazado 595413" d="M328.3,234.661c-8.393,10.163-17.042,1.586-20.256-2.772a52.653,52.653,0,0,0,11.871,12.773c2.645-1.532,5.775-5.819,8.385-10" transform="translate(-137.984 -103.872)" fill="#fe8a8b"/>
            <path id="Trazado_595414" data-name="Trazado 595414" d="M300.442,181.856a19.54,19.54,0,0,1-2.439,8.4c6.227-1.105,19.584-3.666,27.958-6.651.132-3.7.688-8.109,1.36-13.535l-16.674-1.393L300,167.989a126.893,126.893,0,0,1,.437,13.867" transform="translate(-133.487 -75.249)" fill="#fe8a8b"/>
            <path id="Trazado_595415" data-name="Trazado 595415" d="M381.328,86.428c.535-8.509.675-16.252-5.966-26.176s-5.237,16.264-5.129,16.564,5.887,11.342,5.887,11.342Z" transform="translate(-165.754 -25.984)" fill="#ffa6a4"/>
            <path id="Trazado_595416" data-name="Trazado 595416" d="M383.4,127.061c-.843,4.893-.272,8.935,2.074,9.339s4.932-3.235,5.775-8.129-.375-9.189-2.721-9.593-4.285,3.489-5.128,8.383" transform="translate(-171.575 -53.147)" fill="#f97068"/>
            <path id="Trazado_595417" data-name="Trazado 595417" d="M389.189,139.319l-1.477.6-1.448,4.011s-.245.5-.547,1.137a2.064,2.064,0,0,0,.96.45c2.079.358,4.344-2.462,5.42-6.514-1.866.97-2.907.315-2.907.315" transform="translate(-172.777 -62.265)" fill="#cb3034"/>
            <path id="Trazado_595418" data-name="Trazado 595418" d="M373.571,106.567c1.82-.337,6.983,1.031,7.569,3.7,1.333,6.064-.881,20.131-4.944,23.6-1.481,1.265-5.6,1.008-7.065.559-3.713-1.14-3.725-7.076-2.368-14.952s4.282-12.44,6.808-12.908" transform="translate(-163.917 -47.713)" fill="#f97068"/>
            <path id="Trazado_595419" data-name="Trazado 595419" d="M380.405,139.574c-1.889,1.362-2.87,0-2.87,0-1.281,2.724-3.635,2.721-6.607,3.124l-1.667-.882s-1.628,1.2-3.155,2.281c.275,2.711,1.2,4.555,3.1,5.138,1.463.449,5.585.707,7.066-.559,1.78-1.522,3.2-5.077,4.132-9.1" transform="translate(-163.993 -62.521)" fill="#cb3034"/>
            <path id="Trazado_595420" data-name="Trazado 595420" d="M384.735,110.265c-.586-2.666-5.749-4.035-7.569-3.7a2.714,2.714,0,0,0-.455.129c3.336-.247,5.083,2.088,5.466,4.763s0,14.78-3.927,20.119a5.7,5.7,0,0,1-4.287,3.094c1.854.243,4.662.194,5.829-.8,4.063-3.472,6.276-17.54,4.944-23.6" transform="translate(-167.512 -47.713)" fill="#ffa6a4"/>
            <path id="Trazado_595421" data-name="Trazado 595421" d="M383.924,139.574c-1.889,1.362-2.87,0-2.87,0v0a19.339,19.339,0,0,1-2.8,6.81,5.7,5.7,0,0,1-4.286,3.093c1.853.244,4.661.195,5.829-.8,1.78-1.521,3.2-5.077,4.132-9.1" transform="translate(-167.512 -62.521)" fill="#f97068"/>
            <path id="Trazado_595422" data-name="Trazado 595422" d="M376.586,125.42c-.736,4.272-2.26,7.576-3.4,7.379s-1.474-3.82-.739-8.093,2.261-7.576,3.4-7.379,1.475,3.82.739,8.093" transform="translate(-166.656 -52.552)" fill="#cb3034"/>
            <path id="Trazado_595423" data-name="Trazado 595423" d="M273.887,116.926q.077.186.158.373a43.059,43.059,0,0,0,8.5,12.1c4.853,4.944,11.438,9.242,18.419,10.178,7.5,1.006,14.387-3.168,19.407-8.522a19.306,19.306,0,0,0,4.853-8.81c.791-3.518.362-7.29.937-10.885a32.319,32.319,0,0,1,1.739-5.6,41.142,41.142,0,0,0,2.318-18.078c-.286-2.53-.7-6.156-2.068-8.35-1.574-2.522-5.215-4.506-7.673-6.043-7.876-4.929-18.317-6.733-27.267-3.947C284.06,72.191,276.6,79.526,272.746,88.2c-1.835,4.128-2.9,8.192-2.01,12.641,1.11,5.544.942,10.744,3.152,16.087" transform="translate(-121.129 -30.473)" fill="#ffc5c7"/>
            <path id="Trazado_595424" data-name="Trazado 595424" d="M273.38,98.853s14.217,3.907,26.771,0S316.965,87.081,318.011,83c0,0,10.254,8.04,12.3,19.9,0,0,.705-21.061-5.839-23.682s-20.242-6.05-21.755-4.689S275.8,90.409,275.8,90.409Z" transform="translate(-122.457 -33.245)" fill="#fe8a8b"/>
            <path id="Trazado_595425" data-name="Trazado 595425" d="M299.591,117.524A28.3,28.3,0,0,1,302.8,116.2a17.655,17.655,0,0,1,3.435-.786,9.6,9.6,0,0,1,3.581-.009A6.349,6.349,0,0,1,313.028,117l-.057.156a16.113,16.113,0,0,1-1.753-.022l-1.654-.09c-1.08-.041-2.142-.3-3.248-.306a21.909,21.909,0,0,0-3.324.269c-1.118.155-2.227.415-3.346.671Z" transform="translate(-134.198 -51.62)" fill="#0c0835"/>
            <path id="Trazado_595426" data-name="Trazado 595426" d="M355.713,117.981a12.805,12.805,0,0,0-3.278-.918,17.5,17.5,0,0,0-3.351-.168c-1.12.051-2.2.354-3.3.42a32.259,32.259,0,0,1-3.46.147l-.057-.155a7.907,7.907,0,0,1,3.237-1.624,10.406,10.406,0,0,1,3.6-.112,15.011,15.011,0,0,1,3.518.687,11.766,11.766,0,0,1,3.168,1.58Z" transform="translate(-153.315 -51.723)" fill="#0c0835"/>
            <path id="Trazado_595427" data-name="Trazado 595427" d="M312.32,129.114c0-1.219-.484-2.208-1.08-2.208s-1.08.989-1.08,2.208.484,2.208,1.08,2.208,1.08-.989,1.08-2.208" transform="translate(-138.932 -56.846)" fill="#0c0835"/>
            <path id="Trazado_595428" data-name="Trazado 595428" d="M353.484,129.305c0-1.219-.465-2.208-1.038-2.208s-1.038.989-1.038,2.208.465,2.208,1.038,2.208,1.038-.989,1.038-2.208" transform="translate(-157.409 -56.932)" fill="#0c0835"/>
            <path id="Trazado_595429" data-name="Trazado 595429" d="M334.421,150.145a4.13,4.13,0,0,1-1.6,2.047,2.812,2.812,0,0,1-2.532.268c-1.313-.555-1.674-2.087.112-1.741a6.149,6.149,0,0,0,2.071.119c.365-.051,1.795-.284,1.952-.693" transform="translate(-147.451 -67.256)" fill="#fe8a8b"/>
            <path id="Trazado_595430" data-name="Trazado 595430" d="M315.106,161.017a164.089,164.089,0,0,0,18.874.67c-1.449,4.8-5.012,9.51-9.894,9.338-5.009-.178-7.92-5-8.98-10.008" transform="translate(-141.148 -72.126)" fill="#c31f2a"/>
            <path id="Trazado_595431" data-name="Trazado 595431" d="M332.5,173.38c-3.769-3.174-6.49-.459-6.49-.459a4.931,4.931,0,0,0-5.322-.158,8.164,8.164,0,0,0,4.354,2.885c.546.074,1.113.15,1.683.221a8.067,8.067,0,0,0,5.776-2.489" transform="translate(-143.648 -76.974)" fill="#fb8384"/>
            <path id="Trazado_595432" data-name="Trazado 595432" d="M317.226,161.254a11.615,11.615,0,0,0,.476,2.371,26.127,26.127,0,0,0,15.326.791,25.892,25.892,0,0,0,.417-2.58c-4.062.062-11.854-.153-16.219-.582" transform="translate(-142.098 -72.232)" fill="#fff"/>
            <path id="Trazado_595433" data-name="Trazado 595433" d="M362.684,167.66a4.993,4.993,0,0,1-1.073-.027c-3.434-.465-5.276-.722-5.276-.722l.211-1.506s1.838.256,5.27.721c3.163.432,7.22-4.6,8.29-10.505a.767.767,0,0,1,.853-.634.757.757,0,0,1,.649.873c-1.111,6.237-5.2,11.5-8.925,11.8" transform="translate(-159.616 -69.422)" fill="#ffa6a4"/>
            <path id="Trazado_595434" data-name="Trazado 595434" d="M371.43,155.455a.718.718,0,0,1-.01.164c-1.111,6.237-5.2,11.5-8.925,11.8a4.987,4.987,0,0,1-1.072-.027c-2.712-.367-4.425-.6-5.028-.687l-.059.419s1.841.257,5.276.722a4.985,4.985,0,0,0,1.072.026c3.721-.3,7.814-5.562,8.926-11.8a.735.735,0,0,0-.179-.618" transform="translate(-159.616 -69.634)" fill="#f97068"/>
            <path id="Trazado_595435" data-name="Trazado 595435" d="M352.708,174.742l-3.014-.412a1.9,1.9,0,0,1,.516-3.767l3.014.412a1.9,1.9,0,0,1-.516,3.767" transform="translate(-155.905 -76.393)" fill="#252384"/>
            <path id="Trazado_595436" data-name="Trazado 595436" d="M354.409,172.514a1.9,1.9,0,0,1-2.155,2l-2.637-.361a1.893,1.893,0,0,1-1.515-1.222c-.01.046-.026.09-.033.138a1.9,1.9,0,0,0,1.626,2.141l3.014.412a1.895,1.895,0,0,0,1.7-3.11" transform="translate(-155.905 -77.276)" fill="#261b60"/>
            <path id="Trazado_595437" data-name="Trazado 595437" d="M342.982,62.766s15.125,6.353,15.276,27.074c0,0,12.1-13.31,4.991-33.275s-27.679-19.208-27.679-19.208Z" transform="translate(-150.315 -16.731)" fill="#252384"/>
            <path id="Trazado_595438" data-name="Trazado 595438" d="M348.47,80.619s14.752,6.21,15.254,26.339c0-.116,0-.227,0-.346-.247-20.309-7.288-25.7-14.245-29.4L347.821,78.4Z" transform="translate(-155.802 -34.585)" fill="#261b60"/>
            <path id="Trazado_595439" data-name="Trazado 595439" d="M264.3,79.533S306,81.953,309.324,60.779s-7.361-26.314-12.6-26.821-15.46-1.722-24.2,6.756-18.5,13.612-17.41,41.039Z" transform="translate(-114.236 -15.046)" fill="#252384"/>
            <path id="Trazado_595440" data-name="Trazado 595440" d="M270.261,94.456c1.818-1.012,3.633-2.05,5.388-3.194q2.648-1.69,5.2-3.555a109.453,109.453,0,0,0,9.793-8A110.026,110.026,0,0,1,281.6,88.65q-2.382,2.12-4.9,4.092c-1.669,1.33-3.416,2.567-5.185,3.784Z" transform="translate(-121.06 -35.705)" fill="#0c0835"/>
            <path id="Trazado_595441" data-name="Trazado 595441" d="M294.067,49.755c-9.88,5.344-20.744,18.2-20.954,28.844a8.816,8.816,0,0,1-1.981-9.437c2.2-5.559,8.665-11.718,12.249-14.365s10.686-5.041,10.686-5.041" transform="translate(-121.164 -22.287)" fill="#0c0835"/>
            <path id="Trazado_595442" data-name="Trazado 595442" d="M266.785,74.981c-1.323-3.43-.416-15.136,0-18.463a31.186,31.186,0,0,1,1.777-6.485c.132-.624-.155-.812-.155-.812,6.879-10.586,16.641-12.1,26.539-15.2l-.569-.281c-5.595-.444-14.28-.379-21.858,6.971-8.74,8.477-18.5,13.612-17.41,41.039l9.192-2.218s14.259.825,26.765-2.723c-13.906,2.732-22.959,1.6-24.282-1.83" transform="translate(-114.236 -15.047)" fill="#0c0835"/>
            <path id="Trazado_595443" data-name="Trazado 595443" d="M308.861,82.717c-4.086,6.379-9.143,12.331-28.449,15.1-12.86,1.847-14.893-.792-14.893-.792s22.446-1.5,31.515-6.1,11.827-8.216,11.827-8.216" transform="translate(-118.936 -37.052)" fill="#0c0835"/>
            <path id="Trazado_595444" data-name="Trazado 595444" d="M272.357,49.608c2.5-7.31,15.024-15.565,29.544-15.767a30.145,30.145,0,0,0-16.134,1.412c-8.671,3.227-14.913,8.49-18.347,14.429s4.936-.073,4.936-.073" transform="translate(-119.418 -14.931)" fill="#ffa6a4"/>
            <path id="Trazado_595445" data-name="Trazado 595445" d="M285.419,37.638a29.146,29.146,0,0,0-12.352,9.907c-.4.05-4.023.724-4.079.735-.413.6-.8,1.2-1.157,1.809-.123.214-.227.407-.321.591a12.174,12.174,0,0,1,3.241.041,2.042,2.042,0,0,0,1.106-.083c.544-.36.911-.623.911-.623,2.5-7.31,15.024-15.565,29.544-15.767-4.887-.062-8.952.214-16.893,3.39" transform="translate(-119.828 -15.338)" fill="#f97068"/>
            <path id="Trazado_595446" data-name="Trazado 595446" d="M267.916,87.72c-.684-13.581,1.235-22.844,2.949-25.365s-5.32-1.424-6.732.555c-.915,1.282-4.009,12.085-2.873,24.9s6.656-.094,6.656-.094" transform="translate(-116.918 -27.275)" fill="#ffa6a4"/>
            <path id="Trazado_595447" data-name="Trazado 595447" d="M269.681,60.893c.6.229.78.532.352,1.187a44.37,44.37,0,0,0-2.647,11.47c-.453,5.067-.227,10.385-.327,10.99s-4.535,1.722-5.872,1.114c.038.714.087,1.434.152,2.162.084.947.192,1.749.32,2.431,1.347.152,3.217.219,4.924.245a27.28,27.28,0,0,0,1.412-2.77c-.683-13.581,1.235-22.844,2.949-25.365.693-1.019-.045-1.447-1.262-1.464" transform="translate(-116.995 -27.276)" fill="#f97068"/>
            <path id="Trazado_595448" data-name="Trazado 595448" d="M264.131,108.176c-1.776-.523-7.052.307-7.91,2.9-1.95,5.895-1.2,20.114,2.488,23.987,1.342,1.411,5.469,1.579,6.97,1.283,3.81-.751,4.434-6.655,3.895-14.628s-2.978-12.816-5.443-13.541" transform="translate(-114.303 -48.39)" fill="#f97068"/>
            <path id="Trazado_595449" data-name="Trazado 595449" d="M259.467,144.33c1.342,1.411,5.469,1.579,6.97,1.283,2.19-.432,3.323-2.572,3.793-5.821-1.833,1.572-6.518,1.069-8.886,0,0,0,.388-7.079-.866-11.071a87.349,87.349,0,0,0-3.607,9.543c.586,2.651,1.449,4.862,2.6,6.069" transform="translate(-115.062 -57.658)" fill="#cb3034"/>
            <path id="Trazado_595450" data-name="Trazado 595450" d="M262.654,123.358c.481,7.122-1.2,13.035-3.756,13.208s-5.018-5.46-5.5-12.582,1.2-13.035,3.756-13.208,5.018,5.46,5.5,12.582" transform="translate(-113.47 -49.619)" fill="#ffa6a4"/>
            <path id="Trazado_595451" data-name="Trazado 595451" d="M260.654,139s-3.265.407-4.526,5.349c1.055,3.043,2.524,4.964,4.029,4.862,1.3-.088,2.372-1.666,3.05-4.128a11,11,0,0,1-2.2-.686s.287-1.152-.357-5.4" transform="translate(-114.729 -62.263)" fill="#f97068"/>
            <path id="Trazado_595452" data-name="Trazado 595452" d="M257.722,127.312c.36,5.334-.6,9.591-2.979,9.752s-4.593-4.033-4.954-9.367,1.272-9.788,3.648-9.949,3.924,4.23,4.285,9.564" transform="translate(-111.868 -52.742)" fill="#f97068"/>
            <path id="Trazado_595453" data-name="Trazado 595453" d="M255.23,144.739a3.807,3.807,0,0,1-3.075-1.722c.942,2.252,2.277,3.662,3.67,3.569,2.043-.138,3.039-3.31,3.05-7.587-.507,3.366-1.711,5.61-3.644,5.741" transform="translate(-112.949 -62.263)" fill="#cb3034"/>
            <path id="Trazado_595454" data-name="Trazado 595454" d="M466.375,185.257a3.8,3.8,0,0,0,1.573,3.731,18.632,18.632,0,0,0,6.05,1.764c2.118.05,5.243-4.437,4.134-4.941s-8.873-1.059-9.731-1.059a6.455,6.455,0,0,0-2.027.5" transform="translate(-208.864 -82.758)" fill="#ffc5c7"/>
            <path id="Trazado_595455" data-name="Trazado 595455" d="M476.654,178.529c.529,5.445,2.42,9.68,3.1,9.755s7.437-2.193,9.315-3.025.433-13.611-.715-13.386-3.805,2.68-5.938,3.858-5.762,2.8-5.762,2.8" transform="translate(-213.512 -76.987)" fill="#fff"/>
            <path id="Trazado_595456" data-name="Trazado 595456" d="M488.629,188.032c-.715,1.09-6.154,3.852-9.112,4.859.6,1.608,1.2,2.6,1.52,2.633.583.065,5.62-1.589,8.234-2.588a37.433,37.433,0,0,0-.643-4.9" transform="translate(-214.794 -84.227)" fill="#dcedff"/>
            <path id="Trazado_595457" data-name="Trazado 595457" d="M466.458,166.426c-.209,2.16,1.714,2.471,4.084,1.916s6.554-5.8,8.419-8.167,5.332-6.592,6.013-6.97a6.853,6.853,0,0,0,3.63-2.709c1.437-2.131.076-6.593-.492-7.122s-5.886,1.238-6.554,2.132.013,5.7-.214,6.3a38.763,38.763,0,0,1-7.021,6.756c-2.017,1.21-7.713,6.3-7.865,7.865" transform="translate(-208.937 -64.179)" fill="#ffc5c7"/>
            <path id="Trazado_595458" data-name="Trazado 595458" d="M498.021,148.723c.633-.3.88-1.676.479-1.434a4.2,4.2,0,0,1-1.981.224,7.521,7.521,0,0,1-1.275-.091,8.1,8.1,0,0,0-.167,1.083s2.312.521,2.945.218" transform="translate(-221.763 -65.964)" fill="#fe8a8b"/>
            <path id="Trazado_595459" data-name="Trazado 595459" d="M493.236,149.494c-.32-.688-.568-1.21-.568-1.21l-3.82,3.437a20.22,20.22,0,0,0-2.053-1.619l-.355.56a10.759,10.759,0,0,1,.834,3.549s.5.605.806.655c0,0-4.26,6.05-6.932,9.025-2.656,2.957-4.515,5.515-5.725,6.337,2.42-1.339,5.9-5.7,7.561-7.809,1.865-2.369,5.331-6.592,6.012-6.97a6.85,6.85,0,0,0,3.63-2.71,5.253,5.253,0,0,0,.61-3.244" transform="translate(-212.96 -66.422)" fill="#fe8a8b"/>
            <path id="Trazado_595460" data-name="Trazado 595460" d="M494.182,144.316c.018.353,3.342,3.428,3.688,3.781a.528.528,0,0,0,.381,0c1-.829,5.669-8.311,5.762-8.581.087-.252-2.461-2.825-3.246-3.514a.756.756,0,0,0-.665.077c-.934,1.248-5.943,7.782-5.92,8.238" transform="translate(-221.363 -60.899)" fill="#0c0835"/>
            <path id="Trazado_595461" data-name="Trazado 595461" d="M494.873,144.339c.018.353,3.342,3.428,3.688,3.781s6.043-8.289,6.143-8.581c.087-.252-2.774-2.784-3.559-3.472a.239.239,0,0,0-.352.035c-.934,1.248-5.943,7.782-5.92,8.238" transform="translate(-221.672 -60.922)" fill="#252384"/>
            <path id="Trazado_595462" data-name="Trazado 595462" d="M496.022,143.859c.017.33,3.126,3.207,3.45,3.538s5.653-7.755,5.747-8.028c.081-.236-2.6-2.6-3.33-3.249a.223.223,0,0,0-.329.033c-.873,1.168-5.56,7.28-5.538,7.706" transform="translate(-222.187 -60.947)" fill="#57aff7"/>
            <path id="Trazado_595463" data-name="Trazado 595463" d="M499.222,140.413a4.377,4.377,0,0,0,1.418-1.831c.088-.378.076-.718-.214-.794s-1.285,1.109-1.764,1.462-1.084,1.084-.895,1.576,1.21.3,1.323.227.133-.639.133-.639" transform="translate(-222.953 -61.719)" fill="#ffc5c7"/>
            <path id="Trazado_595464" data-name="Trazado 595464" d="M501.164,137.971c.143.43-1.118,2.155-2.149,2.652l.34.423s.17-.037.39-.088a3.056,3.056,0,0,0,.054-.461,4.377,4.377,0,0,0,1.418-1.831.82.82,0,0,0-.051-.694" transform="translate(-223.528 -61.802)" fill="#fe8a8b"/>
            <path id="Trazado_595465" data-name="Trazado 595465" d="M496.764,144.226a11.273,11.273,0,0,1,2.249-.656c.529-.208.68-1,.34-1.135a9.412,9.412,0,0,0-3.063.454c-.567.246-.912,1.378-.912,1.378Z" transform="translate(-221.899 -63.789)" fill="#ffc5c7"/>
            <path id="Trazado_595466" data-name="Trazado 595466" d="M497.769,144.15a1.193,1.193,0,0,1-.718,0c0,.209-.2.313-.449.61l.711-.021a11.268,11.268,0,0,1,2.249-.656.848.848,0,0,0,.473-.532c-.26.436-1.726.5-2.265.6" transform="translate(-222.447 -64.302)" fill="#fe8a8b"/>
            <path id="Trazado_595467" data-name="Trazado 595467" d="M493.823,146.59c.454.7,2.949.4,3.454.32s.84-.391.812-.708c-.056-.64-3.333-.527-3.611-.426s-.655.814-.655.814" transform="translate(-221.202 -65.263)" fill="#ffc5c7"/>
            <path id="Trazado_595468" data-name="Trazado 595468" d="M498.743,146.89a3.889,3.889,0,0,1-2.081.6,8.344,8.344,0,0,1-1.313.023,10.247,10.247,0,0,0,2.61-.068.9.9,0,0,0,.783-.554" transform="translate(-221.886 -65.798)" fill="#fe8a8b"/>
            <path id="Trazado_595469" data-name="Trazado 595469" d="M515.9,401.317c.151,1.323.681,1.815,2.609,2.08s4.764.227,6.239-1.21a9,9,0,0,0,2.5-3.819,7.281,7.281,0,0,1,.3-1.891c.227-.378,1.426-.614,1.279-2.723s-12.925,7.563-12.925,7.563" transform="translate(-231.091 -176.243)" fill="#afafaf"/>
            <path id="Trazado_595470" data-name="Trazado 595470" d="M528.117,383.422c-.217-2.928-7.156-1.8-7.194-.626s-1.664,6.088-3.261,7.58v0a4.3,4.3,0,0,0-2.034,5.613c.716,1.936,6.088,1.467,7.373.756a8.648,8.648,0,0,0,3.1-3.775h0a8.81,8.81,0,0,1,1.061-2.35c.643-.794.983-.643,1.286-1.588s-.113-2.685-.331-5.613" transform="translate(-230.821 -170.918)" fill="#636363"/>
            <path id="Trazado_595471" data-name="Trazado 595471" d="M526.349,384.235c-.668,3.02-2.107,4.986-1.686,5.337s3.02.773,3.511,0a16.73,16.73,0,0,0,1.335-5.337c0-1.3-3.16,0-3.16,0" transform="translate(-234.983 -171.855)" fill="#afafaf"/>
            <path id="Trazado_595472" data-name="Trazado 595472" d="M481.784,381.955a9.061,9.061,0,0,0-.923-5.436c-1.113-2.193-1.059-2.382-2.345-2.609s-5.974-.87-5.974-.87a7.768,7.768,0,0,1-3.554,3.705c-2.76,1.513-3.327,2.042-5.1,2.042s-5.706.209-4.16,4.916a12.028,12.028,0,0,0,4.374.517,30.445,30.445,0,0,0,7.436-.706,4.774,4.774,0,0,1,3-.378,12.669,12.669,0,0,0,4.159,0,11.861,11.861,0,0,0,3.091-1.181" transform="translate(-205.77 -167.099)" fill="#636363"/>
            <path id="Trazado_595473" data-name="Trazado 595473" d="M472.941,377.983a.308.308,0,0,0-.156.465c.372.577,1.146,1.211,1.558,1.067a29.274,29.274,0,0,0,4.084-3.025c.58-.5,1.135-1.462.807-1.916s-1.185-.983-1.538-.705a20.473,20.473,0,0,1-2.47,2.8,7.282,7.282,0,0,1-2.284,1.319" transform="translate(-211.755 -167.436)" fill="#afafaf"/>
            <path id="Trazado_595474" data-name="Trazado 595474" d="M460.01,390.909a58.626,58.626,0,0,0,11.7-.681c1.457-.378,2.252-1.021,3.651-.491s5.709-.3,6.39-.568.492.8,0,.911-3.592.766-5.18.91-1.664-1.027-3.555-.157-4.991.87-6.352.87-5.256.3-5.974,0-.681-.794-.681-.794" transform="translate(-206.056 -174.305)" fill="#afafaf"/>
            <path id="Trazado_595475" data-name="Trazado 595475" d="M505.085,321.62c2.121.579,8.167.378,8.47-.454s-.831-13.915-.831-18.074-1.437-14.445-1.21-15.579a8.888,8.888,0,0,0-.151-3.933c-.378-1.966-.527-24.754-2.345-40.106l-23.595,2.218s-3.781,14.52-4.084,24.8.05,15.226,0,16.738.643,3.025.8,4.235-.045,10.184-.246,13.411-.349,9.175-.679,9.881,7.132,2.118,8.14,1.613,1.009-.6,1.009-5.848.705-17.848.705-20.066.706-2.622.4-3.731.807-6.151,1.916-9.881,2.42-7.764,2.42-7.764,3.126,20.166,4.134,21.376.807,4.336,1.412,6.151a125.62,125.62,0,0,1,2.42,17.847c0,3.731-.907,6.554,1.311,7.159" transform="translate(-215.55 -109.062)" fill="#0e35af"/>
            <path id="Trazado_595476" data-name="Trazado 595476" d="M517.551,321.916a14.617,14.617,0,0,0,2.6-.317c.251-1.076.52-2.431.8-4-.232-4.4-.781-11.61-.781-14.5,0-4.159-1.436-14.444-1.21-15.579a8.89,8.89,0,0,0-.151-3.932c-.378-1.966-.527-24.755-2.344-40.106l-4.748.446-13.894,5.225a106,106,0,0,0,14.486-.861s1.086,12.292,1.123,14.106,1.348,18.762,1.348,20.321.605,2.009.706,3.7a2.338,2.338,0,0,1-1.21,2.3s1.815.605,1.815.908.378,5.168.378,7.058.824,4.462,1.055,10.134.987,12.4.987,13.159c0,.738,0,1.507-.954,1.949" transform="translate(-222.992 -109.062)" fill="#001e7f"/>
            <path id="Trazado_595477" data-name="Trazado 595477" d="M497.838,268.113l-5.067-1.286,3.932,1.891-3.176.076,2.434.869s.759,6.319-.82,10.55c-1.731,4.638-2.521,16.486-3.05,17.393s-1.891.681-1.891.681,1.437.151,1.513,1.21-.3,4.008-.3,7.134a95.525,95.525,0,0,1-.6,10.193c-.3,2.109-.443,7.269-.605,8.64s-2.221,1.051-2.221,1.051h0a26.477,26.477,0,0,0,2.965.406c3.115.293,2.468-.86,2.463-6.989.077-5.711.7-16.927.7-19.008,0-2.219.706-2.622.4-3.731s.807-6.151,1.916-9.882,2.42-7.764,2.42-7.764-.55-5.157-.626-6.367-.378-5.067-.378-5.067" transform="translate(-218.584 -119.522)" fill="#001e7f"/>
            <path id="Trazado_595478" data-name="Trazado 595478" d="M500.911,163.548c-5.445,2.672-6.3,2.569-8.642,3.78s-2.6,13.966-2.6,15.933-.025,9.78-.479,11.9-2.193,9.982-2.8,11.192-1.74,3.252-.3,4.462,4.6,2.042,11.641,1.588,14.9-4.765,15.282-5.369-2.5-11.722-2.5-13.84a27.626,27.626,0,0,0-.454-4.689c-.151-.983,2.413-5.6,2.984-8.545s4.367-11.085,3.868-12.576-5.96-3.151-9.622-5.046a5.365,5.365,0,0,0-6.38,1.211" transform="translate(-217.425 -72.442)" fill="#fff"/>
            <path id="Trazado_595479" data-name="Trazado 595479" d="M511.184,168.883a3.935,3.935,0,0,0,.075.956,2.275,2.275,0,0,0,.333.865,1.745,1.745,0,0,0,1.519.807,5.056,5.056,0,0,0,1.831-.366c.6-.216,1.175-.507,1.763-.787-.262.191-.535.368-.806.551-.289.149-.569.321-.87.452a4.469,4.469,0,0,1-1.93.453l-.256-.012-.253-.057a1.829,1.829,0,0,1-.486-.184,1.788,1.788,0,0,1-.713-.738,2.794,2.794,0,0,1-.208-1.938" transform="translate(-228.943 -75.649)" fill="#dcedff"/>
            <path id="Trazado_595480" data-name="Trazado 595480" d="M526.588,218.817c.378-.605-2.5-11.722-2.5-13.839a27.63,27.63,0,0,0-.453-4.689c-.151-.983,2.413-5.6,2.983-8.546a16.722,16.722,0,0,1,.552-1.947l-2.239-1.763c-1.67,3.872-3.031,10.679-4.468,12.342s-4.764,2.345-4.764,2.345a15.515,15.515,0,0,0,4.616.454,52.13,52.13,0,0,1,.875,8.924c-.2,2.95-.8,7.411-.875,8.017-.029.226-.036,1.013-.034,1.911a24.639,24.639,0,0,0,6.3-3.207" transform="translate(-231.003 -84.227)" fill="#dcedff"/>
            <path id="Trazado_595481" data-name="Trazado 595481" d="M519.055,153.1c-.176,3.156-.125,5.323.531,5.929,0,0-1.584,5.237-6.353,4.79-1.614-.151-1.26-2.874-.353-4.134l-.2-3.87Z" transform="translate(-229.394 -68.58)" fill="#ffc5c7"/>
            <path id="Trazado_595482" data-name="Trazado 595482" d="M519.72,158.475h0a17.165,17.165,0,0,1-.205-5.373l-6.376,2.713.129,2.482c1.059.492,6.452.177,6.452.177" transform="translate(-229.854 -68.58)" fill="#fe8a8b"/>
            <path id="Trazado_595483" data-name="Trazado 595483" d="M533.415,199.333c.958,1.462,2.118,5.092,1.462,6.756s-6.705,9.075-9.428,11.848-3.328,3.227-3.832,4.134a48.346,48.346,0,0,1-3.529,5.218,3.048,3.048,0,0,1-1.626.643,2.869,2.869,0,0,1-2.262.681,9.1,9.1,0,0,1-2.351,1.1s-.378.643-.718.7-.718-.624,0-1.985,1.777-1.928,2-2.8a19.159,19.159,0,0,1,1.143-2.644s-1.9,1.812-3,1.926-1.2-.529-.56-1.059a15.4,15.4,0,0,0,2.262-2.344,4.557,4.557,0,0,1,3.138-1.891,8.55,8.55,0,0,0,2.76-.605A26.373,26.373,0,0,0,522.7,213.4c1.439-2.773,2.806-6.316,6.179-9.428l-1.21-2.42Z" transform="translate(-228.596 -89.289)" fill="#ffc5c7"/>
            <path id="Trazado_595484" data-name="Trazado 595484" d="M513.191,250.872a6.43,6.43,0,0,1,1.45-2l.23-.211c.068-.066.186-.149.214-.188.119-.138.226-.32.342-.484.225-.34.444-.687.689-1.021a9.089,9.089,0,0,1-.488,1.137,3.8,3.8,0,0,1-.321.549,2.5,2.5,0,0,1-.238.226l-.217.209c-.293.279-.572.572-.854.865s-.543.6-.807.921" transform="translate(-229.878 -110.625)" fill="#fe8a8b"/>
            <path id="Trazado_595485" data-name="Trazado 595485" d="M517.483,250.055c.238-.407.511-.76.759-1.131s.489-.733.729-1.138a2.5,2.5,0,0,1-.48,1.309,3.336,3.336,0,0,1-1.007.96" transform="translate(-231.8 -110.993)" fill="#fe8a8b"/>
            <path id="Trazado_595486" data-name="Trazado 595486" d="M519.466,249.672a2.72,2.72,0,0,0,1.09-.58,3.045,3.045,0,0,0,1.626-.643,16.252,16.252,0,0,0,1.4-1.878c-.013.014-.7.7-1.193,1.27a1.613,1.613,0,0,1-1.6.536l.177-.738s-.734,1.674-1.5,2.033" transform="translate(-232.689 -110.448)" fill="#fe8a8b"/>
            <path id="Trazado_595487" data-name="Trazado 595487" d="M543.38,208.222a5.979,5.979,0,0,1-1.284,3.049,159.818,159.818,0,0,1-10.474,12.213c-1.626,1.588-1.588,1.689-2.665,4.2.455-.709.837-1.328,1-1.63.5-.908,1.109-1.361,3.832-4.134s8.772-10.184,9.428-11.848a4.192,4.192,0,0,0,.158-1.849" transform="translate(-236.94 -93.271)" fill="#fe8a8b"/>
            <path id="Trazado_595488" data-name="Trazado 595488" d="M544.023,204.508l.494.937a3.513,3.513,0,0,0-1.37.778l-.962-1.862Z" transform="translate(-242.866 -91.542)" fill="#fe8a8b"/>
            <path id="Trazado_595489" data-name="Trazado 595489" d="M533.343,184.83c-1.239-2.843-1.482-7.458,0-9.888s4.008-3.3,4.591-3.012,1.944,4.081,3.353,5.83,5.247,6.657,5.344,7.07-3.305,3.747-9.426,6.2c-.729.292-3.863-6.2-3.863-6.2" transform="translate(-238.447 -76.99)" fill="#fff"/>
            <path id="Trazado_595490" data-name="Trazado 595490" d="M537.641,194.277l.807,1.944s-4.329-4.682-6.014-8.175a13.278,13.278,0,0,0,.96,4.028s3.134,6.487,3.863,6.195c1.047-.418,2.008-.864,2.893-1.316Z" transform="translate(-238.497 -84.233)" fill="#dcedff"/>
            <path id="Trazado_595491" data-name="Trazado 595491" d="M517.031,132.74c1.112-2.717,2.473-5.591.76-7.1a8.14,8.14,0,0,1,2.924-.4,7.851,7.851,0,0,0-3.025-.807s.4-4.588-.659-6.554a6.77,6.77,0,0,1-.551,2.824,6.907,6.907,0,0,0-4.387-3.278c-3.276-.907-6.453-1.008-8.721,1.311s-4.926,5.293-1.1,9.78a17.9,17.9,0,0,0,11.033,5.95c2.168.3,3.728-1.72,3.728-1.72" transform="translate(-224.121 -52.328)" fill="#252384"/>
            <path id="Trazado_595492" data-name="Trazado 595492" d="M509.4,130.047a12.23,12.23,0,0,0,2.331.735c.792.179,1.589.338,2.392.463s1.608.233,2.416.309a10.638,10.638,0,0,0,2.44,0,6.052,6.052,0,0,1-2.455.47,14.466,14.466,0,0,1-2.5-.183,14.68,14.68,0,0,1-2.427-.608,6.55,6.55,0,0,1-2.2-1.187" transform="translate(-228.18 -58.253)" fill="#0c0835"/>
            <path id="Trazado_595493" data-name="Trazado 595493" d="M519.407,135.77a7.952,7.952,0,0,0,2.322-1.615,7.308,7.308,0,0,1-4.587.808,26.289,26.289,0,0,1-5.147-.894,30.154,30.154,0,0,0,4.352,2.167,6.345,6.345,0,0,0,3.059-.466" transform="translate(-229.342 -60.055)" fill="#0c0835"/>
            <path id="Trazado_595494" data-name="Trazado 595494" d="M504.469,133.215c-1.433-.708-1.849.01-1.849.616a6.381,6.381,0,0,0,.672,1.892Z" transform="translate(-225.143 -59.54)" fill="#0c0835"/>
            <path id="Trazado_595495" data-name="Trazado 595495" d="M530.014,137.48a12.928,12.928,0,0,1-3.692,4.016s-.995,1.342.122,1.886c.047.023.1.043.15.063a5.314,5.314,0,0,0,1.892-1.45,20.372,20.372,0,0,0,1.527-4.515" transform="translate(-235.577 -61.583)" fill="#0c0835"/>
            <path id="Trazado_595496" data-name="Trazado 595496" d="M516.275,139.692s1.172-.869,1.967,0-.719,4.916-2.5,3.932c0,0-2.949,3.744-4.991,4.8s-3.4.529-4.084-.227a13.717,13.717,0,0,1-3.177-7.146c-.076-1.173.265-3.479.265-3.97s-.3-2.42.113-2.987a1.6,1.6,0,0,1,.983-.643,16,16,0,0,0,4.727,1.436,8.518,8.518,0,0,1-1.4-1.1,35.128,35.128,0,0,0,7.411,1.7,16.913,16.913,0,0,0,.114,2.5,10.1,10.1,0,0,0,.567,1.7" transform="translate(-225.529 -59.779)" fill="#ffc5c7"/>
            <path id="Trazado_595497" data-name="Trazado 595497" d="M527.993,146.208c-.106-.741-.728-.887-1.235-.37a4,4,0,0,0-.618,2.453c.106.247.936.23,1.13-.282s-.264-.833-.741-.681a1.824,1.824,0,0,1,.34-1.228c.416-.481.8-.3.887-.174a3.4,3.4,0,0,0,.239.283" transform="translate(-235.666 -65.189)" fill="#fe8a8b"/>
            <path id="Trazado_595498" data-name="Trazado 595498" d="M518.6,139.929a5.884,5.884,0,0,0-.534-.469,3.627,3.627,0,0,0-.614-.38,1.976,1.976,0,0,0-.693-.239,1.524,1.524,0,0,0-.729.1v.034a3.377,3.377,0,0,0,.341.113l.327.092c.212.063.435.083.65.156a4.419,4.419,0,0,1,.627.273c.206.1.4.228.6.352Z" transform="translate(-231.148 -62.188)" fill="#0c0835"/>
            <path id="Trazado_595499" data-name="Trazado 595499" d="M505.629,138.766a2.62,2.62,0,0,1,.657-.232,3.613,3.613,0,0,1,.682-.081c.23,0,.453.042.68.041a6.621,6.621,0,0,0,.709-.018l.009-.033a1.613,1.613,0,0,0-.684-.287,2.124,2.124,0,0,0-.737.026,3.075,3.075,0,0,0-.709.189,2.424,2.424,0,0,0-.625.366Z" transform="translate(-226.482 -61.875)" fill="#0c0835"/>
            <path id="Trazado_595500" data-name="Trazado 595500" d="M516.436,142.782c.031-.319.21-.564.4-.545s.318.293.285.613-.21.564-.4.545-.316-.294-.285-.614" transform="translate(-231.329 -63.713)" fill="#0c0835"/>
            <path id="Trazado_595501" data-name="Trazado 595501" d="M507.338,142.046c.032-.32.183-.567.337-.551s.254.287.222.607-.182.567-.337.552-.254-.287-.222-.607" transform="translate(-227.254 -63.38)" fill="#0c0835"/>
            <path id="Trazado_595502" data-name="Trazado 595502" d="M511.9,148.844a1.427,1.427,0,0,1-1.559-.016.657.657,0,0,0,.363.574.973.973,0,0,0,.728-.039c.228-.1.315-.323.469-.519" transform="translate(-228.601 -66.666)" fill="#fe8a8b"/>
            <path id="Trazado_595503" data-name="Trazado 595503" d="M512.525,152.017a43,43,0,0,1-4.4-.3,2.216,2.216,0,0,0,4.4.3" transform="translate(-227.61 -67.962)" fill="#c31f2a"/>
            <path id="Trazado_595504" data-name="Trazado 595504" d="M512.216,154.751a1.9,1.9,0,0,0-1.017-.01,1.581,1.581,0,0,0-1.359-.134,1.9,1.9,0,0,0,2.376.144" transform="translate(-228.377 -69.215)" fill="#fb8384"/>
            <path id="Trazado_595505" data-name="Trazado 595505" d="M509.062,152.651a5.2,5.2,0,0,0,3.248-.125c.018-.158.042-.317.065-.476-1.04-.022-2.719-.148-3.615-.249a2.811,2.811,0,0,0,.3.85" transform="translate(-227.893 -67.997)" fill="#fff"/>
            <path id="Trazado_595506" data-name="Trazado 595506" d="M566.153,316.559c2.681,0,4.945-2.758,4.883-6.034a23.668,23.668,0,0,0-.94-6.229c-1.341-4.542-4.106-8.933-3.108-13.732.411-1.976,1.451-3.8,1.481-5.822a9.839,9.839,0,0,0-2.063-5.457,92.49,92.49,0,0,0-5.545-7.567c-.477,4.512-2.644,8.53-4.152,12.744s-2.288,9.391-.145,12.963c1.53,2.551,4.426,4.086,4.762,7.273a25.015,25.015,0,0,1-.279,3.936c-.208,3.752,2.1,7.335,5.105,7.925" transform="translate(-248.716 -121.713)" fill="#dbf0e0"/>
            <path id="Trazado_595507" data-name="Trazado 595507" d="M573.575,328.748l-1.159-5.393c-.284-1.811-.589-3.619-.927-5.42-.669-3.6-1.443-7.188-2.411-10.715-.247-.88-.5-1.758-.782-2.624-.135-.436-.289-.864-.436-1.295s-.318-.846-.455-1.326a12.988,12.988,0,0,1-.39-2.8c-.052-.932-.038-1.857-.022-2.781.049-1.846.168-3.68.236-5.508a24.051,24.051,0,0,0,.112-5.474,21.8,21.8,0,0,1,.614,5.5c-.069,1.842-.188,3.673-.236,5.5-.016.911-.029,1.824.022,2.726a12.262,12.262,0,0,0,.364,2.642c.113.4.273.84.439,1.277.15.438.306.875.443,1.316.287.879.543,1.766.791,2.654.976,3.557,1.753,7.158,2.425,10.776.343,1.808.64,3.624.936,5.439.169,1.835.338,3.668.437,5.507" transform="translate(-253.971 -127.846)" fill="#fff"/>
            <path id="Trazado_595508" data-name="Trazado 595508" d="M562.493,295.1c.528.368,1,.744,1.5,1.114.243.188.465.41.708.608a3.245,3.245,0,0,0,.788.5l-.087.01c.3-.278.566-.592.858-.877s.6-.556.9-.823a11.984,11.984,0,0,1,2.025-1.385l.031.037a11.992,11.992,0,0,1-1.726,1.743c-.317.255-.644.5-.972.741s-.69.444-1.017.687l-.046.034-.042-.024a9.494,9.494,0,0,0-.844-.441,5.214,5.214,0,0,1-.84-.464,4.347,4.347,0,0,1-1.273-1.427Z" transform="translate(-251.946 -131.804)" fill="#fff"/>
            <path id="Trazado_595509" data-name="Trazado 595509" d="M559.1,308.815a11.628,11.628,0,0,1,1.292.518,8.655,8.655,0,0,1,1.217.652,7.607,7.607,0,0,0,1.206.683c.422.187.873.311,1.307.461l-.218.05a21.568,21.568,0,0,1,1.392-1.667,15.138,15.138,0,0,1,1.6-1.48l.036.032a15.114,15.114,0,0,1-1.267,1.777c-.458.561-.966,1.078-1.478,1.591l-.107.107-.111-.058c-.415-.216-.8-.473-1.222-.674a10.265,10.265,0,0,0-1.293-.516,6.417,6.417,0,0,1-1.25-.61,7.341,7.341,0,0,1-1.133-.824Z" transform="translate(-250.429 -137.979)" fill="#fff"/>
            <path id="Trazado_595510" data-name="Trazado 595510" d="M568.583,326.679a3.506,3.506,0,0,1,1.055.286c.16.076.305.192.467.275a.927.927,0,0,0,.507.113l-.07.034c.11-.194.2-.408.314-.6s.237-.375.373-.549a3.875,3.875,0,0,1,1-.9l.038.03a3.871,3.871,0,0,1-.636,1.186c-.138.173-.3.329-.447.491s-.343.292-.506.444l-.042.039-.029,0a5.06,5.06,0,0,0-.564-.091,2.485,2.485,0,0,1-.567-.078,2.067,2.067,0,0,1-.922-.643Z" transform="translate(-254.68 -145.735)" fill="#fff"/>
            <path id="Trazado_595511" data-name="Trazado 595511" d="M570.134,342.094a5.805,5.805,0,0,1,.784,0,3.734,3.734,0,0,1,.758.09,3.792,3.792,0,0,0,.763.156,2.82,2.82,0,0,0,.769-.086l-.087.031a5.212,5.212,0,0,1,.519-.487,5.445,5.445,0,0,1,.554-.442,5.639,5.639,0,0,1,1.27-.667l.029.039a5.644,5.644,0,0,1-.993,1.035,5.39,5.39,0,0,1-.578.41,5.215,5.215,0,0,1-.613.363l-.07.034-.017,0a5.441,5.441,0,0,0-.787-.08c-.26,0-.524.055-.79.075a2.668,2.668,0,0,1-1.524-.419Z" transform="translate(-255.379 -152.606)" fill="#fff"/>
            <path id="Trazado_595512" data-name="Trazado 595512" d="M575.817,310.259c1.853,1.909,4.773-.422,6.7-2.629,2.421-2.777,5.024-5.987,5.306-9.911.106-1.475-.136-2.941.084-4.409.5-3.367,3.2-5.707,4.481-8.821,1.854-4.515.417-9.669-1.369-13.842-1.171-2.737-2.526-5.585-2.306-8.8.2-2.94,1.684-5.607,3.112-8.1-3.339.2-7.1.641-9.447,3.827-2.225,3.022-2.34,7.412-2.127,11.294s.559,8.052-1.074,11.579c-2.219,4.789-7.737,7.618-7.888,12.945-.077,2.686,1.35,4.862,2.326,7.152a9.751,9.751,0,0,1,.769,5.062,5.02,5.02,0,0,0,1.26,4.494Z" transform="translate(-255.9 -113.663)" fill="#b6d3bd"/>
            <path id="Trazado_595513" data-name="Trazado 595513" d="M578.928,321.869c.206-1.285.443-2.56.66-3.837.2-1.281.414-2.557.569-3.838a52.358,52.358,0,0,0,1.006-7.628c.069-1.279.044-2.553.05-3.868a16.1,16.1,0,0,1,.488-3.968,27.77,27.77,0,0,1,1.3-3.747,28.452,28.452,0,0,1,1.832-3.507c1.345-2.247,3.061-4.261,3.6-6.657a10.245,10.245,0,0,0,.1-3.673c-.2-1.224-.519-2.494-.789-3.768a42.541,42.541,0,0,1-1.1-7.785,14.9,14.9,0,0,1,.663-3.93,10.371,10.371,0,0,1,1.874-3.448,11.205,11.205,0,0,0-1.354,3.582,14.131,14.131,0,0,0-.156,3.778,41.65,41.65,0,0,0,1.082,7.586c.267,1.261.584,2.506.8,3.84a11.269,11.269,0,0,1-.12,4.051,12.194,12.194,0,0,1-1.625,3.691c-.7,1.122-1.434,2.178-2.1,3.27a27.39,27.39,0,0,0-1.765,3.379,26.761,26.761,0,0,0-1.246,3.592,15.051,15.051,0,0,0-.457,3.727c-.007,1.275.019,2.6-.051,3.9a55.2,55.2,0,0,1-1.015,7.775c-.651,2.529-1.406,5.019-2.247,7.479" transform="translate(-259.324 -117.456)" fill="#fff"/>
            <path id="Trazado_595514" data-name="Trazado 595514" d="M594.982,274.01a4.166,4.166,0,0,1-.433,1.146,3.209,3.209,0,0,1-.708.96,3.57,3.57,0,0,0-.789.905c-.2.342-.328.737-.5,1.1l-.16.332-.347-.294c-.231-.2-.452-.4-.671-.609a5.56,5.56,0,0,1-.611-.664,6.828,6.828,0,0,1-.957-1.574l.058-.053a6.849,6.849,0,0,1,1.492,1.079,5.639,5.639,0,0,1,.613.663c.189.235.376.472.553.718l-.507.038c.271-.3.589-.56.832-.876a3.554,3.554,0,0,0,.546-1.069,3.206,3.206,0,0,1,.627-1.015,4.148,4.148,0,0,1,.9-.83Z" transform="translate(-264.195 -122.72)" fill="#fff"/>
            <path id="Trazado_595515" data-name="Trazado 595515" d="M598.725,294.282a4.47,4.47,0,0,1-.535,1.693,4.756,4.756,0,0,1-1.085,1.391c-.456.38-.926.725-1.33,1.137-.421.4-.783.854-1.237,1.254l-.237.209-.214-.318-.748-1.111c-.254-.368-.5-.739-.729-1.117l-.705-1.128a12.064,12.064,0,0,0-.765-1.1l.046-.063a3.987,3.987,0,0,1,1.161.8,8,8,0,0,1,.927,1.039,8.435,8.435,0,0,1,.748,1.158c.219.4.432.807.613,1.236l-.45-.109a8.088,8.088,0,0,0,1.423-.924,5.187,5.187,0,0,0,1.07-1.324c.3-.485.637-.917.972-1.362s.64-.905,1-1.38Z" transform="translate(-264.794 -131.808)" fill="#fff"/>
            <path id="Trazado_595516" data-name="Trazado 595516" d="M591.2,316.337a5.568,5.568,0,0,1-1.5,1.361,6.665,6.665,0,0,1-1.837.83c-.654.169-1.317.272-1.945.479-.636.19-1.248.444-1.9.649l-.134.042-.143-.142a10.582,10.582,0,0,1-1.076-1.313,8.574,8.574,0,0,1-.863-1.464,7.591,7.591,0,0,1-.551-1.625,4.584,4.584,0,0,1-.044-1.714h.079a9.581,9.581,0,0,0,.528,1.538c.207.492.469.96.717,1.433l.8,1.4c.27.466.576.921.861,1.372l-.276-.1a10.09,10.09,0,0,0,1.937-.309,8.137,8.137,0,0,0,1.8-.8c.57-.321,1.164-.562,1.748-.835s1.152-.564,1.756-.867Z" transform="translate(-260.315 -140.402)" fill="#fff"/>
            <path id="Trazado_595517" data-name="Trazado 595517" d="M585.688,338.135a2.487,2.487,0,0,1-.852.724,2.955,2.955,0,0,1-1.052.347,7.17,7.17,0,0,1-1.1-.055,7.775,7.775,0,0,0-1.083.026l-.044,0-.081-.076a9.129,9.129,0,0,1-.824-.817c-.25-.29-.507-.575-.729-.887a8.5,8.5,0,0,1-.595-.986,6.38,6.38,0,0,1-.455-1.088l.063-.046a6.445,6.445,0,0,1,.9.759,8.381,8.381,0,0,1,.763.861c.231.3.427.634.63.959a8.993,8.993,0,0,1,.535,1.03l-.125-.072a2.291,2.291,0,0,0,1.025.05,7.833,7.833,0,0,0,.985-.326c.322-.1.645-.161.971-.24s.65-.17,1.026-.231Z" transform="translate(-259.298 -150.185)" fill="#fff"/>
            <path id="Trazado_595518" data-name="Trazado 595518" d="M580.977,370.722h-16.6a1.966,1.966,0,0,1-1.943-1.669l-2.656-17.436a1.966,1.966,0,0,1,1.943-2.262h21.909a1.965,1.965,0,0,1,1.943,2.262l-2.655,17.436a1.966,1.966,0,0,1-1.943,1.669" transform="translate(-250.737 -156.489)" fill="#b4dff9"/>
            <path id="Trazado_595519" data-name="Trazado 595519" d="M598.1,349.355h-3.389a1.966,1.966,0,0,1,1.943,2.261L594,369.053a1.965,1.965,0,0,1-1.943,1.669h3.388a1.965,1.965,0,0,0,1.943-1.669l2.656-17.436a1.966,1.966,0,0,0-1.943-2.261" transform="translate(-265.205 -156.489)" fill="#a2d4f9"/>
            <path id="Trazado_595520" data-name="Trazado 595520" d="M138.581,296.107a3.4,3.4,0,0,1-.406,2.054,14.754,14.754,0,0,0-1.814,7.527c.055,1.72.408,3.48-.061,5.136-.808,2.857-3.823,4.624-4.793,7.429-.86,2.488-.061,5.616-1.848,7.548a1.671,1.671,0,0,1-1.737.6,2.111,2.111,0,0,1-.749-.622c-2.05-2.327-4.244-5.157-3.612-8.194.594-2.853,3.534-4.78,4.091-7.641.455-2.337-.739-5.033.6-7,.369-.543.9-.959,1.3-1.477,1.593-2.045,1-5.3,2.837-7.134a4.234,4.234,0,0,1,2.163-1.109A3.36,3.36,0,0,1,138.581,296.107Z" transform="translate(-55.299 -131.314)" fill="#f97068"/>
            <path id="Trazado_595521" data-name="Trazado 595521" d="M129.552,335.45c-.123-1.522-.176-3.044-.232-4.57.07-1.522.151-3.044.281-4.564s.3-3.041.57-4.553a19.388,19.388,0,0,1,1.266-4.449c1.1-2.791,2-5.71,2.9-8.6l1.308-4.361q.806-2.136,1.568-4.288c-.222,1.512-.568,3-.872,4.492l-1.31,4.37c-.908,2.907-1.791,5.808-2.922,8.668a18.626,18.626,0,0,0-1.222,4.3c-.263,1.48-.432,2.982-.561,4.488s-.215,3.019-.273,4.532Z" transform="translate(-57.927 -134.41)" fill="#ffa6a4"/>
            <path id="Trazado_595522" data-name="Trazado 595522" d="M141.445,307.213a3.571,3.571,0,0,1-.921.916,5.374,5.374,0,0,1-.582.3,2.207,2.207,0,0,0-.529.366l-.07.063-.062-.1c-.145-.221-.321-.428-.46-.653s-.275-.451-.394-.686a5.348,5.348,0,0,1-.492-1.519l.043-.021a5.376,5.376,0,0,1,.912,1.311c.115.237.208.485.308.729s.152.512.242.762l-.131-.032a2.219,2.219,0,0,0,.506-.4,5.352,5.352,0,0,1,.453-.468,3.578,3.578,0,0,1,1.148-.61Z" transform="translate(-61.786 -137.015)" fill="#ffa6a4"/>
            <path id="Trazado_595523" data-name="Trazado 595523" d="M139.088,316.534c-.262.215-.531.448-.813.643a6.754,6.754,0,0,1-.878.547c-.313.15-.645.269-.946.439a5.8,5.8,0,0,0-.849.6l-.095.077-.1-.126a15.19,15.19,0,0,1-1.111-1.72,10.839,10.839,0,0,1-.8-1.894l.042-.024a10.864,10.864,0,0,1,1.208,1.665,15.153,15.153,0,0,1,.9,1.839l-.191-.049a6.22,6.22,0,0,0,.911-.5c.286-.194.543-.438.819-.649a5.987,5.987,0,0,1,.895-.528,3.993,3.993,0,0,1,1-.368Z" transform="translate(-59.798 -141.134)" fill="#ffa6a4"/>
            <path id="Trazado_595524" data-name="Trazado 595524" d="M135.871,329.874a4.395,4.395,0,0,1-.936.693,3.537,3.537,0,0,1-1.063.423,2.75,2.75,0,0,0-1.029.494c-.305.232-.6.487-.91.687l-.231.151-.172-.257a7.263,7.263,0,0,1-.661-1.19,6.373,6.373,0,0,1-.427-1.319l.053-.029a6.317,6.317,0,0,1,.886,1.067,7.239,7.239,0,0,1,.651,1.2l-.4-.106a7,7,0,0,1,1.087-.432,3.132,3.132,0,0,0,1-.559,3.26,3.26,0,0,1,.99-.589,4.009,4.009,0,0,1,1.134-.285Z" transform="translate(-58.43 -147.608)" fill="#ffa6a4"/>
            <path id="Trazado_595525" data-name="Trazado 595525" d="M113.827,323.588c-1.189-.2-5.648-1.622-5.337-2.786,1.337-5,2.674-10.666-1.955-13.111-2.227-1.176-5.023-1.774-6.291-3.95-1.306-2.241-.344-5.091.828-7.4s2.584-4.792,2.081-7.337c-.526-2.665-3.047-4.632-3.45-7.319-.55-3.668,3.012-6.624,6.434-8.056a6.039,6.039,0,0,1,3.67-.607,4.509,4.509,0,0,1,2.237,1.445c2.4,2.688,2.305,6.743,1.757,10.307s-1.388,7.328-.045,10.674c.953,2.377,2.994,4.614,2.448,7.115-.219,1-.844,1.876-1.083,2.874-.642,2.69,1.592,5.113,2.616,7.682a9.429,9.429,0,0,1-2.091,9.88,2.09,2.09,0,0,1-1.818.594" transform="translate(-44.622 -122.25)" fill="#ffa6a4"/>
            <path id="Trazado_595526" data-name="Trazado 595526" d="M119.177,328.343c-.275-1.978-.551-3.949-.9-5.906-.083-.49-.186-.976-.265-1.465s-.118-.984-.2-1.473q-.221-1.468-.5-2.925a38.375,38.375,0,0,0-1.492-5.7,11.824,11.824,0,0,0-1.247-2.579,3.533,3.533,0,0,0-.9-.955,4.733,4.733,0,0,1-1.2-1.118,4.945,4.945,0,0,1-.868-3.1,15.2,15.2,0,0,1,.446-3.044c.458-1.963,1.035-3.858,1.356-5.789a13.278,13.278,0,0,0-.118-5.73c-.156-.449-.279-.907-.427-1.365a9.487,9.487,0,0,0-.569-1.333,13.31,13.31,0,0,0-1.665-2.443,11.242,11.242,0,0,1,2.125,2.155,10.19,10.19,0,0,1,.835,1.3,5.334,5.334,0,0,1,.575,1.446,14.172,14.172,0,0,1,.138,6.12c-.334,2-.921,3.927-1.366,5.842a14.344,14.344,0,0,0-.422,2.856,4.036,4.036,0,0,0,.69,2.548,3.81,3.81,0,0,0,.975.9,4.425,4.425,0,0,1,1.147,1.2,12.741,12.741,0,0,1,1.353,2.782,39.332,39.332,0,0,1,1.53,5.844q.284,1.477.506,2.963c.068.5.161.988.22,1.485s.073,1,.1,1.5c.108,2,.183,4,.146,5.995" transform="translate(-49.551 -126.95)" fill="#f97068"/>
            <path id="Trazado_595527" data-name="Trazado 595527" d="M111.781,294.14a3.056,3.056,0,0,1,.9.532,3.24,3.24,0,0,1,.7.737,4.751,4.751,0,0,0,.6.829,7.384,7.384,0,0,0,.779.66l-.353.022c.119-.256.266-.5.4-.741a7.607,7.607,0,0,1,.442-.711c.155-.232.331-.45.5-.672s.36-.428.513-.664l.06.01a2.345,2.345,0,0,1-.176.873,5.8,5.8,0,0,1-.362.783,5.408,5.408,0,0,1-.466.713,8.007,8.007,0,0,1-.539.664l-.221.232-.132-.21a5.946,5.946,0,0,0-.58-.833,4.029,4.029,0,0,0-.786-.643,3.9,3.9,0,0,1-.714-.7,6.225,6.225,0,0,1-.593-.831Z" transform="translate(-50.054 -131.753)" fill="#f97068"/>
            <path id="Trazado_595528" data-name="Trazado 595528" d="M114.739,307.365a4.855,4.855,0,0,1-.533.942,6.81,6.81,0,0,1-.681.818c-.257.245-.552.454-.828.68a4.993,4.993,0,0,0-.725.773l-.069.09-.1-.078a8.079,8.079,0,0,1-.93-.853c-.269-.307-.555-.6-.8-.917s-.488-.647-.712-.986-.428-.691-.664-1.02l.034-.05a4.241,4.241,0,0,1,1.007.751,9.564,9.564,0,0,1,.836.9c.261.313.482.657.724.983s.436.714.66.994l-.166.013a4.369,4.369,0,0,0,.733-.761c.207-.289.393-.6.61-.874a9.222,9.222,0,0,1,.73-.76,7.839,7.839,0,0,1,.828-.68Z" transform="translate(-48.689 -137.411)" fill="#f97068"/>
            <path id="Trazado_595529" data-name="Trazado 595529" d="M105.2,317.544c.375.441.765.847,1.163,1.234s.828.729,1.245,1.1a4.057,4.057,0,0,0,1.454.844,5.353,5.353,0,0,0,1.671.186l-.248.175a11.166,11.166,0,0,1,.4-1.352,7.523,7.523,0,0,1,.575-1.288,6.3,6.3,0,0,1,.824-1.164,3.076,3.076,0,0,1,1.158-.835l.03.052a4.528,4.528,0,0,0-.835,1.05,12.958,12.958,0,0,0-.624,1.182l-.556,1.228c-.183.412-.344.84-.5,1.257l-.077.2-.171-.027a9.636,9.636,0,0,1-1.7-.485,17.282,17.282,0,0,1-1.629-.669A4.262,4.262,0,0,1,106,319.112a4.379,4.379,0,0,1-.857-1.541Z" transform="translate(-47.097 -141.749)" fill="#f97068"/>
            <path id="Trazado_595530" data-name="Trazado 595530" d="M118.4,326.531a3.379,3.379,0,0,1,.232,1.387,4.558,4.558,0,0,1-.259,1.392,4.977,4.977,0,0,1-.714,1.215l-.832,1.106-.059.079-.1-.068a12.287,12.287,0,0,0-1.45-.818c-.487-.262-.993-.485-1.5-.7s-1.009-.438-1.528-.633c-.515-.211-1.044-.38-1.581-.581l.009-.06a7.963,7.963,0,0,1,3.359.683,10.464,10.464,0,0,1,1.508.84,10.161,10.161,0,0,1,1.327,1.1l-.156.011a3.871,3.871,0,0,0,.768-1.1,9.5,9.5,0,0,0,.435-1.251,9.869,9.869,0,0,0,.476-2.593Z" transform="translate(-49.548 -146.266)" fill="#f97068"/>
            <path id="Trazado_595531" data-name="Trazado 595531" d="M126.1,370.763H113.37a2.557,2.557,0,0,1-2.363-2.4L108.992,352.7a2.713,2.713,0,0,1,2.363-3.256h16.758a2.713,2.713,0,0,1,2.363,3.256l-2.015,15.658a2.557,2.557,0,0,1-2.363,2.4" transform="translate(-48.809 -156.53)" fill="#b4dff9"/>
            <path id="Trazado_595532" data-name="Trazado 595532" d="M139.767,349.446H137a2.714,2.714,0,0,1,2.364,3.256l-2.015,15.657a2.558,2.558,0,0,1-2.364,2.4h2.772a2.558,2.558,0,0,0,2.364-2.4L142.13,352.7a2.713,2.713,0,0,0-2.363-3.256" transform="translate(-60.463 -156.53)" fill="#a2d4f9"/>
            <path id="Trazado_595533" data-name="Trazado 595533" d="M42.232,216.4H3.781A3.781,3.781,0,0,1,0,212.615v-20a3.781,3.781,0,0,1,3.781-3.781H42.232a3.781,3.781,0,0,1,3.781,3.781v20a3.781,3.781,0,0,1-3.781,3.781" transform="translate(0 -84.588)" fill="#a2d4f9"/>
            <path id="Trazado_595534" data-name="Trazado 595534" d="M43.531,224.352H2.482A2.482,2.482,0,0,1,0,221.87L23.007,206.6,46.013,221.87a2.482,2.482,0,0,1-2.482,2.482" transform="translate(0 -92.544)" fill="#b4dff9"/>
            <path id="Trazado_595535" data-name="Trazado 595535" d="M43.531,188.838H2.482A2.482,2.482,0,0,0,0,191.32l23.007,15.271L46.013,191.32a2.482,2.482,0,0,0-2.482-2.482" transform="translate(0 -84.588)" fill="#fafdff"/>
            <path id="Trazado_595536" data-name="Trazado 595536" d="M495.737,7.788H403.912a5.179,5.179,0,0,0-5.179,5.179V34.444a5.18,5.18,0,0,0,5.179,5.18h9.223l-3.144,7.759,10.452-7.759h75.293a5.18,5.18,0,0,0,5.18-5.18V12.967a5.179,5.179,0,0,0-5.18-5.179" transform="translate(-178.608 -3.489)" fill="#6826cc"/>
            <path id="Trazado_595537" data-name="Trazado 595537" d="M497.814,27H427.833a1.21,1.21,0,1,1,0-2.42h69.982a1.21,1.21,0,0,1,0,2.42m1.21,4.225a1.21,1.21,0,0,0-1.21-1.21h-79.7a1.21,1.21,0,1,0,0,2.42h79.7a1.21,1.21,0,0,0,1.21-1.21m-34.991,5.435a1.21,1.21,0,0,0-1.21-1.21h-44.71a1.21,1.21,0,1,0,0,2.42h44.71a1.21,1.21,0,0,0,1.21-1.21" transform="translate(-186.747 -11.012)" fill="#fff"/>
            <path id="Trazado_595538" data-name="Trazado 595538" d="M51.79,280.358a14.8,14.8,0,0,1-.649-2.5,5.478,5.478,0,0,1,.193-2.522,7.125,7.125,0,0,1,1.709-2.708q.4-.435,1.16-1.2a16.987,16.987,0,0,0,1.483-1.711,7.612,7.612,0,0,0,1.1-1.947,2.736,2.736,0,0,0,.054-1.928,2,2,0,0,0-.792-1.033,2.581,2.581,0,0,0-1.254-.428,3.456,3.456,0,0,0-1.414.2,3.066,3.066,0,0,0-1.584,1.135,4.8,4.8,0,0,0-.708,1.555c-.132.533-.266.989-.4,1.37l-6.762-1.944a9.179,9.179,0,0,1,1.055-3.862,10.333,10.333,0,0,1,2.547-3.1,12.036,12.036,0,0,1,3.759-2.1,13.268,13.268,0,0,1,3.591-.714,10.241,10.241,0,0,1,3.7.443,8.2,8.2,0,0,1,3.281,1.985,9.816,9.816,0,0,1,2.353,3.9,11.869,11.869,0,0,1,.539,2.1,7.46,7.46,0,0,1,.042,2.051,7.71,7.71,0,0,1-.54,2.032,9.614,9.614,0,0,1-1.171,2.03,18.739,18.739,0,0,1-2.13,2.441,16.484,16.484,0,0,0-1.859,2.072,2.025,2.025,0,0,0-.37,1.949Zm2.986,8.066-.141-.4a3.673,3.673,0,0,1,6.931-2.436l.141.4a3.673,3.673,0,0,1-6.931,2.436" transform="translate(-19.676 -115.073)" fill="#ea3584"/>
          </g>
        </g>
      </g>
    </g>
    <path id="Trazado_595540" data-name="Trazado 595540" d="M0,12.644l24.228,10.9L4.078,0Z" transform="matrix(-0.391, 0.921, -0.921, -0.391, 658.21, 14978.265)" fill="none" stroke="#a2a7c5" stroke-miterlimit="10" stroke-width="1.547"/>
    <path id="Trazado_595541" data-name="Trazado 595541" d="M20.389,2.711,0,0,30.2,43.256Z" transform="matrix(-0.391, 0.921, -0.921, -0.391, 673.164, 14993.489)" fill="none" stroke="#a2a7c5" stroke-miterlimit="10" stroke-width="1.547"/>
    <path id="Trazado_595542" data-name="Trazado 595542" d="M414.966,47.6l-5.818,5.818-5.82-5.818-6.772,6.772,5.82,5.818-5.82,5.82,6.772,6.772,5.82-5.82,5.818,5.82,6.772-6.772-5.818-5.82,5.818-5.818Z" transform="translate(-92.131 14901.606)" fill="none" stroke="#ea3584" stroke-miterlimit="10" stroke-width="0.778"/>
    <rect id="Rectángulo_293567" data-name="Rectángulo 293567" width="400" height="235" transform="translate(285 14898)" fill="none"/>
  </g>
</svg>
