<svg xmlns="http://www.w3.org/2000/svg" width="75.911" height="75.912" viewBox="0 0 75.911 75.912">
  <g id="Grupo_874694" data-name="Grupo 874694" transform="translate(-298 -2869)">
    <g id="Grupo_874690" data-name="Grupo 874690">
      <path id="Trazado_593299" data-name="Trazado 593299" d="M92.519,156.492a37.956,37.956,0,1,1,38.129-37.781,38,38,0,0,1-38.129,37.781" transform="translate(243.263 2788.42)" fill="#fff"/>
      <g id="puerta-abierta" transform="translate(310.951 2882.006)">
        <path id="Trazado_594308" data-name="Trazado 594308" d="M28.147,48.694a.667.667,0,0,1-.667-.667V2.665A.667.667,0,0,1,28.214,2l21.3,2.155a.667.667,0,0,1,.6.667V15.713a.667.667,0,1,1-1.334,0V5.423L28.814,3.4v43.86L48.78,44.558V33.645a.667.667,0,1,1,1.334,0V45.138a.667.667,0,0,1-.577.661l-21.3,2.888a.682.682,0,0,1-.09.006Z" transform="translate(-8.466 0)"/>
        <path id="Trazado_594309" data-name="Trazado 594309" d="M60.077,31.835a.667.667,0,0,1-.667-.667V29.227a.667.667,0,1,1,1.334,0v1.941A.667.667,0,0,1,60.077,31.835Z" transform="translate(-19.097 -8.844)"/>
        <path id="Trazado_594310" data-name="Trazado 594310" d="M13.326,47.3a.667.667,0,0,1-.667-.667V5.867a.667.667,0,0,1,.667-.667h9.886a.667.667,0,1,1,0,1.334H13.993v40.1A.667.667,0,0,1,13.326,47.3Z" transform="translate(-3.532 -1.067)"/>
        <path id="Trazado_594311" data-name="Trazado 594311" d="M18.974,49.241a.667.667,0,0,1-.667-.667V11.708a.667.667,0,0,1,.667-.667h6.114a.667.667,0,0,1,0,1.334H19.641v36.2A.667.667,0,0,1,18.974,49.241Z" transform="translate(-5.413 -3.012)"/>
        <path id="Trazado_594312" data-name="Trazado 594312" d="M19.675,67.64H2.716a.667.667,0,0,1,0-1.334H19.675a.667.667,0,1,1,0,1.334Z" transform="translate(0 -21.41)"/>
        <path id="Trazado_594313" data-name="Trazado 594313" d="M65.522,67.64H55.31a.667.667,0,1,1,0-1.334H65.522a.667.667,0,1,1,0,1.334Z" transform="translate(-17.51 -21.41)"/>
        <path id="Trazado_594314" data-name="Trazado 594314" d="M34.217,38.208A2.411,2.411,0,1,1,36.628,35.8,2.411,2.411,0,0,1,34.217,38.208Zm0-3.487A1.077,1.077,0,1,0,35.293,35.8a1.077,1.077,0,0,0-1.077-1.077Z" transform="translate(-9.907 -10.451)"/>
      </g>
    </g>
    <g id="salida" transform="translate(345 2718.811)">
      <path id="Trazado_594315" data-name="Trazado 594315" d="M19.059,191.653a.807.807,0,0,0-.36-.672l-7.268-4.845a.808.808,0,0,0-1.256.672v1.615H.808A.808.808,0,0,0,0,189.23v4.845a.808.808,0,0,0,.808.808h9.368V196.5a.808.808,0,0,0,1.256.672l7.268-4.845A.807.807,0,0,0,19.059,191.653Zm-7.268,3.336v-.914a.808.808,0,0,0-.808-.808H1.615v-3.23h9.368a.808.808,0,0,0,.808-.808v-.914l5,3.336Z" transform="translate(0 0)"/>
    </g>
  </g>
</svg>
