<svg xmlns="http://www.w3.org/2000/svg" width="505" height="234" viewBox="0 0 505 234">
  <g id="Grupo_874688" data-name="Grupo 874688" transform="translate(-285 -2501)">
    <path id="Trazado_594342" data-name="Trazado 594342" d="M0,0H505V234H0Z" transform="translate(285 2501)" fill="#e3e3f9"/>
    <path id="Trazado_595550" data-name="Trazado 595550" d="M180.684,15.117h5.734V17h-8.664V15.625l5.625-8.1h-5.617v-1.9h8.531V6.969ZM187.23,12.7a5.013,5.013,0,0,1,.484-2.242,3.546,3.546,0,0,1,1.395-1.523,4.069,4.069,0,0,1,2.113-.539,3.849,3.849,0,0,1,2.793,1.047,4.2,4.2,0,0,1,1.207,2.844l.016.578a4.418,4.418,0,0,1-1.086,3.121,4.209,4.209,0,0,1-5.832,0,4.5,4.5,0,0,1-1.09-3.187Zm2.258.16a3.16,3.16,0,0,0,.453,1.843,1.628,1.628,0,0,0,2.578.008,3.457,3.457,0,0,0,.461-2.015,3.128,3.128,0,0,0-.461-1.831,1.5,1.5,0,0,0-1.3-.649,1.474,1.474,0,0,0-1.281.646A3.516,3.516,0,0,0,189.488,12.856Zm9.219-4.309.07.977a2.951,2.951,0,0,1,2.43-1.133,2.453,2.453,0,0,1,2,.789,3.682,3.682,0,0,1,.672,2.359V17h-2.258V11.594a1.465,1.465,0,0,0-.312-1.043,1.4,1.4,0,0,0-1.039-.324,1.553,1.553,0,0,0-1.43.813V17h-2.258V8.547ZM210.488,17a2.507,2.507,0,0,1-.227-.758,2.732,2.732,0,0,1-2.133.914,3,3,0,0,1-2.059-.719,2.312,2.312,0,0,1-.816-1.812,2.389,2.389,0,0,1,1-2.062,4.915,4.915,0,0,1,2.879-.727h1.039v-.484a1.393,1.393,0,0,0-.3-.937,1.183,1.183,0,0,0-.949-.352,1.345,1.345,0,0,0-.895.273.929.929,0,0,0-.324.75h-2.258a2.268,2.268,0,0,1,.453-1.359,3,3,0,0,1,1.281-.98,4.669,4.669,0,0,1,1.859-.355,3.689,3.689,0,0,1,2.48.785,2.747,2.747,0,0,1,.918,2.207v3.664a4.041,4.041,0,0,0,.336,1.82V17Zm-1.867-1.57a1.945,1.945,0,0,0,.922-.223,1.462,1.462,0,0,0,.625-.6V13.156h-.844q-1.7,0-1.8,1.172l-.008.133a.9.9,0,0,0,.3.7A1.153,1.153,0,0,0,208.621,15.43ZM218.77,17V10.2h-1.258V8.547h1.258V7.828a2.918,2.918,0,0,1,.816-2.207,3.162,3.162,0,0,1,2.285-.785,5.278,5.278,0,0,1,1.148.156L223,6.742a2.878,2.878,0,0,0-.687-.07q-1.273,0-1.273,1.2v.68h1.68V10.2h-1.68V17Zm9.867-6.336a6.134,6.134,0,0,0-.812-.062,1.654,1.654,0,0,0-1.68.867V17h-2.258V8.547h2.133l.063,1.008a2.092,2.092,0,0,1,1.883-1.164,2.366,2.366,0,0,1,.7.1ZM232.16,17H229.9V8.547h2.258ZM231.5,5.117h2.461l-2.164,2.422h-1.836ZM239,17a2.507,2.507,0,0,1-.227-.758,2.732,2.732,0,0,1-2.133.914,3,3,0,0,1-2.059-.719,2.312,2.312,0,0,1-.816-1.812,2.389,2.389,0,0,1,1-2.062,4.915,4.915,0,0,1,2.879-.727h1.039v-.484a1.393,1.393,0,0,0-.3-.937,1.183,1.183,0,0,0-.949-.352,1.345,1.345,0,0,0-.895.273.929.929,0,0,0-.324.75h-2.258a2.268,2.268,0,0,1,.453-1.359,3,3,0,0,1,1.281-.98,4.669,4.669,0,0,1,1.859-.355,3.689,3.689,0,0,1,2.48.785,2.747,2.747,0,0,1,.918,2.207v3.664a4.041,4.041,0,0,0,.336,1.82V17Zm-1.867-1.57a1.945,1.945,0,0,0,.922-.223,1.462,1.462,0,0,0,.625-.6V13.156h-.844q-1.7,0-1.8,1.172l-.008.133a.9.9,0,0,0,.3.7A1.153,1.153,0,0,0,237.137,15.43Z" transform="translate(328 2665)" fill="#6826cc"/>
    <path id="Trazado_593872" data-name="Trazado 593872" d="M-21088-7107.893l6.008,10.5-6.008,10.5" transform="translate(7634.889 -18386.791) rotate(-90)" fill="none" stroke="#6826cc" stroke-linecap="round" stroke-linejoin="round" stroke-width="4"/>
    <g id="Grupo_874097" data-name="Grupo 874097">
      <path id="Sustracción_1" data-name="Sustracción 1" d="M253.487,95.544H82.366C89.9,71.681,98.866,45.762,98.956,45.5l10.863-32.638A22.525,22.525,0,0,1,114.4,6.432a21.953,21.953,0,0,1,6.331-4.422A22.761,22.761,0,0,1,130.294,0a29.083,29.083,0,0,1,3.969.281l96.5,13.351a20.434,20.434,0,0,1,3.113.67,26.5,26.5,0,0,1,6.906,3.111,22.085,22.085,0,0,1,7.05,7.2,26.564,26.564,0,0,1,3.544,12.939c.309,8.794,1.018,28.3,2.106,57.99Z" transform="translate(359.069 2534.729)" fill="#fff" stroke="rgba(0,0,0,0)" stroke-miterlimit="10" stroke-width="1"/>
      <g id="estar" transform="translate(554.618 2530)">
        <g id="Grupo_874098" data-name="Grupo 874098" transform="translate(5.133 12.676)">
          <g id="Grupo_874097-2" data-name="Grupo 874097" transform="translate(0 0)">
            <path id="Trazado_594316" data-name="Trazado 594316" d="M40.028,80.211H24.295V61.585A1.585,1.585,0,0,1,25.88,60H38.444a1.585,1.585,0,0,1,1.585,1.585Z" transform="translate(-24.295 -60)" fill="#ffcf5d"/>
            <path id="Trazado_594317" data-name="Trazado 594317" d="M144.5,80.211H128.765V61.585A1.585,1.585,0,0,1,130.35,60h12.564a1.585,1.585,0,0,1,1.585,1.585Z" transform="translate(-106.694 -60)" fill="#ffcf5d"/>
            <path id="Trazado_594318" data-name="Trazado 594318" d="M248.968,80.211H233.235V61.585A1.585,1.585,0,0,1,234.819,60h12.564a1.585,1.585,0,0,1,1.585,1.585Z" transform="translate(-189.093 -60)" fill="#ffcf5d"/>
          </g>
          <path id="Trazado_594319" data-name="Trazado 594319" d="M38.444,60H33.69V73.873h-9.4v6.338H40.028V61.584A1.585,1.585,0,0,0,38.444,60Z" transform="translate(-24.295 -60)" fill="#ffb545"/>
          <path id="Trazado_594320" data-name="Trazado 594320" d="M142.914,60H138.16V73.873h-9.4v6.338H144.5V61.584A1.585,1.585,0,0,0,142.914,60Z" transform="translate(-106.694 -60)" fill="#ffb545"/>
          <path id="Trazado_594321" data-name="Trazado 594321" d="M247.384,60H242.63V73.873h-9.4v6.338h15.733V61.584A1.585,1.585,0,0,0,247.384,60Z" transform="translate(-189.093 -60)" fill="#ffb545"/>
        </g>
        <g id="Grupo_874099" data-name="Grupo 874099" transform="translate(71.346 12.676)">
          <path id="Trazado_594322" data-name="Trazado 594322" d="M346.42,66.338V61.585A1.585,1.585,0,0,0,344.835,60h-3.169a1.585,1.585,0,0,0-1.585,1.585v4.754a2.377,2.377,0,0,0-2.377,2.377v11.5H348.8v-11.5A2.377,2.377,0,0,0,346.42,66.338Z" transform="translate(-337.705 -60)" fill="#ea3584"/>
          <path id="Trazado_594323" data-name="Trazado 594323" d="M428.92,66.338V61.585A1.585,1.585,0,0,0,427.335,60h-3.169a1.585,1.585,0,0,0-1.585,1.585v4.754a2.377,2.377,0,0,0-2.377,2.377v11.5H431.3v-11.5A2.377,2.377,0,0,0,428.92,66.338Z" transform="translate(-402.775 -60)" fill="#ea3584"/>
        </g>
        <g id="Grupo_874100" data-name="Grupo 874100" transform="translate(5.301 45.563)">
          <path id="Trazado_594324" data-name="Trazado 594324" d="M69.121,215.666h-9.4a3.169,3.169,0,0,0-3.169,3.169,3.169,3.169,0,0,0-3.169-3.169h-9.4a3.169,3.169,0,0,0-3.169,3.169,3.169,3.169,0,0,0-3.169-3.169h-9.4a3.169,3.169,0,0,0-3.169,3.169v17.042h47.2V218.835A3.169,3.169,0,0,0,69.121,215.666Z" transform="translate(-25.091 -215.666)" fill="#5c87bd"/>
          <path id="Trazado_594325" data-name="Trazado 594325" d="M69.121,215.666H65.952v13.873h-9.4v-10.7a3.169,3.169,0,0,0-3.169-3.169H50.219v13.873h-9.4v-10.7a3.169,3.169,0,0,0-3.169-3.169H34.486v13.873h-9.4v6.338h47.2V218.835A3.169,3.169,0,0,0,69.121,215.666Z" transform="translate(-25.091 -215.666)" fill="#456ea2"/>
        </g>
        <g id="Grupo_874101" data-name="Grupo 874101" transform="translate(58.838 49.789)">
          <path id="Trazado_594326" data-name="Trazado 594326" d="M316.193,235.668h-7.282a3.169,3.169,0,0,0-3.169,3.169,3.169,3.169,0,0,0-3.169-3.169H295.29a3.169,3.169,0,0,0-3.169,3.169,3.169,3.169,0,0,0-3.169-3.169H281.67a3.169,3.169,0,0,0-3.169,3.169v12.817h40.861V238.837a3.169,3.169,0,0,0-3.169-3.169Z" transform="translate(-278.501 -235.668)" fill="#e9e3d5"/>
          <path id="Trazado_594327" data-name="Trazado 594327" d="M316.193,235.668h-3.169v9.648h-7.282v-6.479a3.169,3.169,0,0,0-3.169-3.169H299.4v9.648h-7.282v-6.479a3.169,3.169,0,0,0-3.169-3.169h-3.169v9.648H278.5v6.338h40.861V238.837a3.169,3.169,0,0,0-3.169-3.169Z" transform="translate(-278.501 -235.668)" fill="#d3cdbf"/>
        </g>
        <g id="Grupo_874102" data-name="Grupo 874102" transform="translate(5.301 78.451)">
          <path id="Trazado_594328" data-name="Trazado 594328" d="M92.248,378.271V374.5a3.169,3.169,0,0,0-3.169-3.169H78.627a3.169,3.169,0,0,0-3.169,3.169,3.169,3.169,0,0,0-3.169-3.169H61.838a3.169,3.169,0,0,0-3.169,3.169,3.169,3.169,0,0,0-3.169-3.169H45.048a3.169,3.169,0,0,0-3.169,3.169,3.169,3.169,0,0,0-3.169-3.169H28.259A3.169,3.169,0,0,0,25.09,374.5v3.768a3.169,3.169,0,0,0,3.169,3.169,3.169,3.169,0,0,0-3.169,3.169v6.937H92.248v-6.937a3.169,3.169,0,0,0-3.169-3.169A3.169,3.169,0,0,0,92.248,378.271Z" transform="translate(-25.09 -371.334)" fill="#8b9ba9"/>
          <path id="Trazado_594329" data-name="Trazado 594329" d="M92.248,379.855V374.5a3.169,3.169,0,0,0-3.169-3.169H85.91V375.1H75.458v-.6a3.169,3.169,0,0,0-3.169-3.169H69.12V375.1H58.669v-.6a3.169,3.169,0,0,0-3.169-3.169H52.331V375.1H41.879v-.6a3.169,3.169,0,0,0-3.169-3.169H35.541V375.1H25.09v3.169a3.169,3.169,0,0,0,3.169,3.169h7.282v3.768H25.09v6.338H92.248v-6.937a3.169,3.169,0,0,0-3.169-3.169h1.585A1.585,1.585,0,0,0,92.248,379.855Zm-39.917,5.352H41.879V381.44H52.331Zm16.789,0H58.669V381.44H69.12Zm16.789,0H75.458V381.44H85.91Z" transform="translate(-25.09 -371.334)" fill="#6c7a88"/>
        </g>
        <path id="Trazado_594330" data-name="Trazado 594330" d="M402.67,377.671v-4.754a1.585,1.585,0,0,0-1.585-1.585h-3.169a1.585,1.585,0,0,0-1.585,1.585v4.754a2.377,2.377,0,0,0-2.377,2.377v11.5h11.092v-11.5A2.377,2.377,0,0,0,402.67,377.671Z" transform="translate(-310.725 -292.882)" fill="#6826cc"/>
        <g id="Grupo_874103" data-name="Grupo 874103">
          <path id="Trazado_594331" data-name="Trazado 594331" d="M103.415,0H1.585A1.585,1.585,0,0,0,0,1.585V4.754A1.585,1.585,0,0,0,1.585,6.338H103.415A1.585,1.585,0,0,0,105,4.754V1.585A1.585,1.585,0,0,0,103.415,0Z" fill="#ce795f"/>
          <path id="Trazado_594332" data-name="Trazado 594332" d="M239.942,467H3.676C1.646,467,0,467.709,0,468.585v3.169c0,.875,1.646,1.585,3.676,1.585H239.942c2.03,0,3.676-.709,3.676-1.585v-3.169C243.619,467.709,241.973,467,239.942,467Z" transform="translate(-138.619 -368.338)" fill="#ce795f"/>
          <path id="Trazado_594333" data-name="Trazado 594333" d="M103.415,155.667H1.585A1.585,1.585,0,0,0,0,157.252v3.169a1.585,1.585,0,0,0,1.585,1.585H103.415A1.585,1.585,0,0,0,105,160.421v-3.169A1.585,1.585,0,0,0,103.415,155.667Z" transform="translate(0 -122.78)" fill="#ce795f"/>
          <path id="Trazado_594334" data-name="Trazado 594334" d="M103.415,311.333H1.585A1.585,1.585,0,0,0,0,312.918v3.169a1.585,1.585,0,0,0,1.585,1.585H103.415A1.585,1.585,0,0,0,105,316.087v-3.169A1.585,1.585,0,0,0,103.415,311.333Z" transform="translate(0 -245.558)" fill="#ce795f"/>
        </g>
      </g>
      <g id="anadir-al-carrito" transform="translate(435.082 2529.249)">
        <g id="Grupo_874104" data-name="Grupo 874104" transform="translate(16.627 75.641)">
          <path id="Trazado_594335" data-name="Trazado 594335" d="M151.641,362.266H100.133a8.133,8.133,0,1,1,0-16.266h8.133l-4.887,5.422h-3.246a2.711,2.711,0,1,0,0,5.422h51.508Z" transform="translate(-92 -346)" fill="#4b84be"/>
        </g>
        <path id="Trazado_594336" data-name="Trazado 594336" d="M287,406h24.4v5.422H287Z" transform="translate(-235.13 -319.515)" fill="#0856a6"/>
        <g id="Grupo_874105" data-name="Grupo 874105" transform="translate(0 26.844)">
          <path id="Trazado_594337" data-name="Trazado 594337" d="M19.587,92.267,17.165,81.422H0V76H21.512l4.7,21.031Z" transform="translate(0 -76)" fill="#4b84be"/>
        </g>
        <path id="Trazado_594338" data-name="Trazado 594338" d="M152.324,166.929l-.81-.929H108.406l8.414,37.954h47.651l9.555-36.974c-1.856.464-12.835,10.135-21.7-.05Zm13.64,9.573-1.489,5.764H151.761l.689-8.271A19.313,19.313,0,0,0,165.964,176.5Zm-30.92,5.764-.9-10.844h13.087l-.9,10.844Zm10.828,5.422-.9,10.844H136.4l-.9-10.844ZM128.7,171.422l.9,10.844h-12.04l-2.4-10.844Zm-9.934,16.266h11.289l.9,10.844h-9.789Zm31.638,10.844.9-10.844h11.764l-2.8,10.844Z" transform="translate(-88.814 -122.89)" fill="#4b84be"/>
        <path id="Trazado_594339" data-name="Trazado 594339" d="M298.641,166.929l-.81-.929H287v5.422h6.543l-.9,10.844H287v5.422h5.188l-.9,10.844H287v5.422h23.787l9.555-36.974C318.486,167.443,307.507,177.115,298.641,166.929Zm7.948,31.6h-9.866l.9-10.844H309.39ZM312.28,176.5l-1.489,5.764H298.078l.689-8.271A19.313,19.313,0,0,0,312.28,176.5Z" transform="translate(-235.13 -122.89)" fill="#0856a6"/>
        <g id="_Add_2_" transform="translate(27.471 16)">
          <g id="Grupo_874106" data-name="Grupo 874106" transform="translate(0 70.485)">
            <path id="Trazado_594340" data-name="Trazado 594340" d="M160.133,422.266a8.133,8.133,0,1,1,8.133-8.133A8.142,8.142,0,0,1,160.133,422.266Z" transform="translate(-152 -406)" fill="#665151"/>
          </g>
          <g id="Grupo_874107" data-name="Grupo 874107" transform="translate(27.11 70.485)">
            <path id="Trazado_594341" data-name="Trazado 594341" d="M310.133,422.266a8.133,8.133,0,1,1,8.133-8.133A8.142,8.142,0,0,1,310.133,422.266Z" transform="translate(-302 -406)" fill="#4d3535"/>
          </g>
        </g>
        <ellipse id="Elipse_4752" data-name="Elipse 4752" cx="2.435" cy="3.044" rx="2.435" ry="3.044" transform="translate(32.874 91.489)" fill="#fff7e6"/>
        <circle id="Elipse_4753" data-name="Elipse 4753" cx="3.044" cy="3.044" r="3.044" transform="translate(59.66 91.489)" fill="#ffeacc"/>
      </g>
      <g id="Grupo_874104-2" data-name="Grupo 874104" transform="translate(489.042 2527.64)">
        <g id="Trazado_594342-2" data-name="Trazado 594342" transform="translate(-302 -16)" fill="#f6f6f6">
          <path d="M 333.2503662109375 79 C 324.6522827148438 79 316.6179504394531 75.63263702392578 310.6273498535156 69.51822662353516 C 307.7572326660156 66.58881378173828 305.5042419433594 63.18618011474609 303.9309692382812 59.40485000610352 C 302.3179016113281 55.52788162231445 301.5 51.43838882446289 301.5 47.25 C 301.5 29.74299049377441 315.7431640625 15.5 333.2503662109375 15.5 C 350.7576293945312 15.5 365.0007934570312 29.74299049377441 365.0007934570312 47.25 C 365.0007934570312 55.83956146240234 361.6512451171875 63.86558151245117 355.5691833496094 69.849609375 C 352.64501953125 72.72663879394531 349.2442321777344 74.98452758789062 345.4613342285156 76.56056213378906 C 341.5760192871094 78.17925262451172 337.4676513671875 79 333.2503662109375 79 Z" stroke="none"/>
          <path d="M 333.2503662109375 78.5 C 350.1648559570312 78.5 364.5007934570312 64.89851379394531 364.5007934570312 47.25 C 364.5007934570312 30.02054023742676 350.4800720214844 16 333.2503662109375 16 C 316.0206604003906 16 302 30.02054023742676 302 47.25 C 302 64.03215026855469 315.5418395996094 78.5 333.2503662109375 78.5 M 333.2503662109375 79.5 C 324.5168151855469 79.5 316.3556213378906 76.07933807373047 310.2701721191406 69.86814117431641 C 307.3553161621094 66.89304351806641 305.0671691894531 63.43730163574219 303.4693298339844 59.59692001342773 C 301.830810546875 55.65876007080078 301 51.50466156005859 301 47.25 C 301 29.4672908782959 315.4674682617188 15 333.2503662109375 15 C 351.0333251953125 15 365.5007934570312 29.4672908782959 365.5007934570312 47.25 C 365.5007934570312 55.97465133666992 362.0982055664062 64.12725067138672 355.9198608398438 70.20601654052734 C 352.9498901367188 73.12811279296875 349.4958190917969 75.42137145996094 345.6536254882812 77.02210235595703 C 341.7070617675781 78.66631317138672 337.5339965820312 79.5 333.2503662109375 79.5 Z" stroke="none" fill="#4b84be"/>
        </g>
      </g>
      <path id="Trazado_594343" data-name="Trazado 594343" d="M438.25,47.25A31.288,31.288,0,0,0,407,16V78.5A31.22,31.22,0,0,0,438.25,47.25Z" transform="translate(113.294 2511.64)" fill="#fff"/>
      <path id="copo-de-nieve" d="M41.3,20.651a1.083,1.083,0,0,0-1.083-1.083h-1.7l1.622-1.622a1.083,1.083,0,1,0-1.532-1.532l-3.154,3.154h-1.6l1.622-1.622a1.083,1.083,0,1,0-1.532-1.532l-3.154,3.154H23.268l5.316-5.316h4.461a1.083,1.083,0,0,0,0-2.166H30.75l1.134-1.134h4.461a1.083,1.083,0,0,0,0-2.166H34.05l1.205-1.205a1.083,1.083,0,1,0-1.532-1.532L32.519,7.254V4.959a1.083,1.083,0,1,0-2.166,0V9.42l-1.134,1.134V8.259a1.083,1.083,0,0,0-2.166,0V12.72l-5.316,5.316V10.518l3.154-3.154a1.083,1.083,0,1,0-1.532-1.532L21.736,7.454v-1.6L24.891,2.7a1.083,1.083,0,0,0-1.532-1.532L21.736,2.787v-1.7a1.083,1.083,0,0,0-2.166,0v1.7L17.947,1.165A1.083,1.083,0,0,0,16.416,2.7L19.57,5.851v1.6L17.947,5.832a1.083,1.083,0,0,0-1.532,1.532l3.154,3.154v7.518L14.254,12.72V8.259a1.083,1.083,0,1,0-2.166,0v2.295L10.954,9.42V4.959a1.083,1.083,0,1,0-2.166,0V7.254l-1.205-1.2A1.083,1.083,0,0,0,6.051,7.58L7.256,8.786H4.961a1.083,1.083,0,1,0,0,2.166H9.422l1.134,1.134H8.261a1.083,1.083,0,1,0,0,2.166h4.461l5.316,5.316H10.52L7.366,16.414a1.083,1.083,0,0,0-1.532,1.532l1.622,1.622h-1.6L2.7,16.414a1.083,1.083,0,0,0-1.532,1.532l1.622,1.622h-1.7a1.083,1.083,0,0,0,0,2.166h1.7L1.167,23.357A1.083,1.083,0,1,0,2.7,24.888l3.154-3.154h1.6L5.834,23.357a1.083,1.083,0,1,0,1.532,1.532l3.154-3.154h7.518L12.722,27.05H8.261a1.083,1.083,0,1,0,0,2.166h2.295L9.422,30.35H4.961a1.083,1.083,0,0,0,0,2.166H7.256L6.05,33.722a1.083,1.083,0,1,0,1.532,1.532l1.205-1.205v2.295a1.083,1.083,0,1,0,2.166,0V31.882l1.134-1.134v2.295a1.083,1.083,0,1,0,2.166,0V28.582l5.316-5.316v7.518l-3.154,3.154a1.083,1.083,0,0,0,1.532,1.532l1.622-1.622v1.6l-3.154,3.154a1.083,1.083,0,1,0,1.532,1.532l1.622-1.622v1.7a1.083,1.083,0,1,0,2.166,0v-1.7l1.623,1.623a1.083,1.083,0,0,0,1.532-1.532l-3.154-3.154v-1.6l1.623,1.623a1.083,1.083,0,1,0,1.532-1.532l-3.154-3.154V23.266l5.316,5.316v4.461a1.083,1.083,0,1,0,2.166,0V30.749l1.134,1.134v4.461a1.083,1.083,0,1,0,2.166,0V34.049l1.205,1.205a1.083,1.083,0,0,0,1.532-1.532L34.05,32.517h2.295a1.083,1.083,0,0,0,0-2.166H31.883l-1.134-1.134h2.295a1.083,1.083,0,0,0,0-2.166H28.583l-5.316-5.316h7.518l3.154,3.154a1.083,1.083,0,0,0,1.532-1.532l-1.623-1.623h1.6l3.154,3.154a1.083,1.083,0,1,0,1.532-1.532l-1.623-1.623h1.7A1.084,1.084,0,0,0,41.3,20.651Z" transform="translate(499.641 2538.238)" fill="#4299ee"/>
    </g>
  </g>
</svg>
