<svg xmlns="http://www.w3.org/2000/svg" width="85.089" height="79" viewBox="0 0 85.089 79">
  <g id="Grupo_874675" data-name="Grupo 874675" transform="translate(-284.329 -5450)">
    <path id="Unión_6" data-name="Unión 6" d="M8393.749,11771.873l-8.452-18.125a22,22,0,0,1,10.641-29.237l32.628-15.212a22,22,0,0,1,29.236,10.639l8.452,18.128a22,22,0,0,1-10.641,29.237l-32.628,15.212a21.981,21.981,0,0,1-29.236-10.642Z" transform="translate(-8098.902 -6256.156)" fill="#ffe0f0"/>
    <g id="Page-1" transform="translate(296 5450)">
      <g id="_054---Satisfaction-Survey" data-name="054---Satisfaction-Survey">
        <path id="Path" d="M43.586,4H58.569a4.086,4.086,0,0,1,4.086,4.086V73.466a4.086,4.086,0,0,1-4.086,4.086H4.086A4.086,4.086,0,0,1,0,73.466V8.086A4.086,4.086,0,0,1,4.086,4Z" transform="translate(0 1.448)" fill="#cb8252" fill-rule="evenodd"/>
        <rect id="Rectangle" width="63" height="52" rx="1" transform="translate(57 11) rotate(90)" fill="#ecf0f1"/>
        <circle id="Oval" cx="8" cy="8" r="8" transform="translate(14 34)" fill="#f0c419"/>
        <circle id="Oval-2" data-name="Oval" cx="8" cy="8" r="8" transform="translate(14 18)" fill="#4fba6f"/>
        <ellipse id="Oval-3" data-name="Oval" cx="8" cy="8.5" rx="8" ry="8.5" transform="translate(14 50)" fill="#e64c3c"/>
        <g id="Grupo_874674" data-name="Grupo 874674" transform="translate(17.707 21.793)">
          <ellipse id="Oval-4" data-name="Oval" cx="1" cy="1.5" rx="1" ry="1.5" transform="translate(0.293 16.207)" fill="#3f5c6c"/>
          <circle id="Oval-5" data-name="Oval" cx="1.5" cy="1.5" r="1.5" transform="translate(5.293 16.207)" fill="#3f5c6c"/>
          <ellipse id="Oval-6" data-name="Oval" cx="1" cy="1.5" rx="1" ry="1.5" transform="translate(0.293 0.207)" fill="#3f5c6c"/>
          <circle id="Oval-7" data-name="Oval" cx="1.5" cy="1.5" r="1.5" transform="translate(5.293 0.207)" fill="#3f5c6c"/>
          <ellipse id="Oval-8" data-name="Oval" cx="1" cy="1.5" rx="1" ry="1.5" transform="translate(0.293 32.207)" fill="#3f5c6c"/>
          <circle id="Oval-9" data-name="Oval" cx="1.5" cy="1.5" r="1.5" transform="translate(5.293 32.207)" fill="#3f5c6c"/>
        </g>
        <path id="Path-2" data-name="Path" d="M18.086,34.724H15.362a1.362,1.362,0,1,1,0-2.724h2.724a1.362,1.362,0,1,1,0,2.724Z" transform="translate(5.069 11.586)" fill="#f29c1f" fill-rule="evenodd"/>
        <rect id="Rectangle-2" data-name="Rectangle" width="11" height="11" rx="1" transform="translate(38 20)" fill="#d1d4d1"/>
        <rect id="Rectangle-3" data-name="Rectangle" width="11" height="11" rx="1" transform="translate(38 37)" fill="#d1d4d1"/>
        <rect id="Rectangle-4" data-name="Rectangle" width="11" height="11" rx="1" transform="translate(38 53)" fill="#d1d4d1"/>
        <path id="Path-3" data-name="Path" d="M33.72,23.9a1.362,1.362,0,0,1-.963-.4l-1.362-1.362a1.362,1.362,0,0,1,1.926-1.926l.308.308,5.857-7.028a1.363,1.363,0,1,1,2.092,1.746l-6.81,8.172a1.362,1.362,0,0,1-.985.488Z" transform="translate(11.229 4.707)" fill="#ea3584" fill-rule="evenodd"/>
        <path id="Path-4" data-name="Path" d="M19.344,47.087a1.362,1.362,0,0,1-1.18-.681,1.422,1.422,0,0,0-2.362,0,1.362,1.362,0,0,1-2.358-1.362,4.086,4.086,0,0,1,7.083,0,1.362,1.362,0,0,1-1.178,2.043Z" transform="translate(4.809 15.568)" fill="#c03a2b" fill-rule="evenodd"/>
        <path id="Path-5" data-name="Path" d="M16.985,23.077a4.1,4.1,0,0,1-3.541-2.043A1.362,1.362,0,0,1,15.8,19.672a1.422,1.422,0,0,0,2.362,0,1.362,1.362,0,0,1,2.358,1.362,4.1,4.1,0,0,1-3.536,2.043Z" transform="translate(4.808 6.889)" fill="#24ae5f" fill-rule="evenodd"/>
        <path id="Path-6" data-name="Path" d="M38.517,5.448V8.172A2.732,2.732,0,0,1,35.793,10.9H16.724A2.732,2.732,0,0,1,14,8.172V5.448a1.362,1.362,0,0,1,1.362-1.362h2.724V2.724A2.732,2.732,0,0,1,20.81,0h10.9a2.732,2.732,0,0,1,2.724,2.724V4.086h2.724A1.362,1.362,0,0,1,38.517,5.448Z" transform="translate(5.069)" fill="#95a5a5" fill-rule="evenodd"/>
      </g>
    </g>
  </g>
</svg>
