<svg xmlns="http://www.w3.org/2000/svg" xmlns:xlink="http://www.w3.org/1999/xlink" width="368.953" height="237.694" viewBox="0 0 368.953 237.694">
  <defs>
    <clipPath id="clip-path">
      <rect id="Rectángulo_293405" data-name="Rectángulo 293405" width="368.953" height="237.694" fill="none"/>
    </clipPath>
    <clipPath id="clip-path-2">
      <rect id="Rectángulo_293404" data-name="Rectángulo 293404" width="368.952" height="237.695" fill="none"/>
    </clipPath>
    <clipPath id="clip-path-3">
      <rect id="Rectángulo_293389" data-name="Rectángulo 293389" width="53.097" height="63.146" fill="none"/>
    </clipPath>
    <clipPath id="clip-path-4">
      <rect id="Rectángulo_293390" data-name="Rectángulo 293390" width="92.287" height="42.923" fill="none"/>
    </clipPath>
    <clipPath id="clip-path-5">
      <rect id="Rectángulo_293391" data-name="Rectángulo 293391" width="46.846" height="16.302" fill="#fff"/>
    </clipPath>
    <clipPath id="clip-path-6">
      <rect id="Rectángulo_293392" data-name="Rectángulo 293392" width="35.63" height="12.399" fill="none"/>
    </clipPath>
    <clipPath id="clip-path-7">
      <rect id="Rectángulo_293393" data-name="Rectángulo 293393" width="47.739" height="16.612" fill="none"/>
    </clipPath>
    <clipPath id="clip-path-8">
      <rect id="Rectángulo_293394" data-name="Rectángulo 293394" width="39.495" height="13.744" fill="none"/>
    </clipPath>
    <clipPath id="clip-path-9">
      <rect id="Rectángulo_293395" data-name="Rectángulo 293395" width="53.27" height="18.537" fill="none"/>
    </clipPath>
    <clipPath id="clip-path-10">
      <rect id="Rectángulo_293397" data-name="Rectángulo 293397" width="2.128" height="2.24" fill="none"/>
    </clipPath>
    <clipPath id="clip-path-11">
      <rect id="Rectángulo_293398" data-name="Rectángulo 293398" width="2.626" height="3.866" fill="none"/>
    </clipPath>
    <clipPath id="clip-path-12">
      <rect id="Rectángulo_293399" data-name="Rectángulo 293399" width="2.373" height="3.899" fill="none"/>
    </clipPath>
    <clipPath id="clip-path-13">
      <rect id="Rectángulo_293400" data-name="Rectángulo 293400" width="1.866" height="2.002" fill="none"/>
    </clipPath>
    <clipPath id="clip-path-14">
      <rect id="Rectángulo_293401" data-name="Rectángulo 293401" width="28.713" height="29.171" fill="none"/>
    </clipPath>
    <clipPath id="clip-path-15">
      <rect id="Rectángulo_293402" data-name="Rectángulo 293402" width="30.689" height="31.177" fill="none"/>
    </clipPath>
    <clipPath id="clip-path-16">
      <rect id="Rectángulo_293403" data-name="Rectángulo 293403" width="22.141" height="22.494" fill="none"/>
    </clipPath>
    <clipPath id="clip-path-17">
      <rect id="Rectángulo_42649" data-name="Rectángulo 42649" width="58.053" height="10.742" fill="none"/>
    </clipPath>
  </defs>
  <g id="Grupo_874310" data-name="Grupo 874310" transform="translate(-915 -885.304)">
    <g id="Grupo_874308" data-name="Grupo 874308" transform="translate(915 885.304)">
      <g id="Grupo_874307" data-name="Grupo 874307">
        <g id="Grupo_874306" data-name="Grupo 874306" transform="translate(0 0)" clip-path="url(#clip-path)">
          <g id="Grupo_874305" data-name="Grupo 874305" transform="translate(0 0)">
            <g id="Grupo_874304" data-name="Grupo 874304" transform="translate(0 0)" clip-path="url(#clip-path-2)">
              <path id="Trazado_594862" data-name="Trazado 594862" d="M414.623,1065.209c0,10.195-76.373,18.46-170.584,18.46s-170.584-8.265-170.584-18.46,76.373-18.459,170.584-18.459,170.584,8.264,170.584,18.459" transform="translate(-60.789 -845.974)" fill="#ffeeb0"/>
              <path id="Trazado_594863" data-name="Trazado 594863" d="M332.962,715.044s-9.144-57.163-24.561-54.1,14.614,36.947,16.749,53.671Z" transform="translate(-251.597 -526.593)" fill="#acc9c5"/>
              <path id="Trazado_594864" data-name="Trazado 594864" d="M202.948,722.516s-30.429-58.337-49.037-49.429,30.741,34.542,38.957,51.807Z" transform="translate(-123.93 -535.973)" fill="#92bcb5"/>
              <path id="Trazado_594865" data-name="Trazado 594865" d="M243.663,763.085c-5.457-12.026-15.474-23.116-22.917-30.3a158.172,158.172,0,0,0-15-12.841l.31-.427A158.823,158.823,0,0,1,221.113,732.4c7.476,7.217,17.54,18.36,23.031,30.462Z" transform="translate(-170.272 -575.163)" fill="#acc9c5"/>
              <path id="Trazado_594866" data-name="Trazado 594866" d="M15.367,844.029c9.69,3.082,6.623,17.9,18.161,16.195,9.773-1.451,10.648-2.255,13.7.822a14.4,14.4,0,0,1,2.527,3.391,9.322,9.322,0,0,0,5.477,4.823c17.4,4.786,44.074-19.079,26.986-35.252-1.234-1.168-3.136-1.753-5.252-2.294-11.479-2.926-15.618,2.078-23.491-12.525s-22.206,3.9-29.954,2.464S9.108,817.22,2.233,824.921s3.443,16.033,13.134,19.108" transform="translate(0 -652.976)" fill="#ccd39c"/>
              <path id="Trazado_594867" data-name="Trazado 594867" d="M77.308,917.776l.424-.517c-.228-.187-23.394-18.78-74.588-24.851l-.079.664c51,6.049,74.016,24.518,74.243,24.7" transform="translate(-2.537 -718.244)" fill="#c2c68e"/>
              <path id="Trazado_594868" data-name="Trazado 594868" d="M257.507,856.254c7.346-5.448,9-10.17,9.063-10.369l-.634-.213c-.016.047-1.669,4.736-8.827,10.045Z" transform="translate(-212.777 -679.567)" fill="#c2c68e"/>
              <path id="Trazado_594869" data-name="Trazado 594869" d="M234.2,841.725c2.219-3.171,2.5-8.017.806-14.014a44.7,44.7,0,0,0-3.232-8.14l-.588.319c.076.141,7.569,14.162,2.466,21.453Z" transform="translate(-191.324 -657.966)" fill="#c2c68e"/>
              <path id="Trazado_594870" data-name="Trazado 594870" d="M61.523,926.6c.869-.6,1.346-.994,1.368-1.013l-.432-.51c-.1.084-10.153,8.429-23.66,6.735l-.083.663c10.884,1.365,19.568-3.649,22.807-5.875" transform="translate(-32.041 -745.278)" fill="#c2c68e"/>
              <path id="Trazado_594871" data-name="Trazado 594871" d="M121.743,957.032a15.776,15.776,0,0,0,5.04-8.783,11.684,11.684,0,0,0,.071-4.239l-.653.143c.014.065,1.348,6.61-4.912,12.388Z" transform="translate(-100.376 -760.949)" fill="#c2c68e"/>
              <g id="Grupo_874264" data-name="Grupo 874264" transform="translate(267.544 110.179)" opacity="0.6">
                <g id="Grupo_874263" data-name="Grupo 874263">
                  <g id="Grupo_874262" data-name="Grupo 874262" clip-path="url(#clip-path-3)">
                    <path id="Trazado_594872" data-name="Trazado 594872" d="M1551.683,582.5s29.584-69.214,48.734-60.41S1569.95,564.039,1562,584.463Z" transform="translate(-1551.682 -521.317)" fill="#acc9c5"/>
                  </g>
                </g>
              </g>
              <path id="Trazado_594873" data-name="Trazado 594873" d="M1518.474,650.32s57.055-68.269,79.914-51.449-51.058,36.924-66.87,57.345Z" transform="translate(-1256.655 -473.114)" fill="#ccd39c"/>
              <path id="Trazado_594874" data-name="Trazado 594874" d="M1557.774,704.464c10.654-14.3,27.247-26.112,39.29-33.5a218.518,218.518,0,0,1,23.828-12.745l-.306-.646a219.323,219.323,0,0,0-23.917,12.792c-12.1,7.425-28.768,19.3-39.489,33.685Z" transform="translate(-1288.688 -523.897)" fill="#c2c68e"/>
              <path id="Trazado_594875" data-name="Trazado 594875" d="M1609.208,773.115c-11.961,1.563-11.258,18.988-24.451,14.75-11.158-3.591-12.04-4.679-16.2-1.813a18.114,18.114,0,0,0-3.764,3.508,10.9,10.9,0,0,1-7.239,4.227c-21.328,1.959-47.943-30.438-24.755-45.377,1.674-1.079,4.018-1.363,6.6-1.555,14.028-1.029,17.9,5.473,29.983-9.524s25.27,8.854,34.633,8.771,17.759-2.155,24.316,7.954-7.165,17.5-19.126,19.058" transform="translate(-1261.08 -585.807)" fill="#acc9c5"/>
              <g id="Grupo_874267" data-name="Grupo 874267" transform="translate(276.439 148.895)" opacity="0.5">
                <g id="Grupo_874266" data-name="Grupo 874266">
                  <g id="Grupo_874265" data-name="Grupo 874265" clip-path="url(#clip-path-4)">
                    <path id="Trazado_594876" data-name="Trazado 594876" d="M1603.663,886.448l-.4-.671c.3-.167,31.089-16.64,92.288-13.315l-.037.769c-60.969-3.312-91.552,13.051-91.855,13.217" transform="translate(-1603.268 -850.266)" fill="#68a1bf"/>
                    <path id="Trazado_594877" data-name="Trazado 594877" d="M1794.393,774.453c-7.548-7.646-8.561-13.333-8.6-13.571l.785-.116c.009.056,1.032,5.706,8.388,13.157Z" transform="translate(-1754.322 -758.195)" fill="#68a1bf"/>
                    <path id="Trazado_594878" data-name="Trazado 594878" d="M1834.816,770.507c-1.983-4.04-1.364-9.593,1.791-16.06a50.612,50.612,0,0,1,5.378-8.59l.627.479c-.117.144-11.637,14.557-7.078,23.846Z" transform="translate(-1793.952 -745.857)" fill="#68a1bf"/>
                    <path id="Trazado_594879" data-name="Trazado 594879" d="M1927.348,879.073c-.9-.851-1.384-1.4-1.406-1.422l.605-.493c.1.116,10.257,11.588,26.422,12.361l-.032.769c-13.025-.622-22.226-8.043-25.589-11.215" transform="translate(-1870.306 -854.519)" fill="#68a1bf"/>
                    <path id="Trazado_594880" data-name="Trazado 594880" d="M1952.417,918.994a17.974,17.974,0,0,1-4.194-10.97,13.033,13.033,0,0,1,.744-4.823l.738.293c-.029.071-2.87,7.231,3.34,15.034Z" transform="translate(-1888.744 -876.071)" fill="#68a1bf"/>
                  </g>
                </g>
              </g>
              <path id="Trazado_594881" data-name="Trazado 594881" d="M1891.624,519.152c1.721-2.462,3.045-2.658,4.047-1.995s1.3,1.932-.419,4.395c-3.136,4.486-6.465,5.454-6.465,5.454s-.345-3.3,2.837-7.854" transform="translate(-1563.109 -407.424)" fill="#acc9c5"/>
              <g id="Grupo_874270" data-name="Grupo 874270" transform="translate(5.347 25.877)" opacity="0.4">
                <g id="Grupo_874269" data-name="Grupo 874269">
                  <g id="Grupo_874268" data-name="Grupo 874268" clip-path="url(#clip-path-5)">
                    <path id="Trazado_594882" data-name="Trazado 594882" d="M406.322,165.353a9.561,9.561,0,0,0-9.48-4.518c-6.795.647-5.986,5.824-9.222,5.339s-7.765,0-8.736,3.236-5.339,1.456-5.5,4.206,5.015,4.692,11,2.265,8.9,1.885,17.311,1.1,9.455-1.752,14.434-1.266,4.861-2.924,2.6-5.189-11.433-2.049-12.4-5.177" transform="translate(-373.38 -160.779)" fill="#fff"/>
                  </g>
                </g>
              </g>
              <g id="Grupo_874273" data-name="Grupo 874273" transform="translate(42.755 78.175)" opacity="0.6">
                <g id="Grupo_874272" data-name="Grupo 874272">
                  <g id="Grupo_874271" data-name="Grupo 874271" clip-path="url(#clip-path-6)">
                    <path id="Trazado_594883" data-name="Trazado 594883" d="M273.023,339.177a7.272,7.272,0,0,0-7.21-3.436c-5.168.492-4.553,4.43-7.014,4.061s-5.906,0-6.645,2.461-4.061,1.107-4.184,3.2,3.814,3.568,8.367,1.722,6.768,1.434,13.166.84,7.191-1.332,10.978-.963,3.7-2.224,1.975-3.947-8.7-1.559-9.434-3.938" transform="translate(-247.969 -335.699)" fill="#fff"/>
                  </g>
                </g>
              </g>
              <g id="Grupo_874276" data-name="Grupo 874276" transform="translate(218.459 64.895)" opacity="0.6">
                <g id="Grupo_874275" data-name="Grupo 874275">
                  <g id="Grupo_874274" data-name="Grupo 874274" clip-path="url(#clip-path-7)">
                    <path id="Trazado_594884" data-name="Trazado 594884" d="M1300.571,263.338a9.743,9.743,0,0,0-9.66-4.6c-6.924.66-6.1,5.935-9.4,5.44s-7.913,0-8.9,3.3-5.44,1.484-5.605,4.286,5.111,4.781,11.211,2.308,9.067,1.921,17.64,1.126,9.635-1.785,14.709-1.29,4.954-2.98,2.646-5.288-11.651-2.088-12.64-5.276" transform="translate(-1267.002 -258.678)" fill="#fff"/>
                  </g>
                </g>
              </g>
              <g id="Grupo_874279" data-name="Grupo 874279" transform="translate(309.772 38.533)" opacity="0.6">
                <g id="Grupo_874278" data-name="Grupo 874278">
                  <g id="Grupo_874277" data-name="Grupo 874277" clip-path="url(#clip-path-8)">
                    <path id="Trazado_594885" data-name="Trazado 594885" d="M1824.368,109.643a8.061,8.061,0,0,0-7.992-3.809c-5.729.546-5.047,4.91-7.775,4.5s-6.547,0-7.365,2.728-4.5,1.227-4.638,3.546,4.228,3.956,9.275,1.91,7.5,1.589,14.594.931,7.971-1.477,12.169-1.067,4.1-2.465,2.189-4.375-9.639-1.728-10.457-4.365" transform="translate(-1796.594 -105.787)" fill="#fff"/>
                  </g>
                </g>
              </g>
              <g id="Grupo_874282" data-name="Grupo 874282" transform="translate(197.942 20.293)" opacity="0.6">
                <g id="Grupo_874281" data-name="Grupo 874281">
                  <g id="Grupo_874280" data-name="Grupo 874280" clip-path="url(#clip-path-9)">
                    <path id="Trazado_594886" data-name="Trazado 594886" d="M1185.471,5.2a10.872,10.872,0,0,0-10.78-5.137c-7.726.736-6.807,6.623-10.486,6.071s-8.83,0-9.934,3.679-6.071,1.656-6.255,4.783,5.7,5.335,12.51,2.575,10.118,2.144,19.684,1.256,10.751-1.992,16.414-1.44,5.528-3.325,2.952-5.9-13-2.33-14.1-5.887" transform="translate(-1148.011 0.001)" fill="#fff"/>
                  </g>
                </g>
              </g>
              <path id="Trazado_594887" data-name="Trazado 594887" d="M466.726,803.25H439.88a2.905,2.905,0,0,1-2.745-3.132l1.767-52.575a2.882,2.882,0,0,1,2.746-2.909h25.078a2.894,2.894,0,0,1,2.747,3.021V800.23a2.894,2.894,0,0,1-2.747,3.021" transform="translate(-361.761 -595.951)" fill="#73b3ce"/>
              <path id="Trazado_594888" data-name="Trazado 594888" d="M723.666,642.445H701.042a5,5,0,0,1-4.981-4.872L693.649,555.5a5,5,0,0,1,4.981-5.169h25.036a5,5,0,0,1,4.983,5.02v82.078a5,5,0,0,1-4.983,5.02" transform="translate(-574.047 -435.146)" fill="#ea3584"/>
              <path id="Trazado_594889" data-name="Trazado 594889" d="M969.648,709.137H944.66a3.717,3.717,0,0,1-3.685-3.827l1.559-70.736a3.713,3.713,0,0,1,3.685-3.66h23.43a3.715,3.715,0,0,1,3.686,3.744v70.736a3.715,3.715,0,0,1-3.686,3.744" transform="translate(-778.729 -501.837)" fill="#a2a7c5"/>
              <path id="Trazado_594890" data-name="Trazado 594890" d="M1210.374,503.283h-26.948a2.8,2.8,0,0,1-2.775-2.761l-2.287-115.477a2.8,2.8,0,0,1,2.775-2.874h29.235a2.8,2.8,0,0,1,2.776,2.818V500.465a2.8,2.8,0,0,1-2.776,2.818" transform="translate(-975.188 -295.983)" fill="#6826cc"/>
              <path id="Trazado_594891" data-name="Trazado 594891" d="M1459.2,369.028H1436.7a4.921,4.921,0,0,1-5.015-4.732l-2.4-139.461a4.913,4.913,0,0,1,5.015-4.891H1459.2a4.917,4.917,0,0,1,5.016,4.811V364.216a4.917,4.917,0,0,1-5.016,4.811" transform="translate(-1182.846 -161.728)" fill="#ea3584"/>
              <path id="Trazado_594892" data-name="Trazado 594892" d="M436.594,658.382a3.106,3.106,0,1,1,3.106,3.106,3.106,3.106,0,0,1-3.106-3.106" transform="translate(-361.315 -521.999)" fill="#6826cc"/>
              <path id="Trazado_594893" data-name="Trazado 594893" d="M706.829,406.937a3.106,3.106,0,1,1,3.106,3.106,3.106,3.106,0,0,1-3.106-3.106" transform="translate(-584.956 -313.909)" fill="#6826cc"/>
              <path id="Trazado_594894" data-name="Trazado 594894" d="M984.865,531.426a3.106,3.106,0,1,1,3.106,3.107,3.106,3.106,0,0,1-3.106-3.107" transform="translate(-815.052 -416.933)" fill="#6826cc"/>
              <path id="Trazado_594895" data-name="Trazado 594895" d="M1215.272,259.838a3.106,3.106,0,1,1,3.107,3.106,3.106,3.106,0,0,1-3.107-3.106" transform="translate(-1005.732 -192.173)" fill="#6826cc"/>
              <path id="Trazado_594896" data-name="Trazado 594896" d="M1512.563,101.3a3.106,3.106,0,1,1,2.817,3.371,3.107,3.107,0,0,1-2.817-3.371" transform="translate(-1251.753 -61.198)" fill="#6826cc"/>
              <path id="Trazado_594897" data-name="Trazado 594897" d="M453.939,211.584l-.353-.379,46.72-43.472,47.919,21.456,39.634-46.717.044-.023L639.16,115.16l.243.457L588.19,142.882,548.369,189.82l-47.96-21.474Z" transform="translate(-375.378 -75.011)" fill="#6826cc"/>
              <path id="Trazado_594898" data-name="Trazado 594898" d="M944.457,340.967l-14.3,7.018,6.731,13.717a2.469,2.469,0,0,0,3.3,1.129l1.738-.853a2.469,2.469,0,0,0,1.377-2.066Z" transform="translate(-769.775 -261.884)" fill="#ea3584"/>
              <path id="Trazado_594899" data-name="Trazado 594899" d="M836.524,165.446,819.8,131.36l20.05-9.838a27.885,27.885,0,0,1,30.395,3.83l.594.507a3.629,3.629,0,0,1,1.268,2.584,29.074,29.074,0,0,1-16.232,27.508Z" transform="translate(-678.447 -77.916)" fill="#73b3ce"/>
              <path id="Trazado_594900" data-name="Trazado 594900" d="M1001.942,133.06c-3.346-6.819-7.2-12.227-9.943-14.263a27.883,27.883,0,0,1,20.753,6.557l.594.508a3.625,3.625,0,0,1,1.268,2.584,29.083,29.083,0,0,1-7.474,20.907c-.046-3.477-1.948-9.668-5.2-16.292" transform="translate(-820.956 -77.917)" fill="#366f90"/>
              <path id="Trazado_594901" data-name="Trazado 594901" d="M830.925,226.245c-2.28,1.119-7.874-5.6-12.492-15.017s-6.514-17.95-4.234-19.069,7.873,5.6,12.492,15.017,6.514,17.95,4.234,19.069" transform="translate(-673.013 -138.633)" fill="#331832"/>
              <path id="Trazado_594902" data-name="Trazado 594902" d="M736.755,288.847s1.729-2.342,8.727-4.4,7.416-12.378.054-13.915c-4.74-.99-8.506,2.046-12.67,8.094-2.059,2.99-8.021,4.436-8.021,4.436s3.143,2.866,6.76,2.939a12.206,12.206,0,0,0,6.392-1.51,3.511,3.511,0,0,0-1.241,4.355" transform="translate(-599.866 -203.441)" fill="#ef8062"/>
              <path id="Trazado_594903" data-name="Trazado 594903" d="M793.1,301.147a60.049,60.049,0,0,0,4.909-4.912c1.711-2.059,5.972-2.555,5.87,1.061s-10.779,3.851-10.779,3.851" transform="translate(-656.353 -223.539)" fill="#f5b27a"/>
              <path id="Trazado_594904" data-name="Trazado 594904" d="M937.352,203.857a8.144,8.144,0,1,1,3.577-.836,8.149,8.149,0,0,1-3.577.836m-3.517-15.294a7.968,7.968,0,1,0,10.663,3.643,7.977,7.977,0,0,0-10.663-3.643" transform="translate(-768.993 -134.945)" fill="#331832"/>
              <path id="Trazado_594905" data-name="Trazado 594905" d="M949.948,211.089a6.05,6.05,0,1,1,1.936-1.5,6.066,6.066,0,0,1-1.936,1.5" transform="translate(-778.924 -144.872)" fill="#331832"/>
              <path id="Trazado_594906" data-name="Trazado 594906" d="M965.546,206.73l-9.471-6.039a6.066,6.066,0,0,1,9.471,6.039" transform="translate(-791.226 -144.872)" fill="#764678"/>
              <path id="Trazado_594907" data-name="Trazado 594907" d="M951.936,227.814l-10.665-4.294a6.072,6.072,0,0,1,.431-1.922l11.1,4.874a6.024,6.024,0,0,1-.87,1.341" transform="translate(-778.975 -163.097)" fill="#764678"/>
              <path id="Trazado_594908" data-name="Trazado 594908" d="M814.616,91.363l-14.3,7.018-6.731-13.717a2.469,2.469,0,0,1,1.129-3.3l1.738-.853a2.469,2.469,0,0,1,2.477.176Z" transform="translate(-656.542 -46.125)" fill="#ea3584"/>
              <path id="Trazado_594909" data-name="Trazado 594909" d="M1041.8,202.572a.412.412,0,1,1-.188.551.412.412,0,0,1,.188-.551" transform="translate(-861.978 -147.317)" fill="#331832"/>
              <path id="Trazado_594910" data-name="Trazado 594910" d="M1024.885,170.816a.412.412,0,1,1-.188.551.412.412,0,0,1,.188-.551" transform="translate(-847.981 -121.036)" fill="#331832"/>
              <path id="Trazado_594911" data-name="Trazado 594911" d="M1058.692,239.71a.412.412,0,1,1-.188.551.412.412,0,0,1,.188-.551" transform="translate(-875.959 -178.052)" fill="#331832"/>
              <path id="Trazado_594912" data-name="Trazado 594912" d="M1003.556,140.905a.412.412,0,1,1-.188.551.412.412,0,0,1,.188-.551" transform="translate(-830.33 -96.283)" fill="#331832"/>
              <path id="Trazado_594913" data-name="Trazado 594913" d="M1063.156,262.365a.412.412,0,1,1-.188.551.412.412,0,0,1,.188-.551" transform="translate(-879.654 -196.8)" fill="#331832"/>
              <path id="Trazado_594914" data-name="Trazado 594914" d="M904.172,264.491a.412.412,0,1,1-.188.551.412.412,0,0,1,.188-.551" transform="translate(-748.082 -198.56)" fill="#331832"/>
              <path id="Trazado_594915" data-name="Trazado 594915" d="M887.259,232.735a.412.412,0,1,1-.188.551.412.412,0,0,1,.188-.551" transform="translate(-734.085 -172.279)" fill="#331832"/>
              <path id="Trazado_594916" data-name="Trazado 594916" d="M921.065,301.629a.412.412,0,1,1-.188.551.412.412,0,0,1,.188-.551" transform="translate(-762.062 -229.294)" fill="#331832"/>
              <path id="Trazado_594917" data-name="Trazado 594917" d="M865.929,202.825a.412.412,0,1,1-.188.551.412.412,0,0,1,.188-.551" transform="translate(-716.433 -147.526)" fill="#331832"/>
              <path id="Trazado_594918" data-name="Trazado 594918" d="M925.529,324.283a.412.412,0,1,1-.188.551.412.412,0,0,1,.188-.551" transform="translate(-765.756 -248.042)" fill="#331832"/>
              <path id="Trazado_594919" data-name="Trazado 594919" d="M871.518,208.717a53.444,53.444,0,0,0-9-24.708,54.322,54.322,0,0,0-7.7-9.323l.113-.125a54.516,54.516,0,0,1,7.728,9.354,53.611,53.611,0,0,1,9.025,24.787Z" transform="translate(-707.43 -124.171)" fill="#331832"/>
              <path id="Trazado_594920" data-name="Trazado 594920" d="M642.161,708.79c.649-.91-2.725-3.994-2.725-3.994-.336-.158-4.5,5.45-10.544,4.637-2.151-.289-5.594-3.364-5.89-3.859-.039-.066-4.242,2.341-4.242,2.341.536.9.947,4.3,3.494,5.938,5.27,3.384,13.256,2.446,19.907-5.063" transform="translate(-512.072 -562.978)" fill="#ffb27d"/>
              <path id="Trazado_594921" data-name="Trazado 594921" d="M607.306,1099.31s.082,1.571,1.158,1.986,4.168.732,3.044,1.773c-.645.6-3.77.307-4.649.331s-1.694.429-2.364-.142c-.737-.628-.1-3.869-.1-3.869a3.515,3.515,0,0,0,1.451.339,2.8,2.8,0,0,0,1.464-.417" transform="translate(-499.972 -889.472)" fill="#331832"/>
              <path id="Trazado_594922" data-name="Trazado 594922" d="M606.224,838.772s.551,2.936-1.346,16.606c-1.369,9.869-3.032,19.821-3.85,24.593a3.7,3.7,0,0,1-3.378,3.1l-.908.061a3.109,3.109,0,0,1-3.272-3.281l1.43-32.172.281-10.584Z" transform="translate(-491.139 -672.468)" fill="#764678"/>
              <path id="Trazado_594923" data-name="Trazado 594923" d="M548.88,1100.886s.082,1.571,1.157,1.986,4.168.732,3.044,1.773c-.645.6-3.769.307-4.649.331s-1.694.429-2.364-.142c-.736-.628-.1-3.869-.1-3.869a3.513,3.513,0,0,0,1.451.339,2.8,2.8,0,0,0,1.464-.417" transform="translate(-451.62 -890.776)" fill="#331832"/>
              <path id="Trazado_594924" data-name="Trazado 594924" d="M547.945,824.315s.4,7.089-1.493,20.759c-1.37,9.869-3.032,19.821-3.851,24.593a3.7,3.7,0,0,1-3.378,3.1l-.909.061a3.109,3.109,0,0,1-3.272-3.281l1.431-32.173.281-10.584Z" transform="translate(-442.786 -661.892)" fill="#764678"/>
              <path id="Trazado_594925" data-name="Trazado 594925" d="M539.409,845.844c.045.855,5.653-1.011,12.049-1.384s10.668-2.531,10.623-3.386-4.727-.532-11.123-.16-11.594,4.074-11.549,4.929" transform="translate(-446.402 -675.313)" fill="#331832"/>
              <path id="Trazado_594926" data-name="Trazado 594926" d="M523.164,701.569s.342-4.616,8.564-6.1c11.856-2.141,12.665,8.956,16.663,25.336,0,0-12,.361-22.659,4.675,0,0-3.963-16.7-2.568-23.91" transform="translate(-432.713 -555.043)" fill="#a2a7c5"/>
              <path id="Trazado_594927" data-name="Trazado 594927" d="M506.332,701.21l5.9,2.034s11.956-.99,14.99-2.052a5.08,5.08,0,0,0,3.49-3.505,17.482,17.482,0,0,0-9.747-2.79c-.547.006-1.109.038-1.687.1a16.511,16.511,0,0,0-2.849.557c-7.027,2.062-10.093,5.656-10.093,5.656" transform="translate(-419.029 -554.787)" fill="#a2a7c5"/>
              <path id="Trazado_594928" data-name="Trazado 594928" d="M560.291,661.552l.271-2.114.079-.615.463-3.618.737,3.389.442,2.034.14.644c.1.437.38.483.773.808.159.132,1.171.924.284,1.516-1.1.739-3.483.329-4.518-.571.006,0,1.242-.791,1.329-1.474" transform="translate(-462.585 -521.941)" fill="#ffb27d"/>
              <path id="Trazado_594929" data-name="Trazado 594929" d="M565.058,846.811s-5.332-.265-21.273,4.449l-.062,2.334,21.077.176Z" transform="translate(-449.973 -680.507)" fill="#764678"/>
              <path id="Trazado_594930" data-name="Trazado 594930" d="M505.457,729.687c-.343.724.551,1.881,2,2.583s2.9.683,3.239-.041-.551-1.881-2-2.583-2.9-.684-3.239.041" transform="translate(-418.245 -583.121)" fill="#331832"/>
              <path id="Trazado_594931" data-name="Trazado 594931" d="M498,760.143c-.458-5.534-.686-13.521.833-20.143a18.933,18.933,0,0,1,.842-2.978c.268-.694-.65-1.956-1.832-2.427a3.136,3.136,0,0,0-2.845.281,16.734,16.734,0,0,0-1.022,3.372c-1.459,5.919-1.668,13.273-.654,22.529Z" transform="translate(-407.744 -587.475)" fill="#ffb27d"/>
              <path id="Trazado_594932" data-name="Trazado 594932" d="M576.156,642.292a4.576,4.576,0,0,1,.649,1.786c.155,1.069-1.744-1.006-1.744-1.006Z" transform="translate(-475.908 -511.254)" fill="#5c305d"/>
              <path id="Trazado_594933" data-name="Trazado 594933" d="M557.731,643.6c-.951-1.829-2.952-2.673-4.469-1.884s-1.976,2.911-1.025,4.741,2.952,2.673,4.469,1.884,1.976-2.911,1.025-4.741" transform="translate(-456.608 -510.53)" fill="#ffb27d"/>
              <path id="Trazado_594934" data-name="Trazado 594934" d="M538.453,633.579l1.355-.659a1.091,1.091,0,0,0,.593-.737c.124-.557.387-.915,1.719-1.343a2.94,2.94,0,0,0,2.287-2.87,1.057,1.057,0,0,0-1.892-.52c-.681.728-.7-.442-1.544-.26-1.576.34-1.437,1.6-2.68,2.01-1.63.537-4.072,2.812-1.67,5.152Z" transform="translate(-443.263 -498.634)" fill="#331832"/>
              <path id="Trazado_594935" data-name="Trazado 594935" d="M568.22,660.681a.062.062,0,0,0,.011-.055.063.063,0,0,0-.077-.044.68.68,0,0,0-.539.634.063.063,0,0,0,.055.07.069.069,0,0,0,.07-.055,1.074,1.074,0,0,1,.447-.527.062.062,0,0,0,.033-.022" transform="translate(-469.745 -526.388)" fill="#080435"/>
              <path id="Trazado_594936" data-name="Trazado 594936" d="M570.934,664.355a.207.207,0,1,0,0-.335.243.243,0,0,0,0,.335" transform="translate(-472.44 -529.213)" fill="#080435"/>
              <path id="Trazado_594937" data-name="Trazado 594937" d="M580.48,654.884a.046.046,0,0,0,.021-.041.076.076,0,0,0-.052-.071.44.44,0,0,0-.577.287.075.075,0,0,0,.029.083.046.046,0,0,0,.068-.015.659.659,0,0,1,.478-.239.042.042,0,0,0,.032,0" transform="translate(-479.887 -521.561)" fill="#080435"/>
              <path id="Trazado_594938" data-name="Trazado 594938" d="M581.523,658.692c.033.146.146.245.252.221a.243.243,0,0,0,.131-.308c-.033-.146-.146-.245-.252-.221a.243.243,0,0,0-.131.308" transform="translate(-481.248 -524.569)" fill="#080435"/>
              <path id="Trazado_594939" data-name="Trazado 594939" d="M541.451,661.623s1.736,1.745,3.171,1.4c0,0-1.7-1.194.3-3.024a7.968,7.968,0,0,0-3.47,1.626" transform="translate(-448.093 -525.906)" fill="#5c305d"/>
              <path id="Trazado_594940" data-name="Trazado 594940" d="M552.579,666.318a.606.606,0,1,0-.528-.733.641.641,0,0,0,.528.733" transform="translate(-456.855 -530.15)" fill="#ffb27d"/>
              <path id="Trazado_594941" data-name="Trazado 594941" d="M557.525,660s.452,1.83.932,2.032,2.9-.515,3.848-1.344a2.448,2.448,0,0,1-1.052,3.007,3.558,3.558,0,0,1-1.132.407,2.45,2.45,0,0,1-2.271-.5,7.138,7.138,0,0,1-.383-1.628,1.618,1.618,0,0,0-.788-1.07,2.388,2.388,0,0,1,.844-.9" transform="translate(-460.697 -525.906)" fill="#5c305d"/>
              <path id="Trazado_594942" data-name="Trazado 594942" d="M571.148,627.849a.464.464,0,0,1-.4-.247l.076-.036a.387.387,0,0,0,.531.156l.031.078a.631.631,0,0,1-.234.049" transform="translate(-472.335 -499.067)" fill="#331832"/>
              <path id="Trazado_594943" data-name="Trazado 594943" d="M574.973,632.447l-.025-.034a5.61,5.61,0,0,0,.769-.707,1.708,1.708,0,0,0,.568-1.411c-.073-.265-.178-.421-.322-.475-.23-.087-.523.1-.781.272l-.116.075-.022-.036.115-.074c.266-.174.568-.371.819-.276.157.06.271.224.348.5.266.966-1.287,2.115-1.353,2.164" transform="translate(-475.814 -500.879)" fill="#fff"/>
              <path id="Trazado_594944" data-name="Trazado 594944" d="M547.775,634.642l-.009-.041a3.059,3.059,0,0,0,2.3-1.682l.04.014a3.1,3.1,0,0,1-2.328,1.708" transform="translate(-453.319 -503.497)" fill="#fff"/>
              <path id="Trazado_594945" data-name="Trazado 594945" d="M578.282,669.34a5.8,5.8,0,0,1-1.709.588.855.855,0,0,0,1.219.388c.512-.235.49-.976.49-.976" transform="translate(-477.159 -533.638)" fill="#fff"/>
              <path id="Trazado_594946" data-name="Trazado 594946" d="M509.956,868.956h0a.774.774,0,0,0,.109,1.086l2.777,2.246c.329.269,1.791,1.038,2.06.709s-.633-1.441-.923-1.751c-.668-.716-1.7-2.408-2.381-3.111-.3-.305-1.373.492-1.642.821" transform="translate(-421.885 -698.1)" fill="#ffb27d"/>
              <path id="Trazado_594947" data-name="Trazado 594947" d="M493.193,873.036a15.336,15.336,0,0,0-.366,4.3c.033.782,5.218.858,5.427.007s-.675-3.6-.675-3.6Z" transform="translate(-407.839 -702.213)" fill="#ffb27d"/>
              <path id="Trazado_594948" data-name="Trazado 594948" d="M496.95,882.776a1.091,1.091,0,0,1,1.748.726c.737,2.552.082,8.63-1.346,2.058-.028-.13.594,4.008-.33,3.77s-1.31-3.934-1.31-3.934.293,3.948-.507,3.44-1.293-3.074-1.293-3.074.558,3.293-.436,2.821c-.678-.322-.717-3.063-.776-4.016-.056-.9.506-1.227,1.378-1.219a2.511,2.511,0,0,1,1.441-.347c.218.057.417-.159.574-.187a5.618,5.618,0,0,1,.857-.04" transform="translate(-407.744 -710.085)" fill="#ffb27d"/>
              <path id="Trazado_594949" data-name="Trazado 594949" d="M598.79,903.66l-.136-.018c.008-.058.784-5.868,1.37-7.955.591-2.106,3.31-3.923,3.337-3.941l.076.115c-.027.018-2.7,1.807-3.281,3.864-.583,2.077-1.358,7.877-1.366,7.936" transform="translate(-495.433 -717.696)" fill="#331832"/>
              <path id="Trazado_594950" data-name="Trazado 594950" d="M731.536,687.671h0a.774.774,0,0,0,.851-.684l.368-3.552c.046-.422-.107-2.067-.529-2.113s-.862,1.317-.965,1.729c-.237.95-1.091,2.738-1.31,3.692-.094.414,1.161.883,1.584.928" transform="translate(-604.089 -543.553)" fill="#ffb27d"/>
              <path id="Trazado_594951" data-name="Trazado 594951" d="M738.931,699.78a15.341,15.341,0,0,0,3.8-2.036c.637-.454-2.126-4.842-2.953-4.553s-2.653,2.532-2.653,2.532Z" transform="translate(-610.028 -553.366)" fill="#ffb27d"/>
              <path id="Trazado_594952" data-name="Trazado 594952" d="M740.919,685.223a1.091,1.091,0,0,1-.345-1.861c1.738-2.01,7.189-4.775,2.459.006-.094.094,3.036-2.684,3.34-1.779s-2.583,3.243-2.583,3.243,3.15-2.4,3.16-1.451-1.872,2.761-1.872,2.761,2.456-2.264,2.6-1.173c.1.744-2.177,2.271-2.943,2.84-.724.537-1.3.245-1.773-.491,0,0-.892-.461-1.077-1.019-.071-.214-.361-.263-.47-.379a5.616,5.616,0,0,1-.5-.7" transform="translate(-612.552 -543.057)" fill="#ffb27d"/>
              <path id="Trazado_594953" data-name="Trazado 594953" d="M268.427,1050.114s4.17-21.45,4.816-22.08,1.645-.07,1.292,1.119-5.2,20.528-5.4,20.961-.822.6-.7,0" transform="translate(-222.132 -830.269)" fill="#331832"/>
              <path id="Trazado_594954" data-name="Trazado 594954" d="M281.327,903.1c.031-3.824-9.425-15.319-14.351-16.752-5.577-1.623-12.727-4.57-14.827.757s4.936,21.734,4.936,21.734a2.273,2.273,0,0,0,1.816,1.62c1.425.163,18.981.734,19.008,0,.018-.468,5.9-6.578,3.419-7.359" transform="translate(-208.349 -711.338)" fill="#73b3ce"/>
              <path id="Trazado_594955" data-name="Trazado 594955" d="M390.115,845.628s6.55,10.222,15.287,12.624l-1.564,3.522a26.081,26.081,0,0,1-17.425-12.22Z" transform="translate(-319.787 -679.53)" fill="#ffb27d"/>
              <path id="Trazado_594956" data-name="Trazado 594956" d="M430.117,1141.89s-.049,1.654,1.044,2.181,4.308,1.124,3.04,2.12c-.727.571-3.978,0-4.9-.051s-1.813.3-2.466-.351c-.718-.721.222-4.066.222-4.066a3.7,3.7,0,0,0,1.492.479,2.945,2.945,0,0,0,1.571-.312" transform="translate(-353.013 -924.572)" fill="#331832"/>
              <path id="Trazado_594957" data-name="Trazado 594957" d="M496.047,1141.829s-.049,1.654,1.044,2.181,4.308,1.124,3.04,2.12c-.728.572-3.979,0-4.9-.051s-1.813.3-2.466-.351c-.718-.721.222-4.066.222-4.066a3.7,3.7,0,0,0,1.492.479,2.945,2.945,0,0,0,1.571-.312" transform="translate(-407.575 -924.521)" fill="#331832"/>
              <path id="Trazado_594958" data-name="Trazado 594958" d="M361.877,973.5c-.818-10.836-1.011-18.148-4.44-22.845-3.753-5.141-13.815-8.777-17.694-9-6.327-.37-9.308.572-9.308.572-4.749,9.875,2.69,11.186,8.192,11.456q.272.013.547.031c3.331.21,9.254,1.056,11.5,4.366,1.775,2.621,3.007,6.3,3.527,15.793a3.365,3.365,0,0,0,3.451,3.184s4.522.346,4.228-3.551" transform="translate(-272.207 -758.927)" fill="#366f90"/>
              <path id="Trazado_594959" data-name="Trazado 594959" d="M311.957,979.922c.108-10.866.445-16.414-2.816-21.23a18.725,18.725,0,0,0-9.366-6.941,36.084,36.084,0,0,0-10.277-1.968,51.317,51.317,0,0,1-9.17-1.134c-5.12,12.641,13.609,9.957,18.486,15.343,2.125,2.347,4.757,6.81,5.277,16.3a3.366,3.366,0,0,0,3.451,3.184s4.376.416,4.416-3.557" transform="translate(-231.266 -764.789)" fill="#366f90"/>
              <path id="Trazado_594960" data-name="Trazado 594960" d="M415.784,991.779c0-.065-.324-6.511-1.4-8.763-1.367-2.849-5.334-5.824-9.433-7.074l.021-.069c4.117,1.255,8.1,4.246,9.477,7.112,1.086,2.265,1.408,8.725,1.411,8.79Z" transform="translate(-335.125 -787.318)" fill="#020202"/>
              <path id="Trazado_594961" data-name="Trazado 594961" d="M279.641,815.646s2.692-4.6,8.9-3.189,8.733,7.749,9.177,22.968c0,0-5.744-.211-20.836,4.795-1.788.593-4.41.123-3.492-2.923,1.706-5.661,3.359-16.952,6.255-21.651" transform="translate(-226.092 -651.856)" fill="#ea3584"/>
              <path id="Trazado_594962" data-name="Trazado 594962" d="M278.774,815.958l5.039,1.284s11.16,3.3,14.284,3.327a5.059,5.059,0,0,0,4.417-2.259,16.527,16.527,0,0,0-7.8-6.295,15.281,15.281,0,0,0-1.561-.5,11.476,11.476,0,0,0-2.775-.465c-10.535-.121-11.6,4.912-11.6,4.912" transform="translate(-230.707 -650.909)" fill="#ea3584"/>
              <path id="Trazado_594963" data-name="Trazado 594963" d="M278.774,834.984c.012.522,1.535.942,3.4.938s3.369-.429,3.356-.951-1.535-.942-3.4-.938-3.369.429-3.356.951" transform="translate(-230.707 -669.935)" fill="#331832"/>
              <path id="Trazado_594964" data-name="Trazado 594964" d="M331.851,776.127a1.782,1.782,0,0,0,1.362-1.251l.657-2.04.191-.592,1.121-3.481.08,3.49.048,2.094.014.6c.011.487.03,1.109.544,1.29,0,0,.657,1.122-.119,1.429-1.218.482-3.9-1.535-3.9-1.536" transform="translate(-274.632 -615.919)" fill="#ffb27d"/>
              <path id="Trazado_594965" data-name="Trazado 594965" d="M322.291,770.867a3.892,3.892,0,0,1,.274,1.732c-.01,1.779,2.067,1.951,2.421,1.347.044-.075-.806-2.863-.806-2.863l-.7-.193Z" transform="translate(-266.721 -617.66)" fill="#68a1bf"/>
              <path id="Trazado_594966" data-name="Trazado 594966" d="M343.469,788.994c0,.019.006.038.009.057a2.208,2.208,0,0,0,1.434,1.518l.007-.007-.048-2.095a1.782,1.782,0,0,0-1.2-.008.49.49,0,0,0-.2.535" transform="translate(-284.24 -632.133)" fill="#331832"/>
              <path id="Trazado_594967" data-name="Trazado 594967" d="M334.083,750.9c-.59-2.149-2.48-3.5-4.222-3.027s-2.677,2.607-2.087,4.757,2.48,3.5,4.222,3.027,2.677-2.608,2.087-4.757" transform="translate(-271.112 -598.555)" fill="#ffb27d"/>
              <path id="Trazado_594968" data-name="Trazado 594968" d="M325.89,745.374c-.055.144.991,2.01-2.587,3.5s-2.584-3.616.125-4.468c3.911-1.231,5.215,1.269,5.1,2.329s-2.635-1.366-2.635-1.366" transform="translate(-265.643 -595.49)" fill="#68a1bf"/>
              <path id="Trazado_594969" data-name="Trazado 594969" d="M277.476,745.073s1.586.529.787,1.655-3.534,2.273-2.37,3.485,2.413,3.137,1.093,3.783-2.225.78-2.489,2.043-2.978,1.27-3.133-.1-2.639-1.941-2.043-3.409,2.575-3.144,2.708-4.882,4.177-2.96,5.448-2.571" transform="translate(-222.807 -596.253)" fill="#68a1bf"/>
              <path id="Trazado_594970" data-name="Trazado 594970" d="M328.068,767.575s-1.077,2.014-.1,3.5c0,0-1.143-.72-1.26-1.073a14.343,14.343,0,0,1-.239-1.712Z" transform="translate(-270.175 -614.935)" fill="#68a1bf"/>
              <path id="Trazado_594971" data-name="Trazado 594971" d="M329.331,771.61a.8.8,0,0,0,1.137-.228.9.9,0,0,0-.5-1.109.8.8,0,0,0-1.137.228.9.9,0,0,0,.5,1.109" transform="translate(-272.087 -617.059)" fill="#ffb27d"/>
              <path id="Trazado_594972" data-name="Trazado 594972" d="M283.38,759.317l-.064-.087a.945.945,0,0,0,.459-.63c.025-.318-.266-.612-.574-.923a1.914,1.914,0,0,1-.655-.989c-.056-.474.473-.726.985-.969.4-.188.806-.383.894-.665a.525.525,0,0,0-.077-.425c-.116-.2-.239-.379-.359-.551-.542-.777-.969-1.391-.054-3.3,1.161-2.423,2.546-2.9,3.87-3.063.163-.018.672.062.741.326s-.306.557-1.143.9a3.561,3.561,0,0,0-1.64,2.51c-.14.913.607,1.634,1.266,2.271.452.437.843.815.843,1.176a.553.553,0,0,1-.191.4,4.678,4.678,0,0,1-.892.624,1.906,1.906,0,0,0-1.22,2.348l-.106.021a1.994,1.994,0,0,1,1.271-2.463,4.581,4.581,0,0,0,.872-.609.444.444,0,0,0,.158-.323c0-.315-.375-.678-.81-1.1-.644-.622-1.446-1.4-1.3-2.365a3.669,3.669,0,0,1,1.7-2.591c1.049-.435,1.108-.689,1.084-.778-.046-.176-.467-.264-.624-.245-1.293.155-2.647.625-3.785,3-.888,1.855-.476,2.446.045,3.194.121.173.246.353.364.559a.633.633,0,0,1,.087.512c-.1.327-.533.532-.951.73-.5.238-.971.462-.924.859a1.847,1.847,0,0,0,.624.926c.326.33.633.641.6,1.008a1.041,1.041,0,0,1-.5.708" transform="translate(-233.825 -598.496)" fill="#fff"/>
              <path id="Trazado_594973" data-name="Trazado 594973" d="M332.175,756.3l-.035-.117a2.729,2.729,0,0,0,1.742-1.7l.118.034a2.855,2.855,0,0,1-1.825,1.784" transform="translate(-274.872 -604.103)" fill="#fff"/>
              <path id="Trazado_594974" data-name="Trazado 594974" d="M357.391,766.059a1.5,1.5,0,0,1-1.479-1.473,1.707,1.707,0,0,1,.366-1.25,1.215,1.215,0,0,1,.828-.444,1.5,1.5,0,0,1,1.48,1.473,1.708,1.708,0,0,1-.366,1.25,1.245,1.245,0,0,1-.621.407,1.133,1.133,0,0,1-.207.037m-1.054-2.672a1.629,1.629,0,0,0-.348,1.192,1.419,1.419,0,0,0,1.395,1.4,1.137,1.137,0,0,0,.775-.416,1.628,1.628,0,0,0,.347-1.192,1.419,1.419,0,0,0-1.395-1.4,1.043,1.043,0,0,0-.192.034,1.168,1.168,0,0,0-.582.382" transform="translate(-294.538 -611.057)" fill="#764678"/>
              <path id="Trazado_594975" data-name="Trazado 594975" d="M339,768.423a1.5,1.5,0,0,1-1.479-1.473,1.707,1.707,0,0,1,.366-1.25,1.216,1.216,0,0,1,.828-.443,1.5,1.5,0,0,1,1.48,1.473,1.707,1.707,0,0,1-.366,1.25,1.244,1.244,0,0,1-.621.407,1.133,1.133,0,0,1-.207.036m-1.054-2.672a1.629,1.629,0,0,0-.348,1.192,1.419,1.419,0,0,0,1.395,1.4,1.137,1.137,0,0,0,.775-.416,1.629,1.629,0,0,0,.347-1.192,1.42,1.42,0,0,0-1.395-1.4,1.08,1.08,0,0,0-.192.034,1.166,1.166,0,0,0-.582.382" transform="translate(-279.321 -613.013)" fill="#764678"/>
              <path id="Trazado_594976" data-name="Trazado 594976" d="M352.562,772.35a.039.039,0,0,0,.027-.024.039.039,0,0,0-.023-.05,1.672,1.672,0,0,0-1.185.122.039.039,0,0,0,.032.072,1.626,1.626,0,0,1,1.126-.12.039.039,0,0,0,.024,0" transform="translate(-290.775 -618.78)" fill="#764678"/>
              <path id="Trazado_594977" data-name="Trazado 594977" d="M350.215,782.744a7.1,7.1,0,0,1-2.252.237,1.089,1.089,0,0,0,1.388.838c.69-.145.864-1.075.864-1.075" transform="translate(-287.966 -627.489)" fill="#e9633e"/>
              <path id="Trazado_594978" data-name="Trazado 594978" d="M350.215,782.744a1.462,1.462,0,0,1-.811.452,2.617,2.617,0,0,1-1.442-.215,10.688,10.688,0,0,0,2.252-.237" transform="translate(-287.966 -627.489)" fill="#fff"/>
              <path id="Trazado_594979" data-name="Trazado 594979" d="M344.379,769.925a.075.075,0,0,0-.029-.138.806.806,0,0,0-.872.462.075.075,0,0,0,.03.1.082.082,0,0,0,.1-.03,1.274,1.274,0,0,1,.724-.384.074.074,0,0,0,.046-.01" transform="translate(-284.247 -616.756)" fill="#080435"/>
              <path id="Trazado_594980" data-name="Trazado 594980" d="M346.649,774.332c.041.173.177.288.3.258a.288.288,0,0,0,.152-.367c-.042-.173-.177-.288-.3-.258a.288.288,0,0,0-.152.367" transform="translate(-286.869 -620.22)" fill="#080435"/>
              <path id="Trazado_594981" data-name="Trazado 594981" d="M359.474,767.471a.074.074,0,0,0,.026-.139.806.806,0,0,0-.982.095.075.075,0,0,0-.01.1.082.082,0,0,0,.1.01,1.275,1.275,0,0,1,.816-.08.073.073,0,0,0,.046.008" transform="translate(-296.679 -614.631)" fill="#080435"/>
              <path id="Trazado_594982" data-name="Trazado 594982" d="M360.2,771.663c-.027.175.054.334.181.354s.253-.106.28-.282-.054-.334-.181-.354-.253.106-.28.282" transform="translate(-298.088 -618.083)" fill="#080435"/>
              <path id="Trazado_594983" data-name="Trazado 594983" d="M411.647,975.167l-.2-.02c-.159-.016-.278-.279-.266-.589l1.587-39.129,3.017-1.494-3.657,40.443c-.027.463-.237.812-.476.789" transform="translate(-340.28 -752.612)" fill="#331832"/>
              <path id="Trazado_594984" data-name="Trazado 594984" d="M660.425,975.167l.2-.02c.159-.016.278-.279.266-.589l-1.587-39.129-3.017-1.494,3.657,40.443c.027.463.238.812.477.789" transform="translate(-543.132 -752.612)" fill="#331832"/>
              <path id="Trazado_594985" data-name="Trazado 594985" d="M380.919,936.3c0,1.96,12.275,3.549,27.418,3.549s27.418-1.589,27.418-3.549-12.275-3.548-27.418-3.548-27.418,1.589-27.418,3.548" transform="translate(-315.24 -751.632)" fill="#68a1bf"/>
              <rect id="Rectángulo_293396" data-name="Rectángulo 293396" width="54.835" height="1.636" transform="translate(65.679 183.032)" fill="#68a1bf"/>
              <path id="Trazado_594986" data-name="Trazado 594986" d="M380.919,926.809c0,1.96,12.275,3.549,27.418,3.549s27.418-1.589,27.418-3.549-12.275-3.549-27.418-3.549-27.418,1.589-27.418,3.549" transform="translate(-315.24 -743.777)" fill="#b8d5dc"/>
              <path id="Trazado_594987" data-name="Trazado 594987" d="M653.328,952.816a.1.1,0,0,1-.013-.193,38.24,38.24,0,0,0,5.452-1.043.1.1,0,0,1,.055.186,38.394,38.394,0,0,1-5.481,1.05h-.013" transform="translate(-540.599 -767.21)" fill="#444092"/>
              <path id="Trazado_594988" data-name="Trazado 594988" d="M389.65,949.9l-.019,0a22.32,22.32,0,0,1-3.726-1.057.1.1,0,0,1,.086-.174,22.718,22.718,0,0,0,3.678,1.041.1.1,0,0,1-.019.192" transform="translate(-319.321 -764.798)" fill="#444092"/>
              <path id="Trazado_594989" data-name="Trazado 594989" d="M399.552,918.075s3.294-1.24,4.385-.792,2.146,1.846,1.41,1.712a7.775,7.775,0,0,1-1.627-.566s1.863,1.011,1.438,1.344-2.036-.561-2.036-.561,2.12,1.379,1.617,1.564-2.107-.875-2.107-.875,1.922,1.362,1.332,1.563-1.581-1.136-2.006-.8-1.476,1.817-2.547.748Z" transform="translate(-330.544 -738.75)" fill="#ffb27d"/>
              <path id="Trazado_594990" data-name="Trazado 594990" d="M289.585,851.037c3.735,3.271,7.4,3.906,13.378,3.168l.142-3.335c-4.349.537-7.387-1.782-9.891-3.975-3.561-3.12-4.607-7.952-4.9-10.138a.563.563,0,0,0-.364-.453,7.608,7.608,0,0,0-4.722.082.494.494,0,0,0-.355.5,20.567,20.567,0,0,0,6.716,14.155" transform="translate(-234.095 -671.545)" fill="#ffb27d"/>
              <g id="Grupo_874285" data-name="Grupo 874285" transform="translate(54.861 176.079)" opacity="0.3">
                <g id="Grupo_874284" data-name="Grupo 874284">
                  <g id="Grupo_874283" data-name="Grupo 874283" clip-path="url(#clip-path-10)">
                    <path id="Trazado_594991" data-name="Trazado 594991" d="M319.543,905.758q-.039,0-.078,0a1.417,1.417,0,0,1-.925-.518,1.122,1.122,0,0,1-.1-1.544.773.773,0,0,1,.578-.172,1.421,1.421,0,0,1,.925.518,1.122,1.122,0,0,1,.1,1.544.753.753,0,0,1-.5.175m-.846-.654a1.211,1.211,0,0,0,.785.446.569.569,0,0,0,.428-.123.926.926,0,0,0-.122-1.255,1.211,1.211,0,0,0-.785-.446.57.57,0,0,0-.428.123c-.3.257-.246.82.122,1.255" transform="translate(-318.177 -903.517)" fill="#ec865c"/>
                  </g>
                </g>
              </g>
              <path id="Trazado_594992" data-name="Trazado 594992" d="M434.712,906.56H445.9a.544.544,0,0,0,.516-.37l2.326-6.945a.541.541,0,0,0-.516-.711H437.466a1.138,1.138,0,0,0-1.081.774l-2.19,6.541a.541.541,0,0,0,.516.711" transform="translate(-359.307 -723.314)" fill="#331832"/>
              <path id="Trazado_594993" data-name="Trazado 594993" d="M438.785,906.56h11.191a.544.544,0,0,0,.516-.37l2.326-6.945a.541.541,0,0,0-.516-.711H441.539a1.139,1.139,0,0,0-1.081.774l-2.19,6.541a.541.541,0,0,0,.516.711" transform="translate(-362.678 -723.314)" fill="#331832"/>
              <path id="Trazado_594994" data-name="Trazado 594994" d="M480.8,918.708c0-.264-.3-.371-.57-.371a.76.76,0,0,0-.7.659c0,.4.314.451.58.451a.878.878,0,0,0,.686-.738" transform="translate(-396.85 -739.703)" fill="#daebe8"/>
              <path id="Trazado_594995" data-name="Trazado 594995" d="M414.415,939.388h15.31v.982h-15.63a.331.331,0,0,1-.331-.331.651.651,0,0,1,.651-.651" transform="translate(-342.422 -757.124)" fill="#331832"/>
              <path id="Trazado_594996" data-name="Trazado 594996" d="M445.675,901.877l-.07-.019a19.131,19.131,0,0,1,.917-2.736,1.554,1.554,0,0,1,.831-.791l.019.07a1.518,1.518,0,0,0-.786.757,19.593,19.593,0,0,0-.91,2.719" transform="translate(-368.773 -723.146)" fill="#366f90"/>
              <path id="Trazado_594997" data-name="Trazado 594997" d="M436.421,926.042v-.073c.367,0,.458-.152.458-.154l.87-2.6.069.023-.872,2.6c-.007.013-.11.2-.525.2" transform="translate(-361.172 -743.741)" fill="#366f90"/>
              <path id="Trazado_594998" data-name="Trazado 594998" d="M1779.393,1139.562s-.042,1.688-1.185,2.165-4.453.906-3.216,1.991c.709.623,4.055.22,5,.22s1.831.411,2.533-.221c.772-.7,0-4.156,0-4.156a3.768,3.768,0,0,1-1.548.406,3.007,3.007,0,0,1-1.583-.405" transform="translate(-1468.718 -922.784)" fill="#331832"/>
              <path id="Trazado_594999" data-name="Trazado 594999" d="M1855.489,1139.561s-.042,1.688-1.185,2.165-4.453.906-3.216,1.992c.71.623,4.055.22,5,.22s1.831.412,2.533-.221c.772-.7,0-4.156,0-4.156a3.778,3.778,0,0,1-1.548.406,3.008,3.008,0,0,1-1.584-.406" transform="translate(-1531.694 -922.783)" fill="#331832"/>
              <path id="Trazado_595000" data-name="Trazado 595000" d="M1752.548,871.114s-.211,7.068,2.045,20.626c1.629,9.788,3.551,19.651,4.494,24.38a3.689,3.689,0,0,0,3.446,3l.906.036a3.1,3.1,0,0,0,3.169-3.355l-2.289-31.99-.564-10.529Z" transform="translate(-1450.365 -700.622)" fill="#764678"/>
              <path id="Trazado_595001" data-name="Trazado 595001" d="M1769.479,889.817c-.1.86-4.968.756-10.923,0s-10.591-2.044-10.487-2.9,4.908-.965,10.864-.211,10.651,2.253,10.547,3.113" transform="translate(-1446.661 -713.106)" fill="#331832"/>
              <path id="Trazado_595002" data-name="Trazado 595002" d="M1792.209,897.211l12.714,40.843a4.1,4.1,0,0,0,3.825,2.911l.764.013a2.9,2.9,0,0,0,2.855-3.453l-6.955-38.377a1.262,1.262,0,0,0-.878-.946c-2.384-.688-12.559-2.68-12.325-.991" transform="translate(-1483.189 -721.671)" fill="#764678"/>
              <path id="Trazado_595003" data-name="Trazado 595003" d="M1767.5,748.969s-1.692-4.76-7.718-4.543-10.577,8.136-11.7,25.156a37.974,37.974,0,0,1,21.428,2.884s.641-16.559-2.006-23.5" transform="translate(-1446.67 -595.771)" fill="#6826cc"/>
              <path id="Trazado_595004" data-name="Trazado 595004" d="M1781.959,748.553l-4.269,2.733s-10.974,1.1-13.887.569a3.88,3.88,0,0,1-3.366-2.67,13.531,13.531,0,0,1,8.045-4.745,14.443,14.443,0,0,1,1.527-.142,15,15,0,0,1,2.666.058,18.735,18.735,0,0,1,9.285,4.2" transform="translate(-1456.898 -595.642)" fill="#6826cc"/>
              <path id="Trazado_595005" data-name="Trazado 595005" d="M1794.968,944.4l-2.734-8.312a7.88,7.88,0,0,0-3.561-4.392l.106-.186a8.1,8.1,0,0,1,3.658,4.511l2.734,8.312Z" transform="translate(-1480.266 -750.6)" fill="#020202"/>
              <path id="Trazado_595006" data-name="Trazado 595006" d="M1786.687,717.8a1.617,1.617,0,0,1-1.041-.754,1.092,1.092,0,0,1,.165-1.008c.1-.167.2-.318.284-.456.6-.963.807-1.287.65-2.04l.068-.014c.164.781-.06,1.138-.658,2.092-.087.138-.182.289-.284.456a1.028,1.028,0,0,0-.16.945c.218.524.985.711.993.713Z" transform="translate(-1477.708 -570.205)" fill="#ef8062"/>
              <path id="Trazado_595007" data-name="Trazado 595007" d="M1788.458,713.567a3.555,3.555,0,0,1-.533,2.474c-.8,1.265.071,2.19,1.155,1.7s1.5.9,2.885.132-3.507-4.308-3.507-4.308" transform="translate(-1479.389 -570.24)" fill="#ef8062"/>
              <path id="Trazado_595008" data-name="Trazado 595008" d="M1809.809,714.844a1.667,1.667,0,0,1-1.358-.994l-.747-1.734-.217-.5-1.274-2.96.221,3.067.133,1.841.038.525a.838.838,0,0,1-.691.883h-.007c-.227.369-.54,1.118.4,1.416a3.668,3.668,0,0,0,3.516-1.541h-.009" transform="translate(-1494.331 -566.173)" fill="#ffb27d"/>
              <path id="Trazado_595009" data-name="Trazado 595009" d="M1811.385,725.995c0,.017,0,.034,0,.051a1.946,1.946,0,0,1-1.131,1.451l-.006-.005-.133-1.841a1.57,1.57,0,0,1,1.053-.108.432.432,0,0,1,.22.453" transform="translate(-1498.009 -580.102)" fill="#331832"/>
              <path id="Trazado_595010" data-name="Trazado 595010" d="M1791.309,694.432c0-1.964,1.29-3.555,2.882-3.555s2.882,1.592,2.882,3.555-1.29,3.556-2.882,3.556-2.882-1.592-2.882-3.556" transform="translate(-1482.448 -551.462)" fill="#ffb27d"/>
              <path id="Trazado_595011" data-name="Trazado 595011" d="M1816.942,708.644a.708.708,0,0,1-1.019.071.792.792,0,0,1,.163-1.058.708.708,0,0,1,1.019-.071.792.792,0,0,1-.163,1.057" transform="translate(-1502.702 -565.138)" fill="#ffb27d"/>
              <path id="Trazado_595012" data-name="Trazado 595012" d="M1799.022,723.291a6.254,6.254,0,0,0,1.969-.323.959.959,0,0,1-.984,1.035c-.62.038-.984-.712-.984-.712" transform="translate(-1488.831 -578.02)" fill="#e9633e"/>
              <path id="Trazado_595013" data-name="Trazado 595013" d="M1799.022,723.291a1.289,1.289,0,0,0,.794.2,2.307,2.307,0,0,0,1.175-.518,9.408,9.408,0,0,1-1.969.323" transform="translate(-1488.831 -578.02)" fill="#fff"/>
              <path id="Trazado_595014" data-name="Trazado 595014" d="M1806.175,710.776a.065.065,0,0,1-.007-.124.71.71,0,0,1,.849.189.066.066,0,0,1,0,.093.072.072,0,0,1-.093,0,1.121,1.121,0,0,0-.7-.158.065.065,0,0,1-.041,0" transform="translate(-1494.71 -567.771)" fill="#080435"/>
              <path id="Trazado_595015" data-name="Trazado 595015" d="M1807.442,714.547c0,.156-.083.286-.2.29s-.21-.12-.215-.277.083-.286.2-.29.209.12.215.277" transform="translate(-1495.458 -570.822)" fill="#080435"/>
              <path id="Trazado_595016" data-name="Trazado 595016" d="M1792.481,712.036a.065.065,0,0,1-.054-.112.71.71,0,0,1,.857-.148.066.066,0,0,1,.033.086.072.072,0,0,1-.087.033,1.122,1.122,0,0,0-.712.123.067.067,0,0,1-.038.018" transform="translate(-1483.357 -568.689)" fill="#080435"/>
              <path id="Trazado_595017" data-name="Trazado 595017" d="M1795.251,715.5a.254.254,0,0,1-.071.343c-.1.047-.239-.031-.3-.174a.254.254,0,0,1,.071-.343c.1-.047.24.031.3.174" transform="translate(-1485.372 -571.681)" fill="#080435"/>
              <path id="Trazado_595018" data-name="Trazado 595018" d="M1791.474,685.627a1.655,1.655,0,0,0,1.6,1.444c1.541.21,2.6.862,2.4,1.972s-2.69,3.412-.865,4.3,1.437-.771,3.416-.386,2.336-2.257.973-3.79-.811-5.591-5.92-5.411-3.237,4.256-3.237,4.256,1.638-1.027,1.635-2.389" transform="translate(-1480.954 -545.567)" fill="#ef8062"/>
              <path id="Trazado_595019" data-name="Trazado 595019" d="M1805.161,700.016a1.071,1.071,0,0,1-.7-.687c-.224-.827.74-2.077,1.59-3.18.224-.29.435-.565.623-.826a1.9,1.9,0,0,0,.12-2.225,2.215,2.215,0,0,0-2.427-.807,2.925,2.925,0,0,1-2.1-.2,1.88,1.88,0,0,1-.643-.536l.035-.023a2.486,2.486,0,0,0,2.7.714,2.257,2.257,0,0,1,2.471.824,1.965,1.965,0,0,1-.12,2.272c-.188.262-.4.537-.624.827-.845,1.095-1.8,2.336-1.583,3.143a1.019,1.019,0,0,0,.678.659Z" transform="translate(-1490.982 -552.008)" fill="#fff"/>
              <path id="Trazado_595020" data-name="Trazado 595020" d="M1786.6,707.667a1.929,1.929,0,0,1-1.017-1.279,2.356,2.356,0,0,1,.521-2.591.824.824,0,0,1,.749-.074,1.929,1.929,0,0,1,1.017,1.277,2.361,2.361,0,0,1-.521,2.593.822.822,0,0,1-.441.13.9.9,0,0,1-.308-.056m1.147-2.626a1.8,1.8,0,0,0-.94-1.2.713.713,0,0,0-.637.061,2.232,2.232,0,0,0-.466,2.445,1.807,1.807,0,0,0,.94,1.2.717.717,0,0,0,.636-.061,2.235,2.235,0,0,0,.467-2.445" transform="translate(-1477.585 -562.046)" fill="#764678"/>
              <g id="Grupo_874288" data-name="Grupo 874288" transform="translate(311.064 140.939)" opacity="0.3">
                <g id="Grupo_874287" data-name="Grupo 874287">
                  <g id="Grupo_874286" data-name="Grupo 874286" clip-path="url(#clip-path-11)">
                    <path id="Trazado_595021" data-name="Trazado 595021" d="M1806.64,701.052a2.208,2.208,0,0,1-.825,2.435c-.687.329-1.432-.227-1.663-1.242a2.208,2.208,0,0,1,.825-2.435c.687-.329,1.432.227,1.663,1.242" transform="translate(-1804.083 -699.715)" fill="#fff"/>
                  </g>
                </g>
              </g>
              <g id="Grupo_874291" data-name="Grupo 874291" transform="translate(308.019 141.713)" opacity="0.3">
                <g id="Grupo_874290" data-name="Grupo 874290">
                  <g id="Grupo_874289" data-name="Grupo 874289" clip-path="url(#clip-path-12)">
                    <path id="Trazado_595022" data-name="Trazado 595022" d="M1788.719,705.532a2.362,2.362,0,0,1-.69,2.47c-.613.344-1.3-.2-1.529-1.223a2.361,2.361,0,0,1,.689-2.47c.613-.344,1.3.2,1.529,1.223" transform="translate(-1786.423 -704.206)" fill="#fff"/>
                  </g>
                </g>
              </g>
              <path id="Trazado_595023" data-name="Trazado 595023" d="M1803.755,702.231a1.9,1.9,0,0,1-.928-1.333,2.347,2.347,0,0,1,.916-2.612,1.058,1.058,0,0,1,.936.008,1.9,1.9,0,0,1,.925,1.331,2.342,2.342,0,0,1-.916,2.611,1.052,1.052,0,0,1-.46.108,1.1,1.1,0,0,1-.474-.113m.042-3.829a2.221,2.221,0,0,0-.845,2.467,1.806,1.806,0,0,0,.86,1.247.955.955,0,0,0,.823.006,2.217,2.217,0,0,0,.845-2.467,1.808,1.808,0,0,0-.857-1.246.934.934,0,0,0-.826-.007" transform="translate(-1491.918 -557.507)" fill="#764678"/>
              <path id="Trazado_595024" data-name="Trazado 595024" d="M1798.375,711.957a.118.118,0,0,0,.076-.028,1.081,1.081,0,0,1,.859-.152.124.124,0,0,0,.141-.094.117.117,0,0,0-.094-.139,1.29,1.29,0,0,0-1.058.2.12.12,0,0,0-.015.169.115.115,0,0,0,.092.045" transform="translate(-1488.197 -568.538)" fill="#764678"/>
              <path id="Trazado_595025" data-name="Trazado 595025" d="M1859.039,768.429c.148.43-.969,1.234-2.494,1.8s-2.882.671-3.03.241.969-1.234,2.494-1.8,2.882-.67,3.03-.241" transform="translate(-1533.917 -615.424)" fill="#331832"/>
              <path id="Trazado_595026" data-name="Trazado 595026" d="M1817.288,784.652l1.259-2.126c-.007-.426-.707-1.214-.3-1.079,1.574.521,4.725-.56,5.554-1.733,1.152-1.628,1.03-4.158.709-5.912-.164-.9.132-1.5,1.216-2.073a7.421,7.421,0,0,1,2.083-.709.853.853,0,0,1,1.037.559,18.993,18.993,0,0,1,.542,3.1,11.534,11.534,0,0,1-1.716,7.739c-1.713,2.438-4.906,4-9.927,3.559-.458-.04-.449-.866-.457-1.326" transform="translate(-1503.947 -617.77)" fill="#ffb27d"/>
              <g id="Grupo_874294" data-name="Grupo 874294" transform="translate(321.969 161.832)" opacity="0.5">
                <g id="Grupo_874293" data-name="Grupo 874293">
                  <g id="Grupo_874292" data-name="Grupo 874292" clip-path="url(#clip-path-13)">
                    <path id="Trazado_595027" data-name="Trazado 595027" d="M1867.964,822.89a.621.621,0,0,1-.4-.132.7.7,0,0,1-.232-.625,1.47,1.47,0,0,1,.969-1.2.7.7,0,0,1,.66.093,1,1,0,0,1-.082,1.365,1.248,1.248,0,0,1-.919.5m.6-1.792a.688.688,0,0,0-.2.032,1.264,1.264,0,0,0-.822,1.02.5.5,0,0,0,.154.445c.245.2.714.043,1.021-.339s.364-.869.114-1.07a.42.42,0,0,0-.269-.088" transform="translate(-1867.331 -820.888)" fill="#ec865c"/>
                  </g>
                </g>
              </g>
              <path id="Trazado_595028" data-name="Trazado 595028" d="M1768.934,894.644s-11.886-2.271-15.739-1.2l1.848,2.739,6.87.389Z" transform="translate(-1450.905 -718.864)" fill="#764678"/>
              <path id="Trazado_595029" data-name="Trazado 595029" d="M1740.885,797.282h-10.129a.931.931,0,0,1-.909-.729l-3.02-13.567a.893.893,0,0,1,.871-1.087h9.666a1.052,1.052,0,0,1,1.027.824l3.078,13.83a.6.6,0,0,1-.585.729" transform="translate(-1429.066 -626.79)" fill="#ef8062"/>
              <path id="Trazado_595030" data-name="Trazado 595030" d="M1793.272,820.862s-2.588-2.64-4.005-2.664-3.245,1.017-2.37,1.218a9.335,9.335,0,0,0,2.064.149s-2.536.23-2.225.8,2.514.348,2.514.348-3,.514-2.528.957,2.74.036,2.74.036-2.768.59-2.212,1.092,2.284-.5,2.595.067,1.737,2.727,3.426,2.057Z" transform="translate(-1478.608 -656.83)" fill="#ffb27d"/>
              <path id="Trazado_595031" data-name="Trazado 595031" d="M1800.912,825.8c-.305-.276-.986-.114-.993-.112l-.025-.1c.03-.007.742-.177,1.088.136Z" transform="translate(-1489.552 -662.903)" fill="#e9845c"/>
              <path id="Trazado_595032" data-name="Trazado 595032" d="M1802.793,832.489a1.763,1.763,0,0,0-1.2-.143l-.026-.1a1.836,1.836,0,0,1,1.282.154Z" transform="translate(-1490.935 -668.412)" fill="#e9845c"/>
              <path id="Trazado_595033" data-name="Trazado 595033" d="M1803.943,838.182c-.3-.319-1.108-.126-1.116-.124l-.025-.1c.036-.009.877-.21,1.218.154Z" transform="translate(-1491.959 -673.129)" fill="#e9845c"/>
              <path id="Trazado_595034" data-name="Trazado 595034" d="M1726.714,805.355s-.141,1.226.98,1.347c1.427.153,4.63-1.392.955-1.467-.091,0,2.346-.173,2.056-.763s-2.4-.32-2.4-.32,2.562-.391,2.107-.859-2.114-.407-2.114-.407,2.167-.226,1.627-.757-1.952.014-2.6.108c-.615.089-.756.514-.628,1.1a1.731,1.731,0,0,0-.031,1.021c.069.139-.048.3-.046.413a3.88,3.88,0,0,0,.094.584" transform="translate(-1428.89 -643.341)" fill="#ffb27d"/>
              <path id="Trazado_595035" data-name="Trazado 595035" d="M1747.563,779.28a6.7,6.7,0,0,0-.49-.961,23.7,23.7,0,0,0-4.646.15c.03.21.21.841.631.961s4.678.233,4.5-.15" transform="translate(-1441.994 -623.788)" fill="#764678"/>
              <path id="Trazado_595036" data-name="Trazado 595036" d="M1139.792,771.037l-.238.112a.448.448,0,0,1-.594-.211l-1.093-2.3a.446.446,0,0,1,.212-.593l.237-.113a.448.448,0,0,1,.595.211l1.093,2.3a.446.446,0,0,1-.212.594" transform="translate(-941.638 -615.198)" fill="#ffb27d"/>
              <path id="Trazado_595037" data-name="Trazado 595037" d="M1144.722,766.622l-.253.12a.439.439,0,0,1-.583-.207l-1.162-2.444a.438.438,0,0,1,.208-.582l.253-.12a.44.44,0,0,1,.583.207l1.162,2.444a.438.438,0,0,1-.208.582" transform="translate(-945.658 -611.436)" fill="#ffb27d"/>
              <path id="Trazado_595038" data-name="Trazado 595038" d="M1159.031,773.216l-.165-.038a.577.577,0,0,1-.431-.691l.7-3c.072-.308.481-.778.79-.7a.805.805,0,0,1,.5,1l-.7,3a.579.579,0,0,1-.693.43" transform="translate(-958.682 -615.924)" fill="#ffb27d"/>
              <path id="Trazado_595039" data-name="Trazado 595039" d="M1147.875,757.156l-.093.044a.547.547,0,0,1-.726-.258l-1.646-3.461c-.129-.27-.315-.907.188-1.09.368-.134.73.51.937.923.414.828,1.6,3.117,1.6,3.117a.545.545,0,0,1-.259.725" transform="translate(-947.798 -602.354)" fill="#ffb27d"/>
              <path id="Trazado_595040" data-name="Trazado 595040" d="M1137.423,772.844s-2.358-2.068-2.49-4c-.046-.668,2.933-2.075,3.52-1.607a16.445,16.445,0,0,1,1.842,3.291Z" transform="translate(-939.245 -614.581)" fill="#ffb27d"/>
              <path id="Trazado_595041" data-name="Trazado 595041" d="M1134.762,774.374l-.245.116c-.219.1-.039.53-.189.34a7.339,7.339,0,0,1-1.333-2.514.612.612,0,0,1,.211-.72l.219-.065a.513.513,0,0,1,.612.291l.935,1.965a.441.441,0,0,1-.209.586" transform="translate(-937.607 -618.185)" fill="#ffb27d"/>
              <path id="Trazado_595042" data-name="Trazado 595042" d="M1224.2,1160.184s-.083,1.6-1.18,2.021-4.25.745-3.1,1.8c.658.608,3.843.313,4.739.337s1.728.437,2.41-.144c.75-.639.106-3.938.106-3.938a3.589,3.589,0,0,1-1.479.345,2.859,2.859,0,0,1-1.493-.425" transform="translate(-1009.373 -939.85)" fill="#331832"/>
              <path id="Trazado_595043" data-name="Trazado 595043" d="M1200.286,914.667c.21,3.319.606,7.626,1.338,12.895,1.4,10.043,3.091,20.17,3.926,25.026a3.774,3.774,0,0,0,3.444,3.155l.926.062c1.864.125,3.277-.564,3.277-3.52l-.091-26.987-1.448-10.78s-11.716-5.3-11.372.148" transform="translate(-993.324 -734.63)" fill="#a2a7c5"/>
              <path id="Trazado_595044" data-name="Trazado 595044" d="M1283.77,1161.787s-.083,1.6-1.18,2.021-4.25.745-3.1,1.8c.658.608,3.843.312,4.74.337s1.727.437,2.41-.144c.751-.639.106-3.938.106-3.938a3.59,3.59,0,0,1-1.479.345,2.861,2.861,0,0,1-1.493-.425" transform="translate(-1058.67 -941.177)" fill="#331832"/>
              <path id="Trazado_595045" data-name="Trazado 595045" d="M1258.641,880.343s-.411,7.213,1.523,21.124c1.4,10.043,3.091,20.17,3.926,25.026a3.774,3.774,0,0,0,3.443,3.155l.926.062a3.167,3.167,0,0,0,3.336-3.339l-1.458-32.74-.286-10.771Z" transform="translate(-1041.593 -708.26)" fill="#a2a7c5"/>
              <path id="Trazado_595046" data-name="Trazado 595046" d="M1274.8,967.245c-.006-.495-.135-12.143.463-14.271.6-2.143,3.288-3.935,3.4-4.01l.077.117c-.028.018-2.757,1.839-3.345,3.931-.593,2.109-.459,14.111-.458,14.232Z" transform="translate(-1054.987 -765.048)" fill="#331832"/>
              <path id="Trazado_595047" data-name="Trazado 595047" d="M1252.682,720.624l-.722-2.158-.21-.628-1.235-3.695-.162,3.675-.1,2.206-.031.7c-.021.474-.333.574-.712.986-.154.167-1.137,1.179-.021,1.636,1.391.57,3.99-.293,4.978-1.422-.008,0-1.555-.6-1.789-1.3" transform="translate(-1033.617 -570.716)" fill="#ffb27d"/>
              <path id="Trazado_595048" data-name="Trazado 595048" d="M1238.464,702.76a3.86,3.86,0,0,1,4.068-3.5,3.682,3.682,0,0,1,2.956,4.353,3.86,3.86,0,0,1-4.068,3.5,3.682,3.682,0,0,1-2.956-4.353" transform="translate(-1024.888 -558.382)" fill="#ffb27d"/>
              <path id="Trazado_595049" data-name="Trazado 595049" d="M1232.925,691.051c-2.025.071-3.008-1.013-3.031-2.016-.03-1.286.844-2.425,1.861-1.947s.581-.694,1.559-.819c1.828-.233,2.171.972,3.667,1.031,1.974.077,4.223,3.125,2.57,5.349,0,0-5.026-1.655-6.626-1.6" transform="translate(-1017.833 -547.624)" fill="#331832"/>
              <path id="Trazado_595050" data-name="Trazado 595050" d="M1237.018,702.261s2.164,1.931,1.879,3.018-.213,1.512,1.051,2.092.148,1.521,1.832,1.589,3.748-1.777,3.747-4.81a4.375,4.375,0,0,0-1.048-2.8Z" transform="translate(-1023.728 -560.132)" fill="#331832"/>
              <path id="Trazado_595051" data-name="Trazado 595051" d="M1240.838,722.3a.769.769,0,0,1,1.007-.216.647.647,0,0,1,.119.952.768.768,0,0,1-1.007.216.647.647,0,0,1-.119-.952" transform="translate(-1026.762 -577.199)" fill="#ffb27d"/>
              <path id="Trazado_595052" data-name="Trazado 595052" d="M1287.74,724.536a.05.05,0,0,1-.049-.038,1.151,1.151,0,0,0-.523-.645.05.05,0,0,1,.048-.088,1.238,1.238,0,0,1,.573.71.05.05,0,0,1-.037.06h-.012" transform="translate(-1065.21 -578.674)" fill="#331832"/>
              <path id="Trazado_595053" data-name="Trazado 595053" d="M1287.193,720.244a.05.05,0,0,1,0-.1c.005,0,.554-.037.632-.429a.051.051,0,0,1,.059-.039.05.05,0,0,1,.039.059c-.093.468-.7.508-.725.51Z" transform="translate(-1065.211 -575.294)" fill="#331832"/>
              <path id="Trazado_595054" data-name="Trazado 595054" d="M1235.6,686.772a.415.415,0,0,1-.109-.015,1.455,1.455,0,0,1-.415-.2.857.857,0,0,0-.845-.143.05.05,0,1,1-.029-.1.96.96,0,0,1,.928.155,1.372,1.372,0,0,0,.387.192.252.252,0,0,0,.22-.032c.221-.151.273-.63.273-.634a.05.05,0,0,1,.1.01c0,.022-.058.53-.317.707a.34.34,0,0,1-.195.061" transform="translate(-1021.365 -547.383)" fill="#331832"/>
              <path id="Trazado_595055" data-name="Trazado 595055" d="M1263.793,688.636a2.174,2.174,0,0,1-1.3-.5.05.05,0,0,1,.066-.076,2.021,2.021,0,0,0,1.447.463.051.051,0,0,1,.057.042.05.05,0,0,1-.042.057,1.565,1.565,0,0,1-.23.017" transform="translate(-1044.799 -549.118)" fill="#331832"/>
              <path id="Trazado_595056" data-name="Trazado 595056" d="M1243.969,727.718a.512.512,0,0,1-.139-.017.024.024,0,0,1-.016-.03.024.024,0,0,1,.03-.016c.019.006.458.136.769-.438a.024.024,0,0,1,.033-.01.024.024,0,0,1,.01.033.777.777,0,0,1-.687.478" transform="translate(-1029.352 -581.525)" fill="#331832"/>
              <path id="Trazado_595057" data-name="Trazado 595057" d="M1200.144,907.289s14.691-.8,21.663.876l.1-1.984-9.776-2.889-7.892.194-2.425.516-1.711,2.637Z" transform="translate(-993.182 -727.252)" fill="#331832"/>
              <path id="Trazado_595058" data-name="Trazado 595058" d="M1220.5,759.694s-1.293-5.55-9.2-5.549c-13.784,0-9.918,11.222-11.193,29.063,0,0,8.887-1.922,21.746.636,0,0,1.252-9.662-.365-17.83-.427-2.157-.35-4.445-.985-6.32" transform="translate(-993.182 -603.821)" fill="#ef8062"/>
              <path id="Trazado_595059" data-name="Trazado 595059" d="M1176.916,754.143a12.646,12.646,0,0,0-7.71,3.162c-3.288,3.1-7.522,7.365-8.421,9.819-1.106,3.023.93,6.056,3.516,6.12a8.629,8.629,0,0,0,4.9-1.807Z" transform="translate(-960.385 -603.819)" fill="#ef8062"/>
              <path id="Trazado_595060" data-name="Trazado 595060" d="M1299.728,777.1c-1.293-9.551-12.191-14.945-12.191-14.945l-2.324,11.98,4.539,1.438a3.615,3.615,0,0,1,1.875,5.529c-1.807,2.547-2.864,5.963-1,5.334,3.189-1.075,9.745-5.14,9.1-9.335" transform="translate(-1063.614 -610.452)" fill="#ef8062"/>
              <path id="Trazado_595061" data-name="Trazado 595061" d="M1323.964,832.725l-.1-.005a72.209,72.209,0,0,0-.87-14.234l.1-.017a72.3,72.3,0,0,1,.871,14.256" transform="translate(-1094.883 -657.054)" fill="#331832"/>
              <path id="Trazado_595062" data-name="Trazado 595062" d="M1201.974,833.005l-.049-.083c2.6-1.53,5.98-5.561,6.013-5.6l.074.062c-.034.041-3.426,4.084-6.038,5.622" transform="translate(-994.686 -664.38)" fill="#331832"/>
              <path id="Trazado_595063" data-name="Trazado 595063" d="M1154.941,785.64s-3.341-3.477-4.509-3.714-7.9,1.616-.512,12.808Z" transform="translate(-948.824 -626.796)" fill="#ef8062"/>
              <path id="Trazado_595064" data-name="Trazado 595064" d="M859.671,1112.535v-2.153l31.5-.195-.045,2.348Z" transform="translate(-711.444 -898.473)" fill="#da6f59"/>
              <path id="Trazado_595065" data-name="Trazado 595065" d="M860.9,1094.084c2.867-2.385,9.405-4.483,20.656-3.05,7.327.933,11.154,3.767,9.039,6.234-2.571,3-10.05,4.064-21.07,3.072-7.583-.683-12.209-3.274-8.625-6.256" transform="translate(-711.444 -882.235)" fill="#e4b405"/>
              <path id="Trazado_595066" data-name="Trazado 595066" d="M860.9,1082.057c2.867-2.385,9.405-4.482,20.656-3.05,7.327.933,11.154,3.767,9.039,6.234-2.571,3-10.05,4.064-21.07,3.072-7.583-.683-12.209-3.274-8.625-6.256" transform="translate(-711.444 -872.282)" fill="#ffdb59"/>
              <path id="Trazado_595067" data-name="Trazado 595067" d="M887.051,1090.675c-1.9,0-3.979-.1-6.235-.3-4.751-.428-8.021-1.715-8.533-3.36-.17-.545-.123-1.4,1.064-2.391,1.538-1.28,6.348-4.1,17.753-2.648,4.438.565,7.6,1.982,8.266,3.7a1.9,1.9,0,0,1-.424,2c-1.692,1.974-5.831,3-11.891,3m-1.882-8.615a29.734,29.734,0,0,0-5.511.474,13.006,13.006,0,0,0-6,2.462c-.787.654-1.093,1.284-.91,1.87.446,1.43,3.63,2.615,8.111,3.019,9.305.838,15.6-.06,17.711-2.528a1.426,1.426,0,0,0,.339-1.511c-.587-1.525-3.677-2.855-7.872-3.39a46.628,46.628,0,0,0-5.869-.4" transform="translate(-721.823 -874.789)" fill="#ffb27d"/>
              <path id="Trazado_595068" data-name="Trazado 595068" d="M859.671,1098.774v-2.153l31.5-.2-.045,2.348Z" transform="translate(-711.444 -887.085)" fill="#da6f59"/>
              <path id="Trazado_595069" data-name="Trazado 595069" d="M860.9,1080.323c2.867-2.385,9.405-4.483,20.656-3.05,7.327.933,11.154,3.767,9.039,6.234-2.571,3-10.05,4.064-21.07,3.072-7.583-.683-12.209-3.274-8.625-6.256" transform="translate(-711.444 -870.847)" fill="#e4b405"/>
              <path id="Trazado_595070" data-name="Trazado 595070" d="M860.9,1068.3c2.867-2.385,9.405-4.483,20.656-3.05,7.327.933,11.154,3.767,9.039,6.234-2.571,3-10.05,4.064-21.07,3.072-7.583-.683-12.209-3.274-8.625-6.256" transform="translate(-711.444 -860.894)" fill="#ffdb59"/>
              <path id="Trazado_595071" data-name="Trazado 595071" d="M887.051,1076.914c-1.9,0-3.979-.1-6.235-.3-4.751-.428-8.021-1.715-8.533-3.36-.17-.545-.123-1.4,1.064-2.391,1.538-1.28,6.348-4.1,17.753-2.648,4.438.565,7.6,1.982,8.266,3.7a1.9,1.9,0,0,1-.424,2c-1.692,1.974-5.831,3-11.891,3m-1.882-8.615a29.734,29.734,0,0,0-5.511.474,13.007,13.007,0,0,0-6,2.463c-.787.655-1.093,1.284-.91,1.87.446,1.43,3.63,2.615,8.111,3.019,9.305.838,15.6-.06,17.711-2.528a1.426,1.426,0,0,0,.339-1.511c-.587-1.525-3.677-2.856-7.872-3.39a46.674,46.674,0,0,0-5.869-.4" transform="translate(-721.823 -863.4)" fill="#ffb27d"/>
              <path id="Trazado_595072" data-name="Trazado 595072" d="M859.671,1079.715v-2.153l31.5-.195-.045,2.348Z" transform="translate(-711.444 -871.313)" fill="#da6f59"/>
              <path id="Trazado_595073" data-name="Trazado 595073" d="M860.9,1061.264c2.867-2.385,9.405-4.483,20.656-3.05,7.327.933,11.154,3.767,9.039,6.234-2.571,3-10.05,4.064-21.07,3.072-7.583-.683-12.209-3.274-8.625-6.256" transform="translate(-711.444 -855.075)" fill="#e4b405"/>
              <path id="Trazado_595074" data-name="Trazado 595074" d="M860.9,1049.237c2.867-2.385,9.405-4.483,20.656-3.05,7.327.933,11.154,3.767,9.039,6.234-2.571,3-10.05,4.064-21.07,3.072-7.583-.683-12.209-3.274-8.625-6.256" transform="translate(-711.444 -845.121)" fill="#ffdb59"/>
              <path id="Trazado_595075" data-name="Trazado 595075" d="M887.051,1057.856c-1.9,0-3.979-.1-6.234-.3-4.751-.428-8.021-1.715-8.533-3.36-.17-.545-.123-1.4,1.064-2.391,1.539-1.28,6.348-4.1,17.753-2.648,4.438.565,7.6,1.982,8.266,3.7a1.9,1.9,0,0,1-.424,2c-1.692,1.974-5.831,3-11.891,3m-13.391-5.679c-.787.655-1.093,1.284-.91,1.871.446,1.43,3.63,2.615,8.111,3.019,9.305.838,15.6-.06,17.711-2.528a1.426,1.426,0,0,0,.339-1.511c-.587-1.525-3.677-2.855-7.872-3.39a36.976,36.976,0,0,0-11.38.077,13.005,13.005,0,0,0-6,2.462" transform="translate(-721.823 -847.628)" fill="#ffb27d"/>
              <path id="Trazado_595076" data-name="Trazado 595076" d="M861.832,1056.341v-2.153l31.5-.2-.045,2.348Z" transform="translate(-713.233 -851.968)" fill="#da6f59"/>
              <path id="Trazado_595077" data-name="Trazado 595077" d="M863.067,1037.89c2.867-2.385,9.405-4.483,20.656-3.05,7.327.933,11.154,3.767,9.039,6.234-2.571,3-10.05,4.064-21.07,3.072-7.583-.683-12.209-3.274-8.625-6.256" transform="translate(-713.233 -835.731)" fill="#e4b405"/>
              <path id="Trazado_595078" data-name="Trazado 595078" d="M863.067,1025.863c2.867-2.385,9.405-4.482,20.656-3.05,7.327.933,11.154,3.767,9.039,6.234-2.571,3-10.05,4.064-21.07,3.072-7.583-.683-12.209-3.274-8.625-6.256" transform="translate(-713.233 -825.777)" fill="#ffdb59"/>
              <path id="Trazado_595079" data-name="Trazado 595079" d="M889.213,1034.482c-1.9,0-3.979-.1-6.235-.3-4.751-.428-8.021-1.715-8.533-3.36-.17-.545-.123-1.4,1.064-2.391,1.538-1.28,6.348-4.1,17.753-2.648,4.438.565,7.605,1.982,8.266,3.7a1.9,1.9,0,0,1-.424,2c-1.692,1.974-5.831,3-11.891,3m-13.391-5.679c-.787.655-1.093,1.284-.91,1.871.446,1.43,3.63,2.615,8.111,3.019,9.305.838,15.6-.06,17.711-2.528a1.426,1.426,0,0,0,.339-1.511c-.587-1.525-3.677-2.855-7.872-3.39a36.989,36.989,0,0,0-11.381.077,13.01,13.01,0,0,0-6,2.462" transform="translate(-723.612 -828.284)" fill="#ffb27d"/>
              <path id="Trazado_595080" data-name="Trazado 595080" d="M924.335,1040.148l.217-.314c.079-.114-.123-.228-.464-.266a14.583,14.583,0,0,1-2.1-.374c-.266-.072-.325-.2-.142-.294l.127-.067a1.755,1.755,0,0,1,1.032-.057,13.531,13.531,0,0,0,2.366.373c1.563.114,2.511-.176,2.8-.6.279-.405-.089-.654-1.566-.994-2.043-.459-4.03-.961-3.588-1.6.385-.559,1.832-1.047,4.444-.883a.853.853,0,0,0,.656-.177l.237-.344a1.161,1.161,0,0,1,.836-.172c.377.027.614.149.53.272l-.2.287c-.077.112.113.226.447.264a13.051,13.051,0,0,1,1.6.272c.294.071.363.205.165.305l-.126.063a1.756,1.756,0,0,1-1,.058,12.612,12.612,0,0,0-2.027-.3c-1.7-.124-2.568.169-2.771.464-.264.383.9.507,2.63.912,2.054.475,3.186,1.016,2.923,1.683-.281.712-1.875,1.107-4.727,1.043a.9.9,0,0,0-.657.178l-.253.366a1.161,1.161,0,0,1-.836.172h-.022c-.377-.028-.614-.149-.529-.272" transform="translate(-762.812 -835.731)" fill="#ffb27d"/>
              <path id="Trazado_595081" data-name="Trazado 595081" d="M863.825,1034.7v-2.153l31.5-.195-.045,2.348Z" transform="translate(-714.882 -834.058)" fill="#da6f59"/>
              <path id="Trazado_595082" data-name="Trazado 595082" d="M865.059,1016.248c2.867-2.385,9.405-4.483,20.656-3.05,7.327.933,11.154,3.767,9.039,6.234-2.571,3-10.05,4.064-21.07,3.072-7.583-.683-12.209-3.274-8.625-6.256" transform="translate(-714.882 -817.82)" fill="#e4b405"/>
              <path id="Trazado_595083" data-name="Trazado 595083" d="M865.059,1004.221c2.867-2.385,9.405-4.483,20.656-3.05,7.327.933,11.154,3.767,9.039,6.234-2.571,3-10.05,4.064-21.07,3.072-7.583-.683-12.209-3.274-8.625-6.256" transform="translate(-714.882 -807.867)" fill="#ffdb59"/>
              <path id="Trazado_595084" data-name="Trazado 595084" d="M891.205,1012.84c-1.9,0-3.979-.1-6.235-.3-4.751-.428-8.02-1.715-8.533-3.36-.17-.545-.123-1.4,1.064-2.391,1.538-1.28,6.348-4.1,17.753-2.648,4.438.565,7.6,1.982,8.266,3.7a1.905,1.905,0,0,1-.424,2c-1.692,1.974-5.831,3-11.891,3m-13.392-5.679c-.787.655-1.093,1.284-.91,1.871.446,1.43,3.629,2.615,8.111,3.019,9.3.838,15.6-.06,17.711-2.528a1.426,1.426,0,0,0,.339-1.511c-.587-1.525-3.677-2.855-7.872-3.39a36.992,36.992,0,0,0-11.381.077,13.008,13.008,0,0,0-6,2.462" transform="translate(-725.26 -810.373)" fill="#ffb27d"/>
              <path id="Trazado_595085" data-name="Trazado 595085" d="M926.327,1018.506l.217-.314c.079-.114-.123-.228-.464-.266a14.582,14.582,0,0,1-2.1-.374c-.266-.072-.325-.2-.142-.294l.127-.066a1.75,1.75,0,0,1,1.032-.057,13.565,13.565,0,0,0,2.366.373c1.563.114,2.511-.176,2.8-.6s-.089-.654-1.566-.995c-2.043-.459-4.03-.961-3.588-1.6.385-.559,1.832-1.047,4.444-.884a.852.852,0,0,0,.656-.178l.237-.344a1.159,1.159,0,0,1,.836-.172c.377.027.614.149.53.272l-.2.287c-.077.112.113.226.447.264a12.978,12.978,0,0,1,1.6.272c.293.071.363.205.165.305l-.126.063a1.76,1.76,0,0,1-1,.058,12.578,12.578,0,0,0-2.027-.3c-1.7-.124-2.568.169-2.771.464-.264.383.9.507,2.63.912,2.054.475,3.186,1.016,2.923,1.683-.281.711-1.875,1.107-4.728,1.043a.9.9,0,0,0-.657.178l-.253.366a1.161,1.161,0,0,1-.836.172l-.022,0c-.377-.028-.614-.149-.53-.272" transform="translate(-764.461 -817.821)" fill="#ffb27d"/>
              <path id="Trazado_595086" data-name="Trazado 595086" d="M846.31,1007.517v-2.153l31.5-.2-.045,2.348Z" transform="translate(-700.388 -811.562)" fill="#da6f59"/>
              <path id="Trazado_595087" data-name="Trazado 595087" d="M847.545,989.066c2.866-2.385,9.405-4.482,20.656-3.05,7.327.933,11.154,3.767,9.039,6.234-2.571,3-10.05,4.064-21.07,3.072-7.583-.683-12.209-3.274-8.625-6.256" transform="translate(-700.387 -795.325)" fill="#e4b405"/>
              <path id="Trazado_595088" data-name="Trazado 595088" d="M847.545,977.038c2.866-2.385,9.405-4.482,20.656-3.05,7.327.933,11.154,3.767,9.039,6.234-2.571,3-10.05,4.064-21.07,3.072-7.583-.683-12.209-3.274-8.625-6.256" transform="translate(-700.387 -785.371)" fill="#ffdb59"/>
              <path id="Trazado_595089" data-name="Trazado 595089" d="M873.691,985.656c-1.9,0-3.979-.1-6.235-.3-4.751-.428-8.021-1.715-8.533-3.36-.17-.545-.123-1.4,1.064-2.391,1.539-1.28,6.348-4.1,17.753-2.648,4.438.565,7.605,1.982,8.266,3.7a1.9,1.9,0,0,1-.424,2c-1.692,1.974-5.831,3-11.891,3m-1.882-8.615a29.736,29.736,0,0,0-5.511.474,13.007,13.007,0,0,0-6,2.462c-.787.654-1.093,1.284-.91,1.87.446,1.43,3.63,2.615,8.111,3.019,9.305.838,15.6-.06,17.711-2.528a1.426,1.426,0,0,0,.34-1.511c-.587-1.525-3.677-2.855-7.872-3.39a46.641,46.641,0,0,0-5.869-.4" transform="translate(-710.766 -787.877)" fill="#ffb27d"/>
              <path id="Trazado_595090" data-name="Trazado 595090" d="M877.772,989.586v-2.153l31.5-.2-.045,2.348Z" transform="translate(-726.425 -796.724)" fill="#da6f59"/>
              <path id="Trazado_595091" data-name="Trazado 595091" d="M879.007,971.135c2.867-2.385,9.405-4.483,20.656-3.05,7.327.933,11.154,3.767,9.039,6.234-2.571,3-10.05,4.064-21.07,3.072-7.583-.683-12.209-3.274-8.625-6.256" transform="translate(-726.425 -780.486)" fill="#e4b405"/>
              <path id="Trazado_595092" data-name="Trazado 595092" d="M879.007,959.108c2.867-2.385,9.405-4.483,20.656-3.05,7.327.933,11.154,3.767,9.039,6.234-2.571,3-10.05,4.064-21.07,3.072-7.583-.683-12.209-3.274-8.625-6.256" transform="translate(-726.425 -770.532)" fill="#ffdb59"/>
              <path id="Trazado_595093" data-name="Trazado 595093" d="M905.152,967.727c-1.9,0-3.979-.1-6.235-.3-4.751-.428-8.02-1.716-8.533-3.36-.17-.545-.123-1.4,1.064-2.391,1.538-1.28,6.348-4.1,17.753-2.648,4.438.565,7.6,1.982,8.266,3.7a1.9,1.9,0,0,1-.424,2c-1.692,1.974-5.831,3-11.891,3m-13.392-5.679c-.787.655-1.093,1.284-.91,1.871.446,1.43,3.629,2.615,8.111,3.019,9.3.838,15.6-.06,17.711-2.528a1.426,1.426,0,0,0,.34-1.511c-.587-1.525-3.677-2.855-7.872-3.39a36.993,36.993,0,0,0-11.38.077,13.008,13.008,0,0,0-6,2.462" transform="translate(-736.803 -773.04)" fill="#ffb27d"/>
              <path id="Trazado_595094" data-name="Trazado 595094" d="M940.275,973.393l.217-.314c.079-.114-.123-.228-.464-.266a14.565,14.565,0,0,1-2.1-.374c-.266-.072-.325-.2-.142-.294l.127-.066a1.751,1.751,0,0,1,1.032-.057,13.551,13.551,0,0,0,2.366.373c1.563.114,2.512-.176,2.8-.6s-.089-.654-1.566-.994c-2.043-.459-4.03-.961-3.588-1.6.385-.559,1.832-1.047,4.444-.884a.853.853,0,0,0,.656-.178l.237-.344a1.161,1.161,0,0,1,.836-.172c.377.028.614.149.529.272l-.2.287c-.077.112.114.226.447.264a13.021,13.021,0,0,1,1.6.272c.294.071.364.205.165.305l-.126.063a1.759,1.759,0,0,1-1,.058,12.585,12.585,0,0,0-2.028-.3c-1.7-.124-2.568.169-2.771.464-.264.383.9.507,2.63.912,2.054.475,3.186,1.016,2.923,1.683-.281.712-1.875,1.107-4.728,1.043a.9.9,0,0,0-.657.178l-.253.366a1.16,1.16,0,0,1-.836.172l-.022,0c-.377-.028-.614-.149-.53-.272" transform="translate(-776.004 -780.486)" fill="#ffb27d"/>
              <path id="Trazado_595095" data-name="Trazado 595095" d="M981.536,1195.964v-1.915l28.015-.173-.04,2.088Z" transform="translate(-812.297 -967.732)" fill="#da6f59"/>
              <path id="Trazado_595096" data-name="Trazado 595096" d="M982.634,1179.555c2.549-2.121,8.364-3.986,18.37-2.712,6.516.83,9.92,3.35,8.039,5.544-2.286,2.667-8.938,3.615-18.738,2.732-6.744-.607-10.858-2.912-7.67-5.564" transform="translate(-812.297 -953.292)" fill="#e4b405"/>
              <path id="Trazado_595097" data-name="Trazado 595097" d="M982.634,1168.858c2.549-2.121,8.364-3.987,18.37-2.712,6.516.83,9.92,3.35,8.039,5.544-2.286,2.667-8.938,3.614-18.738,2.732-6.744-.607-10.858-2.912-7.67-5.564" transform="translate(-812.297 -944.44)" fill="#ffdb59"/>
              <path id="Trazado_595098" data-name="Trazado 595098" d="M1005.886,1176.525c-1.686,0-3.538-.089-5.544-.27-4.225-.381-7.133-1.526-7.589-2.988-.151-.485-.11-1.248.946-2.126,1.368-1.138,5.646-3.646,15.788-2.355,3.946.5,6.763,1.763,7.351,3.289a1.694,1.694,0,0,1-.377,1.782c-1.505,1.756-5.185,2.668-10.575,2.668m-11.909-5.051c-.7.582-.972,1.142-.809,1.663.4,1.272,3.228,2.326,7.214,2.685,8.275.745,13.869-.053,15.751-2.249a1.268,1.268,0,0,0,.3-1.344c-.522-1.356-3.271-2.539-7-3.014a32.889,32.889,0,0,0-10.121.069,11.565,11.565,0,0,0-5.335,2.19" transform="translate(-821.527 -946.67)" fill="#ffb27d"/>
              <path id="Trazado_595099" data-name="Trazado 595099" d="M1037.121,1181.563l.193-.28c.07-.1-.11-.2-.412-.237a12.966,12.966,0,0,1-1.867-.333c-.237-.065-.289-.176-.127-.262l.113-.059a1.557,1.557,0,0,1,.918-.051,12.022,12.022,0,0,0,2.1.331c1.39.1,2.234-.156,2.491-.53s-.079-.582-1.393-.884c-1.817-.408-3.584-.855-3.191-1.425.343-.5,1.629-.931,3.952-.786a.759.759,0,0,0,.584-.158l.211-.306a1.032,1.032,0,0,1,.743-.153c.335.024.546.133.471.242l-.176.255c-.069.1.1.2.4.235a11.527,11.527,0,0,1,1.421.242c.261.063.323.182.146.271l-.112.057a1.566,1.566,0,0,1-.891.051,11.205,11.205,0,0,0-1.8-.263c-1.508-.11-2.283.15-2.464.412-.235.341.8.451,2.339.811,1.827.423,2.834.9,2.6,1.5-.25.633-1.668.984-4.2.928a.8.8,0,0,0-.585.158l-.225.326a1.031,1.031,0,0,1-.743.153l-.019,0c-.335-.024-.546-.133-.471-.242" transform="translate(-856.389 -953.292)" fill="#ffb27d"/>
              <path id="Trazado_595100" data-name="Trazado 595100" d="M778.524,1160.63v-1.772l25.928-.161-.037,1.933Z" transform="translate(-644.289 -938.62)" fill="#da6f59"/>
              <path id="Trazado_595101" data-name="Trazado 595101" d="M779.54,1145.444c2.359-1.963,7.741-3.69,17-2.51,6.03.768,9.181,3.1,7.44,5.131-2.116,2.468-8.272,3.345-17.342,2.528-6.241-.562-10.049-2.695-7.1-5.149" transform="translate(-644.289 -925.255)" fill="#e4b405"/>
              <path id="Trazado_595102" data-name="Trazado 595102" d="M779.54,1135.544c2.359-1.963,7.741-3.69,17-2.51,6.03.768,9.181,3.1,7.44,5.131-2.116,2.468-8.272,3.345-17.342,2.528-6.241-.562-10.049-2.695-7.1-5.149" transform="translate(-644.289 -917.062)" fill="#ffdb59"/>
              <path id="Trazado_595103" data-name="Trazado 595103" d="M801.061,1142.639c-1.56,0-3.275-.083-5.132-.25-3.91-.352-6.6-1.412-7.023-2.766-.14-.449-.1-1.155.876-1.968,1.266-1.053,5.225-3.375,14.612-2.18,3.652.465,6.259,1.631,6.8,3.044a1.567,1.567,0,0,1-.349,1.649c-1.393,1.625-4.8,2.469-9.787,2.469m-1.494-7.068c-3.262,0-7.21.464-9.529,2.394-.648.539-.9,1.057-.749,1.539.367,1.177,2.987,2.153,6.676,2.485,7.659.69,12.836-.049,14.578-2.081a1.174,1.174,0,0,0,.279-1.243c-.483-1.255-3.027-2.35-6.48-2.79a39.033,39.033,0,0,0-4.776-.3" transform="translate(-652.832 -919.126)" fill="#ffb27d"/>
              <path id="Trazado_595104" data-name="Trazado 595104" d="M829.969,1147.3l.178-.259c.065-.094-.1-.188-.382-.219a11.987,11.987,0,0,1-1.728-.308c-.219-.06-.268-.163-.117-.242l.1-.054a1.441,1.441,0,0,1,.849-.047,11.12,11.12,0,0,0,1.947.307c1.287.094,2.067-.144,2.306-.49s-.073-.538-1.289-.819c-1.681-.378-3.317-.791-2.953-1.319.317-.46,1.508-.861,3.658-.727a.7.7,0,0,0,.54-.146l.2-.283a.955.955,0,0,1,.688-.142c.31.023.505.123.436.224l-.163.236c-.064.092.093.186.368.217a10.759,10.759,0,0,1,1.315.224c.242.059.3.169.136.251l-.1.052a1.449,1.449,0,0,1-.824.048,10.353,10.353,0,0,0-1.669-.244c-1.4-.1-2.114.139-2.281.382-.218.316.738.417,2.165.751,1.691.391,2.623.836,2.406,1.385-.232.586-1.544.911-3.891.858a.743.743,0,0,0-.541.146l-.208.3a.955.955,0,0,1-.688.142H830.4c-.31-.023-.506-.123-.436-.224" transform="translate(-685.096 -925.254)" fill="#ffb27d"/>
              <path id="Trazado_595105" data-name="Trazado 595105" d="M1494.92,459.911c3.985-7.406,11.609-13.481,22.512-7.614,7.1,3.821,9.779,13.411,6.529,21.164-3.952,9.425-12.087,12.056-22.946,7.64-7.473-3.039-11.077-11.931-6.094-21.19" transform="translate(-1235.259 -352.071)" fill="#ffeeb0"/>
              <g id="Grupo_874297" data-name="Grupo 874297" transform="translate(259.427 99.948)" opacity="0.5">
                <g id="Grupo_874296" data-name="Grupo 874296">
                  <g id="Grupo_874295" data-name="Grupo 874295" clip-path="url(#clip-path-14)">
                    <path id="Trazado_595106" data-name="Trazado 595106" d="M1520.195,491.147a21.929,21.929,0,0,1-8.18-1.806,11.678,11.678,0,0,1-6.691-6.923,14.374,14.374,0,0,1,1.283-11.724c1.373-2.551,3.8-5.952,7.575-7.666,3.707-1.684,7.8-1.344,12.176,1.009,6.09,3.277,8.671,11.606,5.753,18.566-2.369,5.649-6.483,8.545-11.916,8.545m-1.188-28.272a10.66,10.66,0,0,0-4.454.967c-3.547,1.611-5.85,4.845-7.157,7.275h0a13.5,13.5,0,0,0-1.229,11,10.794,10.794,0,0,0,6.186,6.4c4.506,1.832,8.426,2.221,11.651,1.155s5.666-3.556,7.282-7.411c2.745-6.547.344-14.366-5.351-17.432a14.663,14.663,0,0,0-6.927-1.95" transform="translate(-1504.598 -461.976)" fill="#ffb27d"/>
                  </g>
                </g>
              </g>
              <path id="Trazado_595107" data-name="Trazado 595107" d="M1554,509.192l.36-.994a.728.728,0,0,0-.359-.912,6.7,6.7,0,0,1-1.987-1.44.751.751,0,0,1-.016-.968l.159-.2a.716.716,0,0,1,1.083-.073,5.829,5.829,0,0,0,2.262,1.464,2.331,2.331,0,0,0,3.133-1.623c.464-1.282.2-2.127-1.169-3.389-1.892-1.709-3.71-3.55-2.974-5.578a3.734,3.734,0,0,1,4.943-2.374c.311.1.635-.184.751-.5l.395-1.088a.744.744,0,0,1,.932-.467.722.722,0,0,1,.423.939l-.329.907a.723.723,0,0,0,.342.9,5.8,5.8,0,0,1,1.518,1.054.748.748,0,0,1,.035,1.006l-.156.191a.714.714,0,0,1-1.052.078,5.252,5.252,0,0,0-1.948-1.18,2.2,2.2,0,0,0-3.044,1.2c-.439,1.212.7,1.739,2.3,3.24,1.9,1.763,2.82,3.638,2.257,5.768-.6,2.273-2.408,3.377-5.3,2.859a.717.717,0,0,0-.752.5l-.42,1.159a.744.744,0,0,1-.932.467l-.022-.008a.722.722,0,0,1-.423-.938" transform="translate(-1284.26 -386.054)" fill="#ffb27d"/>
              <path id="Trazado_595108" data-name="Trazado 595108" d="M1687.54,240.889c4.26-7.916,12.408-14.408,24.061-8.138,7.589,4.084,10.452,14.334,6.978,22.621-4.224,10.073-12.918,12.885-24.526,8.165-7.987-3.248-11.839-12.752-6.513-22.648" transform="translate(-1389.148 -176.566)" fill="#ffdb59"/>
              <g id="Grupo_874300" data-name="Grupo 874300" transform="translate(298.14 55.889)" opacity="0.5">
                <g id="Grupo_874299" data-name="Grupo 874299">
                  <g id="Grupo_874298" data-name="Grupo 874298" clip-path="url(#clip-path-15)">
                    <path id="Trazado_595109" data-name="Trazado 595109" d="M1714.554,274.274a23.438,23.438,0,0,1-8.742-1.93,12.481,12.481,0,0,1-7.152-7.4c-1.388-3.858-.9-8.308,1.371-12.531,1.467-2.727,4.063-6.361,8.1-8.193,3.961-1.8,8.34-1.437,13.013,1.078,6.509,3.5,9.267,12.4,6.148,19.843-2.531,6.037-6.929,9.133-12.736,9.133m-1.27-30.217a11.393,11.393,0,0,0-4.76,1.034c-3.791,1.722-6.253,5.179-7.65,7.776a14.426,14.426,0,0,0-1.313,11.754,11.536,11.536,0,0,0,6.612,6.837c4.816,1.959,9.006,2.374,12.453,1.235s6.055-3.8,7.783-7.92c2.934-7,.368-15.355-5.719-18.631a15.673,15.673,0,0,0-7.4-2.084" transform="translate(-1697.884 -243.097)" fill="#ffb27d"/>
                  </g>
                </g>
              </g>
              <path id="Trazado_595110" data-name="Trazado 595110" d="M1750.685,293.559l.385-1.062a.779.779,0,0,0-.384-.975,7.158,7.158,0,0,1-2.124-1.539.8.8,0,0,1-.018-1.034l.17-.215a.765.765,0,0,1,1.157-.078,6.231,6.231,0,0,0,2.417,1.565,2.492,2.492,0,0,0,3.349-1.735c.5-1.37.209-2.273-1.249-3.623-2.022-1.826-3.965-3.794-3.179-5.962a3.991,3.991,0,0,1,5.283-2.538c.333.1.679-.2.8-.537l.422-1.163a.8.8,0,0,1,1-.5.771.771,0,0,1,.452,1l-.351.97a.773.773,0,0,0,.365.966,6.2,6.2,0,0,1,1.623,1.127.8.8,0,0,1,.038,1.075l-.167.2a.763.763,0,0,1-1.125.083,5.616,5.616,0,0,0-2.082-1.261,2.348,2.348,0,0,0-3.253,1.28c-.47,1.3.745,1.858,2.453,3.463,2.028,1.884,3.014,3.888,2.412,6.165-.642,2.429-2.574,3.609-5.669,3.056a.766.766,0,0,0-.8.537l-.449,1.238a.8.8,0,0,1-1,.5l-.023-.008a.772.772,0,0,1-.452-1" transform="translate(-1441.521 -212.886)" fill="#ffb27d"/>
              <path id="Trazado_595116" data-name="Trazado 595116" d="M1613.63,40.871c3.073-5.711,8.952-10.395,17.359-5.871,5.475,2.946,7.541,10.341,5.034,16.319-3.047,7.267-9.32,9.3-17.693,5.891-5.762-2.343-8.541-9.2-4.7-16.339" transform="translate(-1326.764 -27.264)" fill="#ffeeb0"/>
              <g id="Grupo_874309" data-name="Grupo 874309" transform="translate(286.685 7.521)" opacity="0.5">
                <g id="Grupo_874302" data-name="Grupo 874302">
                  <g id="Grupo_874301" data-name="Grupo 874301" clip-path="url(#clip-path-16)">
                    <path id="Trazado_595112" data-name="Trazado 595112" d="M1633.119,64.957a16.91,16.91,0,0,1-6.307-1.393,9,9,0,0,1-5.159-5.338,11.084,11.084,0,0,1,.989-9.04,13.264,13.264,0,0,1,5.841-5.911c2.858-1.3,6.017-1.036,9.389.778,4.7,2.527,6.686,8.949,4.435,14.316-1.826,4.355-5,6.588-9.188,6.588m-9.87-15.444a10.406,10.406,0,0,0-.947,8.479,8.322,8.322,0,0,0,4.77,4.932c3.475,1.413,6.5,1.713,8.984.891s4.368-2.742,5.615-5.714c2.117-5.048.266-11.078-4.126-13.441-2.724-1.466-9.57-3.927-14.295,4.852" transform="translate(-1621.093 -42.463)" fill="#ffb27d"/>
                  </g>
                </g>
              </g>
              <path id="Trazado_595117" data-name="Trazado 595117" d="M1659.185,78.87l.278-.766a.562.562,0,0,0-.277-.7,5.157,5.157,0,0,1-1.532-1.11.578.578,0,0,1-.013-.746l.122-.155a.552.552,0,0,1,.835-.056,4.5,4.5,0,0,0,1.744,1.129,1.8,1.8,0,0,0,2.416-1.251c.358-.989.151-1.64-.9-2.614-1.459-1.318-2.86-2.738-2.294-4.3a2.879,2.879,0,0,1,3.812-1.831c.24.075.49-.142.579-.388l.3-.839a.574.574,0,0,1,.719-.36.557.557,0,0,1,.326.724l-.253.7a.558.558,0,0,0,.263.7,4.471,4.471,0,0,1,1.171.813.577.577,0,0,1,.027.776l-.121.147a.551.551,0,0,1-.811.06,4.055,4.055,0,0,0-1.5-.91,1.694,1.694,0,0,0-2.347.924c-.339.935.538,1.341,1.77,2.5,1.463,1.36,2.174,2.8,1.74,4.447-.463,1.752-1.857,2.6-4.09,2.2a.553.553,0,0,0-.58.388l-.324.893a.574.574,0,0,1-.719.36l-.017-.006a.556.556,0,0,1-.326-.724" transform="translate(-1364.547 -53.467)" fill="#ffb27d"/>
            </g>
          </g>
        </g>
      </g>
      <path id="Trazado_595114" data-name="Trazado 595114" d="M0,10.029l19.216,8.642L3.234,0Z" transform="translate(31.849 104.843) rotate(-30)" fill="none" stroke="#a2a7c5" stroke-miterlimit="10" stroke-width="1.547"/>
      <path id="Trazado_595115" data-name="Trazado 595115" d="M16.171,2.15,0,0,23.955,34.308Z" transform="translate(29.644 88.061) rotate(-30)" fill="none" stroke="#a2a7c5" stroke-miterlimit="10" stroke-width="1.547"/>
      <g id="Grupo_874160" data-name="Grupo 874160" transform="translate(54.925 46.641)" opacity="0.19">
        <g id="Grupo_870518" data-name="Grupo 870518">
          <g id="Grupo_870517" data-name="Grupo 870517" clip-path="url(#clip-path-17)">
            <path id="Trazado_212372" data-name="Trazado 212372" d="M76.809,214.556H28.248A4.746,4.746,0,0,1,23.5,209.81v-1.25a4.746,4.746,0,0,1,4.746-4.746H76.809a4.746,4.746,0,0,1,4.746,4.746v1.25a4.746,4.746,0,0,1-4.746,4.746" transform="translate(-23.502 -203.814)" fill="#444"/>
          </g>
        </g>
      </g>
      <path id="Trazado_594653" data-name="Trazado 594653" d="M71.826,206.5H22.37a4.785,4.785,0,0,1-4.785-4.785v-1.17a4.786,4.786,0,0,1,4.785-4.786H71.826a4.786,4.786,0,0,1,4.786,4.786v1.17a4.786,4.786,0,0,1-4.786,4.786" transform="translate(34.677 -152.746)" fill="#fff"/>
    </g>
    <path id="Trazado_595118" data-name="Trazado 595118" d="M413.537,47.6,408.17,52.97,402.8,47.6l-6.247,6.247,5.368,5.367-5.368,5.368,6.247,6.247,5.368-5.368,5.367,5.368,6.246-6.247-5.367-5.368,5.367-5.367Z" transform="translate(744.82 847.844)" fill="none" stroke="#ea3584" stroke-miterlimit="10" stroke-width="0.778"/>
  </g>
</svg>
