<svg xmlns="http://www.w3.org/2000/svg" width="75.911" height="75.912" viewBox="0 0 75.911 75.912">
  <g id="Grupo_874696" data-name="Grupo 874696" transform="translate(-917 -2869)">
    <g id="Grupo_874692" data-name="Grupo 874692">
      <path id="Trazado_593297" data-name="Trazado 593297" d="M92.519,156.492a37.956,37.956,0,1,1,38.129-37.781,38,38,0,0,1-38.129,37.781" transform="translate(862.263 2788.42)" fill="#fff"/>
      <g id="puerta-abierta" transform="translate(933.398 2884.001)">
        <path id="Trazado_594308" data-name="Trazado 594308" d="M49.447,48.694a.667.667,0,0,0,.667-.667V2.665A.667.667,0,0,0,49.38,2L28.08,4.153a.667.667,0,0,0-.6.667V15.714a.667.667,0,1,0,1.334,0V5.423L48.78,3.4v43.86L28.814,44.558V33.645a.667.667,0,1,0-1.334,0V45.139a.667.667,0,0,0,.577.661l21.3,2.888a.682.682,0,0,0,.09.006Z" transform="translate(-20.448 -1.995)"/>
        <path id="Trazado_594309" data-name="Trazado 594309" d="M60.077,31.835a.667.667,0,0,0,.667-.667V29.227a.667.667,0,1,0-1.334,0v1.941A.667.667,0,0,0,60.077,31.835Z" transform="translate(-52.378 -10.839)"/>
        <path id="Trazado_594310" data-name="Trazado 594310" d="M23.212,47.3a.667.667,0,0,0,.667-.667V5.867a.667.667,0,0,0-.667-.667H13.326a.667.667,0,1,0,0,1.334h9.219v40.1A.667.667,0,0,0,23.212,47.3Z" transform="translate(15.674 -3.062)"/>
        <path id="Trazado_594311" data-name="Trazado 594311" d="M25.088,49.242a.667.667,0,0,0,.667-.667V11.708a.667.667,0,0,0-.667-.667H18.974a.667.667,0,0,0,0,1.334h5.447v36.2A.667.667,0,0,0,25.088,49.242Z" transform="translate(10.03 -5.007)"/>
        <path id="Trazado_594312" data-name="Trazado 594312" d="M2.716,67.64H19.675a.667.667,0,1,0,0-1.334H2.716a.667.667,0,1,0,0,1.334Z" transform="translate(26.288 -23.406)"/>
        <path id="Trazado_594313" data-name="Trazado 594313" d="M55.31,67.64H65.522a.667.667,0,1,0,0-1.334H55.31a.667.667,0,1,0,0,1.334Z" transform="translate(-54.643 -23.406)"/>
        <path id="Trazado_594314" data-name="Trazado 594314" d="M34.217,38.208A2.411,2.411,0,1,0,31.806,35.8,2.411,2.411,0,0,0,34.217,38.208Zm0-3.488A1.077,1.077,0,1,1,33.14,35.8a1.077,1.077,0,0,1,1.077-1.077Z" transform="translate(-9.847 -12.446)"/>
      </g>
    </g>
    <g id="salida" transform="translate(932.847 2914.993) rotate(-90)">
      <path id="Trazado_594315" data-name="Trazado 594315" d="M0,191.653a.807.807,0,0,1,.36-.672l7.268-4.845a.808.808,0,0,1,1.256.672v1.615h9.368a.808.808,0,0,1,.808.808v4.845a.808.808,0,0,1-.808.808H8.883V196.5a.808.808,0,0,1-1.256.672L.36,192.325A.807.807,0,0,1,0,191.653Zm7.268,3.336v-.914a.808.808,0,0,1,.808-.808h9.368v-3.23H8.076a.808.808,0,0,1-.808-.808v-.914l-5,3.336Z" transform="translate(0 -186)"/>
    </g>
  </g>
</svg>
