<svg xmlns="http://www.w3.org/2000/svg" width="75.911" height="75.912" viewBox="0 0 75.911 75.912">
  <g id="Grupo_874693" data-name="Grupo 874693" transform="translate(-1227 -2869)">
    <path id="Trazado_594129" data-name="Trazado 594129" d="M92.519,156.492a37.956,37.956,0,1,1,38.129-37.781,38,38,0,0,1-38.129,37.781" transform="translate(1172.263 2788.42)" fill="#fff"/>
    <path id="puerta-abierta_1_" data-name="puerta-abierta(1)" d="M43.33,6.551a.694.694,0,0,0,.694-.694V1.694A.694.694,0,0,0,43.33,1H1.694A.694.694,0,0,0,1,1.694V5.858a.694.694,0,0,0,.694.694h.694V42.636H-3v1.388H48.024V42.636H42.636V6.551ZM2.388,2.388H42.636V5.164H2.388ZM38.472,42.421,24.594,38.636V28.063h1.388v9.125a.694.694,0,0,0,.51.669l9.715,2.672a.694.694,0,0,0,.878-.669V9.327a.694.694,0,0,0-.878-.669L26.492,11.33a.694.694,0,0,0-.51.669v9.125H24.594V10.551L38.472,6.767ZM24.594,22.512h2.082v4.164H24.594Zm2.776,5.551a.694.694,0,0,0,.694-.694V21.818a.694.694,0,0,0-.694-.694v-8.6l8.327-2.29V38.95L27.37,36.66ZM23.717,9.351a.694.694,0,0,0-.511.67V39.166a.694.694,0,0,0,.512.67l10.267,2.8H11.039l10.27-2.8a.694.694,0,0,0,.509-.67V10.021a.694.694,0,0,0-.512-.67l-10.267-2.8H33.985ZM20.43,26.676H18.348V22.512H20.43Zm-2.776-5.551a.694.694,0,0,0-.694.694V27.37a.694.694,0,0,0,.694.694v8.6l-8.327,2.29V10.238l8.327,2.29Zm2.776,0H19.042V12a.694.694,0,0,0-.51-.669L8.817,8.658a.686.686,0,0,0-.6.117.694.694,0,0,0-.273.552V39.86a.694.694,0,0,0,.878.669l9.715-2.672a.694.694,0,0,0,.51-.669V28.063H20.43V38.636L6.551,42.422V6.766L20.43,10.551ZM3.776,6.551H5.164V42.636H3.776ZM41.248,42.636H39.86V6.551h1.388Z" transform="translate(1242 2882.977)"/>
  </g>
</svg>
