<svg xmlns="http://www.w3.org/2000/svg" xmlns:xlink="http://www.w3.org/1999/xlink" width="396" height="395.987" viewBox="0 0 396 395.987">
  <defs>
    <linearGradient id="linear-gradient" x1="0.121" y1="0.375" x2="0.842" y2="0.85" gradientUnits="objectBoundingBox">
      <stop offset="0" stop-color="#ca3597"/>
      <stop offset="0.475" stop-color="#f54b86"/>
      <stop offset="1" stop-color="#fed6a8"/>
    </linearGradient>
  </defs>
  <g id="Grupo_874658" data-name="Grupo 874658" transform="translate(-180 -718)">
    <g id="Grupo_846424" data-name="Grupo 846424" transform="translate(-1574.412 1488.055)">
      <g id="Grupo_846423" data-name="Grupo 846423" transform="translate(1754.412 -770.055)">
        <path id="Trazado_585979" data-name="Trazado 585979" d="M1940.6-770.055v108.894a89.609,89.609,0,0,0-72.22,48.259l-100.6-41.674a197.36,197.36,0,0,1,69.976-82.339A197.307,197.307,0,0,1,1940.6-770.055Z" transform="translate(-1749.814 770.055)" fill="#ea3584" opacity="0.42"/>
        <path id="Trazado_585980" data-name="Trazado 585980" d="M2085.848-640.2l-103.573,33.637a88.262,88.262,0,0,0-75.163-54.6V-770.055a196.79,196.79,0,0,1,109.23,37.588A196.778,196.778,0,0,1,2085.848-640.2Z" transform="translate(-1701.902 770.055)" fill="#ebe3f9"/>
        <path id="Trazado_585981" data-name="Trazado 585981" d="M2086.282-608.946c0,65.837-33.758,128.528-88.481,164.921l-56.9-92.835a90.19,90.19,0,0,0,36.675-72.086,88.333,88.333,0,0,0-2.459-20.628l103.559-33.651A197.546,197.546,0,0,1,2086.282-608.946Z" transform="translate(-1690.282 806.791)" fill="#ffe0f0"/>
        <path id="Trazado_585982" data-name="Trazado 585982" d="M2033.462-467.785a197.98,197.98,0,0,1-97.337,25.695,196.623,196.623,0,0,1-134.683-53.137l77-77.018a88.61,88.61,0,0,0,57.746,21.381,89.1,89.1,0,0,0,40.384-9.743Z" transform="translate(-1738.239 838.077)" fill="#ecedf4"/>
        <path id="Trazado_585983" data-name="Trazado 585983" d="M1884.432-547.38l-77,77.017a196.734,196.734,0,0,1-53.016-134.8,196.617,196.617,0,0,1,12.471-69.048l100.6,41.674a88.41,88.41,0,0,0-4.368,27.375A88.7,88.7,0,0,0,1884.432-547.38Z" transform="translate(-1754.412 803.012)" fill="#fffae7"/>
      </g>
      <path id="Trazado_595146" data-name="Trazado 595146" d="M76.269,0A76.269,76.269,0,1,1,0,76.269,76.269,76.269,0,0,1,76.269,0Z" transform="translate(1876.144 -648.331)" fill="url(#linear-gradient)"/>
    </g>
    <path id="Trazado_595550" data-name="Trazado 595550" d="M17.859,21H14.93V6.781h2.93Zm5.127-10.566.088,1.221a3.689,3.689,0,0,1,3.037-1.416,3.066,3.066,0,0,1,2.5.986,4.6,4.6,0,0,1,.84,2.949V21H26.629V14.242a1.831,1.831,0,0,0-.391-1.3,1.749,1.749,0,0,0-1.3-.405,1.942,1.942,0,0,0-1.787,1.016V21H20.33V10.434Zm13,8.486a1.851,1.851,0,0,0,1.27-.43,1.506,1.506,0,0,0,.508-1.143h2.646a3.62,3.62,0,0,1-.586,1.968A3.866,3.866,0,0,1,38.245,20.7a4.936,4.936,0,0,1-2.212.493,4.587,4.587,0,0,1-3.574-1.44,5.7,5.7,0,0,1-1.309-3.979V15.59a5.635,5.635,0,0,1,1.3-3.9,4.534,4.534,0,0,1,3.564-1.455,4.444,4.444,0,0,1,3.179,1.128,3.994,3.994,0,0,1,1.216,3H37.762a1.939,1.939,0,0,0-.508-1.34,1.887,1.887,0,0,0-2.778.2,4.166,4.166,0,0,0-.5,2.333v.293a4.219,4.219,0,0,0,.5,2.347A1.721,1.721,0,0,0,35.984,18.92ZM45,21H42.166V6H45Zm8.652-1.074A3.539,3.539,0,0,1,50.76,21.2a3.338,3.338,0,0,1-2.593-.977,4.169,4.169,0,0,1-.913-2.861V10.434h2.822v6.834q0,1.652,1.5,1.652a2.038,2.038,0,0,0,1.973-1V10.434h2.832V21H53.729ZM64.236,18.08a.909.909,0,0,0-.513-.815,5.824,5.824,0,0,0-1.646-.532q-3.77-.791-3.77-3.2a2.9,2.9,0,0,1,1.167-2.349,4.708,4.708,0,0,1,3.052-.942,5.067,5.067,0,0,1,3.218.947,2.985,2.985,0,0,1,1.206,2.461H64.129a1.366,1.366,0,0,0-.391-1,1.653,1.653,0,0,0-1.221-.4,1.689,1.689,0,0,0-1.1.322,1.017,1.017,0,0,0-.391.82.87.87,0,0,0,.444.757,4.571,4.571,0,0,0,1.5.5,12.244,12.244,0,0,1,1.777.474,2.92,2.92,0,0,1,2.236,2.842A2.756,2.756,0,0,1,65.74,20.3a5.35,5.35,0,0,1-3.2.894,5.588,5.588,0,0,1-2.358-.474,3.957,3.957,0,0,1-1.616-1.3,3.018,3.018,0,0,1-.586-1.782h2.676a1.473,1.473,0,0,0,.557,1.152,2.208,2.208,0,0,0,1.387.4,2.044,2.044,0,0,0,1.226-.308A.957.957,0,0,0,64.236,18.08ZM71.775,21H68.943V10.434h2.832Zm-3-13.3A1.39,1.39,0,0,1,69.2,6.654a1.831,1.831,0,0,1,2.31,0,1.382,1.382,0,0,1,.43,1.045,1.386,1.386,0,0,1-.435,1.055,1.81,1.81,0,0,1-2.295,0A1.386,1.386,0,0,1,68.777,7.7Zm4.883,7.92a6.266,6.266,0,0,1,.605-2.8,4.432,4.432,0,0,1,1.743-1.9,5.086,5.086,0,0,1,2.642-.674,4.812,4.812,0,0,1,3.491,1.309A5.252,5.252,0,0,1,83.65,15.1l.02.723a5.523,5.523,0,0,1-1.357,3.9,5.261,5.261,0,0,1-7.29,0,5.62,5.62,0,0,1-1.362-3.984Zm2.822.2a3.95,3.95,0,0,0,.566,2.3,2.035,2.035,0,0,0,3.223.01,4.322,4.322,0,0,0,.576-2.518,3.91,3.91,0,0,0-.576-2.289,1.873,1.873,0,0,0-1.621-.812,1.842,1.842,0,0,0-1.6.807A4.395,4.395,0,0,0,76.482,15.819ZM79.207,6h3.076L79.578,9.027H77.283Zm8.8,4.434.088,1.221a3.689,3.689,0,0,1,3.037-1.416,3.066,3.066,0,0,1,2.5.986,4.6,4.6,0,0,1,.84,2.949V21H91.648V14.242a1.831,1.831,0,0,0-.391-1.3,1.749,1.749,0,0,0-1.3-.405,1.942,1.942,0,0,0-1.787,1.016V21H85.35V10.434Z" transform="translate(323.5 904)" fill="#fff"/>
    <g id="Grupo_847319" data-name="Grupo 847319" transform="translate(14 -527.742)">
      <rect id="Rectángulo_38178" data-name="Rectángulo 38178" width="81" height="81" transform="translate(240 1286.742)" fill="none"/>
      <g id="empresa_1_" data-name="empresa(1)" transform="translate(247.79 1294.532)">
        <g id="Grupo_874359" data-name="Grupo 874359" transform="translate(22.897 21.807)">
          <g id="Grupo_874358" data-name="Grupo 874358">
            <rect id="Rectángulo_293419" data-name="Rectángulo 293419" width="2.181" height="2.181"/>
          </g>
        </g>
        <g id="Grupo_874361" data-name="Grupo 874361" transform="translate(22.897 26.168)">
          <g id="Grupo_874360" data-name="Grupo 874360">
            <rect id="Rectángulo_293420" data-name="Rectángulo 293420" width="2.181" height="2.181"/>
          </g>
        </g>
        <g id="Grupo_874363" data-name="Grupo 874363" transform="translate(22.897 30.529)">
          <g id="Grupo_874362" data-name="Grupo 874362">
            <rect id="Rectángulo_293421" data-name="Rectángulo 293421" width="2.181" height="2.181"/>
          </g>
        </g>
        <g id="Grupo_874365" data-name="Grupo 874365" transform="translate(22.897 34.891)">
          <g id="Grupo_874364" data-name="Grupo 874364">
            <rect id="Rectángulo_293422" data-name="Rectángulo 293422" width="2.181" height="2.181"/>
          </g>
        </g>
        <g id="Grupo_874367" data-name="Grupo 874367" transform="translate(27.258 21.807)">
          <g id="Grupo_874366" data-name="Grupo 874366">
            <rect id="Rectángulo_293423" data-name="Rectángulo 293423" width="2.181" height="2.181"/>
          </g>
        </g>
        <g id="Grupo_874369" data-name="Grupo 874369" transform="translate(27.258 26.168)">
          <g id="Grupo_874368" data-name="Grupo 874368">
            <rect id="Rectángulo_293424" data-name="Rectángulo 293424" width="2.181" height="2.181"/>
          </g>
        </g>
        <g id="Grupo_874371" data-name="Grupo 874371" transform="translate(27.258 30.529)">
          <g id="Grupo_874370" data-name="Grupo 874370">
            <rect id="Rectángulo_293425" data-name="Rectángulo 293425" width="2.181" height="2.181"/>
          </g>
        </g>
        <g id="Grupo_874373" data-name="Grupo 874373" transform="translate(27.258 34.891)">
          <g id="Grupo_874372" data-name="Grupo 874372">
            <rect id="Rectángulo_293426" data-name="Rectángulo 293426" width="2.181" height="2.181"/>
          </g>
        </g>
        <g id="Grupo_874375" data-name="Grupo 874375" transform="translate(31.62 21.807)">
          <g id="Grupo_874374" data-name="Grupo 874374">
            <rect id="Rectángulo_293427" data-name="Rectángulo 293427" width="2.181" height="2.181"/>
          </g>
        </g>
        <g id="Grupo_874377" data-name="Grupo 874377" transform="translate(31.62 26.168)">
          <g id="Grupo_874376" data-name="Grupo 874376">
            <rect id="Rectángulo_293428" data-name="Rectángulo 293428" width="2.181" height="2.181"/>
          </g>
        </g>
        <g id="Grupo_874379" data-name="Grupo 874379" transform="translate(31.62 30.529)">
          <g id="Grupo_874378" data-name="Grupo 874378">
            <rect id="Rectángulo_293429" data-name="Rectángulo 293429" width="2.181" height="2.181"/>
          </g>
        </g>
        <g id="Grupo_874381" data-name="Grupo 874381" transform="translate(31.62 34.891)">
          <g id="Grupo_874380" data-name="Grupo 874380">
            <rect id="Rectángulo_293430" data-name="Rectángulo 293430" width="2.181" height="2.181"/>
          </g>
        </g>
        <g id="Grupo_874383" data-name="Grupo 874383" transform="translate(35.981 21.807)">
          <g id="Grupo_874382" data-name="Grupo 874382">
            <rect id="Rectángulo_293431" data-name="Rectángulo 293431" width="2.181" height="2.181"/>
          </g>
        </g>
        <g id="Grupo_874385" data-name="Grupo 874385" transform="translate(27.258 17.445)">
          <g id="Grupo_874384" data-name="Grupo 874384">
            <rect id="Rectángulo_293432" data-name="Rectángulo 293432" width="2.181" height="2.181"/>
          </g>
        </g>
        <g id="Grupo_874387" data-name="Grupo 874387" transform="translate(31.62 17.445)">
          <g id="Grupo_874386" data-name="Grupo 874386">
            <rect id="Rectángulo_293433" data-name="Rectángulo 293433" width="2.181" height="2.181"/>
          </g>
        </g>
        <g id="Grupo_874389" data-name="Grupo 874389" transform="translate(35.981 17.445)">
          <g id="Grupo_874388" data-name="Grupo 874388">
            <rect id="Rectángulo_293434" data-name="Rectángulo 293434" width="2.181" height="2.181"/>
          </g>
        </g>
        <g id="Grupo_874391" data-name="Grupo 874391" transform="translate(35.981 26.168)">
          <g id="Grupo_874390" data-name="Grupo 874390">
            <rect id="Rectángulo_293435" data-name="Rectángulo 293435" width="2.181" height="2.181"/>
          </g>
        </g>
        <g id="Grupo_874393" data-name="Grupo 874393" transform="translate(35.981 30.529)">
          <g id="Grupo_874392" data-name="Grupo 874392">
            <rect id="Rectángulo_293436" data-name="Rectángulo 293436" width="2.181" height="2.181"/>
          </g>
        </g>
        <g id="Grupo_874395" data-name="Grupo 874395" transform="translate(35.981 34.891)">
          <g id="Grupo_874394" data-name="Grupo 874394">
            <rect id="Rectángulo_293437" data-name="Rectángulo 293437" width="2.181" height="2.181"/>
          </g>
        </g>
        <g id="Grupo_874397" data-name="Grupo 874397" transform="translate(40.342 21.807)">
          <g id="Grupo_874396" data-name="Grupo 874396">
            <rect id="Rectángulo_293438" data-name="Rectángulo 293438" width="2.181" height="2.181"/>
          </g>
        </g>
        <g id="Grupo_874399" data-name="Grupo 874399" transform="translate(40.342 26.168)">
          <g id="Grupo_874398" data-name="Grupo 874398">
            <rect id="Rectángulo_293439" data-name="Rectángulo 293439" width="2.181" height="2.181"/>
          </g>
        </g>
        <g id="Grupo_874401" data-name="Grupo 874401" transform="translate(40.342 30.529)">
          <g id="Grupo_874400" data-name="Grupo 874400">
            <rect id="Rectángulo_293440" data-name="Rectángulo 293440" width="2.181" height="2.181"/>
          </g>
        </g>
        <g id="Grupo_874403" data-name="Grupo 874403" transform="translate(40.342 34.891)">
          <g id="Grupo_874402" data-name="Grupo 874402">
            <rect id="Rectángulo_293441" data-name="Rectángulo 293441" width="2.181" height="2.181"/>
          </g>
        </g>
        <g id="Grupo_874405" data-name="Grupo 874405" transform="translate(0 0)">
          <g id="Grupo_874404" data-name="Grupo 874404">
            <path id="Trazado_595156" data-name="Trazado 595156" d="M64.331,16.355H47.975V1.09A1.09,1.09,0,0,0,46.886,0H18.536a1.09,1.09,0,0,0-1.09,1.089h0V16.355H1.09A1.09,1.09,0,0,0,0,17.444H0V56.7a1.09,1.09,0,0,0,1.089,1.09H3.37a6.543,6.543,0,0,0-.1,1.09V64.33A1.09,1.09,0,0,0,4.36,65.42h56.7a1.09,1.09,0,0,0,1.09-1.089h0V58.878a6.515,6.515,0,0,0-.1-1.09H64.33A1.09,1.09,0,0,0,65.42,56.7h0V17.445A1.09,1.09,0,0,0,64.331,16.355ZM46.884,46.884A2.181,2.181,0,1,1,44.7,44.7,2.181,2.181,0,0,1,46.884,46.884ZM20.716,44.7a2.181,2.181,0,1,1-2.181,2.181A2.181,2.181,0,0,1,20.716,44.7ZM14.174,63.239H5.452V58.878a4.361,4.361,0,0,1,8.723,0ZM7.632,50.155a2.181,2.181,0,1,1,2.181,2.181A2.181,2.181,0,0,1,7.632,50.155Zm6.707,4.01a6.572,6.572,0,0,0-1.372-1.015,4.361,4.361,0,1,0-6.31,0,6.584,6.584,0,0,0-2.5,2.457H2.181V18.536H17.445V44.03a4.3,4.3,0,0,0,.116,5.85A6.56,6.56,0,0,0,14.34,54.166Zm10.738,9.074H16.355V55.607a4.361,4.361,0,0,1,8.723,0Zm13.084,0h-10.9V55.607a5.452,5.452,0,0,1,10.9,0ZM29.439,44.7a3.271,3.271,0,1,1,3.271,3.271A3.271,3.271,0,0,1,29.439,44.7Zm9.911,7.155a7.68,7.68,0,0,0-3.128-3.02,5.452,5.452,0,1,0-7.024,0,7.68,7.68,0,0,0-3.128,3.02,6.585,6.585,0,0,0-2.2-1.979,4.33,4.33,0,0,0-4.245-7.2V2.181H45.794v40.5a4.342,4.342,0,0,0-4.245,7.2A6.586,6.586,0,0,0,39.35,51.858Zm9.715,7.02v4.361H40.342V55.607a4.361,4.361,0,0,1,8.723,0Zm10.9,4.361H51.246V58.878a4.361,4.361,0,1,1,8.723,0ZM53.426,50.155a2.181,2.181,0,1,1,2.181,2.181A2.181,2.181,0,0,1,53.426,50.155Zm9.813,5.452H61.264a6.584,6.584,0,0,0-2.5-2.457,4.361,4.361,0,1,0-6.31,0,6.569,6.569,0,0,0-1.372,1.015,6.56,6.56,0,0,0-3.222-4.286,4.3,4.3,0,0,0,.116-5.85V18.536H63.239V55.607Z" transform="translate(0 0)"/>
          </g>
        </g>
        <g id="Grupo_874407" data-name="Grupo 874407" transform="translate(51.246 25.078)">
          <g id="Grupo_874406" data-name="Grupo 874406">
            <rect id="Rectángulo_293442" data-name="Rectángulo 293442" width="2.181" height="17.445"/>
          </g>
        </g>
        <g id="Grupo_874409" data-name="Grupo 874409" transform="translate(57.788 25.078)">
          <g id="Grupo_874408" data-name="Grupo 874408">
            <rect id="Rectángulo_293443" data-name="Rectángulo 293443" width="2.181" height="17.445"/>
          </g>
        </g>
        <g id="Grupo_874411" data-name="Grupo 874411" transform="translate(5.452 25.078)">
          <g id="Grupo_874410" data-name="Grupo 874410">
            <rect id="Rectángulo_293444" data-name="Rectángulo 293444" width="2.181" height="17.445"/>
          </g>
        </g>
        <g id="Grupo_874413" data-name="Grupo 874413" transform="translate(11.994 25.078)">
          <g id="Grupo_874412" data-name="Grupo 874412">
            <rect id="Rectángulo_293445" data-name="Rectángulo 293445" width="2.181" height="17.445"/>
          </g>
        </g>
        <g id="Grupo_874415" data-name="Grupo 874415" transform="translate(25.078 4.361)">
          <g id="Grupo_874414" data-name="Grupo 874414">
            <path id="Trazado_595157" data-name="Trazado 595157" d="M37.559,4.067H24.474a1.09,1.09,0,0,0-1.09,1.089h0V13.88a1.09,1.09,0,0,0,1.089,1.09H37.558a1.09,1.09,0,0,0,1.09-1.089h0V5.157A1.09,1.09,0,0,0,37.559,4.067Zm-1.092,8.723h-10.9V6.247h10.9Z" transform="translate(-23.383 -4.067)"/>
          </g>
        </g>
      </g>
    </g>
    <g id="Grupo_847323" data-name="Grupo 847323" transform="translate(84 -269.742)">
      <rect id="Rectángulo_38178-2" data-name="Rectángulo 38178" width="81" height="81" transform="translate(240 1286.742)" fill="none"/>
      <g id="Outline" transform="translate(243.272 1290.514)">
        <path id="Trazado_595158" data-name="Trazado 595158" d="M52.464,27.851h2.344V13.787h11.72V30.2h2.344V12.615A1.172,1.172,0,0,0,67.7,11.443H66.529V7.927a1.172,1.172,0,0,0-1.172-1.172H54.808V3.239a1.172,1.172,0,0,0-1.172-1.172H27.851V4.411H52.464ZM54.808,9.1h9.376v2.344H54.808ZM7.927,13.787h11.72V29.024h2.344V4.411h3.516V2.067H20.819a1.172,1.172,0,0,0-1.172,1.172V6.755H9.1A1.172,1.172,0,0,0,7.927,7.927v3.516H6.755a1.172,1.172,0,0,0-1.172,1.172V31.368H7.927ZM10.271,9.1h9.376v2.344H10.271ZM40.744,7.927a1.172,1.172,0,0,0-1.172-1.172H34.884a1.172,1.172,0,0,0-1.172,1.172v4.688a1.172,1.172,0,0,0,1.172,1.172h4.688a1.172,1.172,0,0,0,1.172-1.172ZM38.4,11.443H36.056V9.1H38.4ZM50.12,7.927a1.172,1.172,0,0,0-1.172-1.172H44.26a1.172,1.172,0,0,0-1.172,1.172v4.688a1.172,1.172,0,0,0,1.172,1.172h4.688a1.172,1.172,0,0,0,1.172-1.172Zm-2.344,3.516H45.432V9.1h2.344ZM31.368,7.927A1.172,1.172,0,0,0,30.2,6.755H25.507a1.172,1.172,0,0,0-1.172,1.172v4.688a1.172,1.172,0,0,0,1.172,1.172H30.2a1.172,1.172,0,0,0,1.172-1.172Zm-2.344,3.516H26.679V9.1h2.344Zm11.72,5.86a1.172,1.172,0,0,0-1.172-1.172H34.884A1.172,1.172,0,0,0,33.712,17.3v4.688a1.172,1.172,0,0,0,1.172,1.172h4.688a1.172,1.172,0,0,0,1.172-1.172ZM38.4,20.819H36.056V18.475H38.4ZM50.12,17.3a1.172,1.172,0,0,0-1.172-1.172H44.26A1.172,1.172,0,0,0,43.088,17.3v4.688a1.172,1.172,0,0,0,1.172,1.172h4.688a1.172,1.172,0,0,0,1.172-1.172Zm-2.344,3.516H45.432V18.475h2.344ZM31.368,17.3A1.172,1.172,0,0,0,30.2,16.131H25.507A1.172,1.172,0,0,0,24.335,17.3v4.688a1.172,1.172,0,0,0,1.172,1.172H30.2a1.172,1.172,0,0,0,1.172-1.172Zm-2.344,3.516H26.679V18.475h2.344Zm11.72,5.86v1.172H33.712V26.679a1.172,1.172,0,0,1,1.172-1.172h4.688A1.172,1.172,0,0,1,40.744,26.679Zm9.376,0v1.172H43.088V26.679a1.172,1.172,0,0,1,1.172-1.172h4.688A1.172,1.172,0,0,1,50.12,26.679Zm-18.753,0v1.172H24.335V26.679a1.172,1.172,0,0,1,1.172-1.172H30.2A1.172,1.172,0,0,1,31.368,26.679ZM17.3,17.3a1.172,1.172,0,0,0-1.172-1.172H11.443A1.172,1.172,0,0,0,10.271,17.3v4.688a1.172,1.172,0,0,0,1.172,1.172h4.688A1.172,1.172,0,0,0,17.3,21.991Zm-2.344,3.516H12.615V18.475h2.344Zm2.344,5.86v1.172H10.271V26.679a1.172,1.172,0,0,1,1.172-1.172h4.688A1.172,1.172,0,0,1,17.3,26.679ZM64.185,17.3a1.172,1.172,0,0,0-1.172-1.172H58.324A1.172,1.172,0,0,0,57.152,17.3v4.688a1.172,1.172,0,0,0,1.172,1.172h4.688a1.172,1.172,0,0,0,1.172-1.172Zm-2.344,3.516H59.5V18.475h2.344Zm2.344,5.86v1.172H57.152V26.679a1.172,1.172,0,0,1,1.172-1.172h4.688A1.172,1.172,0,0,1,64.185,26.679Zm-51.548,21.1h2.344a1.172,1.172,0,1,0,2.344,0h2.344a3.516,3.516,0,1,1-7.032,0Zm8.2-2.344H18.5V43.088h2.344Zm33.968,3.516h2.344a1.172,1.172,0,0,0,2.344,0h2.344a3.516,3.516,0,1,1-7.032,0ZM3.239,72.389H71.217a1.172,1.172,0,0,0,1.172-1.172V64.185H70.045v5.86H67.7v-8.2H65.357v2.344H61.841v2.344h3.516v3.516H59.5v-7.88L62.5,57.152h4.024a3.52,3.52,0,0,1,3.516,3.516v1.172h2.344V60.668a5.867,5.867,0,0,0-5.86-5.86h-1.99a9.354,9.354,0,0,0,3.184-7.032V44.515a3.511,3.511,0,0,0-.007-5.2c0-.059-.015-3.255-.015-3.255a5.867,5.867,0,0,0-5.86-5.86H54.808a5.867,5.867,0,0,0-5.86,5.86V39.3a3.509,3.509,0,0,0,.022,5.255v3.223a9.355,9.355,0,0,0,3.185,7.033s-2.742.035-3.087.1a5.831,5.831,0,0,0-3.637-1.27H43.42A9.354,9.354,0,0,0,46.6,46.6V36.056a5.867,5.867,0,0,0-5.86-5.86H29.61a4.1,4.1,0,0,0-1.742,7.815c-.011.129-.016,8.594-.016,8.594a9.355,9.355,0,0,0,3.185,7.033H29.024a5.825,5.825,0,0,0-2.344.491V41.33a11.134,11.134,0,0,0-19.624-7.2l1.787,1.518A8.791,8.791,0,0,1,24.335,41.33l-.229.768-3.544-4.43a1.172,1.172,0,0,0-1.83,0,17.212,17.212,0,0,1-11.365,6.36l-.612.077V41.33a8.806,8.806,0,0,1,1.034-4.141l-2.067-1.1A11.156,11.156,0,0,0,4.411,41.33V54.811A5.882,5.882,0,0,0,2.067,59.5v11.72A1.172,1.172,0,0,0,3.239,72.389ZM58.324,59.563l-1.446-2.41h2.892ZM51.292,36.056a3.52,3.52,0,0,1,3.516-3.516h7.032a3.52,3.52,0,0,1,3.516,3.516V38.4H51.292Zm-1.172,5.86a1.173,1.173,0,0,1,1.172-1.172H65.357a1.172,1.172,0,0,1,0,2.344h-.75a11.79,11.79,0,0,1-2.856-.351,14.174,14.174,0,0,0-6.852,0,11.792,11.792,0,0,1-2.857.352h-.75a1.173,1.173,0,0,1-1.172-1.172Zm1.194,5.86V45.432h.728a14.106,14.106,0,0,0,1.594-.092V46.6H55.98V44.9a11.834,11.834,0,0,1,4.688,0V46.6h2.344V45.34a14.108,14.108,0,0,0,1.594.092h.772v2.344a7.032,7.032,0,1,1-14.064,0Zm2.83,9.376,3.008,5.013v7.88h-5.86V66.529h3.516V64.185H51.292V59.5a5.825,5.825,0,0,0-.491-2.344ZM14.959,70.045H10.271V68.873a1.172,1.172,0,0,0-.469-.938,3.91,3.91,0,0,1-.419-5.893l.544-.544L9.78,61.35l.491.164v1.5a1.172,1.172,0,0,0,.648,1.048l4.04,2.02ZM11.814,59.557,9.84,58.9l1.343-1.79,2.55,5.739-1.118-.559v-1.62a1.172,1.172,0,0,0-.8-1.112Zm1.433-3.576h5.769l-2.885,6.49Zm7.833,1.128,1.343,1.79-1.973.658a1.172,1.172,0,0,0-.8,1.112v1.62l-1.118.559Zm2.084,10.145a3.935,3.935,0,0,1-.7.681,1.172,1.172,0,0,0-.469.938v1.172H17.3V66.081l4.04-2.02a1.172,1.172,0,0,0,.648-1.048v-1.5l.491-.164-.148.148.545.545a3.982,3.982,0,0,1,.284.317Zm14.064,2.305-1.117-1.117,1.11-9.989a1.161,1.161,0,0,0,.007-.127,1.161,1.161,0,0,0,.007.127l1.11,9.989Zm.2-11.885a1.172,1.172,0,0,0-.2.648,1.172,1.172,0,0,0-.2-.648L35.9,55.98h2.652Zm8.007-1.694A3.52,3.52,0,0,1,48.948,59.5V70.045H46.6V60.668H44.26v9.376h-4.2L40.4,69.7a1.172,1.172,0,0,0,.336-.958L39.612,58.62l1.759-2.64ZM27.851,34.3A1.76,1.76,0,0,1,29.61,32.54H40.744a3.52,3.52,0,0,1,3.516,3.516v2.8l-1.339-2.232a1.172,1.172,0,0,0-1.005-.569H29.61A1.76,1.76,0,0,1,27.851,34.3ZM30.2,46.6V38.4H41.252l3.008,5.013V46.6a7.032,7.032,0,1,1-14.064,0ZM25.507,59.5a3.52,3.52,0,0,1,3.516-3.516h4.061l1.759,2.639L33.719,68.743a1.172,1.172,0,0,0,.336.958l.343.344H30.2V60.668H27.851v9.376H25.507ZM24.338,55.98a5.875,5.875,0,0,0-.534.855l-.642-.855Zm0-4.805v2.461h-1.99A9.439,9.439,0,0,0,24.335,51.175ZM9.121,46.114a19.677,19.677,0,0,0,2.518-.682h2.171v-.894a19.533,19.533,0,0,0,5.8-4.3L23.185,44.7v1.9a7.032,7.032,0,1,1-14.064,0Zm-2.344.349v.14a9.355,9.355,0,0,0,3.185,7.033H7.927a5.877,5.877,0,0,0-1.172.119ZM4.411,59.5A3.514,3.514,0,0,1,7.927,55.98H9.1l-2.11,2.813a1.17,1.17,0,0,0,.536,1.8,6.256,6.256,0,0,0-.881,1.245H4.411Zm0,4.688H5.926a6.241,6.241,0,0,0,2,5.237v.623H4.411ZM33.712,46.6h2.344a1.172,1.172,0,0,0,2.344,0h2.344a3.516,3.516,0,0,1-7.032,0Zm1.172-2.344H32.54V41.916h2.344Zm7.032,0H39.572V41.916h2.344Z" transform="translate(0 0)"/>
      </g>
    </g>
    <g id="Grupo_847320" data-name="Grupo 847320" transform="translate(183 -527.742)">
      <rect id="Rectángulo_38178-3" data-name="Rectángulo 38178" width="81" height="81" transform="translate(240 1286.742)" fill="none"/>
      <g id="educacion" transform="translate(245.155 1290.954)">
        <path id="Trazado_595155" data-name="Trazado 595155" d="M64.756,60.714V50.929a3.126,3.126,0,0,0-1.044-6.074H58.3a3.1,3.1,0,0,0,.192-1.044A3.128,3.128,0,0,0,56.4,40.869V38.588h3.322L57.9,27.63a3.632,3.632,0,0,0-1.5-6.105V16.979l-2.72-1.036,8.665-3.466L33.422.907,4.5,12.477l12.212,4.885V30.232H12.533A8.346,8.346,0,0,0,7.665,45.365a10.966,10.966,0,0,0,3.3,21.423H63.711a3.126,3.126,0,0,0,1.044-6.074Zm-2.089-7.5h-18.8V55.3h18.8v5.222H10.782a4.7,4.7,0,1,1,0-9.4H62.667ZM54.311,40.677H12.533a2.089,2.089,0,1,1,0-4.178H25.041a31.454,31.454,0,0,0,8.381,1.044A31.453,31.453,0,0,0,41.8,36.5h9.534l-.348,2.089h3.322Zm-4.753-8.356h2.476l-.348,2.089H46.855a12.687,12.687,0,0,0,2.7-2.089Zm7.7,4.178h-3.8l1.315-7.892a2.924,2.924,0,0,0,1.17,0ZM56.922,25.01a1.567,1.567,0,1,1-1.567-1.567,1.567,1.567,0,0,1,1.567,1.567Zm-2.611-6.59v3.106a3.632,3.632,0,0,0-1.5,6.1l-.434,2.6H50.134V17.362l.684-.274ZM33.422,3.157l23.3,9.319L50.8,14.845,33.794,8.367l-.744,1.952,14.886,5.671L33.422,21.8l-23.3-9.319Zm0,20.889L48.045,18.2V30.881c-.936.97-5.06,4.574-14.622,4.574s-13.7-3.612-14.622-4.572V18.2ZM6.267,38.588a6.274,6.274,0,0,1,6.267-6.267h4.753a12.688,12.688,0,0,0,2.7,2.089H12.533a4.178,4.178,0,1,0,0,8.356H55.356a1.044,1.044,0,1,1,0,2.089H12.533a6.274,6.274,0,0,1-6.267-6.267ZM63.711,64.7H10.967a8.878,8.878,0,0,1,0-17.756H63.711a1.044,1.044,0,1,1,0,2.089H10.782a6.789,6.789,0,0,0,0,13.578h52.93a1.044,1.044,0,1,1,0,2.089Z" transform="translate(0)"/>
        <rect id="Rectángulo_293418" data-name="Rectángulo 293418" width="29.245" height="2.089" transform="translate(10.445 56.343)"/>
      </g>
    </g>
    <g id="Grupo_847321" data-name="Grupo 847321" transform="translate(235 -363.742)">
      <rect id="Rectángulo_38178-4" data-name="Rectángulo 38178" width="81" height="81" transform="translate(240 1286.742)" fill="none"/>
      <g id="familia_1_" data-name="familia(1)" transform="translate(244.674 1291.862)">
        <g id="Grupo_874339" data-name="Grupo 874339" transform="translate(15.076 24.587)">
          <g id="Grupo_874338" data-name="Grupo 874338">
            <path id="Trazado_595147" data-name="Trazado 595147" d="M19.565,22.176a1.015,1.015,0,0,0-1.428.149,1.887,1.887,0,0,1-3.062,0A1.015,1.015,0,1,0,13.5,23.6a3.913,3.913,0,0,0,6.216,0A1.015,1.015,0,0,0,19.565,22.176Z" transform="translate(-13.272 -21.949)"/>
          </g>
        </g>
        <g id="Grupo_874341" data-name="Grupo 874341" transform="translate(12.757 18.788)">
          <g id="Grupo_874340" data-name="Grupo 874340">
            <path id="Trazado_595148" data-name="Trazado 595148" d="M12.245,16.845A1.015,1.015,0,0,0,11.23,17.86v1.16a1.015,1.015,0,1,0,2.03,0V17.86A1.015,1.015,0,0,0,12.245,16.845Z" transform="translate(-11.23 -16.845)"/>
          </g>
        </g>
        <g id="Grupo_874343" data-name="Grupo 874343" transform="translate(22.035 18.788)">
          <g id="Grupo_874342" data-name="Grupo 874342">
            <path id="Trazado_595149" data-name="Trazado 595149" d="M20.413,16.845A1.015,1.015,0,0,0,19.4,17.86v1.16a1.015,1.015,0,0,0,2.03,0V17.86A1.015,1.015,0,0,0,20.413,16.845Z" transform="translate(-19.398 -16.845)"/>
          </g>
        </g>
        <g id="Grupo_874345" data-name="Grupo 874345" transform="translate(48.708 30.385)">
          <g id="Grupo_874344" data-name="Grupo 874344">
            <path id="Trazado_595150" data-name="Trazado 595150" d="M49.172,27.281a1.015,1.015,0,0,0-1.428.149,1.887,1.887,0,0,1-3.062,0,1.015,1.015,0,1,0-1.577,1.279,3.913,3.913,0,0,0,6.215,0A1.015,1.015,0,0,0,49.172,27.281Z" transform="translate(-42.879 -27.054)"/>
          </g>
        </g>
        <g id="Grupo_874347" data-name="Grupo 874347" transform="translate(46.389 24.587)">
          <g id="Grupo_874346" data-name="Grupo 874346">
            <path id="Trazado_595151" data-name="Trazado 595151" d="M41.852,21.95a1.015,1.015,0,0,0-1.015,1.015v1.16a1.015,1.015,0,1,0,2.03,0v-1.16A1.015,1.015,0,0,0,41.852,21.95Z" transform="translate(-40.837 -21.95)"/>
          </g>
        </g>
        <g id="Grupo_874349" data-name="Grupo 874349" transform="translate(55.667 24.587)">
          <g id="Grupo_874348" data-name="Grupo 874348">
            <path id="Trazado_595152" data-name="Trazado 595152" d="M50.019,21.95A1.015,1.015,0,0,0,49,22.965v1.16a1.015,1.015,0,0,0,2.03,0v-1.16A1.015,1.015,0,0,0,50.019,21.95Z" transform="translate(-49.004 -21.95)"/>
          </g>
        </g>
        <g id="Grupo_874351" data-name="Grupo 874351" transform="translate(0 2.552)">
          <g id="Grupo_874350" data-name="Grupo 874350">
            <path id="Trazado_595153" data-name="Trazado 595153" d="M66.469,44.66l-7.952-3.181a1.33,1.33,0,0,1-.123-.06c5.492-1.25,8.094-3.34,8.209-3.434a1.015,1.015,0,0,0,.361-.929,131.5,131.5,0,0,1-1.15-16.092,13.772,13.772,0,1,0-27.544,0c0,2.081-.094,4.626-.248,7.035l-2.216,1.108-6.5-3.252c-.019-.009-.038-.016-.057-.024a11.37,11.37,0,0,0,.586-2.839,3.332,3.332,0,0,0,1.192-5.711V10.525a5.649,5.649,0,0,0-2.488-4.66,4.462,4.462,0,0,0-4.325-3.313H14.931A9.144,9.144,0,0,0,5.8,11.685v5.594A3.332,3.332,0,0,0,6.991,22.99,11.448,11.448,0,0,0,11.6,31.319v2.806L3.2,36.643a4.467,4.467,0,0,0-3.2,4.3V52.275A1.015,1.015,0,0,0,1.015,53.29H1.16V65.032a1.015,1.015,0,1,0,2.03,0V53.29H6.958V65.032a1.015,1.015,0,1,0,2.03,0V47.53a4.48,4.48,0,0,0-.755-2.493L6.5,42.435A1.015,1.015,0,1,0,4.81,43.561l1.735,2.6a2.456,2.456,0,0,1,.414,1.367v3.73H2.03V40.947a2.449,2.449,0,0,1,1.756-2.36l3.485-1.045a11.454,11.454,0,0,0,16.568,7.423,3.331,3.331,0,0,0,2.69,1.368h.145v.145a9.137,9.137,0,0,0,4.639,7.946v1.656a.145.145,0,0,1-.1.137l-3.786,1.262a4.489,4.489,0,0,0-3.073,4.264v3.291a1.015,1.015,0,0,0,2.03,0V61.741A2.461,2.461,0,0,1,28.069,59.4l1.113-.371a7.973,7.973,0,0,0,13.248,0l1.113.371a2.461,2.461,0,0,1,1.685,2.338v3.291a1.015,1.015,0,1,0,2.03,0V61.741a4.488,4.488,0,0,0-3.073-4.263L40.4,56.216a.145.145,0,0,1-.1-.137V54.423a9.17,9.17,0,0,0,4.3-5.479A10.292,10.292,0,0,0,61.84,44.995l3.875,1.55a2.452,2.452,0,0,1,1.549,2.288V53.58H63.495v-1.3a1.015,1.015,0,0,0-2.03,0V65.032a1.015,1.015,0,0,0,2.03,0V55.61H66.1v9.422a1.015,1.015,0,0,0,2.03,0V55.61h.145a1.015,1.015,0,0,0,1.015-1.015V48.832A4.472,4.472,0,0,0,66.469,44.66ZM40.3,20.963a11.742,11.742,0,1,1,23.484,0,133.27,133.27,0,0,0,1.088,15.764A21.73,21.73,0,0,1,57.7,39.494V37.879a11.364,11.364,0,0,0,1.541-1.047A11.427,11.427,0,0,0,63.5,27.921c0-5.737-4.149-6.561-8.162-7.357-2.553-.507-5.193-1.031-7.3-2.713a1.015,1.015,0,0,0-1.649.793c0,.027-.044,2.7-3.87,3.654a1.015,1.015,0,0,0,.492,1.97c3.2-.8,4.508-2.6,5.041-3.947a21.26,21.26,0,0,0,6.886,2.234c4.289.851,6.527,1.477,6.527,5.366a9.4,9.4,0,0,1-3.5,7.332,9.421,9.421,0,0,1-11.4.329A11.469,11.469,0,0,0,43.78,31.3V26.762a1.015,1.015,0,0,0-1.469-.908l-2.192,1.1C40.24,24.836,40.3,22.826,40.3,20.963ZM41.75,28.4v3.674l-3.674-1.837Zm-11.887,0,3.674,1.837-3.674,1.837ZM24.354,39.518v.964A3.335,3.335,0,0,0,23.194,43,9.423,9.423,0,0,1,9.22,36.957l2.508-.752a6.811,6.811,0,0,0,12.725,1.819A11.414,11.414,0,0,0,24.354,39.518ZM13.627,34.878V32.527a11.437,11.437,0,0,0,9.567,0v2.353a4.783,4.783,0,0,1-9.567.013S13.627,34.883,13.627,34.878Zm4.784-3.333a9.433,9.433,0,0,1-9.422-9.422,1.015,1.015,0,0,0-1.015-1.015,1.3,1.3,0,0,1,0-2.609h2.319a1.015,1.015,0,0,0,.963-.694l.932-2.8c2.333-.053,9.564-.381,13.636-2.417a1.015,1.015,0,1,0-.908-1.816c-4.369,2.184-13.372,2.212-13.463,2.212a1.015,1.015,0,0,0-.963.694l-.928,2.785H7.973c-.048,0-.1,0-.145,0V11.685a7.111,7.111,0,0,1,7.1-7.1H24.21a2.446,2.446,0,0,1,2.422,2.077,1.015,1.015,0,0,0,.5.725,3.623,3.623,0,0,1,1.858,3.141v5.947c-.048,0-.1,0-.145,0h-1.16a1.015,1.015,0,1,0,0,2.03h1.16a1.3,1.3,0,0,1,0,2.609,1.015,1.015,0,0,0-1.015,1.015A9.433,9.433,0,0,1,18.411,31.545Zm6.814,3.335V31.319a11.545,11.545,0,0,0,2.609-2.7V31.3a11.468,11.468,0,0,0-2.616,3.863C25.221,35.068,25.224,34.974,25.224,34.88ZM40.405,58.357a5.938,5.938,0,0,1-9.2,0l.647-.216a2.172,2.172,0,0,0,1.487-2.063v-.809a9.086,9.086,0,0,0,4.928,0v.809a2.171,2.171,0,0,0,1.487,2.063ZM43.925,44.3a1.015,1.015,0,0,0-1.015,1.015v1.009c0,.009,0,.018,0,.026v.124a7.1,7.1,0,1,1-14.206,0v-1.16A1.015,1.015,0,0,0,27.689,44.3h-1.16a1.306,1.306,0,0,1-1.3-1.3,1.289,1.289,0,0,1,.655-1.12,1.009,1.009,0,0,0,.24-.2c2.509-.073,10.643-.545,15.989-3.6A1.015,1.015,0,0,0,41.1,36.318c-4.683,2.676-12.042,3.212-14.717,3.319v-.118a9.432,9.432,0,0,1,1.608-5.258,1.012,1.012,0,0,0,1.31.367l6.5-3.252,6.5,3.252a1.009,1.009,0,0,0,1.31-.367,9.432,9.432,0,0,1,1.608,5.258V41a1.015,1.015,0,0,0,.5.877A1.289,1.289,0,0,1,46.389,43a1.306,1.306,0,0,1-1.3,1.3Zm8.118,5.8a8.274,8.274,0,0,1-6.935-3.769,3.325,3.325,0,0,0,2.151-5.849v-.964a11.414,11.414,0,0,0-.065-1.217,11.445,11.445,0,0,0,8.473.48v1.486a3.319,3.319,0,0,0,2.1,3.1l2.189.876A8.258,8.258,0,0,1,52.043,50.1Z" transform="translate(0 -2.552)"/>
          </g>
        </g>
        <g id="Grupo_874353" data-name="Grupo 874353" transform="translate(32.472 47.781)">
          <g id="Grupo_874352" data-name="Grupo 874352">
            <path id="Trazado_595154" data-name="Trazado 595154" d="M34.879,42.595a1.015,1.015,0,0,0-1.428.149,1.887,1.887,0,0,1-3.062,0,1.015,1.015,0,1,0-1.577,1.279,3.913,3.913,0,0,0,6.216,0A1.015,1.015,0,0,0,34.879,42.595Z" transform="translate(-28.586 -42.368)"/>
          </g>
        </g>
        <g id="Grupo_874355" data-name="Grupo 874355" transform="translate(31.331 43.147)">
          <g id="Grupo_874354" data-name="Grupo 874354">
            <circle id="Elipse_7392" data-name="Elipse 7392" cx="1.015" cy="1.015" r="1.015"/>
          </g>
        </g>
        <g id="Grupo_874357" data-name="Grupo 874357" transform="translate(38.233 43.147)">
          <g id="Grupo_874356" data-name="Grupo 874356">
            <circle id="Elipse_7393" data-name="Elipse 7393" cx="1.015" cy="1.015" r="1.015"/>
          </g>
        </g>
      </g>
    </g>
    <g id="Grupo_847322" data-name="Grupo 847322" transform="translate(-37 -370.742)">
      <rect id="Rectángulo_38178-5" data-name="Rectángulo 38178" width="81" height="81" transform="translate(240 1286.742)" fill="none"/>
      <g id="Grupo_846545" data-name="Grupo 846545" transform="translate(248.751 1293.551)">
        <path id="Trazado_586093" data-name="Trazado 586093" d="M-829.619-303.891c-.149.711-.563,1.137-1.307.972-.662-.147-.844-.692-.836-1.331.015-1.24-.022-2.481.015-3.72.017-.578-.166-.782-.751-.757-.928.04-1.861.037-2.789,0a3.965,3.965,0,0,1-4-3.965c-.05-6.82-.06-13.64.007-20.46a5.551,5.551,0,0,1,4.507-5.372c3.142-.744,6.3-1.416,9.44-2.173.443-.107,1.254.088,1.252-.669,0-.79.413-1.7-.369-2.371a7.787,7.787,0,0,1-2.286-3.206c-.172-.461-.515-.511-.906-.632-2.8-.866-4.562-5.019-3.273-7.673.133-.274.3-.636.542-.735,1.578-.646.776-1.394.244-2.312-3.445-5.948.374-12.269,7.582-12.6a19.5,19.5,0,0,1,8.734,1.2,2.766,2.766,0,0,0,3.387-.564c.807-.812,1.486-.36,2.049.465a11.348,11.348,0,0,1,.128,12.294c-.34.516-.6.833.181,1.151a2.041,2.041,0,0,1,.955,1.073c1.359,2.749-.536,6.946-3.5,7.749-.291.079-.618.03-.765.4a11.435,11.435,0,0,1-2.287,3.379,1.974,1.974,0,0,0,1.094,3.078c2.934.661,5.872,1.308,8.8,1.977,3.4.775,5.053,2.753,5.145,6.255.02.759.238.959.974.95,3.011-.037,6.022-.019,9.034-.015,1.834,0,2.176.45,1.615,2.137-2.776,8.346-5.575,16.685-8.319,25.042a1.778,1.778,0,0,1-1.974,1.475c-6.421-.047-12.842-.025-19.263-.02-.775,0-1.555.048-1.725-.989a10.053,10.053,0,0,1,.723-2.678c.132-.417.223-.856-.27-1.008-1.219-.374-2.345-1.119-3.641-1.153-2.389-.064-4.781,0-7.171-.031-.733-.01-1.041.221-1.012.985C-829.6-306.46-829.625-305.175-829.619-303.891Zm18.679-46.047c1.2.066,1.378-.941,1.652-1.713a3.078,3.078,0,0,0,.063-2.685c-.244-.411-.786-.317-1.224-.245-.493.081-.426.475-.434.825q-.041,1.78-.087,3.56C-811.188-350.083-811.185-350-810.94-349.938Zm-5.163,8.8c.188-.835.1-1.248-.952-.9a6.383,6.383,0,0,1-3.923.042c-1-.31-1.055.1-.889.863-.024,1.792,1.1,2.81,3.048,2.772A2.443,2.443,0,0,0-816.1-341.138Zm-5.289,7.991a1.182,1.182,0,0,1-1.479-1.118c-.115-.651-.27-1.294-.391-1.944-.535-2.872-.538-2.876-3.328-2a1.274,1.274,0,0,0-.374.122,2.2,2.2,0,0,0-1,1.91c.1.693.965.307,1.477.275,1.461-.091,2.109.578,1.432,1.866a2.888,2.888,0,0,0,.585,3.659c.746.864,1.322,1.874,2,2.8.264.36.418.88,1.054.912a16.368,16.368,0,0,0-.638-3.658c-.188-.872-.079-1.467.721-1.882.875.009,1.21.528,1.359,1.323.264,1.41.59,2.808.89,4.211.8-2.775,1.366-5.5,1.926-8.219.31-1.5.3-1.482-1.273-1.391a10.936,10.936,0,0,1-1.845-.106c-.794-.09-1.04.078-.718.935C-820.7-334.671-820.252-333.732-821.392-333.147Zm1.223-24.87a1.609,1.609,0,0,1,1.736-.93,5.306,5.306,0,0,0,3.695-1.193,1.715,1.715,0,0,1,2.686.555c.34.587.6,1.219.9,1.836,2.75-1.831,2.648-7.345,1.615-9.368-.16-.313-.291-.664-.783-.438-1.712.787-3.338.294-5-.274a15.353,15.353,0,0,0-9.368-.391,5.424,5.424,0,0,0-3.625,2.472,6.405,6.405,0,0,0,.513,6.885c1.33,2.041,1.7,1.981,2.821-.209.347-.677.578-1.472,1.525-1.382a3.179,3.179,0,0,1,2.555,2.277c-.365.3-.726.9-1.2.675-1.11-.523-1.417.284-1.781.946-.39.708-1.282,1.081-1.242,2.089.063,1.588-.038,3.184.04,4.771a5.937,5.937,0,0,0,6.113,5.705,5.9,5.9,0,0,0,5.825-5.85c.048-1.766.031-3.535.006-5.3a6.573,6.573,0,0,0-.685-2.842,8.33,8.33,0,0,1-4.414,1.347C-819.228-356.638-819.962-356.94-820.169-358.016Zm12.427,29.066c-.388.921-.532,2.08-1.95,1.992-1.162-1.358-.168-2.593.276-3.817.375-1.035,1.373-.769,2.188-.775,1.859-.014,3.718,0,5.577-.006.45,0,.86.023.954-.626a4.287,4.287,0,0,0-1.687-3.685c-1.672-.916-3.547-1.027-5.561-1.482.331.792.539,1.323.772,1.843.589,1.311.135,2.055-1.286,2.046a5.731,5.731,0,0,1-1.172-.174c-.63-.138-.868.086-.592.674a1.994,1.994,0,0,1-.3,2.212c-2.445,3.354-4.851,6.738-7.292,10.1-.922,1.268-1.505,1.248-2.4,0q-3.466-4.852-6.935-9.7c-.574-.8-1.16-1.575-.58-2.642.3-.547-.01-.724-.529-.656-.392.052-.779.174-1.172.19-1.367.054-1.844-.645-1.358-1.936.217-.576.418-1.159.625-1.74l.094-.132-.132.094a14.3,14.3,0,0,0-4.014.774,3.385,3.385,0,0,0-2.887,3.575q-.02,9.894,0,19.789a1.932,1.932,0,0,0,1.97,2.17c4.116.045,8.234.012,12.35.026.621,0,.889-.234.862-.86-.026-.574-.018-1.151.006-1.726.029-.7.313-1.2,1.111-1.2s1.095.428,1.082,1.174c-.012.708-.008,1.416,0,2.123,0,.3-.112.717.24.831,1.451.469,2.766,1.38,4.4,1.268,3.288-.226,6.207-1.169,8.2-4.024.075-.107.193-.182.278-.284.243-.292.712-.51.527-.978s-.669-.34-1.052-.342c-1.9-.008-3.805.017-5.707-.012-1.285-.019-1.658-.557-1.3-1.79.2-.693.446-1.375.693-2.132-1.008.159-1.113.11-1.3.5-1.158,2.494-3.2,3.01-5.678,2.654a1.436,1.436,0,0,0-.393.054c-2.963-.018-5.927-.05-8.89-.044-1.037,0-1.76-.318-1.772-1.466-.023-2.168-.035-4.336.013-6.5.016-.73.31-1.526,1.171-1.516.939.011,1.158.79,1.152,1.625-.011,1.46.052,2.923-.021,4.379-.052,1.019.236,1.395,1.323,1.367q4.31-.112,8.625,0a2.225,2.225,0,0,0,2.263-1.191c.523-.9,1.076-1.961,2.3-1.948A2.388,2.388,0,0,0-812-323.2c.067-.386.286-.745.376-1.13a1.329,1.329,0,0,1,1.647-1.137c.818.462.663,1.146.427,1.853-.723,2.166-1.443,4.333-2.2,6.62,1.755,0,3.3.026,4.849-.008a2.674,2.674,0,0,1,2.8,1.6,2.689,2.689,0,0,1-.832,3.225c-1.141,1.113-2.279,2.23-3.382,3.38a2.9,2.9,0,0,1-1.738.859c-1.485.237-2.962.523-4.445.777-1.03.177-.982,1.122-1.044,1.759-.073.75.713.382,1.092.384,5.356.028,10.714,0,16.07.038a1.2,1.2,0,0,0,1.393-1c.63-2.072,1.352-4.116,2.029-6.175q2.755-8.377,5.5-16.756c-.007-.78-.615-.419-.924-.42q-8.116-.038-16.232-.009C-807.017-329.339-807.534-329.552-807.742-328.95Zm-2.21-6.957c.072-2.293-1.692-2.332-3.212-2.729-.735-.192-1.017-.025-1.164.733-.46,2.381-1.028,4.742-1.484,7.124a16.674,16.674,0,0,0-.681,4.4c.968-1.15,1.752-2.419,2.708-3.543,1.145-1.346,1.793-2.61.792-4.382-.543-.962.141-1.7,1.273-1.606A4.919,4.919,0,0,0-809.952-335.907Zm-17.353-14c0-1.428-.007-2.7,0-3.976,0-.394-.063-.717-.534-.735-.439-.017-.874-.036-1.1.494C-829.409-353.007-828.6-350.7-827.3-349.9Zm5.979,23.761.053.044.011-.07Z" transform="translate(839.325 370.939)" fill="#040404"/>
        <path id="Trazado_586094" data-name="Trazado 586094" d="M-694.267-353.559c-2.451-.154-2.471-.176-2.471-2.44q0-6.306,0-12.612c0-1.7.241-1.954,1.884-1.954q10.886,0,21.771,0c1.675,0,1.877.211,1.879,1.936q0,6.572,0,13.143c0,1.652-.2,1.852-1.811,1.855-3.407.006-6.815.023-10.222-.014a3.621,3.621,0,0,0-2.1.606c-3.047,1.963-6.115,3.894-9.174,5.836-.561.356-1.124.818-1.8.26s-.343-1.179-.068-1.8C-695.681-350.305-695-351.878-694.267-353.559Zm1.244,2.519.224.219c1.854-1.177,3.768-2.27,5.543-3.556a7.408,7.408,0,0,1,4.94-1.417c2.65.118,5.31-.005,7.963.05.826.017,1.045-.219,1.035-1.033q-.064-5.31,0-10.621c.01-.82-.221-1.04-1.04-1.036q-9.558.051-19.117-.005c-.986-.007-1.155.34-1.142,1.217.046,3.186.018,6.372.018,9.559,0,1.8,0,1.8,1.739,1.9,1.2.071,1.584.626,1.137,1.739C-692.125-353.017-692.586-352.034-693.023-351.04Z" transform="translate(734.652 370.666)" fill="#040404"/>
        <path id="Trazado_586109" data-name="Trazado 586109" d="M-733.125-292.927c.01.086.021.172.031.258C-733.339-292.727-733.342-292.814-733.125-292.927Z" transform="translate(761.479 313.67)" fill="#12100f"/>
        <path id="Trazado_586110" data-name="Trazado 586110" d="M-805.007-244.221l.132-.094-.094.133Z" transform="translate(814.132 277.984)" fill="#3f4c60"/>
        <path id="Trazado_586111" data-name="Trazado 586111" d="M-771.632-202.532l.064-.027-.011.071Z" transform="translate(789.631 247.331)" fill="#506479"/>
        <path id="Trazado_586113" data-name="Trazado 586113" d="M-672.759-331.973q1.651,0,3.3,0c.723,0,1.232.307,1.216,1.068s-.544,1.049-1.255,1.049c-2.245,0-4.491,0-6.736,0-.711,0-1.26-.284-1.282-1.025-.025-.829.548-1.111,1.321-1.1C-675.048-331.962-673.9-331.974-672.759-331.973Z" transform="translate(720.539 342.338)" fill="#1b1b1c"/>
        <path id="Trazado_586114" data-name="Trazado 586114" d="M-644.2-350.208c.57.273.968.673.78,1.354s-.743.8-1.362.8q-3.186-.006-6.372,0c-.558,0-1.077-.086-1.324-.671-.281-.664.076-1.091.585-1.447Z" transform="translate(702.235 355.72)" fill="#1b1b1c"/>
        <path id="Trazado_586115" data-name="Trazado 586115" d="M-675.231-347.985a11.112,11.112,0,0,1-1.321-.01,1,1,0,0,1-.975-1.058.956.956,0,0,1,1-1.011c.881-.028,1.764-.027,2.645-.012a.977.977,0,0,1,1.1,1.052c-.009.7-.472,1.01-1.124,1.047-.439.025-.881,0-1.323,0Z" transform="translate(720.548 355.631)" fill="#1b1b1c"/>
        <path id="Trazado_586116" data-name="Trazado 586116" d="M-632.585-329.879a10.532,10.532,0,0,1-1.325-.011,1,1,0,0,1-.963-1.07.98.98,0,0,1,1.013-1.014c.751-.035,1.5-.019,2.255-.016.719,0,1.232.305,1.212,1.082s-.558,1.042-1.265,1.046c-.31,0-.619,0-.929,0Z" transform="translate(689.235 342.351)" fill="#222323"/>
      </g>
    </g>
  </g>
</svg>
