<svg xmlns="http://www.w3.org/2000/svg" xmlns:xlink="http://www.w3.org/1999/xlink" width="1240" height="451" viewBox="0 0 1240 451">
  <defs>
    <linearGradient id="linear-gradient" x1="0.5" x2="0.5" y2="1" gradientUnits="objectBoundingBox">
      <stop offset="0" stop-color="#ebe3f9"/>
      <stop offset="1" stop-color="#fff"/>
    </linearGradient>
    <linearGradient id="linear-gradient-2" x1="-0.053" y1="0.619" x2="0.947" y2="0.55" gradientUnits="objectBoundingBox">
      <stop offset="0" stop-color="#ffeeb0"/>
      <stop offset="0.539" stop-color="#ea3584"/>
      <stop offset="1" stop-color="#6826cc"/>
    </linearGradient>
    <clipPath id="clip-path">
      <rect id="Rectángulo_293469" data-name="Rectángulo 293469" width="64" height="63" transform="translate(394 9105)" fill="#fffae7"/>
    </clipPath>
    <clipPath id="clip-path-2">
      <rect id="Rectángulo_293471" data-name="Rectángulo 293471" width="64" height="63" transform="translate(584 9111)" fill="#fffae7"/>
    </clipPath>
    <clipPath id="clip-path-3">
      <rect id="Rectángulo_293473" data-name="Rectángulo 293473" width="64" height="63" transform="translate(779 9108)" fill="#fffae7"/>
    </clipPath>
    <clipPath id="clip-path-4">
      <rect id="Rectángulo_293476" data-name="Rectángulo 293476" width="64" height="63" transform="translate(976 9105)" fill="#fffae7"/>
    </clipPath>
    <clipPath id="clip-path-5">
      <rect id="Rectángulo_293477" data-name="Rectángulo 293477" width="58" height="57" transform="translate(1169 9112.047)" fill="#fffae7"/>
    </clipPath>
    <clipPath id="clip-path-6">
      <rect id="Rectángulo_293470" data-name="Rectángulo 293470" width="64" height="63" transform="translate(487 9224)" fill="#fffae7"/>
    </clipPath>
    <clipPath id="clip-path-7">
      <rect id="Rectángulo_293472" data-name="Rectángulo 293472" width="64" height="63" transform="translate(685 9221)" fill="#fffae7"/>
    </clipPath>
    <clipPath id="clip-path-8">
      <rect id="Rectángulo_293474" data-name="Rectángulo 293474" width="64" height="63" transform="translate(879 9218)" fill="#fffae7"/>
    </clipPath>
    <clipPath id="clip-path-9">
      <rect id="Rectángulo_293475" data-name="Rectángulo 293475" width="64" height="63" transform="translate(1068 9223)" fill="#fffae7"/>
    </clipPath>
  </defs>
  <g id="Grupo_874681" data-name="Grupo 874681" transform="translate(-180 -8971)">
    <path id="Trazado_595555" data-name="Trazado 595555" d="M51,0H1189a51,51,0,0,1,51,51V400a51,51,0,0,1-51,51H51A51,51,0,0,1,0,400V51A51,51,0,0,1,51,0Z" transform="translate(180 8971)" fill="url(#linear-gradient)"/>
    <path id="Trazado_595563" data-name="Trazado 595563" d="M226.922,11944.707a76.1,76.1,0,0,1-73.233-95.5,76.008,76.008,0,0,1-41.977-1.112,75.9,75.9,0,0,1-20.693,68.687l0,0c-.018.018-.039.033-.054.051-.075.075-.144.153-.219.229l-.012-.013a76.1,76.1,0,0,1-107.338-.869,75.448,75.448,0,0,1-20.732-66.261,76.384,76.384,0,0,1-46.547.764,76.036,76.036,0,0,1-20.1,69.53l.021.019a76.1,76.1,0,0,1-107.623-.2,76.007,76.007,0,0,1-21.128-66.4c-15.349,5.593-32.078,6.483-47.16,2.093a76.011,76.011,0,0,1-20.618,66.75l.048.048a75.859,75.859,0,0,1-53.707,22.187,75.876,75.876,0,0,1-53.917-22.388,75.842,75.842,0,0,1-19.611-72.931,76.439,76.439,0,0,1-44.476-1.742,76.053,76.053,0,0,1-24.433,70.714,76.107,76.107,0,0,1-107.284-6.412l-.021.021a75.8,75.8,0,0,1-19.11-50.225v-.349a75.924,75.924,0,0,1,25.675-56.853,76.076,76.076,0,0,1,75.309-14.937,76.021,76.021,0,0,1,21.071-67.373l-.042-.042a75.852,75.852,0,0,1,53.35-22.187h.717a75.835,75.835,0,0,1,53.557,22.391,76.044,76.044,0,0,1,19.677,73.1,76.008,76.008,0,0,1,41.977,1.113,75.908,75.908,0,0,1,20.693-68.687l0,0c.018-.018.039-.033.054-.051.075-.075.144-.153.219-.228l.012.012a76.1,76.1,0,0,1,107.338.87,75.446,75.446,0,0,1,20.732,66.26,76.384,76.384,0,0,1,46.546-.764,76.031,76.031,0,0,1,20.1-69.527l-.021-.021a76.1,76.1,0,0,1,107.623.2,76.011,76.011,0,0,1,21.128,66.405c15.349-5.594,32.078-6.484,47.16-2.091a76.007,76.007,0,0,1,20.618-66.749l-.048-.051a76.023,76.023,0,0,1,127.234,73.134,76.44,76.44,0,0,1,44.476,1.739,76.106,76.106,0,0,1,131.717-64.3l.021-.019a75.8,75.8,0,0,1,19.11,50.222v.352a76.117,76.117,0,0,1-100.983,71.787,76.021,76.021,0,0,1-21.071,67.374l.042.042a75.873,75.873,0,0,1-53.353,22.189Zm-39-114.943a55.291,55.291,0,0,0,78.269,78.115l-.039-.036a55.364,55.364,0,0,0,3.7-74.265c-.273-.312-.543-.624-.813-.941-.9-.934-1.889-1.809-2.81-2.732a55.607,55.607,0,0,0-78.3-.141Zm-579.272-2.076c-.552.6-1.113,1.185-1.685,1.767l.012.013a55.313,55.313,0,0,0-.3,78.16,55.349,55.349,0,0,0,77.591.723l-.021-.023a55.376,55.376,0,0,0,1.883-76.4l-.213-.231c-.42-.456-.846-.905-1.284-1.35a55.285,55.285,0,0,0-39.374-16.468h0A55.259,55.259,0,0,0-391.346,11827.688Zm194.886-.749a77.083,77.083,0,0,1-6.472,7.642,55.375,55.375,0,0,0,6.091,70.765,55.355,55.355,0,0,0,77.63.7l-.012-.01a55.361,55.361,0,0,0,3.279-74.771c-.2-.2-.4-.4-.592-.606q-1.44-1.494-2.784-3.046a55.233,55.233,0,0,0-38.861-16.025A55.339,55.339,0,0,0-196.46,11826.938Zm195.279-3.242a76.706,76.706,0,0,1-6.025,7.123c-15.3,21.451-13.736,51.382,5.4,70.734a55.354,55.354,0,0,0,78.113.513,55.354,55.354,0,0,0,3.743-73.646l-.057-.058q-1.822-1.888-3.485-3.868l-.075-.075a55.361,55.361,0,0,0-77.612-.723Zm-509.193,79.075a55.353,55.353,0,0,0,5.077-77.689l-.012.012c-.2-.237-.4-.471-.591-.708a55.2,55.2,0,0,0-77.633-4.259,55.35,55.35,0,0,0-4.915,77.892l.024-.019A55.356,55.356,0,0,0-510.375,11902.771Zm796.275-82.452a55.309,55.309,0,0,0,82.545-73.632l-.021.018a55.289,55.289,0,0,0-83.127,72.918l.012-.009C285.511,11819.849,285.706,11820.085,285.9,11820.319Zm-582.2-77.681a55.354,55.354,0,0,0-3.743,73.646c.018.021.039.039.057.061q1.822,1.885,3.485,3.865a.775.775,0,0,0,.075.075,55.361,55.361,0,0,0,77.612.723,76.235,76.235,0,0,1,6.025-7.122c15.3-21.449,13.736-51.383-5.4-70.732a55.134,55.134,0,0,0-39.318-16.388A55.107,55.107,0,0,0-296.3,11742.639Zm234.485,90.48a55.342,55.342,0,0,0,38.28-15.352,76.862,76.862,0,0,1,6.472-7.642,55.377,55.377,0,0,0-6.091-70.766,55.357,55.357,0,0,0-77.63-.7l.012.012a55.358,55.358,0,0,0-3.277,74.772q.294.3.586.6h0q1.451,1.5,2.8,3.065A55.239,55.239,0,0,0-61.819,11833.119Zm-424.375-96.293.039.039a55.361,55.361,0,0,0-3.7,74.262c.273.313.543.627.813.942.9.936,1.889,1.812,2.81,2.731a55.608,55.608,0,0,0,78.3.142,55.36,55.36,0,0,0-.18-77.864,55.116,55.116,0,0,0-39.17-16.242A55.129,55.129,0,0,0-486.194,11736.826Zm581.926-.468.021.021a55.375,55.375,0,0,0-1.883,76.4c.069.078.141.156.213.234.42.453.846.9,1.284,1.347a55.269,55.269,0,0,0,39.374,16.468h0a55.265,55.265,0,0,0,36.6-13.811q.828-.9,1.685-1.767l-.012-.012a55.218,55.218,0,0,0-77.288-78.881Z" transform="translate(873 -2626.001)" stroke="rgba(0,0,0,0)" stroke-width="1" fill="url(#linear-gradient-2)"/>
    <path id="Trazado_595559" data-name="Trazado 595559" d="M10.567,13.974a4.277,4.277,0,0,1-1.44,3.071A5.058,5.058,0,0,1,5.7,18.166,4.548,4.548,0,0,1,2.046,16.6a6.416,6.416,0,0,1-1.332-4.3v-.739A7.245,7.245,0,0,1,1.328,8.5,4.6,4.6,0,0,1,3.084,6.458a4.918,4.918,0,0,1,2.652-.71,4.927,4.927,0,0,1,3.37,1.121,4.6,4.6,0,0,1,1.478,3.146H8.093a2.524,2.524,0,0,0-.652-1.7A2.413,2.413,0,0,0,5.736,7.79a2.116,2.116,0,0,0-1.864.892,5,5,0,0,0-.635,2.768v.913a5.352,5.352,0,0,0,.594,2.864,2.077,2.077,0,0,0,1.872.9,2.458,2.458,0,0,0,1.722-.527,2.381,2.381,0,0,0,.652-1.631ZM17.249,18a2.664,2.664,0,0,1-.241-.805,2.9,2.9,0,0,1-2.266.971,3.189,3.189,0,0,1-2.187-.764,2.456,2.456,0,0,1-.867-1.926,2.538,2.538,0,0,1,1.058-2.191,5.222,5.222,0,0,1,3.059-.772h1.1V12a1.48,1.48,0,0,0-.32-1,1.257,1.257,0,0,0-1.009-.374,1.429,1.429,0,0,0-.95.291.987.987,0,0,0-.344.8h-2.4a2.41,2.41,0,0,1,.481-1.444A3.182,3.182,0,0,1,13.729,9.23a4.961,4.961,0,0,1,1.976-.378,3.92,3.92,0,0,1,2.635.834,2.918,2.918,0,0,1,.975,2.345v3.893a4.294,4.294,0,0,0,.357,1.934V18Zm-1.984-1.668a2.066,2.066,0,0,0,.979-.237,1.554,1.554,0,0,0,.664-.635V13.916h-.9q-1.8,0-1.917,1.245l-.008.141a.96.96,0,0,0,.315.739A1.225,1.225,0,0,0,15.265,16.332Zm13.979-2.739a5.387,5.387,0,0,1-.942,3.324,3.021,3.021,0,0,1-2.544,1.249,2.8,2.8,0,0,1-2.2-.946v4.233h-2.4V9.019h2.225l.083.88a2.819,2.819,0,0,1,2.274-1.046,3.041,3.041,0,0,1,2.582,1.229,5.532,5.532,0,0,1,.921,3.387Zm-2.4-.174a3.535,3.535,0,0,0-.444-1.934A1.446,1.446,0,0,0,25.11,10.8a1.571,1.571,0,0,0-1.552.863v3.677a1.6,1.6,0,0,0,1.569.888Q26.845,16.232,26.845,13.418ZM35.934,18a2.664,2.664,0,0,1-.241-.805,2.9,2.9,0,0,1-2.266.971A3.189,3.189,0,0,1,31.24,17.4a2.456,2.456,0,0,1-.867-1.926,2.538,2.538,0,0,1,1.058-2.191,5.222,5.222,0,0,1,3.059-.772h1.1V12a1.48,1.48,0,0,0-.32-1,1.257,1.257,0,0,0-1.009-.374,1.429,1.429,0,0,0-.95.291.987.987,0,0,0-.344.8h-2.4a2.41,2.41,0,0,1,.481-1.444A3.182,3.182,0,0,1,32.415,9.23a4.961,4.961,0,0,1,1.976-.378,3.92,3.92,0,0,1,2.635.834A2.918,2.918,0,0,1,38,12.032v3.893a4.294,4.294,0,0,0,.357,1.934V18ZM33.95,16.332a2.066,2.066,0,0,0,.979-.237,1.554,1.554,0,0,0,.664-.635V13.916h-.9q-1.8,0-1.917,1.245l-.008.141a.96.96,0,0,0,.315.739A1.225,1.225,0,0,0,33.95,16.332Zm8.649-.266h4.391V18H39.537V16.539l4.225-5.586h-4.1V9.019h7.2v1.413Zm9.753-2.623A5.413,5.413,0,0,1,53.3,10.1a3.057,3.057,0,0,1,2.577-1.245,2.751,2.751,0,0,1,2.167.979V5.25h2.407V18H58.28l-.116-.955a2.823,2.823,0,0,1-2.308,1.121,3.049,3.049,0,0,1-2.544-1.249A5.587,5.587,0,0,1,52.353,13.443Zm2.4.179a3.546,3.546,0,0,0,.44,1.937,1.433,1.433,0,0,0,1.278.673,1.605,1.605,0,0,0,1.569-.939v-3.55a1.582,1.582,0,0,0-1.552-.939Q54.752,10.8,54.752,13.621Zm11.688,4.545a4.409,4.409,0,0,1-3.217-1.212,4.308,4.308,0,0,1-1.241-3.229v-.232a5.426,5.426,0,0,1,.523-2.42,3.838,3.838,0,0,1,1.482-1.644,4.159,4.159,0,0,1,2.187-.577,3.727,3.727,0,0,1,2.9,1.162,4.722,4.722,0,0,1,1.058,3.3v.979H64.414a2.229,2.229,0,0,0,.7,1.411,2.12,2.12,0,0,0,1.482.531,2.589,2.589,0,0,0,2.167-1l1.179,1.32a3.6,3.6,0,0,1-1.461,1.191A4.793,4.793,0,0,1,66.439,18.166Zm-.274-7.379a1.5,1.5,0,0,0-1.158.484,2.5,2.5,0,0,0-.569,1.384h3.337v-.192a1.786,1.786,0,0,0-.432-1.238A1.547,1.547,0,0,0,66.166,10.787ZM5.968,31.268A6.517,6.517,0,0,0,5.1,31.2a1.757,1.757,0,0,0-1.785.921V38H.921V29.019H3.188l.066,1.071a2.223,2.223,0,0,1,2-1.237A2.514,2.514,0,0,1,6,28.96Zm5.288,6.9a4.409,4.409,0,0,1-3.217-1.212A4.308,4.308,0,0,1,6.8,33.725v-.232a5.426,5.426,0,0,1,.523-2.42A3.838,3.838,0,0,1,8.8,29.429a4.159,4.159,0,0,1,2.187-.577,3.727,3.727,0,0,1,2.9,1.162,4.722,4.722,0,0,1,1.058,3.3v.979H9.23a2.229,2.229,0,0,0,.7,1.411,2.12,2.12,0,0,0,1.482.531,2.589,2.589,0,0,0,2.167-1l1.179,1.32A3.6,3.6,0,0,1,13.3,37.739,4.793,4.793,0,0,1,11.256,38.166Zm-.274-7.379a1.5,1.5,0,0,0-1.158.484,2.5,2.5,0,0,0-.569,1.384h3.337v-.192a1.786,1.786,0,0,0-.432-1.238A1.547,1.547,0,0,0,10.982,30.787ZM18.843,38H16.436V25.25h2.407Zm7.18,0a2.664,2.664,0,0,1-.241-.805,2.9,2.9,0,0,1-2.266.971,3.189,3.189,0,0,1-2.187-.764,2.456,2.456,0,0,1-.867-1.926,2.538,2.538,0,0,1,1.058-2.191,5.222,5.222,0,0,1,3.059-.772h1.1V32a1.48,1.48,0,0,0-.32-1,1.257,1.257,0,0,0-1.009-.374,1.429,1.429,0,0,0-.95.291.987.987,0,0,0-.344.8h-2.4a2.41,2.41,0,0,1,.481-1.444A3.182,3.182,0,0,1,22.5,29.23a4.961,4.961,0,0,1,1.976-.378,3.92,3.92,0,0,1,2.635.834,2.918,2.918,0,0,1,.975,2.345v3.893a4.294,4.294,0,0,0,.357,1.934V38Zm-1.984-1.668a2.066,2.066,0,0,0,.979-.237,1.554,1.554,0,0,0,.664-.635V33.916h-.9q-1.8,0-1.917,1.245l-.008.141a.96.96,0,0,0,.315.739A1.225,1.225,0,0,0,24.039,36.332Zm9.629-.1a1.573,1.573,0,0,0,1.079-.365,1.28,1.28,0,0,0,.432-.971h2.25a3.077,3.077,0,0,1-.5,1.673,3.286,3.286,0,0,1-1.341,1.179,4.2,4.2,0,0,1-1.88.419,3.9,3.9,0,0,1-3.038-1.224,4.845,4.845,0,0,1-1.112-3.383V33.4a4.79,4.79,0,0,1,1.1-3.312,3.854,3.854,0,0,1,3.03-1.237,3.778,3.778,0,0,1,2.7.959,3.4,3.4,0,0,1,1.033,2.552h-2.25a1.648,1.648,0,0,0-.432-1.139,1.6,1.6,0,0,0-2.362.173,3.541,3.541,0,0,0-.427,1.983v.249a3.586,3.586,0,0,0,.423,2A1.463,1.463,0,0,0,33.668,36.232ZM41.33,38H38.922V29.019H41.33ZM38.781,26.694a1.181,1.181,0,0,1,.361-.888,1.556,1.556,0,0,1,1.963,0,1.268,1.268,0,0,1,0,1.785,1.539,1.539,0,0,1-1.951,0A1.178,1.178,0,0,1,38.781,26.694Zm4.15,6.732a5.327,5.327,0,0,1,.515-2.382,3.767,3.767,0,0,1,1.482-1.619,4.323,4.323,0,0,1,2.245-.573,4.09,4.09,0,0,1,2.968,1.112,4.464,4.464,0,0,1,1.282,3.021l.017.614a4.694,4.694,0,0,1-1.154,3.316,4.472,4.472,0,0,1-6.2,0,4.777,4.777,0,0,1-1.158-3.387Zm2.4.17a3.357,3.357,0,0,0,.481,1.958,1.73,1.73,0,0,0,2.739.008,3.674,3.674,0,0,0,.49-2.141,3.324,3.324,0,0,0-.49-1.945,1.592,1.592,0,0,0-1.378-.69,1.566,1.566,0,0,0-1.361.686A3.735,3.735,0,0,0,45.331,33.6Zm9.795-4.578.075,1.038a3.136,3.136,0,0,1,2.582-1.2,2.606,2.606,0,0,1,2.125.838,3.912,3.912,0,0,1,.714,2.507V38h-2.4V32.256a1.556,1.556,0,0,0-.332-1.108,1.486,1.486,0,0,0-1.1-.344,1.65,1.65,0,0,0-1.519.863V38h-2.4V29.019ZM67.643,38a2.664,2.664,0,0,1-.241-.805,2.9,2.9,0,0,1-2.266.971,3.189,3.189,0,0,1-2.187-.764,2.456,2.456,0,0,1-.867-1.926,2.538,2.538,0,0,1,1.058-2.191,5.222,5.222,0,0,1,3.059-.772h1.1V32a1.48,1.48,0,0,0-.32-1,1.257,1.257,0,0,0-1.009-.374,1.429,1.429,0,0,0-.95.291.987.987,0,0,0-.344.8h-2.4a2.41,2.41,0,0,1,.481-1.444,3.182,3.182,0,0,1,1.361-1.042,4.961,4.961,0,0,1,1.976-.378,3.92,3.92,0,0,1,2.635.834,2.918,2.918,0,0,1,.975,2.345v3.893a4.294,4.294,0,0,0,.357,1.934V38Zm-1.984-1.668a2.066,2.066,0,0,0,.979-.237,1.554,1.554,0,0,0,.664-.635V33.916h-.9q-1.8,0-1.917,1.245l-.008.141a.96.96,0,0,0,.315.739A1.225,1.225,0,0,0,65.659,36.332ZM76.6,31.268a6.517,6.517,0,0,0-.863-.066,1.757,1.757,0,0,0-1.785.921V38h-2.4V29.019h2.266l.066,1.071a2.223,2.223,0,0,1,2-1.237,2.514,2.514,0,0,1,.747.108Zm6.018,4.25a.773.773,0,0,0-.436-.693,4.95,4.95,0,0,0-1.4-.452q-3.2-.672-3.2-2.723a2.468,2.468,0,0,1,.992-2,4,4,0,0,1,2.594-.8,4.307,4.307,0,0,1,2.735.805,2.538,2.538,0,0,1,1.025,2.092h-2.4a1.161,1.161,0,0,0-.332-.851,1.405,1.405,0,0,0-1.038-.336,1.436,1.436,0,0,0-.938.274.865.865,0,0,0-.332.7.739.739,0,0,0,.378.643,3.885,3.885,0,0,0,1.274.423,10.407,10.407,0,0,1,1.511.4,2.482,2.482,0,0,1,1.9,2.416A2.343,2.343,0,0,1,83.9,37.406a4.548,4.548,0,0,1-2.723.76,4.75,4.75,0,0,1-2-.4,3.363,3.363,0,0,1-1.374-1.1,2.565,2.565,0,0,1-.5-1.515h2.274a1.252,1.252,0,0,0,.473.979,1.877,1.877,0,0,0,1.179.34,1.737,1.737,0,0,0,1.042-.261A.814.814,0,0,0,82.618,35.518Zm8.01,2.648a4.409,4.409,0,0,1-3.217-1.212,4.308,4.308,0,0,1-1.241-3.229v-.232a5.426,5.426,0,0,1,.523-2.42,3.838,3.838,0,0,1,1.482-1.644,4.159,4.159,0,0,1,2.187-.577,3.727,3.727,0,0,1,2.9,1.162,4.722,4.722,0,0,1,1.058,3.3v.979H88.6a2.229,2.229,0,0,0,.7,1.411,2.12,2.12,0,0,0,1.482.531,2.589,2.589,0,0,0,2.167-1l1.179,1.32a3.6,3.6,0,0,1-1.461,1.191A4.793,4.793,0,0,1,90.628,38.166Zm-.274-7.379a1.5,1.5,0,0,0-1.158.484,2.5,2.5,0,0,0-.569,1.384h3.337v-.192a1.786,1.786,0,0,0-.432-1.238A1.547,1.547,0,0,0,90.354,30.787Z" transform="translate(345 9013.382)" fill="#12263f"/>
    <path id="Trazado_595578" data-name="Trazado 595578" d="M11.007,12.231a7.3,7.3,0,0,1-.631,3.129,4.751,4.751,0,0,1-1.805,2.075,4.994,4.994,0,0,1-2.694.73A5.028,5.028,0,0,1,3.2,17.444,4.8,4.8,0,0,1,1.37,15.381,7.087,7.087,0,0,1,.714,12.3v-.6a7.258,7.258,0,0,1,.643-3.142A4.79,4.79,0,0,1,3.175,6.474,5,5,0,0,1,5.86,5.748a5,5,0,0,1,2.685.726,4.79,4.79,0,0,1,1.818,2.083,7.237,7.237,0,0,1,.643,3.134Zm-2.523-.548A5.086,5.086,0,0,0,7.8,8.794,2.218,2.218,0,0,0,5.86,7.807a2.219,2.219,0,0,0-1.934.975,5.028,5.028,0,0,0-.689,2.86v.589A5.15,5.15,0,0,0,3.918,15.1a2.212,2.212,0,0,0,1.959,1.021A2.192,2.192,0,0,0,7.8,15.14a5.12,5.12,0,0,0,.681-2.868Zm12.26,1.909a5.387,5.387,0,0,1-.942,3.324,3.021,3.021,0,0,1-2.544,1.249,2.8,2.8,0,0,1-2.2-.946v4.233h-2.4V9.019h2.225l.083.88a2.819,2.819,0,0,1,2.274-1.046,3.041,3.041,0,0,1,2.582,1.229,5.532,5.532,0,0,1,.921,3.387Zm-2.4-.174a3.535,3.535,0,0,0-.444-1.934A1.446,1.446,0,0,0,16.61,10.8a1.571,1.571,0,0,0-1.552.863v3.677a1.6,1.6,0,0,0,1.569.888Q18.345,16.232,18.345,13.418ZM25.1,6.811V9.019h1.536v1.76H25.1v4.482a1.07,1.07,0,0,0,.191.714.959.959,0,0,0,.73.216,3.826,3.826,0,0,0,.706-.058V17.95a4.938,4.938,0,0,1-1.453.216A2.29,2.29,0,0,1,22.7,15.618V10.778H21.391V9.019H22.7V6.811ZM30.505,18H28.1V9.019h2.407ZM27.957,6.694a1.181,1.181,0,0,1,.361-.888,1.556,1.556,0,0,1,1.963,0,1.175,1.175,0,0,1,.365.888,1.178,1.178,0,0,1-.369.9,1.539,1.539,0,0,1-1.951,0A1.178,1.178,0,0,1,27.957,6.694ZM34.73,9.019l.075,1a3.156,3.156,0,0,1,2.582-1.17,2.4,2.4,0,0,1,2.382,1.37,3.084,3.084,0,0,1,2.7-1.37,2.679,2.679,0,0,1,2.175.851,3.911,3.911,0,0,1,.714,2.561V18H42.948V12.272a1.71,1.71,0,0,0-.3-1.116A1.324,1.324,0,0,0,41.6,10.8,1.5,1.5,0,0,0,40.1,11.833L40.109,18h-2.4V12.281a1.689,1.689,0,0,0-.307-1.129,1.337,1.337,0,0,0-1.046-.349,1.555,1.555,0,0,0-1.478.847V18h-2.4V9.019ZM49.73,18H47.323V9.019H49.73ZM47.182,6.694a1.181,1.181,0,0,1,.361-.888,1.556,1.556,0,0,1,1.963,0,1.175,1.175,0,0,1,.365.888,1.178,1.178,0,0,1-.369.9,1.539,1.539,0,0,1-1.951,0A1.178,1.178,0,0,1,47.182,6.694Zm9.388,8.824a.773.773,0,0,0-.436-.693,4.95,4.95,0,0,0-1.4-.452q-3.2-.672-3.2-2.723a2.468,2.468,0,0,1,.992-2,4,4,0,0,1,2.594-.8,4.307,4.307,0,0,1,2.735.805,2.538,2.538,0,0,1,1.025,2.092h-2.4a1.161,1.161,0,0,0-.332-.851,1.405,1.405,0,0,0-1.038-.336,1.436,1.436,0,0,0-.938.274.865.865,0,0,0-.332.7.739.739,0,0,0,.378.643,3.885,3.885,0,0,0,1.274.423A10.407,10.407,0,0,1,57,13a2.482,2.482,0,0,1,1.9,2.416,2.343,2.343,0,0,1-1.054,1.988,4.548,4.548,0,0,1-2.723.76,4.75,4.75,0,0,1-2-.4,3.363,3.363,0,0,1-1.374-1.1,2.565,2.565,0,0,1-.5-1.515h2.274a1.252,1.252,0,0,0,.473.979,1.877,1.877,0,0,0,1.179.34,1.737,1.737,0,0,0,1.042-.261A.814.814,0,0,0,56.57,15.518Zm6.749-8.708V9.019h1.536v1.76H63.318v4.482a1.07,1.07,0,0,0,.191.714.959.959,0,0,0,.73.216,3.826,3.826,0,0,0,.706-.058V17.95a4.938,4.938,0,0,1-1.453.216,2.29,2.29,0,0,1-2.573-2.548V10.778H59.608V9.019h1.312V6.811ZM71.4,18a2.664,2.664,0,0,1-.241-.805,2.9,2.9,0,0,1-2.266.971A3.189,3.189,0,0,1,66.7,17.4a2.456,2.456,0,0,1-.867-1.926,2.538,2.538,0,0,1,1.058-2.191,5.222,5.222,0,0,1,3.059-.772h1.1V12a1.48,1.48,0,0,0-.32-1,1.257,1.257,0,0,0-1.009-.374,1.429,1.429,0,0,0-.95.291.987.987,0,0,0-.344.8h-2.4a2.41,2.41,0,0,1,.481-1.444A3.182,3.182,0,0,1,67.875,9.23a4.961,4.961,0,0,1,1.976-.378,3.92,3.92,0,0,1,2.635.834,2.918,2.918,0,0,1,.975,2.345v3.893a4.294,4.294,0,0,0,.357,1.934V18Zm-1.984-1.668a2.066,2.066,0,0,0,.979-.237,1.554,1.554,0,0,0,.664-.635V13.916h-.9q-1.8,0-1.917,1.245l-.008.141a.96.96,0,0,0,.315.739A1.225,1.225,0,0,0,69.411,16.332Z" transform="translate(444 9360.063)" fill="#12263f"/>
    <path id="Trazado_595579" data-name="Trazado 595579" d="M10.567,13.974a4.277,4.277,0,0,1-1.44,3.071A5.058,5.058,0,0,1,5.7,18.166,4.548,4.548,0,0,1,2.046,16.6a6.416,6.416,0,0,1-1.332-4.3v-.739A7.245,7.245,0,0,1,1.328,8.5,4.6,4.6,0,0,1,3.084,6.458a4.918,4.918,0,0,1,2.652-.71,4.927,4.927,0,0,1,3.37,1.121,4.6,4.6,0,0,1,1.478,3.146H8.093a2.524,2.524,0,0,0-.652-1.7A2.413,2.413,0,0,0,5.736,7.79a2.116,2.116,0,0,0-1.864.892,5,5,0,0,0-.635,2.768v.913a5.352,5.352,0,0,0,.594,2.864,2.077,2.077,0,0,0,1.872.9,2.458,2.458,0,0,0,1.722-.527,2.381,2.381,0,0,0,.652-1.631Zm1.1-.548a5.327,5.327,0,0,1,.515-2.382,3.768,3.768,0,0,1,1.482-1.619,4.323,4.323,0,0,1,2.245-.573A4.09,4.09,0,0,1,18.88,9.965a4.464,4.464,0,0,1,1.282,3.021l.017.614a4.694,4.694,0,0,1-1.154,3.316,4.011,4.011,0,0,1-3.1,1.249,4.031,4.031,0,0,1-3.1-1.245,4.777,4.777,0,0,1-1.158-3.387Zm2.4.17a3.357,3.357,0,0,0,.481,1.958,1.73,1.73,0,0,0,2.739.008,3.674,3.674,0,0,0,.49-2.141,3.324,3.324,0,0,0-.49-1.945,1.592,1.592,0,0,0-1.378-.69,1.566,1.566,0,0,0-1.361.686A3.735,3.735,0,0,0,14.07,13.6Zm9.795-4.578.075,1.038a3.136,3.136,0,0,1,2.582-1.2,2.606,2.606,0,0,1,2.125.838A3.912,3.912,0,0,1,29.36,12.2V18h-2.4V12.256a1.556,1.556,0,0,0-.332-1.108,1.486,1.486,0,0,0-1.1-.344,1.65,1.65,0,0,0-1.519.863V18h-2.4V9.019ZM30.8,13.426a5.327,5.327,0,0,1,.515-2.382A3.768,3.768,0,0,1,32.8,9.425a4.323,4.323,0,0,1,2.245-.573,4.09,4.09,0,0,1,2.968,1.112A4.464,4.464,0,0,1,39.3,12.986l.017.614a4.694,4.694,0,0,1-1.154,3.316,4.011,4.011,0,0,1-3.1,1.249,4.031,4.031,0,0,1-3.1-1.245A4.777,4.777,0,0,1,30.8,13.534Zm2.4.17a3.357,3.357,0,0,0,.481,1.958,1.73,1.73,0,0,0,2.739.008,3.674,3.674,0,0,0,.49-2.141,3.324,3.324,0,0,0-.49-1.945,1.592,1.592,0,0,0-1.378-.69,1.566,1.566,0,0,0-1.361.686A3.735,3.735,0,0,0,33.2,13.6Zm11.322,2.635a1.573,1.573,0,0,0,1.079-.365,1.28,1.28,0,0,0,.432-.971h2.25a3.077,3.077,0,0,1-.5,1.673,3.286,3.286,0,0,1-1.341,1.179,4.2,4.2,0,0,1-1.88.419,3.9,3.9,0,0,1-3.038-1.224,4.845,4.845,0,0,1-1.112-3.383V13.4a4.79,4.79,0,0,1,1.1-3.312,3.854,3.854,0,0,1,3.03-1.237,3.778,3.778,0,0,1,2.7.959,3.4,3.4,0,0,1,1.033,2.552h-2.25a1.648,1.648,0,0,0-.432-1.139,1.6,1.6,0,0,0-2.362.173,3.541,3.541,0,0,0-.427,1.983v.249a3.586,3.586,0,0,0,.423,2A1.463,1.463,0,0,0,44.525,16.232Zm9.264,1.934a4.409,4.409,0,0,1-3.217-1.212,4.308,4.308,0,0,1-1.241-3.229v-.232a5.426,5.426,0,0,1,.523-2.42,3.838,3.838,0,0,1,1.482-1.644,4.159,4.159,0,0,1,2.187-.577,3.727,3.727,0,0,1,2.9,1.162,4.722,4.722,0,0,1,1.058,3.3v.979H51.764a2.229,2.229,0,0,0,.7,1.411,2.12,2.12,0,0,0,1.482.531,2.589,2.589,0,0,0,2.167-1l1.179,1.32a3.6,3.6,0,0,1-1.461,1.191A4.793,4.793,0,0,1,53.789,18.166Zm-.274-7.379a1.5,1.5,0,0,0-1.158.484,2.5,2.5,0,0,0-.569,1.384h3.337v-.192a1.786,1.786,0,0,0-.432-1.238A1.547,1.547,0,0,0,53.515,10.787ZM68.282,18a2.664,2.664,0,0,1-.241-.805,2.9,2.9,0,0,1-2.266.971,3.189,3.189,0,0,1-2.187-.764,2.456,2.456,0,0,1-.867-1.926,2.538,2.538,0,0,1,1.058-2.191,5.222,5.222,0,0,1,3.059-.772h1.1V12a1.48,1.48,0,0,0-.32-1,1.257,1.257,0,0,0-1.009-.374,1.429,1.429,0,0,0-.95.291.987.987,0,0,0-.344.8h-2.4a2.41,2.41,0,0,1,.481-1.444A3.182,3.182,0,0,1,64.763,9.23a4.961,4.961,0,0,1,1.976-.378,3.92,3.92,0,0,1,2.635.834,2.918,2.918,0,0,1,.975,2.345v3.893a4.294,4.294,0,0,0,.357,1.934V18ZM66.3,16.332a2.066,2.066,0,0,0,.979-.237,1.554,1.554,0,0,0,.664-.635V13.916h-.9q-1.8,0-1.917,1.245l-.008.141a.96.96,0,0,0,.315.739A1.225,1.225,0,0,0,66.3,16.332ZM74.724,18H72.316V5.25h2.407Zm9.944-1.768a1.573,1.573,0,0,0,1.079-.365,1.28,1.28,0,0,0,.432-.971h2.25a3.077,3.077,0,0,1-.5,1.673,3.286,3.286,0,0,1-1.341,1.179,4.2,4.2,0,0,1-1.88.419,3.9,3.9,0,0,1-3.038-1.224,4.845,4.845,0,0,1-1.112-3.383V13.4a4.79,4.79,0,0,1,1.1-3.312,3.854,3.854,0,0,1,3.03-1.237,3.778,3.778,0,0,1,2.7.959,3.4,3.4,0,0,1,1.033,2.552h-2.25a1.648,1.648,0,0,0-.432-1.139,1.6,1.6,0,0,0-2.362.173,3.541,3.541,0,0,0-.427,1.983v.249a3.586,3.586,0,0,0,.423,2A1.463,1.463,0,0,0,84.668,16.232ZM92.33,18H89.922V5.25H92.33Zm4.507,0H94.43V9.019h2.407ZM94.289,6.694a1.181,1.181,0,0,1,.361-.888,1.556,1.556,0,0,1,1.963,0,1.175,1.175,0,0,1,.365.888,1.178,1.178,0,0,1-.369.9,1.539,1.539,0,0,1-1.951,0A1.178,1.178,0,0,1,94.289,6.694Zm8.658,11.472a4.409,4.409,0,0,1-3.217-1.212,4.308,4.308,0,0,1-1.241-3.229v-.232a5.426,5.426,0,0,1,.523-2.42,3.838,3.838,0,0,1,1.482-1.644,4.159,4.159,0,0,1,2.187-.577,3.727,3.727,0,0,1,2.9,1.162,4.722,4.722,0,0,1,1.058,3.3v.979h-5.719a2.229,2.229,0,0,0,.7,1.411,2.12,2.12,0,0,0,1.482.531,2.589,2.589,0,0,0,2.167-1l1.179,1.32a3.6,3.6,0,0,1-1.461,1.191A4.793,4.793,0,0,1,102.946,18.166Zm-.274-7.379a1.5,1.5,0,0,0-1.158.484,2.5,2.5,0,0,0-.569,1.384h3.337v-.192a1.786,1.786,0,0,0-.432-1.238A1.547,1.547,0,0,0,102.672,10.787Zm7.537-1.768.075,1.038a3.136,3.136,0,0,1,2.582-1.2,2.606,2.606,0,0,1,2.125.838A3.912,3.912,0,0,1,115.7,12.2V18h-2.4V12.256a1.556,1.556,0,0,0-.332-1.108,1.486,1.486,0,0,0-1.1-.344,1.65,1.65,0,0,0-1.519.863V18h-2.4V9.019Zm10.185-2.208V9.019h1.536v1.76h-1.536v4.482a1.07,1.07,0,0,0,.191.714.959.959,0,0,0,.73.216,3.826,3.826,0,0,0,.706-.058V17.95a4.938,4.938,0,0,1-1.453.216A2.29,2.29,0,0,1,118,15.618V10.778h-1.312V9.019H118V6.811ZM127.4,18.166a4.409,4.409,0,0,1-3.217-1.212,4.308,4.308,0,0,1-1.241-3.229v-.232a5.426,5.426,0,0,1,.523-2.42,3.838,3.838,0,0,1,1.482-1.644,4.159,4.159,0,0,1,2.187-.577,3.727,3.727,0,0,1,2.9,1.162,4.722,4.722,0,0,1,1.058,3.3v.979h-5.719a2.229,2.229,0,0,0,.7,1.411,2.12,2.12,0,0,0,1.482.531,2.589,2.589,0,0,0,2.167-1l1.179,1.32a3.6,3.6,0,0,1-1.461,1.191A4.793,4.793,0,0,1,127.4,18.166Zm-.274-7.379a1.5,1.5,0,0,0-1.158.484,2.5,2.5,0,0,0-.569,1.384h3.337v-.192a1.786,1.786,0,0,0-.432-1.238A1.547,1.547,0,0,0,127.126,10.787Z" transform="translate(636 9360.063)" fill="#12263f"/>
    <path id="Trazado_595580" data-name="Trazado 595580" d="M7.9,15.51H3.536L2.706,18H.058l4.5-12.086H6.865L11.389,18H8.741ZM4.208,13.493H7.23L5.711,8.969Zm16.236.1a5.387,5.387,0,0,1-.942,3.324,3.021,3.021,0,0,1-2.544,1.249,2.8,2.8,0,0,1-2.2-.946v4.233h-2.4V9.019h2.225l.083.88a2.819,2.819,0,0,1,2.274-1.046,3.041,3.041,0,0,1,2.582,1.229,5.532,5.532,0,0,1,.921,3.387Zm-2.4-.174a3.535,3.535,0,0,0-.444-1.934,1.446,1.446,0,0,0-1.291-.681,1.571,1.571,0,0,0-1.552.863v3.677a1.6,1.6,0,0,0,1.569.888Q18.046,16.232,18.046,13.418Zm8.932-2.15a6.517,6.517,0,0,0-.863-.066,1.757,1.757,0,0,0-1.785.921V18h-2.4V9.019H24.2l.066,1.071a2.223,2.223,0,0,1,2-1.237,2.514,2.514,0,0,1,.747.108Zm5.288,6.9a4.409,4.409,0,0,1-3.217-1.212,4.308,4.308,0,0,1-1.241-3.229v-.232a5.426,5.426,0,0,1,.523-2.42,3.838,3.838,0,0,1,1.482-1.644A4.159,4.159,0,0,1,32,8.853a3.727,3.727,0,0,1,2.9,1.162,4.722,4.722,0,0,1,1.058,3.3v.979H30.24a2.229,2.229,0,0,0,.7,1.411,2.12,2.12,0,0,0,1.482.531,2.589,2.589,0,0,0,2.167-1l1.179,1.32a3.6,3.6,0,0,1-1.461,1.191A4.793,4.793,0,0,1,32.265,18.166Zm-.274-7.379a1.5,1.5,0,0,0-1.158.484,2.5,2.5,0,0,0-.569,1.384H33.6v-.192a1.786,1.786,0,0,0-.432-1.238A1.547,1.547,0,0,0,31.991,10.787Zm7.537-1.768.075,1.038a3.136,3.136,0,0,1,2.582-1.2,2.606,2.606,0,0,1,2.125.838,3.912,3.912,0,0,1,.714,2.507V18h-2.4V12.256a1.556,1.556,0,0,0-.332-1.108,1.486,1.486,0,0,0-1.1-.344,1.65,1.65,0,0,0-1.519.863V18h-2.4V9.019Zm6.939,4.424A5.413,5.413,0,0,1,47.41,10.1a3.057,3.057,0,0,1,2.577-1.245,2.751,2.751,0,0,1,2.167.979V5.25h2.407V18H52.395l-.116-.955a2.823,2.823,0,0,1-2.308,1.121,3.049,3.049,0,0,1-2.544-1.249A5.587,5.587,0,0,1,46.468,13.443Zm2.4.179a3.546,3.546,0,0,0,.44,1.937,1.433,1.433,0,0,0,1.278.673,1.605,1.605,0,0,0,1.569-.939v-3.55A1.582,1.582,0,0,0,50.6,10.8Q48.867,10.8,48.867,13.621ZM58.952,18H56.545V9.019h2.407ZM56.4,6.694a1.181,1.181,0,0,1,.361-.888,1.556,1.556,0,0,1,1.963,0,1.175,1.175,0,0,1,.365.888,1.178,1.178,0,0,1-.369.9,1.539,1.539,0,0,1-1.951,0A1.178,1.178,0,0,1,56.4,6.694Zm7.28,9.372h4.391V18H60.621V16.539l4.225-5.586h-4.1V9.019h7.2v1.413ZM74.782,18a2.664,2.664,0,0,1-.241-.805,2.9,2.9,0,0,1-2.266.971,3.189,3.189,0,0,1-2.187-.764,2.456,2.456,0,0,1-.867-1.926,2.538,2.538,0,0,1,1.058-2.191,5.222,5.222,0,0,1,3.059-.772h1.1V12a1.48,1.48,0,0,0-.32-1,1.257,1.257,0,0,0-1.009-.374,1.429,1.429,0,0,0-.95.291.987.987,0,0,0-.344.8h-2.4a2.41,2.41,0,0,1,.481-1.444A3.182,3.182,0,0,1,71.262,9.23a4.961,4.961,0,0,1,1.976-.378,3.92,3.92,0,0,1,2.635.834,2.918,2.918,0,0,1,.975,2.345v3.893a4.294,4.294,0,0,0,.357,1.934V18ZM72.8,16.332a2.066,2.066,0,0,0,.979-.237,1.554,1.554,0,0,0,.664-.635V13.916h-.9q-1.8,0-1.917,1.245l-.008.141a.96.96,0,0,0,.315.739A1.225,1.225,0,0,0,72.8,16.332Zm8.434-7.313V18.49a3.213,3.213,0,0,1-.789,2.312,3,3,0,0,1-2.274.826,4.878,4.878,0,0,1-1.187-.141v-1.9a4.5,4.5,0,0,0,.755.075q1.087,0,1.087-1.154V9.019Zm-2.6-2.324a1.181,1.181,0,0,1,.361-.888,1.562,1.562,0,0,1,1.967,0,1.181,1.181,0,0,1,.361.888,1.178,1.178,0,0,1-.369.9,1.539,1.539,0,0,1-1.951,0A1.178,1.178,0,0,1,78.633,6.694Zm8.608,11.472a4.409,4.409,0,0,1-3.217-1.212,4.308,4.308,0,0,1-1.241-3.229v-.232a5.426,5.426,0,0,1,.523-2.42,3.838,3.838,0,0,1,1.482-1.644,4.159,4.159,0,0,1,2.187-.577,3.727,3.727,0,0,1,2.9,1.162,4.722,4.722,0,0,1,1.058,3.3v.979H85.216a2.229,2.229,0,0,0,.7,1.411,2.12,2.12,0,0,0,1.482.531,2.589,2.589,0,0,0,2.167-1l1.179,1.32a3.6,3.6,0,0,1-1.461,1.191A4.793,4.793,0,0,1,87.241,18.166Zm-.274-7.379a1.5,1.5,0,0,0-1.158.484,2.5,2.5,0,0,0-.569,1.384h3.337v-.192a1.786,1.786,0,0,0-.432-1.238A1.547,1.547,0,0,0,86.967,10.787Z" transform="translate(831 9360.063)" fill="#12263f"/>
    <path id="Trazado_595581" data-name="Trazado 595581" d="M4.333,5.914l3.1,8.766,3.088-8.766H13.8V18H11.3V14.7l.249-5.7L8.284,18H6.574L3.32,9,3.569,14.7V18H1.079V5.914ZM21.018,18a2.664,2.664,0,0,1-.241-.805,2.9,2.9,0,0,1-2.266.971,3.189,3.189,0,0,1-2.187-.764,2.456,2.456,0,0,1-.867-1.926,2.538,2.538,0,0,1,1.058-2.191,5.222,5.222,0,0,1,3.059-.772h1.1V12a1.48,1.48,0,0,0-.32-1,1.257,1.257,0,0,0-1.009-.374,1.429,1.429,0,0,0-.95.291.987.987,0,0,0-.344.8h-2.4a2.41,2.41,0,0,1,.481-1.444A3.182,3.182,0,0,1,17.5,9.23a4.961,4.961,0,0,1,1.976-.378,3.92,3.92,0,0,1,2.635.834,2.918,2.918,0,0,1,.975,2.345v3.893a4.294,4.294,0,0,0,.357,1.934V18Zm-1.984-1.668a2.066,2.066,0,0,0,.979-.237,1.554,1.554,0,0,0,.664-.635V13.916h-.9q-1.8,0-1.917,1.245l-.008.141a.96.96,0,0,0,.315.739A1.225,1.225,0,0,0,19.034,16.332Zm8.1-7.313.075,1.038a3.136,3.136,0,0,1,2.582-1.2,2.606,2.606,0,0,1,2.125.838A3.912,3.912,0,0,1,32.63,12.2V18h-2.4V12.256a1.556,1.556,0,0,0-.332-1.108,1.486,1.486,0,0,0-1.1-.344,1.65,1.65,0,0,0-1.519.863V18h-2.4V9.019Zm11.447,9.147a4.409,4.409,0,0,1-3.217-1.212,4.308,4.308,0,0,1-1.241-3.229v-.232a5.426,5.426,0,0,1,.523-2.42,3.838,3.838,0,0,1,1.482-1.644,4.159,4.159,0,0,1,2.187-.577,3.727,3.727,0,0,1,2.9,1.162,4.722,4.722,0,0,1,1.058,3.3v.979H36.557a2.229,2.229,0,0,0,.7,1.411,2.12,2.12,0,0,0,1.482.531,2.589,2.589,0,0,0,2.167-1l1.179,1.32a3.6,3.6,0,0,1-1.461,1.191A4.793,4.793,0,0,1,38.582,18.166Zm-.274-7.379a1.5,1.5,0,0,0-1.158.484,2.5,2.5,0,0,0-.569,1.384h3.337v-.192a1.786,1.786,0,0,0-.432-1.238A1.547,1.547,0,0,0,38.308,10.787Zm7.869-1.768V18.49a3.213,3.213,0,0,1-.789,2.312,3,3,0,0,1-2.274.826,4.878,4.878,0,0,1-1.187-.141v-1.9a4.5,4.5,0,0,0,.755.075q1.087,0,1.087-1.154V9.019Zm-2.6-2.324a1.181,1.181,0,0,1,.361-.888,1.562,1.562,0,0,1,1.967,0,1.181,1.181,0,0,1,.361.888,1.178,1.178,0,0,1-.369.9,1.539,1.539,0,0,1-1.951,0A1.178,1.178,0,0,1,43.579,6.694Zm4.1,6.732a5.327,5.327,0,0,1,.515-2.382,3.767,3.767,0,0,1,1.482-1.619,4.323,4.323,0,0,1,2.245-.573,4.09,4.09,0,0,1,2.968,1.112,4.464,4.464,0,0,1,1.282,3.021l.017.614a4.694,4.694,0,0,1-1.154,3.316,4.472,4.472,0,0,1-6.2,0,4.777,4.777,0,0,1-1.158-3.387Zm2.4.17a3.357,3.357,0,0,0,.481,1.958,1.73,1.73,0,0,0,2.739.008,3.674,3.674,0,0,0,.49-2.141,3.324,3.324,0,0,0-.49-1.945,1.592,1.592,0,0,0-1.378-.69,1.566,1.566,0,0,0-1.361.686A3.735,3.735,0,0,0,50.079,13.6Zm11.447-.154a5.413,5.413,0,0,1,.942-3.345,3.057,3.057,0,0,1,2.577-1.245,2.751,2.751,0,0,1,2.167.979V5.25h2.407V18H67.452l-.116-.955a2.823,2.823,0,0,1-2.308,1.121,3.049,3.049,0,0,1-2.544-1.249A5.587,5.587,0,0,1,61.525,13.443Zm2.4.179a3.546,3.546,0,0,0,.44,1.937,1.433,1.433,0,0,0,1.278.673,1.605,1.605,0,0,0,1.569-.939v-3.55a1.582,1.582,0,0,0-1.552-.939Q63.924,10.8,63.924,13.621Zm11.688,4.545A4.409,4.409,0,0,1,72.4,16.954a4.308,4.308,0,0,1-1.241-3.229v-.232a5.426,5.426,0,0,1,.523-2.42,3.838,3.838,0,0,1,1.482-1.644,4.159,4.159,0,0,1,2.187-.577,3.727,3.727,0,0,1,2.9,1.162,4.722,4.722,0,0,1,1.058,3.3v.979H73.586a2.229,2.229,0,0,0,.7,1.411,2.12,2.12,0,0,0,1.482.531,2.589,2.589,0,0,0,2.167-1l1.179,1.32a3.6,3.6,0,0,1-1.461,1.191A4.793,4.793,0,0,1,75.612,18.166Zm-.274-7.379a1.5,1.5,0,0,0-1.158.484,2.5,2.5,0,0,0-.569,1.384h3.337v-.192a1.786,1.786,0,0,0-.432-1.238A1.547,1.547,0,0,0,75.338,10.787ZM9.006,33.592a5.387,5.387,0,0,1-.942,3.324A3.021,3.021,0,0,1,5.52,38.166a2.8,2.8,0,0,1-2.2-.946v4.233H.921V29.019H3.146l.083.88A2.819,2.819,0,0,1,5.5,28.853a3.041,3.041,0,0,1,2.582,1.229,5.532,5.532,0,0,1,.921,3.387Zm-2.4-.174a3.535,3.535,0,0,0-.444-1.934A1.446,1.446,0,0,0,4.873,30.8a1.571,1.571,0,0,0-1.552.863v3.677a1.6,1.6,0,0,0,1.569.888Q6.607,36.232,6.607,33.418Zm8.932-2.15a6.517,6.517,0,0,0-.863-.066,1.757,1.757,0,0,0-1.785.921V38h-2.4V29.019h2.266l.066,1.071a2.223,2.223,0,0,1,2-1.237,2.514,2.514,0,0,1,.747.108Zm.481,2.158a5.327,5.327,0,0,1,.515-2.382,3.768,3.768,0,0,1,1.482-1.619,4.323,4.323,0,0,1,2.245-.573,4.09,4.09,0,0,1,2.968,1.112,4.464,4.464,0,0,1,1.282,3.021l.017.614a4.694,4.694,0,0,1-1.154,3.316,4.011,4.011,0,0,1-3.1,1.249,4.031,4.031,0,0,1-3.1-1.245,4.777,4.777,0,0,1-1.158-3.387Zm2.4.17a3.357,3.357,0,0,0,.481,1.958,1.73,1.73,0,0,0,2.739.008,3.674,3.674,0,0,0,.49-2.141,3.324,3.324,0,0,0-.49-1.945,1.592,1.592,0,0,0-1.378-.69,1.566,1.566,0,0,0-1.361.686A3.735,3.735,0,0,0,18.419,33.6Zm15.68,0a5.439,5.439,0,0,1-.921,3.366A3.052,3.052,0,0,1,30.6,38.166a2.8,2.8,0,0,1-2.333-1.121L28.165,38H26.006V25.25h2.4v4.574a2.732,2.732,0,0,1,2.183-.971,3.077,3.077,0,0,1,2.577,1.208,5.446,5.446,0,0,1,.934,3.4Zm-2.4-.174a3.573,3.573,0,0,0-.432-1.988,1.46,1.46,0,0,0-1.287-.627,1.582,1.582,0,0,0-1.577.938v3.544A1.6,1.6,0,0,0,30,36.232a1.481,1.481,0,0,0,1.527-1.146A5.909,5.909,0,0,0,31.7,33.418ZM38.109,38H35.7V25.25h2.407Zm6.109.166A4.409,4.409,0,0,1,41,36.954a4.308,4.308,0,0,1-1.241-3.229v-.232a5.426,5.426,0,0,1,.523-2.42,3.838,3.838,0,0,1,1.482-1.644,4.159,4.159,0,0,1,2.187-.577,3.727,3.727,0,0,1,2.9,1.162,4.722,4.722,0,0,1,1.058,3.3v.979H42.193a2.229,2.229,0,0,0,.7,1.411,2.12,2.12,0,0,0,1.482.531,2.589,2.589,0,0,0,2.167-1l1.179,1.32a3.6,3.6,0,0,1-1.461,1.191A4.793,4.793,0,0,1,44.218,38.166Zm-.274-7.379a1.5,1.5,0,0,0-1.158.484,2.5,2.5,0,0,0-.569,1.384h3.337v-.192a1.786,1.786,0,0,0-.432-1.238A1.547,1.547,0,0,0,43.944,30.787Zm7.579-1.768.075,1a3.156,3.156,0,0,1,2.582-1.17,2.4,2.4,0,0,1,2.382,1.37,3.084,3.084,0,0,1,2.7-1.37,2.679,2.679,0,0,1,2.175.851,3.911,3.911,0,0,1,.714,2.561V38H59.741V32.272a1.71,1.71,0,0,0-.3-1.116,1.324,1.324,0,0,0-1.054-.353,1.5,1.5,0,0,0-1.494,1.029L56.9,38H54.5V32.281a1.689,1.689,0,0,0-.307-1.129A1.337,1.337,0,0,0,53.15,30.8a1.555,1.555,0,0,0-1.478.847V38h-2.4V29.019ZM69.2,38a2.664,2.664,0,0,1-.241-.805,2.9,2.9,0,0,1-2.266.971A3.189,3.189,0,0,1,64.5,37.4a2.456,2.456,0,0,1-.867-1.926,2.538,2.538,0,0,1,1.058-2.191,5.222,5.222,0,0,1,3.059-.772h1.1V32a1.48,1.48,0,0,0-.32-1,1.257,1.257,0,0,0-1.009-.374,1.429,1.429,0,0,0-.95.291.987.987,0,0,0-.344.8h-2.4a2.41,2.41,0,0,1,.481-1.444,3.182,3.182,0,0,1,1.361-1.042,4.961,4.961,0,0,1,1.976-.378,3.92,3.92,0,0,1,2.635.834,2.918,2.918,0,0,1,.975,2.345v3.893a4.294,4.294,0,0,0,.357,1.934V38Zm-1.984-1.668a2.066,2.066,0,0,0,.979-.237,1.554,1.554,0,0,0,.664-.635V33.916h-.9q-1.8,0-1.917,1.245l-.008.141a.96.96,0,0,0,.315.739A1.225,1.225,0,0,0,67.211,36.332Zm10.758-.813a.773.773,0,0,0-.436-.693,4.95,4.95,0,0,0-1.4-.452q-3.2-.672-3.2-2.723a2.468,2.468,0,0,1,.992-2,4,4,0,0,1,2.594-.8,4.307,4.307,0,0,1,2.735.805,2.538,2.538,0,0,1,1.025,2.092h-2.4a1.161,1.161,0,0,0-.332-.851,1.405,1.405,0,0,0-1.038-.336,1.436,1.436,0,0,0-.938.274.865.865,0,0,0-.332.7.739.739,0,0,0,.378.643,3.885,3.885,0,0,0,1.274.423A10.407,10.407,0,0,1,78.4,33a2.482,2.482,0,0,1,1.9,2.416,2.343,2.343,0,0,1-1.054,1.988,4.548,4.548,0,0,1-2.723.76,4.75,4.75,0,0,1-2-.4,3.363,3.363,0,0,1-1.374-1.1,2.565,2.565,0,0,1-.5-1.515h2.274a1.252,1.252,0,0,0,.473.979,1.877,1.877,0,0,0,1.179.34,1.737,1.737,0,0,0,1.042-.261A.814.814,0,0,0,77.969,35.518Z" transform="translate(1026 9360.063)" fill="#12263f"/>
    <path id="Trazado_595582" data-name="Trazado 595582" d="M7.9,15.51H3.536L2.706,18H.058l4.5-12.086H6.865L11.389,18H8.741ZM4.208,13.493H7.23L5.711,8.969Zm10.4-4.474.075,1a3.156,3.156,0,0,1,2.582-1.17,2.4,2.4,0,0,1,2.382,1.37,3.084,3.084,0,0,1,2.7-1.37,2.679,2.679,0,0,1,2.175.851,3.911,3.911,0,0,1,.714,2.561V18H22.827V12.272a1.71,1.71,0,0,0-.3-1.116,1.324,1.324,0,0,0-1.054-.353,1.5,1.5,0,0,0-1.494,1.029L19.988,18h-2.4V12.281a1.689,1.689,0,0,0-.307-1.129,1.337,1.337,0,0,0-1.046-.349,1.555,1.555,0,0,0-1.478.847V18h-2.4V9.019ZM32.282,18a2.664,2.664,0,0,1-.241-.805,2.9,2.9,0,0,1-2.266.971,3.189,3.189,0,0,1-2.187-.764,2.456,2.456,0,0,1-.867-1.926,2.538,2.538,0,0,1,1.058-2.191,5.222,5.222,0,0,1,3.059-.772h1.1V12a1.48,1.48,0,0,0-.32-1,1.257,1.257,0,0,0-1.009-.374,1.429,1.429,0,0,0-.95.291.987.987,0,0,0-.344.8h-2.4a2.41,2.41,0,0,1,.481-1.444A3.182,3.182,0,0,1,28.762,9.23a4.961,4.961,0,0,1,1.976-.378,3.92,3.92,0,0,1,2.635.834,2.918,2.918,0,0,1,.975,2.345v3.893a4.294,4.294,0,0,0,.357,1.934V18ZM30.3,16.332a2.066,2.066,0,0,0,.979-.237,1.554,1.554,0,0,0,.664-.635V13.916h-.9q-1.8,0-1.917,1.245l-.008.141a.96.96,0,0,0,.315.739A1.225,1.225,0,0,0,30.3,16.332ZM42.957,18H40.549V5.25h2.407Zm1.6-4.574a5.327,5.327,0,0,1,.515-2.382,3.767,3.767,0,0,1,1.482-1.619A4.323,4.323,0,0,1,48.8,8.853a4.09,4.09,0,0,1,2.968,1.112,4.464,4.464,0,0,1,1.282,3.021l.017.614a4.694,4.694,0,0,1-1.154,3.316,4.472,4.472,0,0,1-6.2,0,4.777,4.777,0,0,1-1.158-3.387Zm2.4.17a3.357,3.357,0,0,0,.481,1.958,1.73,1.73,0,0,0,2.739.008,3.674,3.674,0,0,0,.49-2.141,3.324,3.324,0,0,0-.49-1.945,1.592,1.592,0,0,0-1.378-.69,1.566,1.566,0,0,0-1.361.686A3.735,3.735,0,0,0,46.958,13.6Zm11.447-.17a5.369,5.369,0,0,1,.942-3.345,3.08,3.08,0,0,1,2.586-1.229,2.758,2.758,0,0,1,2.3,1.1l.158-.938H66.5V21.453H64.09V17.228a2.765,2.765,0,0,1-2.175.938,3.057,3.057,0,0,1-2.557-1.245A5.632,5.632,0,0,1,58.4,13.426Zm2.4.17a3.522,3.522,0,0,0,.452,1.962,1.448,1.448,0,0,0,1.274.673,1.613,1.613,0,0,0,1.561-.881V11.635a1.6,1.6,0,0,0-1.544-.848,1.466,1.466,0,0,0-1.287.673A3.889,3.889,0,0,0,60.8,13.6Zm12.958,3.49A3.008,3.008,0,0,1,71.3,18.166a2.837,2.837,0,0,1-2.2-.83,3.543,3.543,0,0,1-.776-2.432V9.019h2.4v5.809q0,1.4,1.278,1.4a1.732,1.732,0,0,0,1.677-.848V9.019h2.407V18H73.827Zm8.268,1.079a4.409,4.409,0,0,1-3.217-1.212,4.308,4.308,0,0,1-1.241-3.229v-.232a5.426,5.426,0,0,1,.523-2.42,3.838,3.838,0,0,1,1.482-1.644,4.159,4.159,0,0,1,2.187-.577,3.727,3.727,0,0,1,2.9,1.162,4.722,4.722,0,0,1,1.058,3.3v.979H80a2.229,2.229,0,0,0,.7,1.411,2.12,2.12,0,0,0,1.482.531,2.589,2.589,0,0,0,2.167-1l1.179,1.32a3.6,3.6,0,0,1-1.461,1.191A4.793,4.793,0,0,1,82.028,18.166Zm-.274-7.379a1.5,1.5,0,0,0-1.158.484,2.5,2.5,0,0,0-.569,1.384h3.337v-.192a1.786,1.786,0,0,0-.432-1.238A1.547,1.547,0,0,0,81.754,10.787ZM93.658,10a2.994,2.994,0,0,1,2.4-1.146q2.922,0,2.963,3.4V18h-2.4V12.314a1.669,1.669,0,0,0-.332-1.141,1.423,1.423,0,0,0-1.1-.369,1.633,1.633,0,0,0-1.527.813V18h-2.4V5.25h2.4Zm12.376,8a2.664,2.664,0,0,1-.241-.805,2.9,2.9,0,0,1-2.266.971,3.189,3.189,0,0,1-2.187-.764,2.456,2.456,0,0,1-.867-1.926,2.538,2.538,0,0,1,1.058-2.191,5.222,5.222,0,0,1,3.059-.772h1.1V12a1.48,1.48,0,0,0-.32-1,1.257,1.257,0,0,0-1.009-.374,1.429,1.429,0,0,0-.95.291.987.987,0,0,0-.344.8h-2.4a2.41,2.41,0,0,1,.481-1.444,3.182,3.182,0,0,1,1.361-1.042,4.961,4.961,0,0,1,1.976-.378,3.92,3.92,0,0,1,2.635.834,2.918,2.918,0,0,1,.975,2.345v3.893a4.294,4.294,0,0,0,.357,1.934V18Zm-1.984-1.668a2.066,2.066,0,0,0,.979-.237,1.554,1.554,0,0,0,.664-.635V13.916h-.9q-1.8,0-1.917,1.245l-.008.141a.96.96,0,0,0,.315.739A1.225,1.225,0,0,0,104.05,16.332Zm9.629-.1a1.573,1.573,0,0,0,1.079-.365,1.28,1.28,0,0,0,.432-.971h2.25a3.077,3.077,0,0,1-.5,1.673,3.286,3.286,0,0,1-1.341,1.179,4.2,4.2,0,0,1-1.88.419,3.9,3.9,0,0,1-3.038-1.224,4.845,4.845,0,0,1-1.112-3.383V13.4a4.79,4.79,0,0,1,1.1-3.312,3.854,3.854,0,0,1,3.03-1.237,3.778,3.778,0,0,1,2.7.959,3.4,3.4,0,0,1,1.033,2.552h-2.25a1.648,1.648,0,0,0-.432-1.139,1.6,1.6,0,0,0-2.362.173,3.541,3.541,0,0,0-.427,1.983v.249a3.586,3.586,0,0,0,.423,2A1.463,1.463,0,0,0,113.679,16.232Zm9.264,1.934a4.409,4.409,0,0,1-3.217-1.212,4.308,4.308,0,0,1-1.241-3.229v-.232a5.426,5.426,0,0,1,.523-2.42,3.838,3.838,0,0,1,1.482-1.644,4.159,4.159,0,0,1,2.187-.577,3.727,3.727,0,0,1,2.9,1.162,4.722,4.722,0,0,1,1.058,3.3v.979h-5.719a2.229,2.229,0,0,0,.7,1.411,2.12,2.12,0,0,0,1.482.531,2.589,2.589,0,0,0,2.167-1l1.179,1.32a3.6,3.6,0,0,1-1.461,1.191A4.793,4.793,0,0,1,122.943,18.166Zm-.274-7.379a1.5,1.5,0,0,0-1.158.484,2.5,2.5,0,0,0-.569,1.384h3.337v-.192a1.786,1.786,0,0,0-.432-1.238A1.547,1.547,0,0,0,122.669,10.787Z" transform="translate(1219 9360.063)" fill="#12263f"/>
    <path id="Trazado_595562" data-name="Trazado 595562" d="M10.177,7.931h-3.7V18H3.984V7.931H.332V5.914h9.845ZM13.97,18H11.563V9.019H13.97ZM11.422,6.694a1.181,1.181,0,0,1,.361-.888,1.356,1.356,0,0,1,.984-.349,1.36,1.36,0,0,1,.979.349,1.175,1.175,0,0,1,.365.888,1.178,1.178,0,0,1-.369.9,1.539,1.539,0,0,1-1.951,0A1.178,1.178,0,0,1,11.422,6.694ZM20.08,18.166a4.409,4.409,0,0,1-3.217-1.212,4.308,4.308,0,0,1-1.241-3.229v-.232a5.426,5.426,0,0,1,.523-2.42,3.838,3.838,0,0,1,1.482-1.644,4.159,4.159,0,0,1,2.187-.577,3.727,3.727,0,0,1,2.9,1.162,4.722,4.722,0,0,1,1.058,3.3v.979H18.054a2.229,2.229,0,0,0,.7,1.411,2.12,2.12,0,0,0,1.482.531,2.589,2.589,0,0,0,2.167-1l1.179,1.32a3.6,3.6,0,0,1-1.461,1.191A4.793,4.793,0,0,1,20.08,18.166Zm-.274-7.379a1.5,1.5,0,0,0-1.158.484,2.5,2.5,0,0,0-.569,1.384h3.337v-.192a1.786,1.786,0,0,0-.432-1.238A1.547,1.547,0,0,0,19.806,10.787Zm7.537-1.768.075,1.038A3.136,3.136,0,0,1,30,8.853a2.606,2.606,0,0,1,2.125.838,3.912,3.912,0,0,1,.714,2.507V18h-2.4V12.256a1.556,1.556,0,0,0-.332-1.108A1.486,1.486,0,0,0,29,10.8a1.65,1.65,0,0,0-1.519.863V18h-2.4V9.019ZM38.79,18.166a4.409,4.409,0,0,1-3.217-1.212,4.308,4.308,0,0,1-1.241-3.229v-.232a5.426,5.426,0,0,1,.523-2.42,3.838,3.838,0,0,1,1.482-1.644,4.159,4.159,0,0,1,2.187-.577,3.727,3.727,0,0,1,2.9,1.162,4.722,4.722,0,0,1,1.058,3.3v.979H36.764a2.229,2.229,0,0,0,.7,1.411,2.12,2.12,0,0,0,1.482.531,2.589,2.589,0,0,0,2.167-1l1.179,1.32a3.6,3.6,0,0,1-1.461,1.191A4.793,4.793,0,0,1,38.79,18.166Zm-.274-7.379a1.5,1.5,0,0,0-1.158.484,2.5,2.5,0,0,0-.569,1.384h3.337v-.192a1.786,1.786,0,0,0-.432-1.238A1.547,1.547,0,0,0,38.516,10.787Zm17.647,2.806a5.387,5.387,0,0,1-.942,3.324,3.021,3.021,0,0,1-2.544,1.249,2.8,2.8,0,0,1-2.2-.946v4.233h-2.4V9.019H50.3l.083.88A2.819,2.819,0,0,1,52.66,8.853a3.041,3.041,0,0,1,2.582,1.229,5.532,5.532,0,0,1,.921,3.387Zm-2.4-.174a3.535,3.535,0,0,0-.444-1.934,1.446,1.446,0,0,0-1.291-.681,1.571,1.571,0,0,0-1.552.863v3.677a1.6,1.6,0,0,0,1.569.888Q53.764,16.232,53.764,13.418Zm8.932-2.15a6.517,6.517,0,0,0-.863-.066,1.757,1.757,0,0,0-1.785.921V18h-2.4V9.019h2.266l.066,1.071a2.223,2.223,0,0,1,2-1.237,2.514,2.514,0,0,1,.747.108Zm5.288,6.9a4.409,4.409,0,0,1-3.217-1.212,4.308,4.308,0,0,1-1.241-3.229v-.232a5.426,5.426,0,0,1,.523-2.42,3.838,3.838,0,0,1,1.482-1.644,4.159,4.159,0,0,1,2.187-.577,3.727,3.727,0,0,1,2.9,1.162,4.722,4.722,0,0,1,1.058,3.3v.979H65.958a2.229,2.229,0,0,0,.7,1.411,2.12,2.12,0,0,0,1.482.531,2.589,2.589,0,0,0,2.167-1l1.179,1.32a3.6,3.6,0,0,1-1.461,1.191A4.793,4.793,0,0,1,67.983,18.166Zm-.274-7.379a1.5,1.5,0,0,0-1.158.484,2.5,2.5,0,0,0-.569,1.384H69.32v-.192a1.786,1.786,0,0,0-.432-1.238A1.547,1.547,0,0,0,67.709,10.787ZM77.9,15.518a.773.773,0,0,0-.436-.693,4.95,4.95,0,0,0-1.4-.452q-3.2-.672-3.2-2.723a2.468,2.468,0,0,1,.992-2,4,4,0,0,1,2.594-.8,4.307,4.307,0,0,1,2.735.805A2.538,2.538,0,0,1,80.21,11.75h-2.4a1.161,1.161,0,0,0-.332-.851,1.405,1.405,0,0,0-1.038-.336,1.436,1.436,0,0,0-.938.274.865.865,0,0,0-.332.7.739.739,0,0,0,.378.643,3.885,3.885,0,0,0,1.274.423,10.407,10.407,0,0,1,1.511.4,2.482,2.482,0,0,1,1.9,2.416,2.343,2.343,0,0,1-1.054,1.988,4.548,4.548,0,0,1-2.723.76,4.75,4.75,0,0,1-2-.4,3.363,3.363,0,0,1-1.374-1.1,2.565,2.565,0,0,1-.5-1.515h2.274a1.252,1.252,0,0,0,.473.979,1.877,1.877,0,0,0,1.179.34A1.737,1.737,0,0,0,77.55,16.2.814.814,0,0,0,77.9,15.518Zm8.01,2.648A4.409,4.409,0,0,1,82.7,16.954a4.308,4.308,0,0,1-1.241-3.229v-.232a5.426,5.426,0,0,1,.523-2.42A3.838,3.838,0,0,1,83.46,9.429a4.159,4.159,0,0,1,2.187-.577,3.727,3.727,0,0,1,2.9,1.162,4.722,4.722,0,0,1,1.058,3.3v.979H83.888a2.229,2.229,0,0,0,.7,1.411,2.12,2.12,0,0,0,1.482.531,2.589,2.589,0,0,0,2.167-1l1.179,1.32a3.6,3.6,0,0,1-1.461,1.191A4.793,4.793,0,0,1,85.913,18.166Zm-.274-7.379a1.5,1.5,0,0,0-1.158.484,2.5,2.5,0,0,0-.569,1.384H87.25v-.192a1.786,1.786,0,0,0-.432-1.238A1.547,1.547,0,0,0,85.639,10.787Zm7.537-1.768.075,1.038a3.136,3.136,0,0,1,2.582-1.2,2.606,2.606,0,0,1,2.125.838,3.912,3.912,0,0,1,.714,2.507V18h-2.4V12.256a1.556,1.556,0,0,0-.332-1.108,1.486,1.486,0,0,0-1.1-.344,1.65,1.65,0,0,0-1.519.863V18h-2.4V9.019Zm11.048,7.213a1.573,1.573,0,0,0,1.079-.365,1.28,1.28,0,0,0,.432-.971h2.25a3.077,3.077,0,0,1-.5,1.673,3.286,3.286,0,0,1-1.341,1.179,4.2,4.2,0,0,1-1.88.419,3.9,3.9,0,0,1-3.038-1.224,4.845,4.845,0,0,1-1.112-3.383V13.4a4.79,4.79,0,0,1,1.1-3.312,3.854,3.854,0,0,1,3.03-1.237,3.778,3.778,0,0,1,2.7.959,3.4,3.4,0,0,1,1.033,2.552h-2.25a1.648,1.648,0,0,0-.432-1.139,1.6,1.6,0,0,0-2.362.173,3.541,3.541,0,0,0-.427,1.983v.249a3.586,3.586,0,0,0,.423,2A1.463,1.463,0,0,0,104.225,16.232ZM111.886,18h-2.407V9.019h2.407ZM109.338,6.694a1.181,1.181,0,0,1,.361-.888,1.556,1.556,0,0,1,1.963,0,1.175,1.175,0,0,1,.365.888,1.178,1.178,0,0,1-.369.9,1.539,1.539,0,0,1-1.951,0A1.178,1.178,0,0,1,109.338,6.694ZM119.066,18a2.664,2.664,0,0,1-.241-.805,2.9,2.9,0,0,1-2.266.971,3.189,3.189,0,0,1-2.187-.764,2.456,2.456,0,0,1-.867-1.926,2.538,2.538,0,0,1,1.058-2.191,5.222,5.222,0,0,1,3.059-.772h1.1V12a1.48,1.48,0,0,0-.32-1,1.257,1.257,0,0,0-1.009-.374,1.429,1.429,0,0,0-.95.291.987.987,0,0,0-.344.8h-2.4a2.41,2.41,0,0,1,.481-1.444,3.182,3.182,0,0,1,1.361-1.042,4.961,4.961,0,0,1,1.976-.378,3.92,3.92,0,0,1,2.635.834,2.918,2.918,0,0,1,.975,2.345v3.893a4.294,4.294,0,0,0,.357,1.934V18Zm-1.984-1.668a2.066,2.066,0,0,0,.979-.237,1.554,1.554,0,0,0,.664-.635V13.916h-.9q-1.8,0-1.917,1.245l-.008.141a.96.96,0,0,0,.315.739A1.225,1.225,0,0,0,117.083,16.332Z" transform="translate(537 9013.384)" fill="#12263f"/>
    <path id="Trazado_595566" data-name="Trazado 595566" d="M10.567,13.974a4.277,4.277,0,0,1-1.44,3.071A5.058,5.058,0,0,1,5.7,18.166,4.548,4.548,0,0,1,2.046,16.6a6.416,6.416,0,0,1-1.332-4.3v-.739A7.245,7.245,0,0,1,1.328,8.5,4.6,4.6,0,0,1,3.084,6.458a4.918,4.918,0,0,1,2.652-.71,4.927,4.927,0,0,1,3.37,1.121,4.6,4.6,0,0,1,1.478,3.146H8.093a2.524,2.524,0,0,0-.652-1.7A2.413,2.413,0,0,0,5.736,7.79a2.116,2.116,0,0,0-1.864.892,5,5,0,0,0-.635,2.768v.913a5.352,5.352,0,0,0,.594,2.864,2.077,2.077,0,0,0,1.872.9,2.458,2.458,0,0,0,1.722-.527,2.381,2.381,0,0,0,.652-1.631Zm6.524-2.706a6.517,6.517,0,0,0-.863-.066,1.757,1.757,0,0,0-1.785.921V18h-2.4V9.019h2.266l.066,1.071a2.223,2.223,0,0,1,2-1.237,2.514,2.514,0,0,1,.747.108Zm5.288,6.9a4.409,4.409,0,0,1-3.217-1.212,4.308,4.308,0,0,1-1.241-3.229v-.232a5.426,5.426,0,0,1,.523-2.42,3.838,3.838,0,0,1,1.482-1.644,4.159,4.159,0,0,1,2.187-.577,3.727,3.727,0,0,1,2.9,1.162,4.722,4.722,0,0,1,1.058,3.3v.979H20.354a2.229,2.229,0,0,0,.7,1.411,2.12,2.12,0,0,0,1.482.531,2.589,2.589,0,0,0,2.167-1l1.179,1.32a3.6,3.6,0,0,1-1.461,1.191A4.793,4.793,0,0,1,22.379,18.166ZM22.1,10.787a1.5,1.5,0,0,0-1.158.484,2.5,2.5,0,0,0-.569,1.384h3.337v-.192a1.786,1.786,0,0,0-.432-1.238A1.547,1.547,0,0,0,22.1,10.787ZM32.639,18a2.664,2.664,0,0,1-.241-.805,2.9,2.9,0,0,1-2.266.971,3.189,3.189,0,0,1-2.187-.764,2.456,2.456,0,0,1-.867-1.926,2.538,2.538,0,0,1,1.058-2.191,5.222,5.222,0,0,1,3.059-.772h1.1V12a1.48,1.48,0,0,0-.32-1,1.257,1.257,0,0,0-1.009-.374,1.429,1.429,0,0,0-.95.291.987.987,0,0,0-.344.8h-2.4a2.41,2.41,0,0,1,.481-1.444A3.182,3.182,0,0,1,29.119,9.23a4.961,4.961,0,0,1,1.976-.378,3.92,3.92,0,0,1,2.635.834,2.918,2.918,0,0,1,.975,2.345v3.893a4.294,4.294,0,0,0,.357,1.934V18Zm-1.984-1.668a2.066,2.066,0,0,0,.979-.237,1.554,1.554,0,0,0,.664-.635V13.916h-.9q-1.8,0-1.917,1.245l-.008.141a.96.96,0,0,0,.315.739A1.225,1.225,0,0,0,30.655,16.332ZM39.42,6.811V9.019h1.536v1.76H39.42v4.482a1.07,1.07,0,0,0,.191.714.959.959,0,0,0,.73.216,3.826,3.826,0,0,0,.706-.058V17.95a4.939,4.939,0,0,1-1.453.216,2.29,2.29,0,0,1-2.573-2.548V10.778H35.71V9.019h1.312V6.811ZM44.824,18H42.417V9.019h2.407ZM42.276,6.694a1.181,1.181,0,0,1,.361-.888,1.556,1.556,0,0,1,1.963,0,1.175,1.175,0,0,1,.365.888,1.178,1.178,0,0,1-.369.9,1.539,1.539,0,0,1-1.951,0A1.178,1.178,0,0,1,42.276,6.694Zm7.886,8.375L51.83,9.019h2.507L51.307,18H49.016l-3.03-8.981h2.507Zm4.731-1.644a5.327,5.327,0,0,1,.515-2.382,3.767,3.767,0,0,1,1.482-1.619,4.323,4.323,0,0,1,2.245-.573A4.09,4.09,0,0,1,62.1,9.965a4.464,4.464,0,0,1,1.282,3.021l.017.614a4.694,4.694,0,0,1-1.154,3.316,4.472,4.472,0,0,1-6.2,0,4.777,4.777,0,0,1-1.158-3.387Zm2.4.17a3.357,3.357,0,0,0,.481,1.958,1.73,1.73,0,0,0,2.739.008A3.674,3.674,0,0,0,61,13.422a3.324,3.324,0,0,0-.49-1.945,1.592,1.592,0,0,0-1.378-.69,1.566,1.566,0,0,0-1.361.686A3.735,3.735,0,0,0,57.292,13.6Z" transform="translate(737 9013.384)" fill="#12263f"/>
    <path id="Trazado_595569" data-name="Trazado 595569" d="M3.727,18H1.237V5.914h2.49ZM8.085,9.019l.075,1.038a3.136,3.136,0,0,1,2.582-1.2,2.606,2.606,0,0,1,2.125.838A3.912,3.912,0,0,1,13.58,12.2V18h-2.4V12.256a1.556,1.556,0,0,0-.332-1.108,1.486,1.486,0,0,0-1.1-.344,1.65,1.65,0,0,0-1.519.863V18h-2.4V9.019ZM18.27,6.811V9.019h1.536v1.76H18.27v4.482a1.07,1.07,0,0,0,.191.714.959.959,0,0,0,.73.216,3.826,3.826,0,0,0,.706-.058V17.95a4.938,4.938,0,0,1-1.453.216,2.29,2.29,0,0,1-2.573-2.548V10.778H14.56V9.019h1.312V6.811Zm8.251,10.276a3.008,3.008,0,0,1-2.457,1.079,2.837,2.837,0,0,1-2.2-.83,3.543,3.543,0,0,1-.776-2.432V9.019h2.4v5.809q0,1.4,1.278,1.4a1.732,1.732,0,0,0,1.677-.848V9.019h2.407V18H26.587ZM33.187,18H30.779V9.019h2.407ZM30.638,6.694A1.181,1.181,0,0,1,31,5.806a1.556,1.556,0,0,1,1.963,0,1.175,1.175,0,0,1,.365.888,1.178,1.178,0,0,1-.369.9,1.539,1.539,0,0,1-1.951,0A1.178,1.178,0,0,1,30.638,6.694Zm7.4.116V9.019H39.57v1.76H38.034v4.482a1.07,1.07,0,0,0,.191.714.959.959,0,0,0,.73.216,3.826,3.826,0,0,0,.706-.058V17.95a4.939,4.939,0,0,1-1.453.216,2.29,2.29,0,0,1-2.573-2.548V10.778H34.324V9.019h1.312V6.811ZM43.438,18H41.031V9.019h2.407ZM40.89,6.694a1.181,1.181,0,0,1,.361-.888,1.556,1.556,0,0,1,1.963,0,1.175,1.175,0,0,1,.365.888,1.178,1.178,0,0,1-.369.9,1.539,1.539,0,0,1-1.951,0A1.178,1.178,0,0,1,40.89,6.694Zm7.886,8.375,1.668-6.051h2.507L49.921,18H47.63L44.6,9.019h2.507Zm4.731-1.644a5.327,5.327,0,0,1,.515-2.382A3.767,3.767,0,0,1,55.5,9.425a4.323,4.323,0,0,1,2.245-.573,4.09,4.09,0,0,1,2.968,1.112A4.464,4.464,0,0,1,62,12.986l.017.614a4.694,4.694,0,0,1-1.154,3.316,4.472,4.472,0,0,1-6.2,0,4.777,4.777,0,0,1-1.158-3.387Zm2.4.17a3.357,3.357,0,0,0,.481,1.958,1.73,1.73,0,0,0,2.739.008,3.674,3.674,0,0,0,.49-2.141,3.324,3.324,0,0,0-.49-1.945,1.592,1.592,0,0,0-1.378-.69,1.566,1.566,0,0,0-1.361.686A3.735,3.735,0,0,0,55.906,13.6Z" transform="translate(929.5 9013.384)" fill="#12263f"/>
    <path id="Trazado_595572" data-name="Trazado 595572" d="M7.9,15.51H3.536L2.706,18H.058l4.5-12.086H6.865L11.389,18H8.741ZM4.208,13.493H7.23L5.711,8.969Zm16.236.1a5.387,5.387,0,0,1-.942,3.324,3.021,3.021,0,0,1-2.544,1.249,2.8,2.8,0,0,1-2.2-.946v4.233h-2.4V9.019h2.225l.083.88a2.819,2.819,0,0,1,2.274-1.046,3.041,3.041,0,0,1,2.582,1.229,5.532,5.532,0,0,1,.921,3.387Zm-2.4-.174a3.535,3.535,0,0,0-.444-1.934,1.446,1.446,0,0,0-1.291-.681,1.571,1.571,0,0,0-1.552.863v3.677a1.6,1.6,0,0,0,1.569.888Q18.046,16.232,18.046,13.418Zm8.932-2.15a6.517,6.517,0,0,0-.863-.066,1.757,1.757,0,0,0-1.785.921V18h-2.4V9.019H24.2l.066,1.071a2.223,2.223,0,0,1,2-1.237,2.514,2.514,0,0,1,.747.108Zm.481,2.158a5.327,5.327,0,0,1,.515-2.382,3.768,3.768,0,0,1,1.482-1.619A4.323,4.323,0,0,1,31.7,8.853a4.09,4.09,0,0,1,2.968,1.112,4.464,4.464,0,0,1,1.282,3.021l.017.614a4.694,4.694,0,0,1-1.154,3.316,4.011,4.011,0,0,1-3.1,1.249,4.031,4.031,0,0,1-3.1-1.245,4.777,4.777,0,0,1-1.158-3.387Zm2.4.17a3.357,3.357,0,0,0,.481,1.958,1.73,1.73,0,0,0,2.739.008,3.674,3.674,0,0,0,.49-2.141,3.324,3.324,0,0,0-.49-1.945,1.592,1.592,0,0,0-1.378-.69,1.566,1.566,0,0,0-1.361.686A3.735,3.735,0,0,0,29.858,13.6ZM40.682,15.07l1.668-6.051h2.507L41.828,18H39.537l-3.03-8.981h2.507Zm9.363,3.1a4.409,4.409,0,0,1-3.217-1.212,4.308,4.308,0,0,1-1.241-3.229v-.232a5.426,5.426,0,0,1,.523-2.42,3.838,3.838,0,0,1,1.482-1.644,4.159,4.159,0,0,1,2.187-.577,3.727,3.727,0,0,1,2.9,1.162,4.722,4.722,0,0,1,1.058,3.3v.979H48.02a2.229,2.229,0,0,0,.7,1.411,2.12,2.12,0,0,0,1.482.531,2.589,2.589,0,0,0,2.167-1l1.179,1.32a3.6,3.6,0,0,1-1.461,1.191A4.793,4.793,0,0,1,50.045,18.166Zm-.274-7.379a1.5,1.5,0,0,0-1.158.484,2.5,2.5,0,0,0-.569,1.384h3.337v-.192a1.786,1.786,0,0,0-.432-1.238A1.547,1.547,0,0,0,49.771,10.787Zm9.064,5.445a1.573,1.573,0,0,0,1.079-.365,1.28,1.28,0,0,0,.432-.971H62.6a3.077,3.077,0,0,1-.5,1.673,3.286,3.286,0,0,1-1.341,1.179,4.2,4.2,0,0,1-1.88.419,3.9,3.9,0,0,1-3.038-1.224,4.845,4.845,0,0,1-1.112-3.383V13.4a4.79,4.79,0,0,1,1.1-3.312,3.854,3.854,0,0,1,3.03-1.237,3.778,3.778,0,0,1,2.7.959A3.4,3.4,0,0,1,62.6,12.364h-2.25a1.648,1.648,0,0,0-.432-1.139,1.6,1.6,0,0,0-2.362.173,3.541,3.541,0,0,0-.427,1.983v.249a3.586,3.586,0,0,0,.423,2A1.463,1.463,0,0,0,58.836,16.232ZM66.307,10a2.994,2.994,0,0,1,2.4-1.146q2.922,0,2.963,3.4V18h-2.4V12.314a1.669,1.669,0,0,0-.332-1.141,1.423,1.423,0,0,0-1.1-.369,1.633,1.633,0,0,0-1.527.813V18h-2.4V5.25h2.4Zm12.376,8a2.664,2.664,0,0,1-.241-.805,2.9,2.9,0,0,1-2.266.971,3.189,3.189,0,0,1-2.187-.764,2.456,2.456,0,0,1-.867-1.926,2.538,2.538,0,0,1,1.058-2.191,5.222,5.222,0,0,1,3.059-.772h1.1V12a1.48,1.48,0,0,0-.32-1,1.257,1.257,0,0,0-1.009-.374,1.429,1.429,0,0,0-.95.291.987.987,0,0,0-.344.8h-2.4a2.41,2.41,0,0,1,.481-1.444A3.182,3.182,0,0,1,75.164,9.23a4.961,4.961,0,0,1,1.976-.378,3.92,3.92,0,0,1,2.635.834,2.918,2.918,0,0,1,.975,2.345v3.893a4.294,4.294,0,0,0,.357,1.934V18ZM76.7,16.332a2.066,2.066,0,0,0,.979-.237,1.554,1.554,0,0,0,.664-.635V13.916h-.9q-1.8,0-1.917,1.245l-.008.141a.96.96,0,0,0,.315.739A1.225,1.225,0,0,0,76.7,16.332ZM90.96,18.166a4.409,4.409,0,0,1-3.217-1.212A4.308,4.308,0,0,1,86.5,13.725v-.232a5.426,5.426,0,0,1,.523-2.42,3.838,3.838,0,0,1,1.482-1.644,4.159,4.159,0,0,1,2.187-.577,3.727,3.727,0,0,1,2.9,1.162,4.722,4.722,0,0,1,1.058,3.3v.979H88.935a2.229,2.229,0,0,0,.7,1.411,2.12,2.12,0,0,0,1.482.531,2.589,2.589,0,0,0,2.167-1l1.179,1.32A3.6,3.6,0,0,1,93,17.739,4.793,4.793,0,0,1,90.96,18.166Zm-.274-7.379a1.5,1.5,0,0,0-1.158.484,2.5,2.5,0,0,0-.569,1.384H92.3v-.192a1.786,1.786,0,0,0-.432-1.238A1.547,1.547,0,0,0,90.686,10.787ZM98.547,18H96.14V5.25h2.407Zm8.458-8.981.075,1a3.156,3.156,0,0,1,2.582-1.17,2.4,2.4,0,0,1,2.382,1.37,3.084,3.084,0,0,1,2.7-1.37,2.679,2.679,0,0,1,2.175.851,3.911,3.911,0,0,1,.714,2.561V18h-2.407V12.272a1.71,1.71,0,0,0-.3-1.116,1.324,1.324,0,0,0-1.054-.353,1.5,1.5,0,0,0-1.494,1.029L112.384,18h-2.4V12.281a1.689,1.689,0,0,0-.307-1.129,1.337,1.337,0,0,0-1.046-.349,1.555,1.555,0,0,0-1.478.847V18h-2.4V9.019ZM119.1,13.426a5.326,5.326,0,0,1,.515-2.382A3.768,3.768,0,0,1,121.1,9.425a4.323,4.323,0,0,1,2.245-.573,4.09,4.09,0,0,1,2.968,1.112,4.464,4.464,0,0,1,1.282,3.021l.017.614a4.694,4.694,0,0,1-1.154,3.316,4.472,4.472,0,0,1-6.2,0,4.777,4.777,0,0,1-1.158-3.387Zm2.4.17a3.357,3.357,0,0,0,.481,1.958,1.73,1.73,0,0,0,2.739.008,3.674,3.674,0,0,0,.49-2.141,3.324,3.324,0,0,0-.49-1.945,1.592,1.592,0,0,0-1.378-.69,1.566,1.566,0,0,0-1.361.686A3.736,3.736,0,0,0,121.5,13.6Zm9.836-4.578.075,1a3.156,3.156,0,0,1,2.582-1.17,2.4,2.4,0,0,1,2.382,1.37,3.084,3.084,0,0,1,2.7-1.37,2.679,2.679,0,0,1,2.175.851,3.911,3.911,0,0,1,.714,2.561V18h-2.407V12.272a1.71,1.71,0,0,0-.3-1.116A1.324,1.324,0,0,0,138.2,10.8a1.5,1.5,0,0,0-1.494,1.029L136.714,18h-2.4V12.281a1.689,1.689,0,0,0-.307-1.129,1.337,1.337,0,0,0-1.046-.349,1.555,1.555,0,0,0-1.478.847V18h-2.4V9.019Zm16.6,9.147a4.409,4.409,0,0,1-3.217-1.212,4.308,4.308,0,0,1-1.241-3.229v-.232a5.426,5.426,0,0,1,.523-2.42,3.838,3.838,0,0,1,1.482-1.644,4.159,4.159,0,0,1,2.187-.577,3.727,3.727,0,0,1,2.9,1.162,4.722,4.722,0,0,1,1.058,3.3v.979h-5.719a2.228,2.228,0,0,0,.7,1.411,2.12,2.12,0,0,0,1.482.531,2.589,2.589,0,0,0,2.167-1l1.179,1.32a3.6,3.6,0,0,1-1.461,1.191A4.793,4.793,0,0,1,147.937,18.166Zm-.274-7.379a1.5,1.5,0,0,0-1.158.484,2.5,2.5,0,0,0-.569,1.384h3.337v-.192a1.786,1.786,0,0,0-.432-1.238A1.547,1.547,0,0,0,147.663,10.787ZM155.2,9.019l.075,1.038a3.136,3.136,0,0,1,2.582-1.2,2.606,2.606,0,0,1,2.125.838,3.912,3.912,0,0,1,.714,2.507V18h-2.4V12.256a1.556,1.556,0,0,0-.332-1.108,1.486,1.486,0,0,0-1.1-.344,1.65,1.65,0,0,0-1.519.863V18h-2.4V9.019Zm10.185-2.208V9.019h1.536v1.76h-1.536v4.482a1.07,1.07,0,0,0,.191.714.959.959,0,0,0,.73.216,3.826,3.826,0,0,0,.706-.058V17.95a4.939,4.939,0,0,1-1.453.216,2.29,2.29,0,0,1-2.573-2.548V10.778h-1.312V9.019h1.312V6.811Zm2.25,6.616a5.327,5.327,0,0,1,.515-2.382,3.767,3.767,0,0,1,1.482-1.619,4.323,4.323,0,0,1,2.245-.573,4.09,4.09,0,0,1,2.968,1.112,4.464,4.464,0,0,1,1.282,3.021l.017.614a4.694,4.694,0,0,1-1.154,3.316,4.472,4.472,0,0,1-6.2,0,4.777,4.777,0,0,1-1.158-3.387Zm2.4.17a3.357,3.357,0,0,0,.481,1.958,1.73,1.73,0,0,0,2.739.008,3.674,3.674,0,0,0,.49-2.141,3.324,3.324,0,0,0-.49-1.945,1.592,1.592,0,0,0-1.378-.69,1.566,1.566,0,0,0-1.361.686A3.735,3.735,0,0,0,170.033,13.6Z" transform="translate(1118 9013.384)" fill="#12263f"/>
    <path id="Trazado_595557" data-name="Trazado 595557" d="M0,0H24V24H0Z" transform="translate(314 9011.573)" fill="#ea3584"/>
    <path id="Trazado_595573" data-name="Trazado 595573" d="M0,0H24V24H0Z" transform="translate(413 9358.252)" fill="#ea3584"/>
    <path id="Trazado_595574" data-name="Trazado 595574" d="M0,0H24V24H0Z" transform="translate(605 9358.252)" fill="#ea3584"/>
    <path id="Trazado_595575" data-name="Trazado 595575" d="M0,0H24V24H0Z" transform="translate(800 9358.252)" fill="#ea3584"/>
    <path id="Trazado_595576" data-name="Trazado 595576" d="M0,0H24V24H0Z" transform="translate(995 9358.252)" fill="#ea3584"/>
    <path id="Trazado_595577" data-name="Trazado 595577" d="M0,0H24V24H0Z" transform="translate(1188 9358.252)" fill="#ea3584"/>
    <path id="Trazado_595561" data-name="Trazado 595561" d="M0,0H24V24H0Z" transform="translate(506 9011.573)" fill="#ea3584"/>
    <path id="Trazado_595564" data-name="Trazado 595564" d="M0,0H24V24H0Z" transform="translate(706 9011.573)" fill="#ea3584"/>
    <path id="Trazado_595568" data-name="Trazado 595568" d="M0,0H24V24H0Z" transform="translate(898.5 9011.573)" fill="#ea3584"/>
    <path id="Trazado_595570" data-name="Trazado 595570" d="M0,0H24V24H0Z" transform="translate(1087 9011.573)" fill="#ea3584"/>
    <path id="Trazado_595558" data-name="Trazado 595558" d="M14.272,18h-2.4V8.753L9.01,9.641V7.69L14.015,5.9h.257Z" transform="translate(313 9013.573)" fill="#fff"/>
    <path id="Trazado_595583" data-name="Trazado 595583" d="M16.729,18H8.445V16.356l3.91-4.167a9.645,9.645,0,0,0,1.191-1.536,2.467,2.467,0,0,0,.386-1.245,1.846,1.846,0,0,0-.407-1.266,1.468,1.468,0,0,0-1.162-.461,1.584,1.584,0,0,0-1.282.56,2.219,2.219,0,0,0-.469,1.473H8.2A3.962,3.962,0,0,1,8.731,7.7a3.715,3.715,0,0,1,1.49-1.432A4.529,4.529,0,0,1,12.4,5.748a4.288,4.288,0,0,1,2.9.9,3.172,3.172,0,0,1,1.033,2.532A4.064,4.064,0,0,1,15.874,11a10.148,10.148,0,0,1-1.594,2.167l-2.748,2.9h5.2Z" transform="translate(412 9360.252)" fill="#fff"/>
    <path id="Trazado_595584" data-name="Trazado 595584" d="M15.542,13.451h1.37v1.934h-1.37V18h-2.4V15.385H8.188L8.08,13.875l5.039-7.96h2.424Zm-5.072,0h2.673V9.185l-.158.274Z" transform="translate(604 9360.252)" fill="#fff"/>
    <path id="Trazado_595585" data-name="Trazado 595585" d="M14.953,5.79V7.765H14.72a4.075,4.075,0,0,0-2.619.847,3.44,3.44,0,0,0-1.191,2.283,3.267,3.267,0,0,1,2.432-.979,3.078,3.078,0,0,1,2.507,1.129,4.525,4.525,0,0,1,.93,2.972,4.451,4.451,0,0,1-.51,2.133,3.661,3.661,0,0,1-1.444,1.486,4.2,4.2,0,0,1-2.113.531,3.919,3.919,0,0,1-3.084-1.328,5.155,5.155,0,0,1-1.175-3.544V12.43A7.758,7.758,0,0,1,9.2,8.956,5.447,5.447,0,0,1,11.33,6.624a6.251,6.251,0,0,1,3.225-.834Zm-2.341,6.06a1.917,1.917,0,0,0-1.054.3,1.822,1.822,0,0,0-.7.8v.729a3.23,3.23,0,0,0,.473,1.877,1.529,1.529,0,0,0,1.328.675,1.512,1.512,0,0,0,1.249-.609,2.484,2.484,0,0,0,.477-1.578,2.479,2.479,0,0,0-.481-1.591A1.569,1.569,0,0,0,12.612,11.849Z" transform="translate(799 9360.252)" fill="#fff"/>
    <path id="Trazado_595586" data-name="Trazado 595586" d="M16.323,9.126a2.811,2.811,0,0,1-.44,1.561,3.166,3.166,0,0,1-1.212,1.087,3.5,3.5,0,0,1,1.395,1.166,2.992,2.992,0,0,1,.515,1.747,3.168,3.168,0,0,1-1.1,2.544,4.445,4.445,0,0,1-2.98.934,4.465,4.465,0,0,1-2.988-.938,3.16,3.16,0,0,1-1.1-2.54,3.011,3.011,0,0,1,.515-1.751,3.442,3.442,0,0,1,1.386-1.162A3.134,3.134,0,0,1,9.1,10.687a2.831,2.831,0,0,1-.436-1.561A3.133,3.133,0,0,1,9.7,6.665a4.052,4.052,0,0,1,2.8-.917,4.079,4.079,0,0,1,2.793.909A3.121,3.121,0,0,1,16.323,9.126Zm-2.15,5.387a1.74,1.74,0,0,0-.457-1.262,1.628,1.628,0,0,0-1.229-.473,1.625,1.625,0,0,0-1.22.469,1.737,1.737,0,0,0-.457,1.266,1.736,1.736,0,0,0,.448,1.245,1.633,1.633,0,0,0,1.245.473,1.629,1.629,0,0,0,1.224-.457A1.733,1.733,0,0,0,14.173,14.514Zm-.249-5.271A1.66,1.66,0,0,0,13.55,8.11,1.325,1.325,0,0,0,12.5,7.682,1.335,1.335,0,0,0,11.45,8.1a1.651,1.651,0,0,0-.374,1.146A1.735,1.735,0,0,0,11.45,10.4a1.307,1.307,0,0,0,1.054.44,1.3,1.3,0,0,0,1.05-.44A1.747,1.747,0,0,0,13.924,9.243Z" transform="translate(994 9360.252)" fill="#fff"/>
    <path id="Trazado_595587" data-name="Trazado 595587" d="M9.4,18H7V8.753l-2.864.888V7.69L9.138,5.9H9.4Zm12.061-5a6.123,6.123,0,0,1-1.038,3.835,3.622,3.622,0,0,1-3.038,1.328,3.647,3.647,0,0,1-3.021-1.3,5.943,5.943,0,0,1-1.071-3.735V10.9a6.042,6.042,0,0,1,1.05-3.843,3.649,3.649,0,0,1,3.026-1.312,3.652,3.652,0,0,1,3.021,1.3,5.925,5.925,0,0,1,1.071,3.731Zm-2.4-2.446a4.426,4.426,0,0,0-.411-2.189,1.389,1.389,0,0,0-1.282-.685,1.364,1.364,0,0,0-1.249.652,4.142,4.142,0,0,0-.427,2.04v2.941a4.646,4.646,0,0,0,.4,2.2,1.37,1.37,0,0,0,1.291.719,1.347,1.347,0,0,0,1.27-.69,4.535,4.535,0,0,0,.407-2.11Z" transform="translate(1187 9360.252)" fill="#fff"/>
    <path id="Trazado_595560" data-name="Trazado 595560" d="M10.885,10.895h1.278a1.8,1.8,0,0,0,1.353-.457,1.673,1.673,0,0,0,.44-1.212,1.479,1.479,0,0,0-.436-1.137,1.689,1.689,0,0,0-1.2-.407,1.77,1.77,0,0,0-1.154.378,1.208,1.208,0,0,0-.465.984H8.3a2.95,2.95,0,0,1,.51-1.7,3.4,3.4,0,0,1,1.428-1.175,4.765,4.765,0,0,1,2.021-.423,4.519,4.519,0,0,1,3,.917,3.13,3.13,0,0,1,1.087,2.528,2.543,2.543,0,0,1-.506,1.527,3.29,3.29,0,0,1-1.328,1.071,3,3,0,0,1,1.523,1.1,2.972,2.972,0,0,1,.5,1.727,3.181,3.181,0,0,1-1.175,2.582,4.723,4.723,0,0,1-3.109.971A4.478,4.478,0,0,1,9.3,17.211a3.118,3.118,0,0,1-1.15-2.523h2.4a1.39,1.39,0,0,0,.51,1.112,1.881,1.881,0,0,0,1.258.432,1.89,1.89,0,0,0,1.341-.452,1.562,1.562,0,0,0,.486-1.2q0-1.81-1.992-1.81h-1.27Z" transform="translate(505 9013.573)" fill="#fff"/>
    <path id="Trazado_595565" data-name="Trazado 595565" d="M8.8,12.057l.7-6.143h6.773v2H11.467l-.3,2.6a3.8,3.8,0,0,1,1.818-.457,3.484,3.484,0,0,1,2.706,1.071,4.277,4.277,0,0,1,.979,3,4.382,4.382,0,0,1-.494,2.1,3.486,3.486,0,0,1-1.415,1.436,4.418,4.418,0,0,1-2.175.51,4.692,4.692,0,0,1-2.034-.444,3.607,3.607,0,0,1-1.482-1.249,3.4,3.4,0,0,1-.577-1.834h2.374a1.773,1.773,0,0,0,.527,1.175,1.671,1.671,0,0,0,1.183.419,1.475,1.475,0,0,0,1.253-.585,2.711,2.711,0,0,0,.44-1.656,2.242,2.242,0,0,0-.506-1.577,1.858,1.858,0,0,0-1.436-.548,2.077,2.077,0,0,0-1.386.448l-.232.216Z" transform="translate(705 9013.573)" fill="#fff"/>
    <path id="Trazado_595567" data-name="Trazado 595567" d="M16.663,7.253,11.99,18H9.458L14.139,7.848H8.13V5.914h8.533Z" transform="translate(897.5 9013.573)" fill="#fff"/>
    <path id="Trazado_595571" data-name="Trazado 595571" d="M14.056,13.169a3.029,3.029,0,0,1-2.191.921A3.24,3.24,0,0,1,9.3,12.99a4.347,4.347,0,0,1-.963-2.968,4.63,4.63,0,0,1,.519-2.179A3.806,3.806,0,0,1,10.3,6.3,4.019,4.019,0,0,1,12.4,5.748a3.844,3.844,0,0,1,2.125.6,3.929,3.929,0,0,1,1.444,1.718,6.169,6.169,0,0,1,.523,2.565v.888a6.991,6.991,0,0,1-1.5,4.748,5.68,5.68,0,0,1-4.258,1.843l-.589.008v-2l.531-.008Q13.8,15.966,14.056,13.169Zm-1.6-.913a1.678,1.678,0,0,0,1-.3,2,2,0,0,0,.635-.722v-.988a3.3,3.3,0,0,0-.465-1.893,1.443,1.443,0,0,0-1.245-.672,1.4,1.4,0,0,0-1.187.66A2.806,2.806,0,0,0,10.728,10a2.731,2.731,0,0,0,.452,1.623A1.474,1.474,0,0,0,12.454,12.256Z" transform="translate(1086 9013.573)" fill="#fff"/>
    <path id="Trazado_595187" data-name="Trazado 595187" d="M1279.5-2489.169v148.336" transform="translate(-761 11526.414)" fill="none" stroke="#6826cc" stroke-width="2" stroke-dasharray="4"/>
    <path id="Trazado_595191" data-name="Trazado 595191" d="M1279.5-2489.169v148.336" transform="translate(-561 11526.414)" fill="none" stroke="#6826cc" stroke-width="2" stroke-dasharray="4"/>
    <path id="Trazado_595193" data-name="Trazado 595193" d="M1279.5-2489.169v143.988" transform="translate(-368.5 11526.414)" fill="none" stroke="#6826cc" stroke-width="2" stroke-dasharray="4"/>
    <path id="Trazado_595195" data-name="Trazado 595195" d="M1279.5-2489.17v149.187" transform="translate(-180 11526.414)" fill="none" stroke="#6826cc" stroke-width="2" stroke-dasharray="4"/>
    <path id="Trazado_595190" data-name="Trazado 595190" d="M1279.5-2489.169V-2344.7" transform="translate(-953.5 11526.414)" fill="none" stroke="#6826cc" stroke-width="2" stroke-dasharray="4"/>
    <path id="Trazado_595188" data-name="Trazado 595188" d="M1279.5-2489.169v148.336" transform="translate(-662.5 11699.086)" fill="none" stroke="#6826cc" stroke-width="2" stroke-dasharray="4"/>
    <path id="Trazado_595192" data-name="Trazado 595192" d="M1279.5-2489.169v148.336" transform="translate(-467.5 11699.086)" fill="none" stroke="#6826cc" stroke-width="2" stroke-dasharray="4"/>
    <path id="Trazado_595194" data-name="Trazado 595194" d="M1279.5-2489.169v148.336" transform="translate(-272.5 11699.086)" fill="none" stroke="#6826cc" stroke-width="2" stroke-dasharray="4"/>
    <path id="Trazado_595196" data-name="Trazado 595196" d="M1279.5-2489.169v141.279" transform="translate(-78.177 11706.143)" fill="none" stroke="#6826cc" stroke-width="2" stroke-dasharray="4"/>
    <path id="Trazado_595189" data-name="Trazado 595189" d="M1279.5-2489.169v148.336" transform="translate(-854.5 11699.086)" fill="none" stroke="#6826cc" stroke-width="2" stroke-dasharray="4"/>
    <g id="cooperacion" transform="translate(293.977 9212.59)">
      <g id="Grupo_874478" data-name="Grupo 874478" transform="translate(0 3.228)">
        <path id="Trazado_595197" data-name="Trazado 595197" d="M60.805,171.364l-16.769,10a2.933,2.933,0,0,0-1.235,3.56,3.135,3.135,0,0,1-2.351.032l-2.169-.852a4.394,4.394,0,0,0-2.7-.171l-3.324.841q-.193.049-.379.114c-2.031-1.159-3.24-1.506-5.383-.677l-1.924.744a3.143,3.143,0,0,1-2.752-.23l-.643-.379a2.933,2.933,0,0,0-1.39-2.981l-16.769-10A2,2,0,0,0,0,173.078V191.8a3.706,3.706,0,0,0,1.8,3.168l7.322,4.364a2.925,2.925,0,0,0,3.96-.933l.313.185-.949,1.322a3.29,3.29,0,0,0,3.245,5.158,3.287,3.287,0,0,0,3.827,2.745,3.289,3.289,0,0,0,4.61,2.506,3.291,3.291,0,0,0,5.652.944l2.459,1.457a3.29,3.29,0,0,0,4.954-2.54l.1.057a3.293,3.293,0,0,0,4.965-2.665,3.3,3.3,0,0,0,4.161-2.914,3.29,3.29,0,0,0,3.747-5.208l.964-.563a2.926,2.926,0,0,0,3.574.449l1.77-1.055a.935.935,0,0,0-.957-1.606l-1.77,1.055a1.057,1.057,0,0,1-1.253-.127c-.006-.053-7.865-13.186-7.865-13.186a1.058,1.058,0,0,1,.368-1.446l16.769-10a.125.125,0,0,1,.19.108V191.8a1.827,1.827,0,0,1-.888,1.562L59.3,194.413a.935.935,0,0,0,.957,1.606l1.767-1.054a3.706,3.706,0,0,0,1.8-3.168V173.078a2,2,0,0,0-3.017-1.714ZM36.038,185.741a2.538,2.538,0,0,1,1.559.1l2.174.854a5,5,0,0,0,3.951-.137l6.375,10.76-1.033.6a5.005,5.005,0,0,0-.539.369l-13.633-8.074a.935.935,0,0,0-1.411.8v.188a2.489,2.489,0,0,1-2.489,2.489.209.209,0,0,1-.2-.2v-4.437a2.55,2.55,0,0,1,1.369-2.262.935.935,0,0,0,.12-.059,2.567,2.567,0,0,1,.437-.153Zm-25.158,12.1a1.05,1.05,0,0,1-.8-.116L2.757,193.36A1.827,1.827,0,0,1,1.87,191.8V173.078a.115.115,0,0,1,.063-.109A.127.127,0,0,1,2,172.951a.12.12,0,0,1,.063.019l16.77,10a1.058,1.058,0,0,1,.368,1.446l-7.668,12.944A1.049,1.049,0,0,1,10.881,197.841Zm4.468,5.384A1.42,1.42,0,0,1,13.965,201l1.334-1.858a1.417,1.417,0,0,1,.1-.128.94.94,0,0,0,.079-.08,1.42,1.42,0,0,1,2.124,1.865l0,0-1.332,1.855a1.41,1.41,0,0,1-.923.573Zm2.768,2.5a1.42,1.42,0,0,1-.325-1.981l1.334-1.858h0l1.472-2.05a1.411,1.411,0,0,1,.923-.573,1.433,1.433,0,0,1,.233-.019,1.42,1.42,0,0,1,1.15,2.248L20.1,205.4A1.422,1.422,0,0,1,18.116,205.723ZM23,208.717a1.42,1.42,0,0,1-1.383-2.229l0,0,2.8-3.905a1.42,1.42,0,1,1,2.307,1.656l-2.806,3.908A1.411,1.411,0,0,1,23,208.717Zm3.394,1.627a1.42,1.42,0,0,1-.325-1.981l0,0,.931-1.3a1.42,1.42,0,0,1,2.306,1.658l-.534.743-.016.023-.383.534a1.421,1.421,0,0,1-1.981.325Zm22.525-8a1.422,1.422,0,0,1-1.946.5l-2.161-1.28,0,0L38.114,197.6a.935.935,0,1,0-.953,1.609l6.7,3.967h0a1.42,1.42,0,0,1-1.449,2.444l-1.762-1.044,0,0,0,0-4.931-2.921a.935.935,0,1,0-.953,1.609l4.932,2.922,0,0a1.421,1.421,0,0,1-1.448,2.444L35.6,207.056l0,0-1.934-1.145a.935.935,0,1,0-.953,1.609l1.933,1.145h0a1.421,1.421,0,0,1-1.45,2.443l-2.314-1.371a3.289,3.289,0,0,0-2.25-5.1A3.289,3.289,0,0,0,25,200.171a3.289,3.289,0,0,0-5.651-1.76,3.289,3.289,0,0,0-4.651-1.229l-.663-.391L20.4,186.053l.47.277a5,5,0,0,0,4.378.364l1.924-.744a3.028,3.028,0,0,1,2.928.1,4.415,4.415,0,0,0-1.178,3.006v4.437a2.075,2.075,0,0,0,2.07,2.073h0a4.366,4.366,0,0,0,4.153-3.028l13.022,7.711a.927.927,0,0,0,.133.065.945.945,0,0,0,.121.085,1.422,1.422,0,0,1,.5,1.946Z" transform="translate(0 -150.157)"/>
        <path id="Trazado_595198" data-name="Trazado 595198" d="M145.312,27.588h21.433a3.523,3.523,0,0,0,3.519-3.519V11.316A3.523,3.523,0,0,0,166.745,7.8h-5.16V6.316A3.091,3.091,0,0,0,158.5,3.228h-4.94a3.091,3.091,0,0,0-3.087,3.088V7.8h-5.16a3.523,3.523,0,0,0-3.519,3.519v7.025a.935.935,0,1,0,1.87,0V16.6a5.6,5.6,0,0,0,3.748,1.437h.732v1.028a.935.935,0,1,0,1.87,0V18.04h12.033v1.028a.935.935,0,0,0,1.87,0V18.04h.732a5.6,5.6,0,0,0,3.748-1.437v7.465a1.651,1.651,0,0,1-1.65,1.65H145.312a1.651,1.651,0,0,1-1.65-1.65V22.712a.935.935,0,1,0-1.87,0v1.357a3.523,3.523,0,0,0,3.519,3.519Zm7.029-21.272A1.219,1.219,0,0,1,153.558,5.1h4.94a1.219,1.219,0,0,1,1.217,1.218V7.8h-7.375V6.316Zm12.305,9.855h-.732V15.142a.935.935,0,0,0-1.87,0v1.028H150.012V15.142a.935.935,0,1,0-1.87,0v1.028h-.732a3.752,3.752,0,0,1-3.748-3.748V11.316a1.651,1.651,0,0,1,1.65-1.65h21.433a1.651,1.651,0,0,1,1.65,1.65v1.106A3.752,3.752,0,0,1,164.646,16.171Z" transform="translate(-124.117 -3.228)"/>
      </g>
    </g>
    <g id="Enmascarar_grupo_700407" data-name="Enmascarar grupo 700407" clip-path="url(#clip-path)">
      <g id="auto-confianza" transform="translate(392.968 9102.951)">
        <path id="Trazado_595199" data-name="Trazado 595199" d="M21.98,25.5a1.032,1.032,0,0,0,1.748-.9L22.9,19.613h3.942A2.067,2.067,0,0,0,28.9,17.548V7.226a2.067,2.067,0,0,0-2.065-2.065H11.355A2.067,2.067,0,0,0,9.29,7.226V17.548a2.067,2.067,0,0,0,2.065,2.065h4.734ZM11.355,7.226H26.839V17.548H21.677a1.032,1.032,0,0,0-1.018,1.2l.5,3.016-3.916-3.915a1.031,1.031,0,0,0-.73-.3H11.355Z"/>
        <path id="Trazado_595200" data-name="Trazado 595200" d="M36.129,4.129V19.613a2.067,2.067,0,0,0,2.065,2.065H44.2l-.832,4.992a1.032,1.032,0,0,0,1.637.995l7.983-5.987h5.85A2.067,2.067,0,0,0,60.9,19.613V4.129a2.067,2.067,0,0,0-2.065-2.065H38.194a2.067,2.067,0,0,0-2.065,2.065Zm22.71,15.484H52.645a1.029,1.029,0,0,0-.619.207l-6.2,4.647.609-3.652a1.032,1.032,0,0,0-1.018-1.2H38.194l0-15.484H58.839Z"/>
        <path id="Trazado_595201" data-name="Trazado 595201" d="M51.6,31.875a1.032,1.032,0,0,0-1.024-.907H45.419a1.032,1.032,0,0,0-1.025,1.154l1.553,13.04-8.02-1.67a7.226,7.226,0,1,0-9.791,0l-8.019,1.67,1.552-13.04a1.032,1.032,0,0,0-1.025-1.154H15.484a1.032,1.032,0,0,0-1.024.907L12.254,49.886a3.1,3.1,0,0,0,3.331,3.567l7.125-.7v12.28h2.065V51.613a1.033,1.033,0,0,0-.339-.765,1.053,1.053,0,0,0-.794-.262L15.4,51.4a1.034,1.034,0,0,1-.841-.326,1.049,1.049,0,0,1-.259-.9l2.1-17.14h3.086L17.99,45.581a1.55,1.55,0,0,0,.452,1.344,1.566,1.566,0,0,0,1.382.408l9.185-1.913h8.046l9.212,1.917a1.548,1.548,0,0,0,1.812-1.723l-1.5-12.582h3.086l2.1,17.176A1.032,1.032,0,0,1,50.681,51.4l-8.258-.814a1.057,1.057,0,0,0-.794.262,1.033,1.033,0,0,0-.339.765V65.032h2.065V52.752l7.139.7a3.095,3.095,0,0,0,3.322-3.533ZM33.032,43.355a5.161,5.161,0,1,1,5.161-5.161A5.161,5.161,0,0,1,33.032,43.355Z"/>
        <path id="Trazado_595202" data-name="Trazado 595202" d="M64.156,58.686c-1.993-.615-2.487-1.109-3.1-3.1a1.238,1.238,0,0,0-2.367,0c-.617,2-1.11,2.49-3.1,3.1a1.238,1.238,0,0,0,0,2.367c2,.617,2.49,1.11,3.1,3.1a1.238,1.238,0,0,0,2.367,0c.617-2,1.11-2.49,3.1-3.1a1.239,1.239,0,0,0,0-2.369Zm-4.285,2.947a4.561,4.561,0,0,0-1.762-1.762,4.554,4.554,0,0,0,1.762-1.762,4.554,4.554,0,0,0,1.762,1.762,4.561,4.561,0,0,0-1.762,1.762Zm3.678-.973h0l0,0Z"/>
        <path id="Trazado_595203" data-name="Trazado 595203" d="M10.479,33.912c-1.993-.615-2.487-1.109-3.1-3.1a1.238,1.238,0,0,0-2.367,0c-.617,2-1.11,2.49-3.1,3.1a1.238,1.238,0,0,0,0,2.367c2,.617,2.49,1.11,3.1,3.1a1.238,1.238,0,0,0,2.367,0c.617-2,1.11-2.49,3.1-3.1a1.239,1.239,0,0,0,0-2.369ZM6.194,36.859A4.561,4.561,0,0,0,4.431,35.1a4.555,4.555,0,0,0,1.762-1.762A4.555,4.555,0,0,0,7.956,35.1a4.561,4.561,0,0,0-1.762,1.762Zm3.678-.973h0l0,0Z"/>
        <path id="Trazado_595204" data-name="Trazado 595204" d="M45.086,13.129l-.526,3.221a1.032,1.032,0,0,0,1.518,1.07l2.692-1.487,2.691,1.487a1.032,1.032,0,0,0,1.518-1.07l-.525-3.221,2.217-2.272a1.032,1.032,0,0,0-.583-1.741l-3.022-.462L49.7,5.755a1.032,1.032,0,0,0-1.869,0l-1.362,2.9-3.021.462a1.032,1.032,0,0,0-.583,1.741Zm2.244-2.517a1.031,1.031,0,0,0,.778-.582l.661-1.407.66,1.407a1.031,1.031,0,0,0,.778.582l1.581.242L50.611,12.06a1.034,1.034,0,0,0-.28.887l.267,1.637-1.33-.735a1.033,1.033,0,0,0-1,0l-1.331.735.268-1.637a1.034,1.034,0,0,0-.28-.887L45.75,10.853Z"/>
      </g>
    </g>
    <g id="Enmascarar_grupo_700409" data-name="Enmascarar grupo 700409" clip-path="url(#clip-path-2)">
      <path id="opinion-del-cliente" d="M5.92,40.859a1,1,0,0,1-1-1V31.584a1,1,0,1,1,2,0v8.275A1,1,0,0,1,5.92,40.859Zm19.764-1V28.619a1,1,0,0,0-2,0v11.24a1,1,0,0,0,2,0Zm14.632,0V28.619a1,1,0,0,0-2,0v11.24a1,1,0,0,0,2,0Zm18.764,0V31.584a1,1,0,1,0-2,0v8.275a1,1,0,0,0,2,0ZM64,27.917V39.859a1,1,0,0,1-2,0V27.917c0-2.2-2.268-3.244-4.17-3.733a25.946,25.946,0,0,0-12.168-.167,5.485,5.485,0,0,1,.033.593V39.859a1,1,0,0,1-2,0V24.61c0-2.63-2.895-3.741-4.62-4.169a28.568,28.568,0,0,0-14.141,0c-2.111.543-4.628,1.707-4.628,4.171V39.859a1,1,0,0,1-2,0V24.61a5.613,5.613,0,0,1,.032-.593,25.944,25.944,0,0,0-12.167.167C4.267,24.673,2,25.718,2,27.917V39.859a1,1,0,0,1-2,0V27.917c0-2.715,2.014-4.729,5.671-5.67a27.616,27.616,0,0,1,4.651-.779c-2.3-1.156-3.935-4-3.935-7.314,0-3.971,2.386-6.438,6.226-6.438s6.226,2.467,6.226,6.438c0,3.323-1.64,6.17-3.949,7.321a29.374,29.374,0,0,1,4.042.627c.909-1.658,2.787-2.9,5.5-3.6a30.075,30.075,0,0,1,5.417-.878C27.2,16.486,25.287,13.3,25.287,9.564c0-4.284,2.572-6.945,6.713-6.945s6.713,2.661,6.713,6.945c0,3.748-1.922,6.935-4.582,8.066a32.111,32.111,0,0,1,5.426.869c2.686.666,4.583,1.93,5.5,3.6a29.378,29.378,0,0,1,4.05-.629c-2.31-1.151-3.949-4-3.949-7.321,0-3.971,2.386-6.438,6.226-6.438s6.226,2.467,6.226,6.438c0,3.316-1.633,6.158-3.935,7.314a27.631,27.631,0,0,1,4.651.779C61.986,23.187,64,25.2,64,27.917ZM12.613,20.022c2.33,0,4.226-2.633,4.226-5.868,0-3.861-2.648-4.438-4.226-4.438s-4.226.577-4.226,4.438C8.387,17.389,10.283,20.022,12.613,20.022ZM32,16.072c2.6,0,4.713-2.919,4.713-6.508,0-4.3-2.953-4.945-4.713-4.945s-4.713.642-4.713,4.945c0,3.589,2.114,6.508,4.713,6.508Zm19.387,3.949c2.33,0,4.226-2.633,4.226-5.868,0-3.861-2.648-4.438-4.226-4.438s-4.226.577-4.226,4.438C47.161,17.389,49.057,20.022,51.387,20.022ZM19.162,49.955A1,1,0,0,1,18.885,51l-4.1,3.74L15.9,60.179a1,1,0,0,1-1.474,1.071L9.605,58.5,4.781,61.249a1,1,0,0,1-1.474-1.071l1.119-5.436L.326,51A1,1,0,0,1,.889,49.27L6.4,48.655,8.694,43.6a1,1,0,0,1,1.822,0l2.29,5.056,5.516.615a1,1,0,0,1,.84.685Zm-3.256,1.058-3.887-.433a1,1,0,0,1-.8-.581L9.605,46.436,7.992,50a1,1,0,0,1-.8.581l-3.887.433,2.889,2.635a1,1,0,0,1,.306.94l-.789,3.83,3.4-1.934a1,1,0,0,1,.989,0l3.4,1.934-.789-3.83a1,1,0,0,1,.306-.94Zm25.651-1.058A1,1,0,0,1,41.279,51l-4.1,3.74L38.3,60.179a1,1,0,0,1-1.474,1.071L32,58.505l-4.824,2.744A1,1,0,0,1,25.7,60.179l1.119-5.436L22.721,51a1,1,0,0,1,.563-1.733l5.516-.615,2.29-5.056a1,1,0,0,1,1.822,0l2.29,5.056,5.516.615a1,1,0,0,1,.84.685ZM38.3,51.013l-3.887-.433a1,1,0,0,1-.8-.581L32,46.436,30.387,50a1,1,0,0,1-.8.581l-3.887.433,2.889,2.635a1,1,0,0,1,.306.94l-.789,3.83,3.4-1.934a1,1,0,0,1,.989,0l3.4,1.934-.789-3.83a1,1,0,0,1,.306-.94Zm25.651-1.058A1,1,0,0,1,63.674,51l-4.1,3.74,1.119,5.436a1,1,0,0,1-1.474,1.071L54.394,58.5,49.57,61.249A1,1,0,0,1,48.1,60.178l1.119-5.436L45.115,51a1,1,0,0,1,.563-1.733l5.516-.615,2.29-5.056a1,1,0,0,1,1.822,0l2.29,5.056,5.516.615a1,1,0,0,1,.84.685Zm-3.256,1.058-3.887-.433a1,1,0,0,1-.8-.581l-1.613-3.562L52.781,50a1,1,0,0,1-.8.581l-3.887.433,2.889,2.635a1,1,0,0,1,.306.941l-.789,3.83,3.4-1.934a1,1,0,0,1,.989,0l3.4,1.934-.789-3.83a1,1,0,0,1,.306-.94Z" transform="translate(584 9110.5)"/>
    </g>
    <g id="Enmascarar_grupo_700411" data-name="Enmascarar grupo 700411" clip-path="url(#clip-path-3)">
      <g id="Page-1" transform="translate(778.966 9108)">
        <g id="_026---Idea" data-name="026---Idea">
          <path id="Shape" d="M58.882,33.052a2.136,2.136,0,0,0-2.1-1.733H54.724l-.152-.909a2.146,2.146,0,0,0-1.784-1.769c-.2-.032-.408-.053-.61-.081a6.514,6.514,0,0,0-.812-4.761A4.369,4.369,0,0,0,48.2,17.953a9.086,9.086,0,0,0-8.877-7.417c-.107,0-.2.014-.3.017a4.344,4.344,0,0,0-6.645-.826,7.329,7.329,0,0,0-3.987-1.184,7.414,7.414,0,0,0-5.828,2.87,5.319,5.319,0,0,0-6.8,4.779,4.4,4.4,0,0,0-2.692,4.049,4.343,4.343,0,0,0,.107.911,8.594,8.594,0,0,0-1.024,7.368c-.286.04-.579.075-.854.115A2.148,2.148,0,0,0,9.5,30.4l-.152.912H7.282a2.136,2.136,0,0,0-2.1,1.729L.511,57.05a3.2,3.2,0,0,0,3.151,3.814H25.93C26.815,62.323,29.5,63,32.034,63c2.506,0,5.167-.661,6.077-2.136H60.405a3.2,3.2,0,0,0,3.151-3.813ZM16.3,22.174a2.255,2.255,0,0,1,1.153-4.188,2.215,2.215,0,0,1,1.793.905,1.068,1.068,0,0,0,1.715-1.273,4.314,4.314,0,0,0-3.028-1.708A3.246,3.246,0,0,1,21.1,13.34a3.328,3.328,0,0,1,.389.043,7.014,7.014,0,0,0-.224.668,1.068,1.068,0,0,0,2.067.534,5.193,5.193,0,0,1,.554-1.337,5.273,5.273,0,0,1,4.5-2.57,5.186,5.186,0,0,1,2.829.854,4.341,4.341,0,0,0-.251,1.4,1.068,1.068,0,0,0,2.136,0,2.246,2.246,0,1,1,4.492,0,1.068,1.068,0,0,0,2.136,0c0-.082-.02-.16-.025-.242a6.931,6.931,0,0,1,6.323,5.345,4.333,4.333,0,0,0-1.382.689,1.068,1.068,0,0,0,1.281,1.708,2.251,2.251,0,0,1,3.3,2.912,2.278,2.278,0,0,1-1.011.935,1.068,1.068,0,0,0,.455,2.029,1.054,1.054,0,0,0,.453-.1,4.386,4.386,0,0,0,.8-.5,4.561,4.561,0,0,1-.9,4.554l-.026.027a4.612,4.612,0,0,1-5.446,1,4.238,4.238,0,0,1-.517-.322,3.637,3.637,0,0,0,.282-3.759,1.068,1.068,0,1,0-1.908.961,1.59,1.59,0,0,1-.515,2.013,1.611,1.611,0,0,1-2.319-.592,1.068,1.068,0,0,0-1.91.956A3.7,3.7,0,0,0,39.989,32.6a3.663,3.663,0,0,0,1.34-.264,6.32,6.32,0,0,0,1.251.854,6.578,6.578,0,0,0,4.932.456,6.806,6.806,0,0,1-4.4,2.7,1.068,1.068,0,0,0,.168,2.122,1.136,1.136,0,0,0,.17-.013,8.775,8.775,0,0,0,1.894-.553,9.548,9.548,0,0,1,.8,1.833,1.1,1.1,0,0,1,.056.345,1.152,1.152,0,0,1-.7,1.059,1.209,1.209,0,0,1-1.379-.371,6.816,6.816,0,0,0-3.125-2.077c-2.308-.773-3.2-1.464-3.576-2.216a10.25,10.25,0,0,0,1.637-.342,1.068,1.068,0,0,0-.628-2.042,8.092,8.092,0,0,1-1.843.338,7.925,7.925,0,0,1-3.539-.534,1.068,1.068,0,0,0-1.2.3,4.572,4.572,0,0,1-7.374-5.346,1.071,1.071,0,0,0-1.838-1.1,6.668,6.668,0,0,0-.611,1.374,1.6,1.6,0,0,1-1.517-1.574v-.027a1.056,1.056,0,0,0-1.068-1.054,1.078,1.078,0,0,0-1.068,1.081,3.716,3.716,0,0,0,3.316,3.685,6.7,6.7,0,0,0,.1,1.068A6.525,6.525,0,0,1,14.4,23.366,4.3,4.3,0,0,0,15.2,24a1.068,1.068,0,0,0,1.1-1.829Zm-4.7,8.578c.492-.073,1-.137,1.506-.2a8.621,8.621,0,0,0,9.365,3.8,6.689,6.689,0,0,0,10.477,1.776,10.251,10.251,0,0,0,2.228.4c.516,1.956,2.006,3.141,5.138,4.191A4.732,4.732,0,0,1,42.49,42.15a3.4,3.4,0,0,0,2.58,1.212,3.243,3.243,0,0,0,1.267-.258,3.288,3.288,0,0,0,2-3.023,3.168,3.168,0,0,0-.162-1.01,11.672,11.672,0,0,0-.944-2.173,9,9,0,0,0,3.548-5.427,6.689,6.689,0,0,0,.615-.861c.358.046.715.086,1.075.146L56.32,53.943a36.653,36.653,0,0,0-23.218,0V40.576a1.068,1.068,0,1,0-2.136,0V53.947a36.66,36.66,0,0,0-23.218-.009ZM2.831,58.336a1.059,1.059,0,0,1-.224-.876L7.282,33.454H8.991L5.64,53.592A2.143,2.143,0,0,0,8.4,55.977a35.723,35.723,0,0,1,17.637-1.119l-.318,3.871H3.663a1.075,1.075,0,0,1-.832-.393Zm29.2,2.529c-2.572,0-4.048-.76-4.265-1.1l.367-4.431a22.819,22.819,0,0,1,3.436,1.152,1.077,1.077,0,0,0,.461.107,1.061,1.061,0,0,0,.462-.107,22.744,22.744,0,0,1,3.435-1.16l.367,4.438c-.217.34-1.692,1.1-4.265,1.1Zm29.2-2.529a1.075,1.075,0,0,1-.832.393H38.356l-.32-3.878A35.734,35.734,0,0,1,55.68,55.979a2.142,2.142,0,0,0,2.746-2.391L55.079,33.455h1.708l4.677,24A1.059,1.059,0,0,1,61.237,58.336Z"/>
          <path id="Shape-2" data-name="Shape" d="M28.5,24.223a1.068,1.068,0,0,0-.076,1.508A6.439,6.439,0,0,0,31.842,27.7a3.181,3.181,0,0,1-2.6,1.34,1.068,1.068,0,0,0,0,2.136,5.3,5.3,0,0,0,4.975-3.424,6.444,6.444,0,0,0,5.272-5.125,1.068,1.068,0,1,0-2.1-.4,4.256,4.256,0,0,1-1.768,2.711A4.359,4.359,0,0,1,30,24.3a1.068,1.068,0,0,0-1.508-.076Z"/>
          <path id="Shape-3" data-name="Shape" d="M24.773,23.064A1.068,1.068,0,0,0,25.841,22a2.776,2.776,0,0,1,2.776-2.776,1.068,1.068,0,0,0,0-2.136A4.917,4.917,0,0,0,23.705,22a1.068,1.068,0,0,0,1.068,1.068Z"/>
          <path id="Shape-4" data-name="Shape" d="M33.1,2.136V1.068a1.068,1.068,0,0,0-2.136,0V2.136a1.068,1.068,0,0,0,2.136,0Z"/>
          <path id="Shape-5" data-name="Shape" d="M49.556,7.663,48.489,8.73A1.068,1.068,0,1,0,50,10.24l1.068-1.068a1.068,1.068,0,1,0-1.51-1.51Z"/>
          <path id="Shape-6" data-name="Shape" d="M14.824,10.553a1.068,1.068,0,0,0,.755-1.823L14.511,7.663A1.068,1.068,0,1,0,13,9.172l1.068,1.068a1.068,1.068,0,0,0,.755.313Z"/>
          <path id="Shape-7" data-name="Shape" d="M23.044,6.06a1.083,1.083,0,0,0,.409-.081,1.068,1.068,0,0,0,.578-1.4L22.8,1.623a1.068,1.068,0,1,0-1.972.818L22.057,5.4a1.068,1.068,0,0,0,.987.659Z"/>
          <path id="Shape-8" data-name="Shape" d="M42.658,1.045a1.068,1.068,0,0,0-1.395.578l-1.227,2.96a1.068,1.068,0,0,0,.578,1.4,1.083,1.083,0,0,0,.409.081A1.068,1.068,0,0,0,42.01,5.4l1.226-2.96a1.068,1.068,0,0,0-.578-1.4Z"/>
          <path id="Shape-9" data-name="Shape" d="M53.737,18.774a1.068,1.068,0,0,0,.409-.082L57.1,17.466a1.068,1.068,0,1,0-.817-1.973l-2.96,1.226a1.068,1.068,0,0,0,.409,2.056Z"/>
          <path id="Shape-10" data-name="Shape" d="M9.922,18.692a1.068,1.068,0,1,0,.818-1.973L7.78,15.493a1.068,1.068,0,1,0-.817,1.973Z"/>
        </g>
      </g>
    </g>
    <g id="Enmascarar_grupo_700413" data-name="Enmascarar grupo 700413" clip-path="url(#clip-path-4)">
      <g id="habilidades" transform="translate(969.231 9097.73)">
        <path id="Trazado_595214" data-name="Trazado 595214" d="M32.712,7.269H12.418a5.161,5.161,0,0,0-5.149,5.149V32.712a1.212,1.212,0,0,0,1.212,1.212h8.481a1.212,1.212,0,0,0,1.212-1.212V31.5a2.423,2.423,0,1,1,4.846,0v1.212a1.212,1.212,0,0,0,1.212,1.212h8.481a1.212,1.212,0,0,0,1.212-1.212V25.442a4.846,4.846,0,1,0,0-9.692V8.481A1.212,1.212,0,0,0,32.712,7.269ZM36.346,20.6a2.423,2.423,0,0,1-2.423,2.423H32.712A1.212,1.212,0,0,0,31.5,24.231V31.5H25.442a4.846,4.846,0,1,0-9.692,0H9.692V12.418a2.726,2.726,0,0,1,2.726-2.726H31.5v7.269a1.212,1.212,0,0,0,1.212,1.212h1.212A2.423,2.423,0,0,1,36.346,20.6Z"/>
        <path id="Trazado_595215" data-name="Trazado 595215" d="M46.038,23.019H44.827a1.212,1.212,0,0,0-1.212,1.212v8.481a1.212,1.212,0,0,0,1.212,1.212H52.1a4.846,4.846,0,1,0,9.692,0h7.269a1.212,1.212,0,0,0,1.212-1.212V12.418A5.161,5.161,0,0,0,65.12,7.269H44.827a1.212,1.212,0,0,0-1.212,1.212v8.481a1.212,1.212,0,0,0,1.212,1.212h1.212a2.423,2.423,0,1,1,0,4.846Zm0-7.269V9.692H65.12a2.726,2.726,0,0,1,2.726,2.726V31.5H60.577a1.212,1.212,0,0,0-1.212,1.212v1.212a2.423,2.423,0,1,1-4.846,0V32.712A1.212,1.212,0,0,0,53.308,31.5H46.038V25.442a4.846,4.846,0,1,0,0-9.692Z"/>
        <path id="Trazado_595216" data-name="Trazado 595216" d="M43.615,52.1a4.846,4.846,0,1,0,0,9.692v7.269a1.212,1.212,0,0,0,1.212,1.212H65.12a5.161,5.161,0,0,0,5.149-5.149V44.827a1.212,1.212,0,0,0-1.212-1.212H60.577a1.212,1.212,0,0,0-1.212,1.212v1.212a2.423,2.423,0,0,1-4.846,0V44.827a1.212,1.212,0,0,0-1.212-1.212H44.827a1.212,1.212,0,0,0-1.212,1.212Zm1.212,2.423a1.212,1.212,0,0,0,1.212-1.212V46.038H52.1a4.846,4.846,0,0,0,9.692,0h6.058V65.12a2.726,2.726,0,0,1-2.726,2.726H46.038V60.577a1.212,1.212,0,0,0-1.212-1.212H43.615a2.423,2.423,0,1,1,0-4.846Z"/>
        <path id="Trazado_595217" data-name="Trazado 595217" d="M7.269,65.12a5.161,5.161,0,0,0,5.149,5.149H32.712a1.212,1.212,0,0,0,1.212-1.212V60.577a1.212,1.212,0,0,0-1.212-1.212H31.5a2.423,2.423,0,0,1,0-4.846h1.212a1.212,1.212,0,0,0,1.212-1.212V44.827a1.212,1.212,0,0,0-1.212-1.212H25.442a4.846,4.846,0,0,0-9.692,0H8.481a1.212,1.212,0,0,0-1.212,1.212ZM9.692,46.038h7.269a1.212,1.212,0,0,0,1.212-1.212V43.615a2.423,2.423,0,0,1,4.846,0v1.212a1.212,1.212,0,0,0,1.212,1.212H31.5V52.1a4.846,4.846,0,1,0,0,9.692v6.058H12.418A2.726,2.726,0,0,1,9.692,65.12Z"/>
      </g>
    </g>
    <g id="Enmascarar_grupo_700415" data-name="Enmascarar grupo 700415" transform="translate(3 2.953)" clip-path="url(#clip-path-5)">
      <g id="XMLID_706_" transform="translate(1169.494 9112)">
        <path id="XMLID_741_" d="M56.819,20.427A12.693,12.693,0,0,0,38.1,11.853l-.68.386-.68-.386a12.47,12.47,0,0,0-11.27-.543,12.8,12.8,0,0,0-6.728,6.81A12.692,12.692,0,0,0,.309,26.848,12.737,12.737,0,0,0,4.354,38.824L19.7,52.394,32.2,41.353l5.227,4.621L52.774,32.4a12.736,12.736,0,0,0,4.045-11.976ZM6.572,36.315A9.376,9.376,0,0,1,3.594,27.5a9.246,9.246,0,0,1,5.274-6.68,9.247,9.247,0,0,1,8.5.368l2.333,1.324,2.333-1.324A9.345,9.345,0,0,1,35.816,27.5a9.377,9.377,0,0,1-2.978,8.816L19.705,47.924Zm43.984-6.421L37.423,41.5l-2.7-2.386.332-.294A12.736,12.736,0,0,0,39.1,26.848a12.709,12.709,0,0,0-15.863-9.77,9.61,9.61,0,0,1,3.582-2.7,9.151,9.151,0,0,1,8.27.39l2.333,1.324,2.333-1.324a9.345,9.345,0,0,1,13.778,6.312,9.376,9.376,0,0,1-2.977,8.817Z" transform="translate(-0.047 -0.955)"/>
        <path id="XMLID_1569_" d="M1.859,9.41l5.893,5.209L13.644,9.41a5.394,5.394,0,0,0,1.713-5.072A5.376,5.376,0,0,0,7.752.539a5.376,5.376,0,0,0-7.605,3.8A5.394,5.394,0,0,0,1.859,9.41ZM3.431,4.989A2,2,0,0,1,4.575,3.54a2.005,2.005,0,0,1,1.844.08l1.332.756L9.084,3.62a2.027,2.027,0,0,1,2.988,1.369A2.034,2.034,0,0,1,11.426,6.9L7.752,10.149,4.077,6.9a2.034,2.034,0,0,1-.646-1.912Z" transform="translate(-0.045 0)"/>
        <path id="XMLID_1572_" d="M61.259,51.207a5.376,5.376,0,0,0-7.605-3.8,5.376,5.376,0,0,0-7.605,3.8,5.393,5.393,0,0,0,1.713,5.072l5.893,5.209,5.893-5.209A5.394,5.394,0,0,0,61.259,51.207ZM57.329,53.77l-3.675,3.248L49.979,53.77a2.033,2.033,0,0,1-.646-1.912,2.005,2.005,0,0,1,1.144-1.449,2.005,2.005,0,0,1,1.844.08l1.332.756,1.332-.756a2.027,2.027,0,0,1,2.988,1.369,2.034,2.034,0,0,1-.646,1.912Z" transform="translate(-4.348 -4.394)"/>
        <path id="XMLID_1573_" d="M33.518,53.319h3.349v3.237H33.518Z" transform="translate(-3.183 -4.999)"/>
        <path id="XMLID_1574_" d="M27.258,2.964h3.349V6.2H27.258Z" transform="translate(-2.596 -0.278)"/>
        <path id="XMLID_1575_" d="M3.168,50.753H6.517V53.99H3.168Z" transform="translate(-0.337 -4.758)"/>
        <path id="XMLID_1576_" d="M58.224,7.439h3.349v3.237H58.224Z" transform="translate(-5.499 -0.697)"/>
      </g>
    </g>
    <g id="Enmascarar_grupo_700408" data-name="Enmascarar grupo 700408" clip-path="url(#clip-path-6)">
      <g id="liderazgo" transform="translate(487.5 9224)">
        <g id="Grupo_874480" data-name="Grupo 874480">
          <g id="Grupo_874479" data-name="Grupo 874479">
            <path id="Trazado_595205" data-name="Trazado 595205" d="M43.824,50.4h-9.45V42a5.25,5.25,0,0,0-5.25-5.25h-6.3V30.985L37.083,20.8a1.04,1.04,0,0,0,.231-1.48l-3.15-4.2a1.05,1.05,0,0,0-1.438-.231L21.963,22.333A7.35,7.35,0,1,0,10.339,24.15H9.174A1.05,1.05,0,0,0,8.4,24.5L1.614,32.035a5.25,5.25,0,0,0,.21,7.224l5.554,5.586a1.056,1.056,0,0,0,1.606-.136l1.239-1.753V61.95A1.05,1.05,0,0,0,11.274,63h6.3a1.05,1.05,0,0,0,1.05-1.05V45.15h7.35V50.4h-3.15a1.05,1.05,0,0,0-1.05,1.05v10.5A1.05,1.05,0,0,0,22.824,63h21a1.05,1.05,0,0,0,1.05-1.05V51.45A1.05,1.05,0,0,0,43.824,50.4Zm-33.6-31.5a5.25,5.25,0,1,1,5.25,5.25A5.25,5.25,0,0,1,10.224,18.9Zm7.749,7.35-1.449,2.9-1.449-2.9ZM10.224,37.5l-1.68-1.8,1.68-1.68Zm7.35,5.555a1.05,1.05,0,0,0-1.05,1.05V60.9h-4.2V31.5a1.057,1.057,0,0,0-1.8-.746l-4.2,4.2a1.05,1.05,0,0,0,0,1.47l3.433,3.581L7.987,42.483,3.283,37.8a3.15,3.15,0,0,1-.115-4.358L9.646,26.25h3.077l2.866,5.723a1.05,1.05,0,0,0,1.869,0l3.034-6.059,12.6-8.726,1.9,2.531L21.165,29.6a1.05,1.05,0,0,0-.441.851V37.8a1.05,1.05,0,0,0,1.05,1.05h7.35A3.15,3.15,0,0,1,32.274,42v8.4h-4.2V44.1a1.05,1.05,0,0,0-1.05-1.05Zm25.2,17.85h-18.9V52.5h18.9Z"/>
          </g>
        </g>
        <g id="Grupo_874482" data-name="Grupo 874482">
          <g id="Grupo_874481" data-name="Grupo 874481">
            <path id="Trazado_595206" data-name="Trazado 595206" d="M61.674,8.4a7.35,7.35,0,0,1-7.35-7.35,1.05,1.05,0,1,0-2.1,0,7.35,7.35,0,0,1-7.35,7.35,1.05,1.05,0,1,0,0,2.1,7.35,7.35,0,0,1,7.35,7.35,1.05,1.05,0,1,0,2.1,0,7.35,7.35,0,0,1,7.35-7.35,1.05,1.05,0,0,0,0-2.1Zm-8.4,5.124A9.533,9.533,0,0,0,49.2,9.45a9.534,9.534,0,0,0,4.074-4.074A9.534,9.534,0,0,0,57.348,9.45,9.534,9.534,0,0,0,53.274,13.524Z"/>
          </g>
        </g>
        <g id="Grupo_874484" data-name="Grupo 874484">
          <g id="Grupo_874483" data-name="Grupo 874483">
            <rect id="Rectángulo_293478" data-name="Rectángulo 293478" width="3.549" height="2.1" transform="translate(32.702 28.55) rotate(-36.251)"/>
          </g>
        </g>
        <g id="Grupo_874486" data-name="Grupo 874486">
          <g id="Grupo_874485" data-name="Grupo 874485">
            <rect id="Rectángulo_293479" data-name="Rectángulo 293479" width="13.02" height="2.1" transform="matrix(0.806, -0.592, 0.592, 0.806, 37.959, 24.704)"/>
          </g>
        </g>
        <g id="Grupo_874488" data-name="Grupo 874488">
          <g id="Grupo_874487" data-name="Grupo 874487">
            <rect id="Rectángulo_293480" data-name="Rectángulo 293480" width="7.57" height="2.1" transform="translate(37.987 15.923) rotate(-33.692)"/>
          </g>
        </g>
      </g>
    </g>
    <g id="Enmascarar_grupo_700410" data-name="Enmascarar grupo 700410" clip-path="url(#clip-path-7)">
      <g id="creatividad" transform="translate(695.48 9221)">
        <path id="Trazado_595207" data-name="Trazado 595207" d="M42.558,40.535a19.544,19.544,0,0,1-3.005-10.243.92.92,0,0,0-.92-.92h-.2l4-8.176a3.065,3.065,0,0,0-1.409-4.1l-4.1-2a3.075,3.075,0,0,0-4.1,1.41l-6.3,12.869H23.8V23.758a.921.921,0,0,0-1.841,0v5.614h-1.6V23.758a.921.921,0,0,0-1.841,0v5.614H14.656L12,21.569a.929.929,0,0,0-.279-.408L4.673,15.239a.921.921,0,0,0-1.493.516L1.266,24.918a.934.934,0,0,0,.029.485l1.351,3.969H1.789a.921.921,0,0,0-.891.686A31.453,31.453,0,0,0,.062,37.29c-.016,5.427,1.4,10.053,4.1,13.379a.921.921,0,0,0,1.429-1.16c-5.067-6.243-3.6-15.689-3.067-18.3H23.174a9.127,9.127,0,0,1-2.852,6.132,5.631,5.631,0,0,0-3.741-1.651,5.156,5.156,0,0,0-1.289,10.148,15.172,15.172,0,0,1-6.706,6.642A.92.92,0,0,0,7.7,53.4v8.676a.921.921,0,0,0,.92.921H23.1a.921.921,0,0,0,.921-.921V58h2.361A13.913,13.913,0,0,0,40.262,44.864a2.786,2.786,0,0,0,2.353-1.453,2.832,2.832,0,0,0-.057-2.876ZM34.477,17.313a1.232,1.232,0,0,1,1.644-.565l4.1,2a1.234,1.234,0,0,1,.562,1.638l-.722,1.475-1.617-.789a.921.921,0,0,0-.807,1.655l1.615.788-1.409,2.878-2.625-1.28a.921.921,0,0,0-.807,1.654l2.623,1.28-.649,1.325H28.573ZM9.558,29.372,8.351,25.73l2.367-2.216,1.993,5.859Zm-5.273-9.9,1.833-.61L9.743,21.9,6.971,24.5l-3.687-.242Zm-.8,6.646,3.125.205,1.011,3.052H4.59ZM41,42.519a.96.96,0,0,1-.84.506h-.8a.968.968,0,0,0-.921,1.077A12.068,12.068,0,0,1,26.387,56.156H23.1a.921.921,0,0,0-.92.921v4.082H9.539V54.072A16.745,16.745,0,0,0,17.5,45.427a.92.92,0,0,0-.892-1.261h-.024a3.315,3.315,0,0,1,0-6.629,3.92,3.92,0,0,1,2.877,1.617.921.921,0,0,0,1.237.236,10.627,10.627,0,0,0,4.322-8.175H37.733a21.528,21.528,0,0,0,3.252,10.278A1.011,1.011,0,0,1,41,42.519Zm0,0"/>
        <path id="Trazado_595208" data-name="Trazado 595208" d="M31.285,34.059a3.379,3.379,0,0,0-3.375,3.376.921.921,0,0,0,1.841,0,1.534,1.534,0,1,1,3.068,0,.921.921,0,0,0,1.841,0,3.379,3.379,0,0,0-3.376-3.376Zm0,0"/>
        <path id="Trazado_595209" data-name="Trazado 595209" d="M5.577,8.263h.955v.955a.921.921,0,0,0,1.841,0V8.263h.955a.921.921,0,0,0,0-1.841H8.372V5.467a.921.921,0,0,0-1.841,0v.955H5.577A.921.921,0,0,0,5.577,8.263Zm0,0"/>
        <path id="Trazado_595210" data-name="Trazado 595210" d="M29.561,3.722h.955v.954a.921.921,0,0,0,1.841,0V3.722h.955a.921.921,0,0,0,0-1.841h-.955V.925a.921.921,0,0,0-1.841,0V1.88h-.955a.921.921,0,0,0,0,1.842Zm0,0"/>
        <path id="Trazado_595211" data-name="Trazado 595211" d="M35.944,10.6H36.9v.954a.921.921,0,0,0,1.841,0V10.6h.955a.921.921,0,0,0,0-1.841H38.74V7.8a.921.921,0,0,0-1.841,0v.955h-.955A.921.921,0,0,0,35.944,10.6Zm0,0"/>
        <path id="Trazado_595212" data-name="Trazado 595212" d="M14.411,22.918a.961.961,0,0,0,1.025-.286c.038-.047.914-1.128,1.842-2.376a5.513,5.513,0,0,0,3.8,1.5h.014a5.587,5.587,0,0,0,3.824-1.515c.912,1.241,1.772,2.312,1.81,2.36a.93.93,0,0,0,1.639-.572l.031-5.743a2.757,2.757,0,0,0-.812-1.975,2.824,2.824,0,0,0-.873-.595L26.73,9.8c.019-3.52-1.737-6.923-4.946-9.58A.921.921,0,0,0,20.61,1.634a11.462,11.462,0,0,1,4.06,6.172l-7.019.017a10,10,0,0,1,1.3-3.03.921.921,0,0,0-1.557-.984,11.226,11.226,0,0,0-1.827,6l-.022,3.925A2.833,2.833,0,0,0,13.832,16.3L13.8,22.047a.919.919,0,0,0,.61.871Zm1.262-6.6a1.007,1.007,0,0,1,1.02-.978h0a1,1,0,0,1,.718.293.93.93,0,0,1,.274.617,17.969,17.969,0,0,1-2.032,3.1Zm10.862,3.021a17.676,17.676,0,0,1-2-3.092,1.009,1.009,0,0,1,1.019-.93h0a1,1,0,0,1,.718.294.931.931,0,0,1,.275.665ZM24.888,9.647c0,.047,0,.093,0,.14l-.021,3.771A2.843,2.843,0,0,0,22.7,16.283c0,.353.1.869,1.142,2.429a3.761,3.761,0,0,1-2.752,1.2h-.01a3.685,3.685,0,0,1-2.714-1.175c1.057-1.565,1.166-2.08,1.168-2.432a2.758,2.758,0,0,0-.812-1.975,2.814,2.814,0,0,0-1.331-.748l.021-3.762c0-.052,0-.1,0-.155Zm0,0"/>
        <path id="Trazado_595213" data-name="Trazado 595213" d="M16.335,39.88a.921.921,0,0,0,0,1.841A.921.921,0,0,0,16.335,39.88Zm0,0"/>
      </g>
    </g>
    <g id="Enmascarar_grupo_700412" data-name="Enmascarar grupo 700412" clip-path="url(#clip-path-8)">
      <g id="XMLID_1180_" transform="translate(879.5 9218)">
        <g id="XMLID_887_">
          <path id="XMLID_1013_" d="M34.067,37.935V34.9h1.617a3.666,3.666,0,0,0,3.661-3.661V30.085h1.26a1.23,1.23,0,0,0,1.176-1.592l-1.519-4.946a9.551,9.551,0,0,0-19.1.025c0,.007,0,.014,0,.021V34.867a1.23,1.23,0,0,0,.884,1.181L32.49,39.115a1.23,1.23,0,0,0,1.577-1.181Zm-1.23-5.494a1.23,1.23,0,0,0-1.23,1.23v2.619l-7.981-2.345V23.605a7.1,7.1,0,0,1,7.09-6.956h.116A7.12,7.12,0,0,1,37.8,23.739a1.227,1.227,0,0,0,.054.361l1.082,3.524h-.825a1.23,1.23,0,0,0-1.23,1.23v2.386a1.2,1.2,0,0,1-1.2,1.2H32.837Z"/>
          <path id="XMLID_1018_" d="M4.8,47.785a5.66,5.66,0,1,0,10.435-3.034l3.3-3.3a19.638,19.638,0,0,0,3.33,2.367V55.205a1.23,1.23,0,0,0,1.23,1.23h1.3a7.134,7.134,0,0,0,14.223,0h1.3a1.23,1.23,0,0,0,1.23-1.23V43.821a19.638,19.638,0,0,0,3.33-2.367l3.3,3.3a5.668,5.668,0,1,0,1.74-1.74l-3.3-3.3a19.561,19.561,0,0,0,4.917-12.991,19.473,19.473,0,0,0-3.9-11.756q-.479-.64-1.01-1.238l3.293-3.293a5.668,5.668,0,1,0-1.74-1.74l-3.3,3.3a19.714,19.714,0,0,0-7.15-4.022,1.23,1.23,0,0,0-.728,2.351,17.173,17.173,0,0,1,2.413,31.841H23.994a17.171,17.171,0,0,1,2.379-31.829,1.23,1.23,0,1,0-.734-2.349A19.727,19.727,0,0,0,18.533,12l-3.3-3.3a5.668,5.668,0,1,0-1.74,1.74l3.3,3.3q-.537.606-1.024,1.256a19.636,19.636,0,0,0-.74,22.406,19.762,19.762,0,0,0,1.765,2.321l-3.3,3.3A5.656,5.656,0,0,0,4.8,47.785ZM13.656,5.66a3.2,3.2,0,1,1-3.2-3.2A3.2,3.2,0,0,1,13.656,5.66Zm38.887,3.2a3.2,3.2,0,1,1,3.2-3.2A3.2,3.2,0,0,1,52.543,8.859ZM38.68,44.623v3.422H24.32V44.623Zm10.663,3.162a3.2,3.2,0,1,1,3.2,3.2A3.2,3.2,0,0,1,49.344,47.785Zm-22.483,8.65h9.279a4.675,4.675,0,0,1-9.279,0ZM24.32,50.552H38.68v3.423H24.32ZM7.258,47.785a3.2,3.2,0,1,1,3.2,3.2A3.2,3.2,0,0,1,7.258,47.785Z"/>
          <path id="XMLID_1604_" d="M31.48,9.555a1.231,1.231,0,1,1,.87-.361A1.24,1.24,0,0,1,31.48,9.555Z"/>
        </g>
      </g>
    </g>
    <g id="Enmascarar_grupo_700414" data-name="Enmascarar grupo 700414" clip-path="url(#clip-path-9)">
      <g id="regalo" transform="translate(1068.5 9223)">
        <path id="Trazado_595218" data-name="Trazado 595218" d="M47.822,43.105,37.354,48.29a4.6,4.6,0,0,0-3.166-3.347l-4.847-1.437c-3.494-1.039-8.093-1.892-12.675.75-.291.167-.551.334-.781.481a4.446,4.446,0,0,1-2.926.907,3.291,3.291,0,0,0-3.046-2.053H4.947a3.289,3.289,0,0,0-3.286,3.285V58.4a3.289,3.289,0,0,0,3.286,3.285H9.914a3.289,3.289,0,0,0,3.278-3.07,19.69,19.69,0,0,1,6.2,1c1.535.452,8.1,2.36,8.595,2.505a16.2,16.2,0,0,0,4.478.88,9.82,9.82,0,0,0,5.578-2.007l.031-.021L52.483,50.715a4.463,4.463,0,0,0-4.662-7.609ZM10.739,58.4a.825.825,0,0,1-.825.824H4.947a.826.826,0,0,1-.825-.824V46.876a.825.825,0,0,1,.825-.824H9.914a.826.826,0,0,1,.825.824V58.4Zm40.318-9.687-14.4,10.247c-3.264,2.172-4.65,1.77-7.991.8-.506-.147-7.052-2.051-8.586-2.5a21.841,21.841,0,0,0-6.882-1.1V48.1a6.782,6.782,0,0,0,4.013-1.293c.216-.138.439-.281.68-.419,2.983-1.721,6.2-1.877,10.748-.524L33.489,47.3a2.129,2.129,0,0,1,1.445,2.627l0,.005A2.127,2.127,0,0,1,32.3,51.369L25.368,49.36a1.23,1.23,0,0,0-.685,2.364l6.931,2.009A4.6,4.6,0,0,0,37.1,51.161l11.813-5.85a2.164,2.164,0,0,1,2.863.6,2.1,2.1,0,0,1-.718,2.8Z"/>
        <path id="Trazado_595220" data-name="Trazado 595220" d="M4.905,27.909h6.656a1.23,1.23,0,1,0,0-2.461H4.905a1.23,1.23,0,1,0,0,2.461Z"/>
        <path id="Trazado_595221" data-name="Trazado 595221" d="M5.252,19.609l5.773,2.818a1.23,1.23,0,1,0,1.08-2.211L6.332,17.4a1.23,1.23,0,1,0-1.08,2.211Z"/>
        <path id="Trazado_595222" data-name="Trazado 595222" d="M11.025,30.93,5.252,33.748a1.23,1.23,0,1,0,1.08,2.211L12.1,33.141a1.23,1.23,0,1,0-1.08-2.211Z"/>
        <path id="Trazado_595223" data-name="Trazado 595223" d="M60.109,25.448H53.453a1.23,1.23,0,0,0,0,2.461h6.656a1.23,1.23,0,1,0,0-2.461Z"/>
        <path id="Trazado_595224" data-name="Trazado 595224" d="M53.454,22.552a1.226,1.226,0,0,0,.539-.125l5.769-2.818a1.23,1.23,0,1,0-1.08-2.211l-5.769,2.818a1.231,1.231,0,0,0,.541,2.336Z"/>
        <path id="Trazado_595225" data-name="Trazado 595225" d="M59.762,33.748,53.993,30.93a1.23,1.23,0,1,0-1.08,2.211l5.769,2.818a1.23,1.23,0,1,0,1.08-2.211Z"/>
        <path id="Trazado_595226" data-name="Trazado 595226" d="M16.948,16.925v18a4.229,4.229,0,0,0,4.225,4.223H43.844a4.227,4.227,0,0,0,4.222-4.223V16.925A4,4,0,0,0,51.34,13V11.252a4,4,0,0,0-3.995-3.993H44.8a5.358,5.358,0,0,0-.246-3.416A6.079,6.079,0,0,0,39.8.028a4.925,4.925,0,0,0-4.667,2.406L32.508,6.3,29.879,2.434A4.921,4.921,0,0,0,25.216.027a6.081,6.081,0,0,0-4.751,3.815,5.357,5.357,0,0,0-.247,3.416H17.672a4,4,0,0,0-3.995,3.993V13a4,4,0,0,0,3.27,3.926ZM37.17,3.817a2.52,2.52,0,0,1,2.367-1.343,3.617,3.617,0,0,1,2.73,2.286,2.843,2.843,0,0,1-.111,2.5H34.832Zm-14.422.944a3.618,3.618,0,0,1,2.732-2.287,2.517,2.517,0,0,1,2.365,1.343l2.34,3.442H22.858A2.842,2.842,0,0,1,22.748,4.761Zm-6.609,6.49A1.534,1.534,0,0,1,17.672,9.72H47.345a1.535,1.535,0,0,1,1.534,1.532V13a1.535,1.535,0,0,1-1.534,1.532H32.509a1.23,1.23,0,1,0,0,2.461h13.1V34.92a1.763,1.763,0,0,1-1.761,1.762H21.173a1.765,1.765,0,0,1-1.764-1.762V16.992h1.862a1.23,1.23,0,0,0,0-2.461h-3.6A1.534,1.534,0,0,1,16.139,13V11.252Z"/>
        <path id="Trazado_595227" data-name="Trazado 595227" d="M26.8,16.992a1.23,1.23,0,1,0,0-2.461h0a1.23,1.23,0,1,0,0,2.461Z"/>
      </g>
    </g>
  </g>
</svg>
