<svg xmlns="http://www.w3.org/2000/svg" xmlns:xlink="http://www.w3.org/1999/xlink" width="83" height="82" viewBox="0 0 83 82">
  <defs>
    <clipPath id="clip-path">
      <rect id="Rectángulo_293496" data-name="Rectángulo 293496" width="83" height="82" transform="translate(685.168 9221.309)" fill="#fffae7"/>
    </clipPath>
  </defs>
  <g id="Enmascarar_grupo_700420" data-name="Enmascarar grupo 700420" transform="translate(-685.168 -9221.309)" clip-path="url(#clip-path)">
    <g id="creatividad" transform="translate(698.772 9221)">
      <path id="Trazado_595240" data-name="Trazado 595240" d="M55.583,48.428a25.534,25.534,0,0,1-3.926-13.382,1.2,1.2,0,0,0-1.2-1.2H50.2l5.23-10.682a4,4,0,0,0-1.841-5.36l-5.358-2.614a4.018,4.018,0,0,0-5.362,1.842L34.634,33.844H31.069V26.509a1.2,1.2,0,0,0-2.406,0v7.335H26.579V26.509a1.2,1.2,0,0,0-2.406,0v7.335H19.129L15.66,23.649a1.214,1.214,0,0,0-.365-.533L6.087,15.378a1.2,1.2,0,0,0-1.951.674l-2.5,11.972a1.22,1.22,0,0,0,.038.634l1.765,5.186H2.319a1.2,1.2,0,0,0-1.164.9A41.094,41.094,0,0,0,.062,44.189c-.021,7.09,1.833,13.134,5.36,17.479a1.2,1.2,0,0,0,1.868-1.516c-6.62-8.156-4.7-20.5-4.007-23.9H30.258a11.924,11.924,0,0,1-3.726,8.011A7.357,7.357,0,0,0,21.644,42.1a6.736,6.736,0,0,0-1.684,13.259A19.823,19.823,0,0,1,11.2,64.039a1.2,1.2,0,0,0-1.162,1.2V76.575a1.2,1.2,0,0,0,1.2,1.2H30.167a1.2,1.2,0,0,0,1.2-1.2V71.243h3.085A18.178,18.178,0,0,0,52.583,54.083a3.64,3.64,0,0,0,3.074-1.9,3.7,3.7,0,0,0-.074-3.757ZM45.025,18.088a1.609,1.609,0,0,1,2.148-.738l5.358,2.614a1.613,1.613,0,0,1,.735,2.14l-.944,1.927L50.209,23a1.2,1.2,0,0,0-1.055,2.162l2.11,1.029-1.841,3.76-3.43-1.673a1.2,1.2,0,0,0-1.054,2.161l3.427,1.672-.848,1.731H37.312ZM12.468,33.844l-1.577-4.759,3.092-2.9,2.6,7.654ZM5.579,20.905l2.4-.8,4.736,3.979-3.621,3.39-4.817-.316ZM4.531,29.589l4.082.268,1.321,3.987H5.978ZM53.553,51.02a1.254,1.254,0,0,1-1.1.661H51.408a1.264,1.264,0,0,0-1.2,1.407A15.767,15.767,0,0,1,34.455,68.837H30.167a1.2,1.2,0,0,0-1.2,1.2v5.333H12.444V66.114a21.877,21.877,0,0,0,10.4-11.295,1.2,1.2,0,0,0-1.166-1.648h-.031a4.33,4.33,0,0,1,0-8.661A5.121,5.121,0,0,1,25.4,46.622a1.2,1.2,0,0,0,1.616.309A13.884,13.884,0,0,0,32.666,36.25H49.279a28.126,28.126,0,0,0,4.249,13.429,1.321,1.321,0,0,1,.025,1.341Zm0,0" transform="translate(-0.061 4.531)"/>
      <path id="Trazado_595241" data-name="Trazado 595241" d="M32.319,34.059a4.415,4.415,0,0,0-4.41,4.41,1.2,1.2,0,0,0,2.406,0,2,2,0,1,1,4.008,0,1.2,1.2,0,0,0,2.406,0,4.415,4.415,0,0,0-4.41-4.41Zm0,0" transform="translate(8.474 10.439)"/>
      <path id="Trazado_595242" data-name="Trazado 595242" d="M5.85,9.393H7.1V10.64a1.2,1.2,0,0,0,2.406,0V9.393H10.75a1.2,1.2,0,0,0,0-2.406H9.5V5.74a1.2,1.2,0,0,0-2.406,0V6.988H5.85A1.2,1.2,0,0,0,5.85,9.393Zm0,0" transform="translate(1.356 1.403)"/>
      <path id="Trazado_595243" data-name="Trazado 595243" d="M29.833,4.852h1.247V6.1a1.2,1.2,0,0,0,2.406,0V4.852h1.248a1.2,1.2,0,0,0,0-2.406H33.486V1.2a1.2,1.2,0,0,0-2.406,0V2.445H29.833a1.2,1.2,0,0,0,0,2.406Zm0,0" transform="translate(8.707 0.011)"/>
      <path id="Trazado_595244" data-name="Trazado 595244" d="M36.217,11.726h1.247v1.247a1.2,1.2,0,0,0,2.406,0V11.726h1.247a1.2,1.2,0,0,0,0-2.406H39.87V8.072a1.2,1.2,0,0,0-2.406,0V9.32H36.217A1.2,1.2,0,0,0,36.217,11.726Zm0,0" transform="translate(10.664 2.118)"/>
      <path id="Trazado_595245" data-name="Trazado 595245" d="M14.6,29.943a1.256,1.256,0,0,0,1.339-.374c.05-.062,1.194-1.473,2.406-3.1a7.2,7.2,0,0,0,4.962,1.956h.019a7.3,7.3,0,0,0,5-1.979c1.191,1.621,2.315,3.021,2.364,3.083a1.215,1.215,0,0,0,2.141-.747l.041-7.5a3.6,3.6,0,0,0-1.061-2.58,3.69,3.69,0,0,0-1.14-.777l.028-5.117c.025-4.6-2.269-9.045-6.462-12.517A1.2,1.2,0,0,0,22.7,2.135,14.975,14.975,0,0,1,28,10.2l-9.171.022a13.067,13.067,0,0,1,1.7-3.958A1.2,1.2,0,0,0,18.5,4.977a14.667,14.667,0,0,0-2.387,7.84l-.028,5.129A3.7,3.7,0,0,0,13.842,21.3L13.8,28.8a1.2,1.2,0,0,0,.8,1.139Zm1.649-8.628a1.315,1.315,0,0,1,1.333-1.277h0a1.31,1.31,0,0,1,.938.383,1.215,1.215,0,0,1,.358.806,23.476,23.476,0,0,1-2.654,4.055Zm14.192,3.947a23.093,23.093,0,0,1-2.61-4.039,1.318,1.318,0,0,1,1.331-1.214h0a1.312,1.312,0,0,1,.938.384,1.217,1.217,0,0,1,.359.868ZM28.286,12.6c0,.061,0,.122,0,.183l-.027,4.926a3.714,3.714,0,0,0-2.839,3.56c0,.461.132,1.135,1.492,3.174a4.914,4.914,0,0,1-3.6,1.567h-.013A4.815,4.815,0,0,1,19.76,24.48c1.382-2.045,1.523-2.718,1.527-3.178a3.6,3.6,0,0,0-1.061-2.58,3.676,3.676,0,0,0-1.739-.978l.027-4.914c0-.068,0-.135,0-.2Zm0,0" transform="translate(4.15 0)"/>
      <path id="Trazado_595246" data-name="Trazado 595246" d="M16.608,39.88a1.2,1.2,0,0,0,0,2.406A1.2,1.2,0,0,0,16.608,39.88Zm0,0" transform="translate(4.654 12.223)"/>
    </g>
  </g>
</svg>
