<svg xmlns="http://www.w3.org/2000/svg" xmlns:xlink="http://www.w3.org/1999/xlink" width="82" height="81" viewBox="0 0 82 81">
  <defs>
    <clipPath id="clip-path">
      <rect id="Rectángulo_293507" data-name="Rectángulo 293507" width="82" height="81" transform="translate(1068 9223)" fill="#fffae7"/>
    </clipPath>
  </defs>
  <g id="Enmascarar_grupo_700427" data-name="Enmascarar grupo 700427" transform="translate(-1068 -9223)" clip-path="url(#clip-path)">
    <g id="regalo" transform="translate(1070.769 9223)">
      <path id="Trazado_595247" data-name="Trazado 595247" d="M60.8,43.275,47.393,49.918a5.9,5.9,0,0,0-4.056-4.288l-6.21-1.841c-4.477-1.331-10.37-2.425-16.24.961-.373.214-.706.427-1,.616a5.7,5.7,0,0,1-3.748,1.163,4.216,4.216,0,0,0-3.9-2.631H5.872a4.214,4.214,0,0,0-4.21,4.209v14.76a4.214,4.214,0,0,0,4.21,4.209h6.363a4.214,4.214,0,0,0,4.2-3.933,25.228,25.228,0,0,1,7.938,1.286c1.967.579,10.372,3.024,11.012,3.21a20.75,20.75,0,0,0,5.738,1.128c2.09,0,4.275-.657,7.147-2.571l.04-.027L66.777,53.025A5.718,5.718,0,0,0,60.8,43.275ZM13.292,62.867a1.058,1.058,0,0,1-1.057,1.056H5.872a1.058,1.058,0,0,1-1.057-1.056V48.107a1.058,1.058,0,0,1,1.057-1.056h6.363a1.058,1.058,0,0,1,1.057,1.056v14.76ZM64.95,50.455,46.5,63.584c-4.183,2.782-5.958,2.267-10.238,1.026-.648-.188-9.036-2.628-11-3.206a27.983,27.983,0,0,0-8.818-1.413V49.678a8.689,8.689,0,0,0,5.142-1.656c.277-.177.562-.361.871-.537,3.822-2.2,7.94-2.405,13.771-.672l6.211,1.841a2.728,2.728,0,0,1,1.851,3.366l0,.007a2.725,2.725,0,0,1-3.372,1.838l-8.881-2.574a1.576,1.576,0,0,0-.878,3.028l8.881,2.574A5.888,5.888,0,0,0,47.067,53.6L62.2,46.1a2.773,2.773,0,0,1,3.668.767,2.684,2.684,0,0,1-.92,3.587Z" transform="translate(-1.661 11.953)"/>
      <path id="Trazado_595248" data-name="Trazado 595248" d="M5.251,28.6h8.528a1.577,1.577,0,1,0,0-3.153H5.251a1.577,1.577,0,1,0,0,3.153Z" transform="translate(-1.095 7.157)"/>
      <path id="Trazado_595249" data-name="Trazado 595249" d="M5.446,20.266l7.4,3.611a1.577,1.577,0,1,0,1.383-2.833l-7.4-3.611a1.577,1.577,0,1,0-1.383,2.833Z" transform="translate(-0.846 4.858)"/>
      <path id="Trazado_595250" data-name="Trazado 595250" d="M12.843,30.965l-7.4,3.611A1.577,1.577,0,1,0,6.83,37.409l7.4-3.611a1.577,1.577,0,1,0-1.383-2.833Z" transform="translate(-0.846 8.664)"/>
      <path id="Trazado_595251" data-name="Trazado 595251" d="M62.326,25.448H53.8a1.577,1.577,0,0,0,0,3.153h8.528a1.577,1.577,0,1,0,0-3.153Z" transform="translate(12.559 7.157)"/>
      <path id="Trazado_595252" data-name="Trazado 595252" d="M53.8,24.037a1.571,1.571,0,0,0,.691-.16l7.392-3.611A1.577,1.577,0,1,0,60.5,17.432l-7.392,3.611a1.577,1.577,0,0,0,.693,2.993Z" transform="translate(12.559 4.858)"/>
      <path id="Trazado_595253" data-name="Trazado 595253" d="M61.883,34.576l-7.392-3.611A1.577,1.577,0,1,0,53.107,33.8L60.5,37.409a1.577,1.577,0,1,0,1.384-2.833Z" transform="translate(12.559 8.664)"/>
      <path id="Trazado_595254" data-name="Trazado 595254" d="M17.868,21.685V44.741a5.418,5.418,0,0,0,5.413,5.411H52.329a5.416,5.416,0,0,0,5.409-5.411V21.686a5.124,5.124,0,0,0,4.194-5.031V14.416A5.123,5.123,0,0,0,56.814,9.3H53.548a6.865,6.865,0,0,0-.316-4.377A7.789,7.789,0,0,0,47.148.035a6.31,6.31,0,0,0-5.979,3.083L37.8,8.072,34.436,3.118A6.305,6.305,0,0,0,28.461.035a7.791,7.791,0,0,0-6.087,4.888A6.864,6.864,0,0,0,22.057,9.3H18.8a5.123,5.123,0,0,0-5.118,5.116v2.239a5.124,5.124,0,0,0,4.19,5.03ZM43.777,4.891A3.229,3.229,0,0,1,46.81,3.17a4.634,4.634,0,0,1,3.5,2.929,3.642,3.642,0,0,1-.142,3.2H40.782ZM25.3,6.1a4.636,4.636,0,0,1,3.5-2.93,3.225,3.225,0,0,1,3.03,1.72l3,4.41H25.44A3.641,3.641,0,0,1,25.3,6.1Zm-8.468,8.316A1.966,1.966,0,0,1,18.8,12.454H56.814a1.966,1.966,0,0,1,1.965,1.963v2.239a1.966,1.966,0,0,1-1.965,1.963H37.8a1.577,1.577,0,1,0,0,3.153h16.78v22.97A2.259,2.259,0,0,1,52.329,47H23.281a2.261,2.261,0,0,1-2.26-2.258V21.771h2.385a1.577,1.577,0,1,0,0-3.153H18.8a1.966,1.966,0,0,1-1.965-1.963V14.416Z" transform="translate(1.718 0)"/>
      <path id="Trazado_595255" data-name="Trazado 595255" d="M27.145,17.684a1.577,1.577,0,1,0,0-3.153h0a1.577,1.577,0,1,0,0,3.153Z" transform="translate(5.062 4.087)"/>
    </g>
  </g>
</svg>
