<svg xmlns="http://www.w3.org/2000/svg" xmlns:xlink="http://www.w3.org/1999/xlink" width="81" height="80" viewBox="0 0 81 80">
  <defs>
    <clipPath id="clip-path">
      <rect id="Rectángulo_293506" data-name="Rectángulo 293506" width="81" height="80" transform="translate(1169 9112.047)" fill="#fffae7"/>
    </clipPath>
  </defs>
  <g id="Enmascarar_grupo_700426" data-name="Enmascarar grupo 700426" transform="translate(-1169 -9112.047)" clip-path="url(#clip-path)">
    <g id="XMLID_706_" transform="translate(1169.691 9111.98)">
      <path id="XMLID_741_" d="M79.519,24.525a17.771,17.771,0,0,0-26.2-12l-.952.54-.953-.54a17.459,17.459,0,0,0-15.778-.761,17.922,17.922,0,0,0-9.42,9.535A17.769,17.769,0,0,0,.405,33.514,17.832,17.832,0,0,0,6.068,50.281l21.491,19L45.046,53.821l7.318,6.469,21.491-19a17.831,17.831,0,0,0,5.663-16.766ZM9.173,46.768A13.127,13.127,0,0,1,5,34.425a12.944,12.944,0,0,1,7.384-9.352,12.946,12.946,0,0,1,11.905.515l3.266,1.853,3.266-1.853a13.082,13.082,0,0,1,19.289,8.837,13.127,13.127,0,0,1-4.169,12.343L27.559,63.021Zm61.578-8.989L52.365,54.032l-3.779-3.34.465-.411a17.831,17.831,0,0,0,5.663-16.767A17.793,17.793,0,0,0,32.505,19.836a13.454,13.454,0,0,1,5.015-3.783A12.811,12.811,0,0,1,49.1,16.6l3.266,1.853L55.63,16.6a13.082,13.082,0,0,1,19.289,8.837,13.127,13.127,0,0,1-4.168,12.343Z" transform="translate(-0.038 2.737)"/>
      <path id="XMLID_1569_" d="M2.585,13.174l8.25,7.292,8.25-7.292a7.551,7.551,0,0,0,2.4-7.1A7.527,7.527,0,0,0,10.834.754,7.527,7.527,0,0,0,.187,6.073a7.552,7.552,0,0,0,2.4,7.1Zm2.2-6.19a2.807,2.807,0,0,1,1.6-2.028,2.807,2.807,0,0,1,2.582.112l1.865,1.058L12.7,5.068a2.837,2.837,0,0,1,4.183,1.917,2.847,2.847,0,0,1-.9,2.677l-5.145,4.548L5.69,9.661a2.847,2.847,0,0,1-.9-2.677Z" transform="translate(-0.045 0)"/>
      <path id="XMLID_1572_" d="M67.384,52.942a7.527,7.527,0,0,0-10.648-5.319,7.526,7.526,0,0,0-10.648,5.319,7.551,7.551,0,0,0,2.4,7.1l8.25,7.293,8.25-7.293A7.551,7.551,0,0,0,67.384,52.942Zm-5.5,3.588-5.145,4.548L51.592,56.53a2.847,2.847,0,0,1-.9-2.677,2.807,2.807,0,0,1,1.6-2.028,2.808,2.808,0,0,1,2.582.112L56.737,53,58.6,51.937a2.837,2.837,0,0,1,4.183,1.916,2.847,2.847,0,0,1-.9,2.677Z" transform="translate(12.292 12.596)"/>
      <path id="XMLID_1573_" d="M33.518,53.319h4.688v4.532H33.518Z" transform="translate(8.952 14.33)"/>
      <path id="XMLID_1574_" d="M27.258,2.964h4.688V7.5H27.258Z" transform="translate(7.269 0.797)"/>
      <path id="XMLID_1575_" d="M3.168,50.753H7.856v4.532H3.168Z" transform="translate(0.795 13.64)"/>
      <path id="XMLID_1576_" d="M58.224,7.439h4.688v4.532H58.224Z" transform="translate(15.591 1.999)"/>
    </g>
  </g>
</svg>
