<svg xmlns="http://www.w3.org/2000/svg" xmlns:xlink="http://www.w3.org/1999/xlink" width="83" height="82" viewBox="0 0 83 82">
  <defs>
    <clipPath id="clip-path">
      <rect id="Rectángulo_293509" data-name="Rectángulo 293509" width="83" height="82" transform="translate(879 9218)" fill="#fffae7"/>
    </clipPath>
  </defs>
  <g id="Enmascarar_grupo_700429" data-name="Enmascarar grupo 700429" transform="translate(-879 -9218)" clip-path="url(#clip-path)">
    <g id="XMLID_1180_" transform="translate(885.869 9218)">
      <g id="XMLID_887_" transform="translate(0 0)">
        <path id="XMLID_1013_" d="M37.9,44.983V41.05h2.1A4.754,4.754,0,0,0,44.743,36.3V34.8h1.633A1.6,1.6,0,0,0,47.9,32.74l-1.97-6.414a12.385,12.385,0,0,0-24.767.032c0,.009,0,.018,0,.027V41.005a1.6,1.6,0,0,0,1.146,1.531l13.542,3.978A1.6,1.6,0,0,0,37.9,44.983Zm-1.6-7.124a1.6,1.6,0,0,0-1.6,1.6v3.4l-10.35-3.041V26.4A9.206,9.206,0,0,1,33.55,17.38H33.7a9.234,9.234,0,0,1,9.042,9.193,1.591,1.591,0,0,0,.07.469l1.4,4.57h-1.07a1.6,1.6,0,0,0-1.6,1.6V36.3a1.559,1.559,0,0,1-1.557,1.557H36.3Z" transform="translate(0.061 4.211)"/>
        <path id="XMLID_1018_" d="M4.8,61.969a7.34,7.34,0,1,0,13.532-3.935l4.276-4.276a25.467,25.467,0,0,0,4.318,3.069V71.591a1.6,1.6,0,0,0,1.6,1.6H30.2a9.252,9.252,0,0,0,18.445,0h1.685a1.6,1.6,0,0,0,1.6-1.6V56.827a25.466,25.466,0,0,0,4.318-3.069l4.276,4.276a7.351,7.351,0,1,0,2.257-2.257L58.5,51.5a25.368,25.368,0,0,0,6.376-16.847,25.253,25.253,0,0,0-5.062-15.246q-.621-.83-1.31-1.606l4.271-4.271a7.351,7.351,0,1,0-2.257-2.257l-4.277,4.277a25.565,25.565,0,0,0-9.272-5.216,1.6,1.6,0,1,0-.944,3.049A22.27,22.27,0,0,1,49.16,54.677H29.692A22.268,22.268,0,0,1,32.777,13.4a1.6,1.6,0,1,0-.952-3.046,25.583,25.583,0,0,0-9.216,5.2l-4.28-4.281a7.351,7.351,0,1,0-2.257,2.257l4.275,4.275q-.7.787-1.328,1.629a25.465,25.465,0,0,0-.96,29.056A25.628,25.628,0,0,0,20.348,51.5l-4.276,4.276A7.335,7.335,0,0,0,4.8,61.969ZM16.286,7.34a4.149,4.149,0,1,1-4.149-4.149A4.154,4.154,0,0,1,16.286,7.34Zm50.429,4.149A4.149,4.149,0,1,1,70.864,7.34,4.154,4.154,0,0,1,66.715,11.489ZM48.738,57.868v4.438H30.114V57.868Zm13.828,4.1a4.149,4.149,0,1,1,4.149,4.149A4.154,4.154,0,0,1,62.566,61.969ZM33.409,73.187H45.443a6.062,6.062,0,0,1-12.033,0Zm-3.3-7.63H48.738V70H30.114ZM7.988,61.969a4.149,4.149,0,1,1,4.149,4.149A4.154,4.154,0,0,1,7.988,61.969Z" transform="translate(-4.797 0)"/>
        <path id="XMLID_1604_" d="M31.846,10.285a1.6,1.6,0,1,1,1.128-.468A1.608,1.608,0,0,1,31.846,10.285Z" transform="translate(2.758 2.106)"/>
      </g>
    </g>
  </g>
</svg>
