<svg xmlns="http://www.w3.org/2000/svg" xmlns:xlink="http://www.w3.org/1999/xlink" width="1030" height="412.846" viewBox="0 0 1030 412.846">
  <defs>
    <linearGradient id="linear-gradient" x1="-0.01" y1="0.464" x2="1" y2="0.5" gradientUnits="objectBoundingBox">
      <stop offset="0" stop-color="#ffdcaa"/>
      <stop offset="0.525" stop-color="#fc4f83"/>
      <stop offset="1" stop-color="#c73397"/>
    </linearGradient>
    <clipPath id="clip-path">
      <rect id="Rectángulo_293407" data-name="Rectángulo 293407" width="820" height="261.03" fill="url(#linear-gradient)"/>
    </clipPath>
    <clipPath id="clip-path-2">
      <rect id="Rectángulo_42638" data-name="Rectángulo 42638" width="171.736" height="171.736" fill="#fff"/>
    </clipPath>
    <clipPath id="clip-path-3">
      <rect id="Rectángulo_42639" data-name="Rectángulo 42639" width="171.737" height="171.736" fill="none"/>
    </clipPath>
    <clipPath id="clip-path-5">
      <rect id="Rectángulo_42641" data-name="Rectángulo 42641" width="171.735" height="171.736" fill="none"/>
    </clipPath>
    <radialGradient id="radial-gradient" cx="0.747" cy="0.171" r="0.876" gradientTransform="matrix(-0.433, 0.902, -0.902, -0.433, 1.225, -0.428)" gradientUnits="objectBoundingBox">
      <stop offset="0" stop-color="#fff"/>
      <stop offset="0.515" stop-color="#fbfcfd"/>
      <stop offset="1" stop-color="#d2d5e1"/>
    </radialGradient>
    <clipPath id="clip-path-6">
      <rect id="Rectángulo_293409" data-name="Rectángulo 293409" width="69" height="68" transform="translate(488 2311.847)" fill="#ffeeb0"/>
    </clipPath>
    <clipPath id="clip-path-7">
      <rect id="Rectángulo_293410" data-name="Rectángulo 293410" width="69" height="68" transform="translate(673 2311.847)" fill="#ffeeb0"/>
    </clipPath>
    <clipPath id="clip-path-8">
      <rect id="Rectángulo_293411" data-name="Rectángulo 293411" width="69" height="68" transform="translate(858 2311.847)" fill="#ffeeb0"/>
    </clipPath>
    <clipPath id="clip-path-9">
      <rect id="Rectángulo_293412" data-name="Rectángulo 293412" width="69" height="68" transform="translate(1044 2311.847)" fill="#ffeeb0"/>
    </clipPath>
  </defs>
  <g id="Grupo_874315" data-name="Grupo 874315" transform="translate(-285 -2137)">
    <g id="Grupo_874314" data-name="Grupo 874314" transform="translate(390 2217.588)">
      <g id="Grupo_874313" data-name="Grupo 874313" transform="translate(0 0)" clip-path="url(#clip-path)">
        <path id="Trazado_595121" data-name="Trazado 595121" d="M740.124,134.081a52.708,52.708,0,0,1-105.091-3.435h-.115a132.42,132.42,0,0,0-264.767.483h.058a52.709,52.709,0,0,1-105.319-.483h-.063A132.442,132.442,0,0,0,132.437,0c-.609,0-1.217,0-1.829.013A132.436,132.436,0,0,0,0,129.433l79.755.365a52.7,52.7,0,0,1,105.31.483h.077a132.425,132.425,0,0,0,264.808,1.207h-.062a52.711,52.711,0,0,1,105.321.488h.115A132.417,132.417,0,0,0,820,134.081Z" fill="url(#linear-gradient)"/>
      </g>
    </g>
    <path id="Trazado_595553" data-name="Trazado 595553" d="M38.932,13.454H33.87v3.428h5.941V19H31.233V6.2h8.561V8.339H33.87v3.05h5.063Zm4.6-3.964.079,1.1a3.32,3.32,0,0,1,2.733-1.274,2.759,2.759,0,0,1,2.25.888,4.142,4.142,0,0,1,.756,2.654V19h-2.54V12.918a1.648,1.648,0,0,0-.352-1.173,1.574,1.574,0,0,0-1.169-.365,1.747,1.747,0,0,0-1.608.914V19h-2.54V9.49ZM51.966,19V11.354H50.551V9.49h1.415V8.682A3.283,3.283,0,0,1,52.885,6.2a3.557,3.557,0,0,1,2.571-.883,5.938,5.938,0,0,1,1.292.176L56.721,7.46a3.238,3.238,0,0,0-.773-.079q-1.433,0-1.433,1.345V9.49H56.4v1.863h-1.89V19Zm5.361-4.843a5.64,5.64,0,0,1,.545-2.522,3.989,3.989,0,0,1,1.569-1.714,4.577,4.577,0,0,1,2.377-.606,4.33,4.33,0,0,1,3.142,1.178,4.727,4.727,0,0,1,1.358,3.2l.018.65a4.97,4.97,0,0,1-1.222,3.511,4.735,4.735,0,0,1-6.561,0,5.058,5.058,0,0,1-1.226-3.586Zm2.54.18a3.555,3.555,0,0,0,.51,2.073,1.831,1.831,0,0,0,2.9.009,3.89,3.89,0,0,0,.519-2.267,3.519,3.519,0,0,0-.519-2.06,1.686,1.686,0,0,0-1.459-.731,1.658,1.658,0,0,0-1.441.726A3.955,3.955,0,0,0,59.868,14.338Zm7.638-.18a5.684,5.684,0,0,1,1-3.542,3.261,3.261,0,0,1,2.738-1.3,2.92,2.92,0,0,1,2.435,1.169l.167-.993h2.232V22.656H73.526V18.183a2.928,2.928,0,0,1-2.3.993,3.237,3.237,0,0,1-2.707-1.318A5.963,5.963,0,0,1,67.505,14.157Zm2.54.18a3.729,3.729,0,0,0,.479,2.077,1.533,1.533,0,0,0,1.349.713,1.708,1.708,0,0,0,1.652-.933V12.26a1.694,1.694,0,0,0-1.635-.9,1.552,1.552,0,0,0-1.362.713A4.118,4.118,0,0,0,70.045,14.338Zm13.72,3.7a3.185,3.185,0,0,1-2.6,1.143A3,3,0,0,1,78.83,18.3a3.752,3.752,0,0,1-.822-2.575V9.49h2.54v6.151q0,1.487,1.354,1.487a1.834,1.834,0,0,0,1.775-.9V9.49h2.549V19H83.836Zm8.754,1.143a4.668,4.668,0,0,1-3.406-1.283A4.561,4.561,0,0,1,87.8,14.474v-.246a5.745,5.745,0,0,1,.554-2.562,4.064,4.064,0,0,1,1.569-1.74,4.4,4.4,0,0,1,2.316-.611,3.947,3.947,0,0,1,3.072,1.23,5,5,0,0,1,1.121,3.489v1.037H90.375a2.36,2.36,0,0,0,.743,1.494,2.245,2.245,0,0,0,1.569.563,2.742,2.742,0,0,0,2.294-1.063l1.248,1.4a3.813,3.813,0,0,1-1.547,1.261A5.075,5.075,0,0,1,92.519,19.176Zm-.29-7.813A1.587,1.587,0,0,0,91,11.874a2.651,2.651,0,0,0-.6,1.466h3.533v-.2a1.891,1.891,0,0,0-.457-1.311A1.638,1.638,0,0,0,92.229,11.362Zm14.5,7.813a4.668,4.668,0,0,1-3.406-1.283,4.561,4.561,0,0,1-1.314-3.419v-.246a5.745,5.745,0,0,1,.554-2.562,4.064,4.064,0,0,1,1.569-1.74,4.4,4.4,0,0,1,2.316-.611,3.947,3.947,0,0,1,3.072,1.23,5,5,0,0,1,1.121,3.489v1.037h-6.056a2.36,2.36,0,0,0,.743,1.494,2.245,2.245,0,0,0,1.569.563,2.742,2.742,0,0,0,2.294-1.063l1.248,1.4a3.813,3.813,0,0,1-1.547,1.261A5.075,5.075,0,0,1,106.731,19.176Zm-.29-7.813a1.587,1.587,0,0,0-1.226.512,2.651,2.651,0,0,0-.6,1.466h3.533v-.2a1.891,1.891,0,0,0-.457-1.311A1.638,1.638,0,0,0,106.441,11.362Zm7.98-1.872.079,1.1a3.32,3.32,0,0,1,2.733-1.274,2.759,2.759,0,0,1,2.25.888,4.142,4.142,0,0,1,.756,2.654V19H117.7V12.918a1.648,1.648,0,0,0-.352-1.173,1.574,1.574,0,0,0-1.169-.365,1.747,1.747,0,0,0-1.608.914V19h-2.54V9.49ZM35.786,39a2.821,2.821,0,0,1-.255-.853,3.073,3.073,0,0,1-2.4,1.028,3.376,3.376,0,0,1-2.316-.809,2.6,2.6,0,0,1-.918-2.039,2.687,2.687,0,0,1,1.121-2.32,5.529,5.529,0,0,1,3.239-.817h1.169v-.545a1.567,1.567,0,0,0-.338-1.055,1.331,1.331,0,0,0-1.068-.4,1.513,1.513,0,0,0-1.006.308,1.045,1.045,0,0,0-.365.844h-2.54a2.551,2.551,0,0,1,.51-1.529,3.37,3.37,0,0,1,1.441-1.1,5.253,5.253,0,0,1,2.092-.4,4.15,4.15,0,0,1,2.791.883,3.09,3.09,0,0,1,1.033,2.483V36.8a4.546,4.546,0,0,0,.378,2.048V39Zm-2.1-1.767a2.188,2.188,0,0,0,1.037-.25,1.645,1.645,0,0,0,.7-.672V34.676h-.949q-1.907,0-2.03,1.318l-.009.149a1.017,1.017,0,0,0,.334.782A1.3,1.3,0,0,0,33.685,37.233Zm10.2-.105a1.666,1.666,0,0,0,1.143-.387,1.355,1.355,0,0,0,.457-1.028h2.382a3.258,3.258,0,0,1-.527,1.771,3.48,3.48,0,0,1-1.419,1.248,4.442,4.442,0,0,1-1.991.444,4.129,4.129,0,0,1-3.217-1.3A5.13,5.13,0,0,1,39.53,34.3v-.167A5.071,5.071,0,0,1,40.7,30.624a4.08,4.08,0,0,1,3.208-1.31,4,4,0,0,1,2.861,1.015,3.594,3.594,0,0,1,1.094,2.7H45.48a1.745,1.745,0,0,0-.457-1.206,1.7,1.7,0,0,0-2.5.183,3.749,3.749,0,0,0-.453,2.1v.264a3.8,3.8,0,0,0,.448,2.113A1.549,1.549,0,0,0,43.88,37.128Zm8.473-9.976V29.49h1.626v1.863H52.353V36.1a1.133,1.133,0,0,0,.2.756,1.015,1.015,0,0,0,.773.229,4.051,4.051,0,0,0,.747-.062v1.925a5.229,5.229,0,0,1-1.538.229,2.425,2.425,0,0,1-2.725-2.7V31.354H48.424V29.49h1.389V27.152ZM58.075,39H55.526V29.49h2.549Zm-2.7-11.971a1.251,1.251,0,0,1,.382-.94,1.648,1.648,0,0,1,2.079,0,1.342,1.342,0,0,1,0,1.89,1.629,1.629,0,0,1-2.065,0A1.247,1.247,0,0,1,55.377,27.029Zm8.35,8.868,1.767-6.407h2.654L64.939,39H62.513l-3.208-9.51H61.96ZM71.944,39H69.4V29.49h2.549Zm-2.7-11.971a1.251,1.251,0,0,1,.382-.94,1.648,1.648,0,0,1,2.079,0,1.342,1.342,0,0,1,0,1.89,1.629,1.629,0,0,1-2.065,0A1.247,1.247,0,0,1,69.246,27.029Zm4.395,7.146a5.731,5.731,0,0,1,1-3.542,3.237,3.237,0,0,1,2.729-1.318,2.913,2.913,0,0,1,2.294,1.037V25.5H82.21V39H79.916l-.123-1.011a2.989,2.989,0,0,1-2.443,1.187,3.228,3.228,0,0,1-2.694-1.323A5.916,5.916,0,0,1,73.64,34.175Zm2.54.189a3.754,3.754,0,0,0,.466,2.051A1.517,1.517,0,0,0,78,37.128a1.7,1.7,0,0,0,1.661-.995V32.375a1.675,1.675,0,0,0-1.644-.995Q76.18,31.38,76.18,34.364ZM89.689,39a2.821,2.821,0,0,1-.255-.853,3.073,3.073,0,0,1-2.4,1.028,3.376,3.376,0,0,1-2.316-.809,2.6,2.6,0,0,1-.918-2.039,2.687,2.687,0,0,1,1.121-2.32,5.529,5.529,0,0,1,3.239-.817h1.169v-.545a1.567,1.567,0,0,0-.338-1.055,1.331,1.331,0,0,0-1.068-.4,1.513,1.513,0,0,0-1.006.308,1.045,1.045,0,0,0-.365.844h-2.54a2.551,2.551,0,0,1,.51-1.529,3.37,3.37,0,0,1,1.441-1.1,5.253,5.253,0,0,1,2.092-.4,4.15,4.15,0,0,1,2.791.883,3.09,3.09,0,0,1,1.033,2.483V36.8a4.546,4.546,0,0,0,.378,2.048V39Zm-2.1-1.767a2.188,2.188,0,0,0,1.037-.25,1.645,1.645,0,0,0,.7-.672V34.676h-.949q-1.907,0-2.03,1.318l-.009.149a1.017,1.017,0,0,0,.334.782A1.3,1.3,0,0,0,87.588,37.233Zm5.845-3.059a5.731,5.731,0,0,1,1-3.542,3.237,3.237,0,0,1,2.729-1.318,2.913,2.913,0,0,1,2.294,1.037V25.5H102V39H99.709l-.123-1.011a2.989,2.989,0,0,1-2.443,1.187,3.228,3.228,0,0,1-2.694-1.323A5.916,5.916,0,0,1,93.433,34.175Zm2.54.189a3.754,3.754,0,0,0,.466,2.051,1.517,1.517,0,0,0,1.354.713,1.7,1.7,0,0,0,1.661-.995V32.375a1.675,1.675,0,0,0-1.644-.995Q95.973,31.38,95.973,34.364Zm12.375,4.812a4.668,4.668,0,0,1-3.406-1.283,4.561,4.561,0,0,1-1.314-3.419v-.246a5.745,5.745,0,0,1,.554-2.562,4.064,4.064,0,0,1,1.569-1.74,4.4,4.4,0,0,1,2.316-.611,3.947,3.947,0,0,1,3.072,1.23,5,5,0,0,1,1.121,3.489v1.037H106.2a2.36,2.36,0,0,0,.743,1.494,2.245,2.245,0,0,0,1.569.563,2.742,2.742,0,0,0,2.294-1.063l1.248,1.4a3.813,3.813,0,0,1-1.547,1.261A5.075,5.075,0,0,1,108.348,39.176Zm-.29-7.813a1.587,1.587,0,0,0-1.226.512,2.651,2.651,0,0,0-.6,1.466h3.533v-.2a1.891,1.891,0,0,0-.457-1.311A1.638,1.638,0,0,0,108.058,31.362Zm10.793,5.01a.818.818,0,0,0-.461-.734,5.241,5.241,0,0,0-1.481-.479q-3.393-.712-3.393-2.883a2.613,2.613,0,0,1,1.05-2.114,4.237,4.237,0,0,1,2.747-.848,4.56,4.56,0,0,1,2.9.853,2.687,2.687,0,0,1,1.085,2.215h-2.54a1.229,1.229,0,0,0-.352-.9,1.488,1.488,0,0,0-1.1-.356,1.52,1.52,0,0,0-.993.29.916.916,0,0,0-.352.738.783.783,0,0,0,.4.681,4.114,4.114,0,0,0,1.349.448,11.019,11.019,0,0,1,1.6.426,2.628,2.628,0,0,1,2.013,2.558,2.481,2.481,0,0,1-1.116,2.1,4.815,4.815,0,0,1-2.883.8,5.029,5.029,0,0,1-2.123-.426,3.561,3.561,0,0,1-1.455-1.169,2.716,2.716,0,0,1-.527-1.6h2.408a1.326,1.326,0,0,0,.5,1.037,1.987,1.987,0,0,0,1.248.36,1.839,1.839,0,0,0,1.1-.277A.861.861,0,0,0,118.851,36.372Z" transform="translate(446.789 2466.974)" fill="#12263f"/>
    <path id="Trazado_595552" data-name="Trazado 595552" d="M63.194,15.643a1.353,1.353,0,0,0-.527-1.147,6.917,6.917,0,0,0-1.9-.844,13.458,13.458,0,0,1-2.171-.875A3.547,3.547,0,0,1,56.418,9.6,3.09,3.09,0,0,1,57,7.754a3.812,3.812,0,0,1,1.679-1.27,6.318,6.318,0,0,1,2.457-.457,5.751,5.751,0,0,1,2.443.5,3.891,3.891,0,0,1,1.666,1.4,3.668,3.668,0,0,1,.593,2.057H63.2a1.726,1.726,0,0,0-.554-1.367,2.276,2.276,0,0,0-1.556-.488,2.432,2.432,0,0,0-1.5.409,1.289,1.289,0,0,0-.536,1.077,1.235,1.235,0,0,0,.628,1.046,7.1,7.1,0,0,0,1.85.791,7.994,7.994,0,0,1,3.278,1.679,3.343,3.343,0,0,1,1.028,2.5,3.08,3.08,0,0,1-1.257,2.606,5.5,5.5,0,0,1-3.384.945,6.534,6.534,0,0,1-2.689-.541,4.256,4.256,0,0,1-1.85-1.481,3.793,3.793,0,0,1-.637-2.18h2.646q0,2.118,2.531,2.118a2.462,2.462,0,0,0,1.468-.382A1.244,1.244,0,0,0,63.194,15.643ZM72.968,19a2.821,2.821,0,0,1-.255-.853,3.073,3.073,0,0,1-2.4,1.028A3.376,3.376,0,0,1,68,18.367a2.6,2.6,0,0,1-.918-2.039,2.687,2.687,0,0,1,1.121-2.32,5.529,5.529,0,0,1,3.239-.817h1.169v-.545a1.567,1.567,0,0,0-.338-1.055,1.331,1.331,0,0,0-1.068-.4,1.513,1.513,0,0,0-1.006.308,1.045,1.045,0,0,0-.365.844H67.29a2.551,2.551,0,0,1,.51-1.529,3.37,3.37,0,0,1,1.441-1.1,5.253,5.253,0,0,1,2.092-.4,4.15,4.15,0,0,1,2.791.883,3.09,3.09,0,0,1,1.033,2.483V16.8a4.546,4.546,0,0,0,.378,2.048V19Zm-2.1-1.767a2.188,2.188,0,0,0,1.037-.25,1.645,1.645,0,0,0,.7-.672V14.676h-.949q-1.907,0-2.03,1.318l-.009.149a1.017,1.017,0,0,0,.334.782A1.3,1.3,0,0,0,70.867,17.233ZM79.445,9.49l.079,1.1a3.32,3.32,0,0,1,2.733-1.274,2.759,2.759,0,0,1,2.25.888,4.142,4.142,0,0,1,.756,2.654V19h-2.54V12.918a1.648,1.648,0,0,0-.352-1.173A1.574,1.574,0,0,0,81.2,11.38a1.747,1.747,0,0,0-1.608.914V19h-2.54V9.49ZM92.7,19a2.821,2.821,0,0,1-.255-.853,3.073,3.073,0,0,1-2.4,1.028,3.376,3.376,0,0,1-2.316-.809,2.6,2.6,0,0,1-.918-2.039,2.687,2.687,0,0,1,1.121-2.32,5.529,5.529,0,0,1,3.239-.817h1.169v-.545A1.567,1.567,0,0,0,92,11.591a1.331,1.331,0,0,0-1.068-.4,1.513,1.513,0,0,0-1.006.308,1.045,1.045,0,0,0-.365.844h-2.54a2.551,2.551,0,0,1,.51-1.529,3.37,3.37,0,0,1,1.441-1.1,5.253,5.253,0,0,1,2.092-.4,4.15,4.15,0,0,1,2.791.883,3.09,3.09,0,0,1,1.033,2.483V16.8a4.546,4.546,0,0,0,.378,2.048V19Zm-2.1-1.767a2.188,2.188,0,0,0,1.037-.25,1.645,1.645,0,0,0,.7-.672V14.676H91.39q-1.907,0-2.03,1.318l-.009.149a1.017,1.017,0,0,0,.334.782A1.3,1.3,0,0,0,90.6,17.233ZM28.214,37.128a1.666,1.666,0,0,0,1.143-.387,1.355,1.355,0,0,0,.457-1.028H32.2a3.258,3.258,0,0,1-.527,1.771,3.48,3.48,0,0,1-1.419,1.248,4.442,4.442,0,0,1-1.991.444,4.129,4.129,0,0,1-3.217-1.3A5.13,5.13,0,0,1,23.863,34.3v-.167a5.071,5.071,0,0,1,1.169-3.507,4.08,4.08,0,0,1,3.208-1.31A4,4,0,0,1,31.1,30.33a3.594,3.594,0,0,1,1.094,2.7H29.814a1.745,1.745,0,0,0-.457-1.206,1.7,1.7,0,0,0-2.5.183,3.749,3.749,0,0,0-.453,2.1v.264a3.8,3.8,0,0,0,.448,2.113A1.549,1.549,0,0,0,28.214,37.128Zm5.036-2.971a5.64,5.64,0,0,1,.545-2.522,3.989,3.989,0,0,1,1.569-1.714,4.577,4.577,0,0,1,2.377-.606,4.33,4.33,0,0,1,3.142,1.178,4.727,4.727,0,0,1,1.358,3.2l.018.65a4.97,4.97,0,0,1-1.222,3.511,4.247,4.247,0,0,1-3.278,1.323,4.268,4.268,0,0,1-3.283-1.318,5.058,5.058,0,0,1-1.226-3.586Zm2.54.18a3.555,3.555,0,0,0,.51,2.073,1.831,1.831,0,0,0,2.9.009,3.89,3.89,0,0,0,.519-2.267,3.519,3.519,0,0,0-.519-2.06,1.686,1.686,0,0,0-1.459-.731,1.658,1.658,0,0,0-1.441.726A3.955,3.955,0,0,0,35.79,34.338ZM46.205,29.49l.079,1.063a3.342,3.342,0,0,1,2.733-1.239,2.536,2.536,0,0,1,2.522,1.45,3.265,3.265,0,0,1,2.856-1.45,2.836,2.836,0,0,1,2.3.9,4.141,4.141,0,0,1,.756,2.711V39H54.906V32.936a1.811,1.811,0,0,0-.316-1.182,1.4,1.4,0,0,0-1.116-.374,1.585,1.585,0,0,0-1.582,1.09L51.9,39H49.36V32.944a1.789,1.789,0,0,0-.325-1.2,1.416,1.416,0,0,0-1.107-.369,1.646,1.646,0,0,0-1.564.9V39h-2.54V29.49Zm21.762,4.843a5.7,5.7,0,0,1-1,3.52,3.2,3.2,0,0,1-2.694,1.323,2.963,2.963,0,0,1-2.329-1v4.482h-2.54V29.49h2.355l.088.932a2.985,2.985,0,0,1,2.408-1.107,3.22,3.22,0,0,1,2.733,1.3,5.858,5.858,0,0,1,.976,3.586Zm-2.54-.185a3.743,3.743,0,0,0-.47-2.048,1.532,1.532,0,0,0-1.367-.721,1.663,1.663,0,0,0-1.644.914v3.894a1.692,1.692,0,0,0,1.661.94Q65.427,37.128,65.427,34.148Zm8.49,5.027a4.668,4.668,0,0,1-3.406-1.283A4.561,4.561,0,0,1,69.2,34.474v-.246a5.745,5.745,0,0,1,.554-2.562,4.064,4.064,0,0,1,1.569-1.74,4.4,4.4,0,0,1,2.316-.611,3.947,3.947,0,0,1,3.072,1.23,5,5,0,0,1,1.121,3.489v1.037H71.773a2.36,2.36,0,0,0,.743,1.494,2.245,2.245,0,0,0,1.569.563,2.742,2.742,0,0,0,2.294-1.063l1.248,1.4a3.813,3.813,0,0,1-1.547,1.261A5.075,5.075,0,0,1,73.917,39.176Zm-.29-7.813a1.587,1.587,0,0,0-1.226.512,2.651,2.651,0,0,0-.6,1.466h3.533v-.2a1.891,1.891,0,0,0-.457-1.311A1.638,1.638,0,0,0,73.627,31.362Zm8.684-4.21V29.49h1.626v1.863H82.311V36.1a1.133,1.133,0,0,0,.2.756,1.015,1.015,0,0,0,.773.229,4.051,4.051,0,0,0,.747-.062v1.925a5.229,5.229,0,0,1-1.538.229,2.425,2.425,0,0,1-2.725-2.7V31.354H78.382V29.49h1.389V27.152Zm7.418,12.023a4.668,4.668,0,0,1-3.406-1.283,4.561,4.561,0,0,1-1.314-3.419v-.246a5.745,5.745,0,0,1,.554-2.562,4.064,4.064,0,0,1,1.569-1.74,4.4,4.4,0,0,1,2.316-.611,3.947,3.947,0,0,1,3.072,1.23,5,5,0,0,1,1.121,3.489v1.037H87.584a2.36,2.36,0,0,0,.743,1.494,2.245,2.245,0,0,0,1.569.563,2.742,2.742,0,0,0,2.294-1.063l1.248,1.4a3.813,3.813,0,0,1-1.547,1.261A5.075,5.075,0,0,1,89.729,39.176Zm-.29-7.813a1.587,1.587,0,0,0-1.226.512,2.651,2.651,0,0,0-.6,1.466h3.533v-.2a1.891,1.891,0,0,0-.457-1.311A1.638,1.638,0,0,0,89.439,31.362Zm7.98-1.872.079,1.1a3.32,3.32,0,0,1,2.733-1.274,2.759,2.759,0,0,1,2.25.888,4.142,4.142,0,0,1,.756,2.654V39H100.7V32.918a1.648,1.648,0,0,0-.352-1.173,1.574,1.574,0,0,0-1.169-.365,1.747,1.747,0,0,0-1.608.914V39h-2.54V29.49Zm11.7,7.638a1.666,1.666,0,0,0,1.143-.387,1.355,1.355,0,0,0,.457-1.028H113.1a3.258,3.258,0,0,1-.527,1.771,3.48,3.48,0,0,1-1.419,1.248,4.442,4.442,0,0,1-1.991.444,4.129,4.129,0,0,1-3.217-1.3,5.13,5.13,0,0,1-1.178-3.582v-.167a5.071,5.071,0,0,1,1.169-3.507,4.08,4.08,0,0,1,3.208-1.31A4,4,0,0,1,112,30.33a3.594,3.594,0,0,1,1.094,2.7h-2.382a1.745,1.745,0,0,0-.457-1.206,1.7,1.7,0,0,0-2.5.183,3.749,3.749,0,0,0-.453,2.1v.264a3.8,3.8,0,0,0,.448,2.113A1.549,1.549,0,0,0,109.117,37.128ZM117.23,39h-2.549V29.49h2.549Zm-2.7-11.971a1.251,1.251,0,0,1,.382-.94,1.648,1.648,0,0,1,2.079,0,1.342,1.342,0,0,1,0,1.89,1.629,1.629,0,0,1-2.065,0A1.247,1.247,0,0,1,114.531,27.029ZM124.832,39a2.821,2.821,0,0,1-.255-.853,3.073,3.073,0,0,1-2.4,1.028,3.376,3.376,0,0,1-2.316-.809,2.6,2.6,0,0,1-.918-2.039,2.687,2.687,0,0,1,1.121-2.32,5.529,5.529,0,0,1,3.239-.817h1.169v-.545a1.567,1.567,0,0,0-.338-1.055,1.331,1.331,0,0,0-1.068-.4,1.513,1.513,0,0,0-1.006.308,1.045,1.045,0,0,0-.365.844h-2.54a2.551,2.551,0,0,1,.51-1.529,3.37,3.37,0,0,1,1.441-1.1,5.253,5.253,0,0,1,2.092-.4,4.15,4.15,0,0,1,2.791.883,3.09,3.09,0,0,1,1.033,2.483V36.8a4.546,4.546,0,0,0,.378,2.048V39Zm-2.1-1.767a2.188,2.188,0,0,0,1.037-.25,1.645,1.645,0,0,0,.7-.672V34.676h-.949q-1.907,0-2.03,1.318l-.009.149a1.017,1.017,0,0,0,.334.782A1.3,1.3,0,0,0,122.732,37.233Z" transform="translate(816.592 2466.974)" fill="#12263f"/>
    <path id="Trazado_595550" data-name="Trazado 595550" d="M45.955,14.737a4.528,4.528,0,0,1-1.525,3.252A5.355,5.355,0,0,1,40.8,19.176a4.816,4.816,0,0,1-3.872-1.657,6.793,6.793,0,0,1-1.411-4.548v-.782a7.671,7.671,0,0,1,.65-3.252,4.874,4.874,0,0,1,1.859-2.158,5.809,5.809,0,0,1,6.376.435,4.866,4.866,0,0,1,1.564,3.331H43.336a2.673,2.673,0,0,0-.69-1.8,2.555,2.555,0,0,0-1.806-.558,2.24,2.24,0,0,0-1.973.945,5.3,5.3,0,0,0-.672,2.931v.967a5.667,5.667,0,0,0,.628,3.032,2.2,2.2,0,0,0,1.982.958,2.6,2.6,0,0,0,1.824-.558,2.521,2.521,0,0,0,.69-1.727Zm1.169-.58a5.64,5.64,0,0,1,.545-2.522,3.989,3.989,0,0,1,1.569-1.714,4.577,4.577,0,0,1,2.377-.606,4.33,4.33,0,0,1,3.142,1.178,4.727,4.727,0,0,1,1.358,3.2l.018.65a4.97,4.97,0,0,1-1.222,3.511,4.735,4.735,0,0,1-6.561,0,5.058,5.058,0,0,1-1.226-3.586Zm2.54.18a3.555,3.555,0,0,0,.51,2.073,1.831,1.831,0,0,0,2.9.009,3.89,3.89,0,0,0,.519-2.267,3.519,3.519,0,0,0-.519-2.06,1.686,1.686,0,0,0-1.459-.731,1.658,1.658,0,0,0-1.441.726A3.955,3.955,0,0,0,49.664,14.338ZM60.079,9.49l.079,1.063a3.342,3.342,0,0,1,2.733-1.239,2.536,2.536,0,0,1,2.522,1.45,3.265,3.265,0,0,1,2.856-1.45,2.836,2.836,0,0,1,2.3.9,4.141,4.141,0,0,1,.756,2.711V19H68.78V12.936a1.811,1.811,0,0,0-.316-1.182,1.4,1.4,0,0,0-1.116-.374,1.585,1.585,0,0,0-1.582,1.09L65.774,19h-2.54V12.944a1.789,1.789,0,0,0-.325-1.2A1.416,1.416,0,0,0,61.8,11.38a1.646,1.646,0,0,0-1.564.9V19H57.7V9.49ZM81.84,14.333a5.7,5.7,0,0,1-1,3.52,3.2,3.2,0,0,1-2.694,1.323,2.963,2.963,0,0,1-2.329-1v4.482H73.28V9.49h2.355l.088.932a2.985,2.985,0,0,1,2.408-1.107,3.22,3.22,0,0,1,2.733,1.3A5.858,5.858,0,0,1,81.84,14.2Zm-2.54-.185a3.743,3.743,0,0,0-.47-2.048,1.532,1.532,0,0,0-1.367-.721,1.663,1.663,0,0,0-1.644.914v3.894a1.692,1.692,0,0,0,1.661.94Q79.3,17.128,79.3,14.148ZM88.924,19a2.821,2.821,0,0,1-.255-.853,3.073,3.073,0,0,1-2.4,1.028,3.376,3.376,0,0,1-2.316-.809,2.6,2.6,0,0,1-.918-2.039,2.687,2.687,0,0,1,1.121-2.32A5.529,5.529,0,0,1,87.4,13.19h1.169v-.545a1.567,1.567,0,0,0-.338-1.055,1.331,1.331,0,0,0-1.068-.4,1.513,1.513,0,0,0-1.006.308,1.045,1.045,0,0,0-.365.844h-2.54a2.551,2.551,0,0,1,.51-1.529,3.37,3.37,0,0,1,1.441-1.1,5.253,5.253,0,0,1,2.092-.4,4.15,4.15,0,0,1,2.791.883,3.09,3.09,0,0,1,1.033,2.483V16.8a4.546,4.546,0,0,0,.378,2.048V19Zm-2.1-1.767a2.188,2.188,0,0,0,1.037-.25,1.645,1.645,0,0,0,.7-.672V14.676h-.949q-1.907,0-2.03,1.318l-.009.149a1.017,1.017,0,0,0,.334.782A1.3,1.3,0,0,0,86.824,17.233Zm11.584-5.361a6.9,6.9,0,0,0-.914-.07,1.86,1.86,0,0,0-1.89.976V19h-2.54V9.49h2.4l.07,1.134a2.354,2.354,0,0,1,2.118-1.31,2.662,2.662,0,0,1,.791.114Zm4.7-4.72V9.49h1.626v1.863H103.11V16.1a1.133,1.133,0,0,0,.2.756,1.015,1.015,0,0,0,.773.229,4.051,4.051,0,0,0,.747-.062v1.925a5.229,5.229,0,0,1-1.538.229,2.425,2.425,0,0,1-2.725-2.7V11.354H99.181V9.49h1.389V7.152ZM108.832,19h-2.549V9.49h2.549Zm-2.7-11.971a1.251,1.251,0,0,1,.382-.94,1.648,1.648,0,0,1,2.079,0,1.244,1.244,0,0,1,.387.94,1.247,1.247,0,0,1-.391.949,1.629,1.629,0,0,1-2.065,0A1.247,1.247,0,0,1,106.133,7.029Zm10.134,4.843a6.9,6.9,0,0,0-.914-.07,1.86,1.86,0,0,0-1.89.976V19h-2.54V9.49h2.4l.07,1.134a2.354,2.354,0,0,1,2.118-1.31,2.662,2.662,0,0,1,.791.114ZM29.51,39.176A4.668,4.668,0,0,1,26.1,37.893a4.561,4.561,0,0,1-1.314-3.419v-.246a5.745,5.745,0,0,1,.554-2.562,4.064,4.064,0,0,1,1.569-1.74,4.4,4.4,0,0,1,2.316-.611,3.947,3.947,0,0,1,3.072,1.23,5,5,0,0,1,1.121,3.489v1.037H27.366a2.36,2.36,0,0,0,.743,1.494,2.245,2.245,0,0,0,1.569.563,2.742,2.742,0,0,0,2.294-1.063l1.248,1.4a3.813,3.813,0,0,1-1.547,1.261A5.075,5.075,0,0,1,29.51,39.176Zm-.29-7.813a1.587,1.587,0,0,0-1.226.512,2.651,2.651,0,0,0-.6,1.466h3.533v-.2a1.891,1.891,0,0,0-.457-1.311A1.638,1.638,0,0,0,29.22,31.362Zm9.264.967,1.6-2.839H42.8l-2.707,4.658L42.914,39H40.189l-1.7-2.988L36.805,39H34.072l2.821-4.852-2.7-4.658H36.92Zm14.1,2a5.7,5.7,0,0,1-1,3.52,3.2,3.2,0,0,1-2.694,1.323,2.963,2.963,0,0,1-2.329-1v4.482h-2.54V29.49h2.355l.088.932a2.985,2.985,0,0,1,2.408-1.107,3.22,3.22,0,0,1,2.733,1.3,5.858,5.858,0,0,1,.976,3.586Zm-2.54-.185a3.743,3.743,0,0,0-.47-2.048A1.532,1.532,0,0,0,48.2,31.38a1.663,1.663,0,0,0-1.644.914v3.894a1.692,1.692,0,0,0,1.661.94Q50.042,37.128,50.042,34.148Zm8.49,5.027a4.668,4.668,0,0,1-3.406-1.283,4.561,4.561,0,0,1-1.314-3.419v-.246a5.745,5.745,0,0,1,.554-2.562,4.064,4.064,0,0,1,1.569-1.74,4.4,4.4,0,0,1,2.316-.611,3.947,3.947,0,0,1,3.072,1.23,5,5,0,0,1,1.121,3.489v1.037H56.387a2.36,2.36,0,0,0,.743,1.494,2.245,2.245,0,0,0,1.569.563,2.742,2.742,0,0,0,2.294-1.063l1.248,1.4a3.813,3.813,0,0,1-1.547,1.261A5.075,5.075,0,0,1,58.532,39.176Zm-.29-7.813a1.587,1.587,0,0,0-1.226.512,2.651,2.651,0,0,0-.6,1.466h3.533v-.2a1.891,1.891,0,0,0-.457-1.311A1.638,1.638,0,0,0,58.242,31.362Zm10.986.51a6.9,6.9,0,0,0-.914-.07,1.86,1.86,0,0,0-1.89.976V39h-2.54V29.49h2.4l.07,1.134a2.354,2.354,0,0,1,2.118-1.31,2.662,2.662,0,0,1,.791.114ZM73.13,39H70.582V29.49H73.13Zm-2.7-11.971a1.251,1.251,0,0,1,.382-.94,1.648,1.648,0,0,1,2.079,0,1.342,1.342,0,0,1,0,1.89,1.629,1.629,0,0,1-2.065,0A1.247,1.247,0,0,1,70.432,27.029ZM79.6,39.176a4.668,4.668,0,0,1-3.406-1.283,4.561,4.561,0,0,1-1.314-3.419v-.246a5.745,5.745,0,0,1,.554-2.562A4.064,4.064,0,0,1,77,29.925a4.4,4.4,0,0,1,2.316-.611,3.947,3.947,0,0,1,3.072,1.23,5,5,0,0,1,1.121,3.489v1.037H77.455a2.36,2.36,0,0,0,.743,1.494,2.245,2.245,0,0,0,1.569.563,2.742,2.742,0,0,0,2.294-1.063l1.248,1.4a3.813,3.813,0,0,1-1.547,1.261A5.075,5.075,0,0,1,79.6,39.176Zm-.29-7.813a1.587,1.587,0,0,0-1.226.512,2.651,2.651,0,0,0-.6,1.466h3.533v-.2a1.891,1.891,0,0,0-.457-1.311A1.638,1.638,0,0,0,79.309,31.362Zm7.98-1.872.079,1.1A3.32,3.32,0,0,1,90.1,29.314a2.759,2.759,0,0,1,2.25.888,4.142,4.142,0,0,1,.756,2.654V39h-2.54V32.918a1.648,1.648,0,0,0-.352-1.173,1.574,1.574,0,0,0-1.169-.365,1.747,1.747,0,0,0-1.608.914V39H84.9V29.49Zm11.7,7.638a1.666,1.666,0,0,0,1.143-.387,1.355,1.355,0,0,0,.457-1.028h2.382a3.258,3.258,0,0,1-.527,1.771,3.48,3.48,0,0,1-1.419,1.248,4.442,4.442,0,0,1-1.991.444,4.129,4.129,0,0,1-3.217-1.3A5.13,5.13,0,0,1,94.637,34.3v-.167a5.071,5.071,0,0,1,1.169-3.507,4.08,4.08,0,0,1,3.208-1.31,4,4,0,0,1,2.861,1.015,3.594,3.594,0,0,1,1.094,2.7h-2.382a1.745,1.745,0,0,0-.457-1.206,1.7,1.7,0,0,0-2.5.183,3.749,3.749,0,0,0-.453,2.1v.264a3.8,3.8,0,0,0,.448,2.113A1.549,1.549,0,0,0,98.988,37.128ZM107.1,39h-2.549V29.49H107.1Zm-2.7-11.971a1.251,1.251,0,0,1,.382-.94,1.648,1.648,0,0,1,2.079,0,1.342,1.342,0,0,1,0,1.89,1.629,1.629,0,0,1-2.065,0A1.247,1.247,0,0,1,104.4,27.029ZM114.7,39a2.821,2.821,0,0,1-.255-.853,3.073,3.073,0,0,1-2.4,1.028,3.376,3.376,0,0,1-2.316-.809,2.6,2.6,0,0,1-.918-2.039,2.687,2.687,0,0,1,1.121-2.32,5.529,5.529,0,0,1,3.239-.817h1.169v-.545A1.567,1.567,0,0,0,114,31.591a1.331,1.331,0,0,0-1.068-.4,1.513,1.513,0,0,0-1.006.308,1.045,1.045,0,0,0-.365.844h-2.54a2.551,2.551,0,0,1,.51-1.529,3.37,3.37,0,0,1,1.441-1.1,5.253,5.253,0,0,1,2.092-.4,4.15,4.15,0,0,1,2.791.883,3.09,3.09,0,0,1,1.033,2.483V36.8a4.546,4.546,0,0,0,.378,2.048V39Zm-2.1-1.767a2.188,2.188,0,0,0,1.037-.25,1.645,1.645,0,0,0,.7-.672V34.676h-.949q-1.907,0-2.03,1.318l-.009.149a1.017,1.017,0,0,0,.334.782A1.3,1.3,0,0,0,112.6,37.233Zm11.391-.861a.818.818,0,0,0-.461-.734,5.241,5.241,0,0,0-1.481-.479q-3.393-.712-3.393-2.883a2.613,2.613,0,0,1,1.05-2.114,4.237,4.237,0,0,1,2.747-.848,4.56,4.56,0,0,1,2.9.853,2.687,2.687,0,0,1,1.085,2.215H123.9a1.229,1.229,0,0,0-.352-.9,1.488,1.488,0,0,0-1.1-.356,1.52,1.52,0,0,0-.993.29.916.916,0,0,0-.352.738.783.783,0,0,0,.4.681,4.114,4.114,0,0,0,1.349.448,11.019,11.019,0,0,1,1.6.426,2.628,2.628,0,0,1,2.013,2.558,2.481,2.481,0,0,1-1.116,2.1,4.815,4.815,0,0,1-2.883.8,5.029,5.029,0,0,1-2.123-.426,3.561,3.561,0,0,1-1.455-1.169,2.716,2.716,0,0,1-.527-1.6h2.408a1.326,1.326,0,0,0,.5,1.037,1.987,1.987,0,0,0,1.248.36,1.839,1.839,0,0,0,1.1-.277A.861.861,0,0,0,123.993,36.372Z" transform="translate(632.847 2175.88)" fill="#12263f"/>
    <path id="Trazado_595551" data-name="Trazado 595551" d="M19.321,14.315h-2.1V19H14.584V6.2h4.755a5.375,5.375,0,0,1,3.5,1.011,3.488,3.488,0,0,1,1.23,2.856,3.937,3.937,0,0,1-.567,2.184,3.866,3.866,0,0,1-1.718,1.393l2.769,5.229V19h-2.83Zm-2.1-2.136h2.127a2.178,2.178,0,0,0,1.538-.505,1.806,1.806,0,0,0,.545-1.393,1.933,1.933,0,0,0-.514-1.424,2.137,2.137,0,0,0-1.578-.519H17.221Zm13.061,7a4.668,4.668,0,0,1-3.406-1.283,4.561,4.561,0,0,1-1.314-3.419v-.246a5.745,5.745,0,0,1,.554-2.562,4.064,4.064,0,0,1,1.569-1.74A4.4,4.4,0,0,1,30,9.314a3.947,3.947,0,0,1,3.072,1.23,5,5,0,0,1,1.121,3.489v1.037H28.137a2.36,2.36,0,0,0,.743,1.494,2.245,2.245,0,0,0,1.569.563,2.742,2.742,0,0,0,2.294-1.063l1.248,1.4a3.813,3.813,0,0,1-1.547,1.261A5.075,5.075,0,0,1,30.281,19.176Zm-.29-7.813a1.587,1.587,0,0,0-1.226.512,2.651,2.651,0,0,0-.6,1.466H31.7v-.2a1.891,1.891,0,0,0-.457-1.311A1.638,1.638,0,0,0,29.991,11.362Zm10.793,5.01a.818.818,0,0,0-.461-.734,5.241,5.241,0,0,0-1.481-.479q-3.393-.712-3.393-2.883a2.613,2.613,0,0,1,1.05-2.114,4.237,4.237,0,0,1,2.747-.848,4.56,4.56,0,0,1,2.9.853,2.687,2.687,0,0,1,1.085,2.215h-2.54a1.229,1.229,0,0,0-.352-.9,1.488,1.488,0,0,0-1.1-.356,1.52,1.52,0,0,0-.993.29.916.916,0,0,0-.352.738.783.783,0,0,0,.4.681,4.114,4.114,0,0,0,1.349.448,11.019,11.019,0,0,1,1.6.426,2.628,2.628,0,0,1,2.013,2.558,2.481,2.481,0,0,1-1.116,2.1,4.815,4.815,0,0,1-2.883.8,5.029,5.029,0,0,1-2.123-.426,3.561,3.561,0,0,1-1.455-1.169,2.716,2.716,0,0,1-.527-1.6h2.408a1.326,1.326,0,0,0,.5,1.037,1.987,1.987,0,0,0,1.248.36,1.839,1.839,0,0,0,1.1-.277A.861.861,0,0,0,40.784,16.372Zm12.665-2.039a5.7,5.7,0,0,1-1,3.52,3.2,3.2,0,0,1-2.694,1.323,2.963,2.963,0,0,1-2.329-1v4.482h-2.54V9.49h2.355l.088.932A2.985,2.985,0,0,1,49.74,9.314a3.22,3.22,0,0,1,2.733,1.3,5.858,5.858,0,0,1,.976,3.586Zm-2.54-.185a3.743,3.743,0,0,0-.47-2.048,1.532,1.532,0,0,0-1.367-.721,1.663,1.663,0,0,0-1.644.914v3.894a1.692,1.692,0,0,0,1.661.94Q50.909,17.128,50.909,14.148Zm3.718.009a5.64,5.64,0,0,1,.545-2.522,3.989,3.989,0,0,1,1.569-1.714,4.577,4.577,0,0,1,2.377-.606,4.33,4.33,0,0,1,3.142,1.178,4.727,4.727,0,0,1,1.358,3.2l.018.65a4.97,4.97,0,0,1-1.222,3.511,4.735,4.735,0,0,1-6.561,0,5.058,5.058,0,0,1-1.226-3.586Zm2.54.18a3.555,3.555,0,0,0,.51,2.073,1.831,1.831,0,0,0,2.9.009,3.89,3.89,0,0,0,.519-2.267,3.519,3.519,0,0,0-.519-2.06,1.686,1.686,0,0,0-1.459-.731,1.658,1.658,0,0,0-1.441.726A3.955,3.955,0,0,0,57.167,14.338ZM67.538,9.49l.079,1.1a3.32,3.32,0,0,1,2.733-1.274,2.759,2.759,0,0,1,2.25.888,4.142,4.142,0,0,1,.756,2.654V19h-2.54V12.918a1.648,1.648,0,0,0-.352-1.173A1.574,1.574,0,0,0,69.3,11.38a1.747,1.747,0,0,0-1.608.914V19h-2.54V9.49Zm12.894,6.882a.818.818,0,0,0-.461-.734,5.241,5.241,0,0,0-1.481-.479Q75.1,14.447,75.1,12.276a2.613,2.613,0,0,1,1.05-2.114,4.237,4.237,0,0,1,2.747-.848,4.56,4.56,0,0,1,2.9.853,2.687,2.687,0,0,1,1.085,2.215h-2.54a1.229,1.229,0,0,0-.352-.9,1.488,1.488,0,0,0-1.1-.356,1.52,1.52,0,0,0-.993.29.916.916,0,0,0-.352.738.783.783,0,0,0,.4.681,4.114,4.114,0,0,0,1.349.448,11.019,11.019,0,0,1,1.6.426A2.628,2.628,0,0,1,82.9,16.267a2.481,2.481,0,0,1-1.116,2.1,4.815,4.815,0,0,1-2.883.8,5.029,5.029,0,0,1-2.123-.426,3.561,3.561,0,0,1-1.455-1.169,2.716,2.716,0,0,1-.527-1.6h2.408a1.326,1.326,0,0,0,.5,1.037,1.987,1.987,0,0,0,1.248.36,1.839,1.839,0,0,0,1.1-.277A.861.861,0,0,0,80.432,16.372ZM90.047,19a2.821,2.821,0,0,1-.255-.853,3.073,3.073,0,0,1-2.4,1.028,3.376,3.376,0,0,1-2.316-.809,2.6,2.6,0,0,1-.918-2.039,2.687,2.687,0,0,1,1.121-2.32,5.529,5.529,0,0,1,3.239-.817h1.169v-.545a1.567,1.567,0,0,0-.338-1.055,1.331,1.331,0,0,0-1.068-.4,1.513,1.513,0,0,0-1.006.308,1.045,1.045,0,0,0-.365.844h-2.54a2.551,2.551,0,0,1,.51-1.529,3.37,3.37,0,0,1,1.441-1.1,5.253,5.253,0,0,1,2.092-.4A4.15,4.15,0,0,1,91.2,10.2a3.09,3.09,0,0,1,1.033,2.483V16.8a4.546,4.546,0,0,0,.378,2.048V19Zm-2.1-1.767a2.188,2.188,0,0,0,1.037-.25,1.645,1.645,0,0,0,.7-.672V14.676h-.949q-1.907,0-2.03,1.318l-.009.149a1.017,1.017,0,0,0,.334.782A1.3,1.3,0,0,0,87.946,17.233Zm14.81-2.9a5.758,5.758,0,0,1-.976,3.564,3.231,3.231,0,0,1-2.725,1.279,2.969,2.969,0,0,1-2.47-1.187L96.472,19H94.187V5.5h2.54v4.843a2.893,2.893,0,0,1,2.312-1.028,3.258,3.258,0,0,1,2.729,1.279,5.767,5.767,0,0,1,.989,3.6Zm-2.54-.185a3.783,3.783,0,0,0-.457-2.1A1.545,1.545,0,0,0,98.4,11.38a1.676,1.676,0,0,0-1.67.993v3.753a1.7,1.7,0,0,0,1.688,1,1.568,1.568,0,0,0,1.617-1.213A6.257,6.257,0,0,0,100.216,14.148ZM107,19h-2.549V9.49H107ZM104.3,7.029a1.251,1.251,0,0,1,.382-.94,1.648,1.648,0,0,1,2.079,0,1.244,1.244,0,0,1,.387.94,1.247,1.247,0,0,1-.391.949,1.629,1.629,0,0,1-2.065,0A1.247,1.247,0,0,1,104.3,7.029ZM111.774,19h-2.549V5.5h2.549Zm4.772,0H114V9.49h2.549Zm-2.7-11.971a1.251,1.251,0,0,1,.382-.94,1.648,1.648,0,0,1,2.079,0,1.244,1.244,0,0,1,.387.94,1.247,1.247,0,0,1-.391.949,1.629,1.629,0,0,1-2.065,0A1.247,1.247,0,0,1,113.848,7.029Zm4.395,7.146a5.731,5.731,0,0,1,1-3.542,3.237,3.237,0,0,1,2.729-1.318,2.913,2.913,0,0,1,2.294,1.037V5.5h2.549V19h-2.294l-.123-1.011a2.989,2.989,0,0,1-2.443,1.187,3.228,3.228,0,0,1-2.694-1.323A5.916,5.916,0,0,1,118.242,14.175Zm2.54.189a3.754,3.754,0,0,0,.466,2.051,1.517,1.517,0,0,0,1.354.713,1.7,1.7,0,0,0,1.661-.995V12.375a1.675,1.675,0,0,0-1.644-.995Q120.782,11.38,120.782,14.364ZM134.291,19a2.82,2.82,0,0,1-.255-.853,3.073,3.073,0,0,1-2.4,1.028,3.376,3.376,0,0,1-2.316-.809,2.6,2.6,0,0,1-.918-2.039,2.687,2.687,0,0,1,1.121-2.32,5.529,5.529,0,0,1,3.239-.817h1.169v-.545a1.567,1.567,0,0,0-.338-1.055,1.331,1.331,0,0,0-1.068-.4,1.513,1.513,0,0,0-1.006.308,1.045,1.045,0,0,0-.365.844h-2.54a2.551,2.551,0,0,1,.51-1.529,3.369,3.369,0,0,1,1.441-1.1,5.253,5.253,0,0,1,2.092-.4,4.15,4.15,0,0,1,2.791.883,3.09,3.09,0,0,1,1.033,2.483V16.8a4.546,4.546,0,0,0,.378,2.048V19Zm-2.1-1.767a2.188,2.188,0,0,0,1.037-.25,1.645,1.645,0,0,0,.7-.672V14.676h-.949q-1.907,0-2.03,1.318l-.009.149a1.017,1.017,0,0,0,.334.782A1.3,1.3,0,0,0,132.191,17.233Zm5.845-3.059a5.731,5.731,0,0,1,1-3.542,3.237,3.237,0,0,1,2.729-1.318,2.913,2.913,0,0,1,2.294,1.037V5.5H146.6V19h-2.294l-.123-1.011a2.989,2.989,0,0,1-2.443,1.187,3.228,3.228,0,0,1-2.694-1.323A5.916,5.916,0,0,1,138.035,14.175Zm2.54.189a3.754,3.754,0,0,0,.466,2.051,1.517,1.517,0,0,0,1.354.713,1.7,1.7,0,0,0,1.661-.995V12.375a1.675,1.675,0,0,0-1.644-.995Q140.575,11.38,140.575,14.364Z" transform="translate(996.872 2195.588)" fill="#12263f"/>
    <g id="Grupo_151707" data-name="Grupo 151707" transform="translate(436.7 2260.178)" opacity="0.64">
      <g id="Grupo_151706" data-name="Grupo 151706">
        <g id="Grupo_151705" data-name="Grupo 151705" clip-path="url(#clip-path-2)">
          <path id="Trazado_212286" data-name="Trazado 212286" d="M206.672,147.042a85.868,85.868,0,1,0-86.261,85.473,85.869,85.869,0,0,0,86.261-85.473" transform="translate(-34.938 -60.78)" fill="#fff"/>
        </g>
      </g>
    </g>
    <g id="Grupo_151710" data-name="Grupo 151710" transform="translate(621.841 2261.027)" opacity="0.64">
      <g id="Grupo_151709" data-name="Grupo 151709">
        <g id="Grupo_151708" data-name="Grupo 151708" clip-path="url(#clip-path-3)">
          <path id="Trazado_212288" data-name="Trazado 212288" d="M173.935,146.893A85.868,85.868,0,1,0,260.2,61.419a85.869,85.869,0,0,0-86.261,85.473" transform="translate(-173.934 -61.418)" fill="#fff"/>
        </g>
      </g>
    </g>
    <g id="Grupo_151713" data-name="Grupo 151713" transform="translate(806.846 2261.876)" opacity="0.64">
      <g id="Grupo_151712" data-name="Grupo 151712">
        <g id="Grupo_151711" data-name="Grupo 151711" clip-path="url(#clip-path-3)">
          <path id="Trazado_212290" data-name="Trazado 212290" d="M484.564,148.317A85.868,85.868,0,1,0,398.3,233.79a85.868,85.868,0,0,0,86.261-85.473" transform="translate(-312.829 -62.055)" fill="#fff"/>
        </g>
      </g>
    </g>
    <g id="Grupo_151716" data-name="Grupo 151716" transform="translate(991.988 2262.727)" opacity="0.64">
      <g id="Grupo_151715" data-name="Grupo 151715">
        <g id="Grupo_151714" data-name="Grupo 151714" clip-path="url(#clip-path-5)">
          <path id="Trazado_212292" data-name="Trazado 212292" d="M451.827,148.168a85.868,85.868,0,1,0,86.261-85.473,85.868,85.868,0,0,0-86.261,85.473" transform="translate(-451.826 -62.693)" fill="#fff"/>
        </g>
      </g>
    </g>
    <rect id="Rectángulo_42644" data-name="Rectángulo 42644" width="819.837" height="333.496" transform="translate(390.163 2179.221)" fill="none"/>
    <rect id="Rectángulo_42645" data-name="Rectángulo 42645" width="819.837" height="333.496" transform="translate(390.163 2179.221)" fill="none"/>
    <path id="Trazado_212313" data-name="Trazado 212313" d="M-7977.984-8228.466v53.03" transform="translate(8500.468 10634.009)" fill="none" stroke="#a2a7c5" stroke-width="2" stroke-dasharray="4"/>
    <path id="Trazado_212320" data-name="Trazado 212320" d="M-7977.984-8228.466v53.03" transform="translate(8870.271 10634.009)" fill="none" stroke="#a2a7c5" stroke-width="2" stroke-dasharray="4"/>
    <path id="Trazado_212317" data-name="Trazado 212317" d="M0,0V53.03" transform="translate(707.384 2286.689) rotate(180)" fill="none" stroke="#a2a7c5" stroke-width="2" stroke-dasharray="4"/>
    <path id="Trazado_212323" data-name="Trazado 212323" d="M0,0V53.03" transform="translate(1078.343 2286.689) rotate(180)" fill="none" stroke="#a2a7c5" stroke-width="2" stroke-dasharray="4"/>
    <path id="Trazado_212314" data-name="Trazado 212314" d="M0,0V45.025" transform="translate(545.55 2458.572) rotate(90)" fill="none" stroke="#ea3584" stroke-width="2"/>
    <path id="Trazado_212319" data-name="Trazado 212319" d="M0,0V45.025" transform="translate(915.354 2458.572) rotate(90)" fill="none" stroke="#ea3584" stroke-width="2"/>
    <path id="Trazado_212318" data-name="Trazado 212318" d="M0,0V45.025" transform="translate(685.427 2233.664) rotate(-90)" fill="none" stroke="#ea3584" stroke-width="2"/>
    <path id="Trazado_212324" data-name="Trazado 212324" d="M0,0V45.025" transform="translate(1055.229 2233.664) rotate(-90)" fill="none" stroke="#ea3584" stroke-width="2"/>
    <path id="Trazado_594247" data-name="Trazado 594247" d="M113.96,199.57a59.5,59.5,0,1,1,59.766-59.221A59.562,59.562,0,0,1,113.96,199.57" transform="translate(594.065 2205.747)" fill="url(#radial-gradient)"/>
    <path id="Trazado_594248" data-name="Trazado 594248" d="M113.96,199.57a59.5,59.5,0,1,1,59.766-59.221A59.562,59.562,0,0,1,113.96,199.57" transform="translate(778.528 2205.747)" fill="url(#radial-gradient)"/>
    <path id="Trazado_594249" data-name="Trazado 594249" d="M113.96,199.57a59.5,59.5,0,1,1,59.766-59.221A59.562,59.562,0,0,1,113.96,199.57" transform="translate(963.967 2205.747)" fill="url(#radial-gradient)"/>
    <path id="Trazado_594251" data-name="Trazado 594251" d="M113.96,199.57a59.5,59.5,0,1,1,59.766-59.221A59.562,59.562,0,0,1,113.96,199.57" transform="translate(408.263 2205.747)" fill="url(#radial-gradient)"/>
    <rect id="Rectángulo_293343" data-name="Rectángulo 293343" width="1030" height="412.846" transform="translate(285 2137)" fill="none"/>
    <g id="Enmascarar_grupo_63" data-name="Enmascarar grupo 63" clip-path="url(#clip-path-6)">
      <g id="ayudar" transform="translate(488 2311.919)">
        <path id="Trazado_595134" data-name="Trazado 595134" d="M42.512,27.593A3.909,3.909,0,1,0,46.421,31.5a3.913,3.913,0,0,0-3.909-3.909Zm0,5.795A1.886,1.886,0,1,1,44.4,31.5,1.889,1.889,0,0,1,42.512,33.388Zm0,0"/>
        <path id="Trazado_595135" data-name="Trazado 595135" d="M30.741,17.8a1.011,1.011,0,0,0-.783,1.2,5.367,5.367,0,1,1-5.252-4.261,5.305,5.305,0,0,1,3.34,1.167,1.011,1.011,0,0,0,1.26-1.582,7.373,7.373,0,1,0,2.632,4.264,1.012,1.012,0,0,0-1.2-.783Zm0,0"/>
        <path id="Trazado_595136" data-name="Trazado 595136" d="M5.107,65.765h-4.1a1.011,1.011,0,1,0,0,2.023h4.1a1.011,1.011,0,1,0,0-2.023Zm0,0"/>
        <path id="Trazado_595137" data-name="Trazado 595137" d="M15.529,65.765h-4.1a1.011,1.011,0,1,0,0,2.023h4.1a1.011,1.011,0,1,0,0-2.023Zm0,0"/>
        <path id="Trazado_595138" data-name="Trazado 595138" d="M64.388,64.112a1.011,1.011,0,0,0,.768.352h2.459a1.011,1.011,0,0,0,.9-1.482L64.4,55.167a.923.923,0,0,1-.079-.652l1.815-7.326v0s0-.009,0-.014c.005-.024.01-.047.014-.07,0-.007,0-.015,0-.022s0,0,0,0,0-.011,0-.016,0-.035.005-.053,0-.014,0-.021c0-.022,0-.044,0-.065v-1.9a1.011,1.011,0,1,0-2.023,0v.417l-4.4-1.8.089-5.755.576.351a1.011,1.011,0,0,0,1.05-1.729L59.37,35.226l-.024-.015L52.741,31.2a3.865,3.865,0,0,1-1.834-2.962L60.99,33.712c.055.033.108.066.165.1l.171.087,1.436.78A2.64,2.64,0,0,1,64.144,37v3.958a1.012,1.012,0,0,0,2.023,0V37a4.66,4.66,0,0,0-1.07-2.971,3.01,3.01,0,0,0,.964-1.105l1.079-2.107a3.025,3.025,0,0,0-1.313-4.071l-.834-.427a3.029,3.029,0,0,0-4.071,1.313l-1.079,2.107a3.017,3.017,0,0,0-.293.892l-8-4.345a1.552,1.552,0,0,0-.391-1.54l-1.784-1.785a1.565,1.565,0,0,0-2.118-.08l-1.52,1.3c-.07-.031-.141-.061-.213-.09l-.123-2.02a1.562,1.562,0,0,0-1.556-1.463H41.323a1.564,1.564,0,0,0-1.354.791V18.387a1.809,1.809,0,0,0-1.664-1.8l-1.987-.152a12.163,12.163,0,0,0-.726-1.788l1.341-1.516a1.8,1.8,0,0,0-.075-2.467L34.287,8.1A1.809,1.809,0,0,0,31.84,8L30.327,9.3a12.131,12.131,0,0,0-1.778-.753l-.123-2.018a1.8,1.8,0,0,0-1.8-1.692H22.991A1.809,1.809,0,0,0,21.2,6.5l-.152,1.987a12.141,12.141,0,0,0-1.96.812L17.571,8a1.809,1.809,0,0,0-2.446.093l-2.572,2.572a1.8,1.8,0,0,0-.075,2.467l1.342,1.516a12.026,12.026,0,0,0-.726,1.788l-1.988.152a1.809,1.809,0,0,0-1.664,1.8v3.637a1.8,1.8,0,0,0,1.691,1.8l2.019.123a12.1,12.1,0,0,0,.753,1.778l-1.3,1.513a1.809,1.809,0,0,0,.093,2.446l2.572,2.572a1.8,1.8,0,0,0,2.467.075l1.516-1.341a12.14,12.14,0,0,0,1.788.726l.15,1.966-5.214.556a.343.343,0,0,1-.211-.046l-4.986-3.2a3.006,3.006,0,0,0,.907-1.883l.223-2.357a3.025,3.025,0,0,0-2.727-3.3l-.933-.088a3.026,3.026,0,0,0-3.3,2.727l-.223,2.356a3,3,0,0,0,.57,2.064,3.723,3.723,0,0,0-.394.381l-.469.531A5.387,5.387,0,0,0,3.1,34.947L3.03,42.93.419,63.179a1.011,1.011,0,0,0,1,1.141H4.04A1.012,1.012,0,0,0,5,63.639L11.5,44.8l6.046,6.29a1.048,1.048,0,0,1,.151,1.281,1.016,1.016,0,0,0-.07.14L13.6,62.3h-.53l1.78-7.922a1.778,1.778,0,0,0-.246-1.618,1.076,1.076,0,0,0-.083-.1l-1.865-1.981a1.011,1.011,0,0,0-1.473,1.387l1.706,1.811-2.07,9.212a1.011,1.011,0,0,0,.987,1.233h2.472a1.011,1.011,0,0,0,.935-.626l4.256-10.353a3.066,3.066,0,0,0-.476-3.666L12.1,42.5l.055-4.1L14.2,39.539a2.345,2.345,0,0,0,1.437.28l5.164-.635a4.832,4.832,0,0,0,4.137-3.819h1.691a1.8,1.8,0,0,0,1.8-1.692l.123-2.018a12.125,12.125,0,0,0,1.606-.667l1.462,1.294v.555a1.562,1.562,0,0,0,1.463,1.556l2.019.123c.029.071.059.142.091.213l-1.305,1.521a1.567,1.567,0,0,0,.082,2.115l1.786,1.788a1.562,1.562,0,0,0,2.133.062l1.515-1.34q.107.045.215.087l.152,1.993A1.563,1.563,0,0,0,41.323,42.4h2.523A1.562,1.562,0,0,0,45.4,40.933l.123-2.019.1-.041,1.513,1.34a1.565,1.565,0,0,0,2.137-.064l1.782-1.784a1.568,1.568,0,0,0,.082-2.117l-1.3-1.52c.031-.07.062-.141.091-.213l2.02-.123a1.555,1.555,0,0,0,1.145-.616l4.745,2.883-.114,7.312-5.68,7.9a3.114,3.114,0,0,0-.569,2.139l.991,9.55a1.012,1.012,0,0,0,1.006.907h2.319a1.011,1.011,0,0,0,1.008-.932l.6-7.628a1.081,1.081,0,0,1,.05-.247,3.319,3.319,0,0,0,.63,1.107ZM61.58,31.422a1,1,0,0,1,.062-.765l1.079-2.106a1,1,0,0,1,1.349-.435l.834.427a1,1,0,0,1,.435,1.349L64.261,32a1,1,0,0,1-1.349.435l-.638-.326-.3-.164a1,1,0,0,1-.391-.521ZM39.7,22.97l-.082,1.075q-.167.065-.331.137l-.531-.456A1.808,1.808,0,0,0,39.7,22.97ZM6.748,28.643l.223-2.356a1,1,0,0,1,1-.908c.032,0,.064,0,.1,0L9,25.472a1,1,0,0,1,.9,1.092L9.677,28.92a1,1,0,0,1-.952.906A3.605,3.605,0,0,0,7.38,29.67a1,1,0,0,1-.632-1.027ZM3.32,62.3H2.572L4.932,44l4.723-.064ZM20.554,37.176l-5.165.635a.338.338,0,0,1-.207-.04L11.67,35.818l-.033-.018L9.253,34.474a1.011,1.011,0,1,0-.983,1.768l1.874,1.042-.062,4.622-5.021.068.058-7.01a3.361,3.361,0,0,1,.84-2.2l.469-.531a1.615,1.615,0,0,1,.86-.512c.058.009.115.019.174.025l.846.08a1.617,1.617,0,0,1,.209.114l6.17,3.954.014.009a2.383,2.383,0,0,0,1.493.34l6.572-.7a2.806,2.806,0,0,1-2.213,1.63Zm9.235-8.289a10.1,10.1,0,0,1-2.466,1.024,1.011,1.011,0,0,0-.75.916l-.153,2.515H23.2l-.19-2.486a1.011,1.011,0,0,0-.764-.9,10.1,10.1,0,0,1-2.622-1.064A1.01,1.01,0,0,0,18.444,29l-1.888,1.672L14.276,28.4,15.9,26.5a1.011,1.011,0,0,0,.1-1.18,10.084,10.084,0,0,1-1.1-2.606,1.011,1.011,0,0,0-.916-.75l-2.515-.153V18.592l2.486-.19a1.011,1.011,0,0,0,.9-.764,10.075,10.075,0,0,1,1.064-2.622,1.011,1.011,0,0,0-.117-1.178L14.13,11.951,16.41,9.671,18.3,11.3a1.01,1.01,0,0,0,1.18.1,10.1,10.1,0,0,1,2.761-1.144,1.011,1.011,0,0,0,.764-.9L23.2,6.86h3.224l.153,2.515a1.011,1.011,0,0,0,.75.916,10.106,10.106,0,0,1,2.606,1.1,1.011,1.011,0,0,0,1.18-.1L33,9.672l2.279,2.279L33.61,13.839a1.011,1.011,0,0,0-.118,1.178,10.083,10.083,0,0,1,1.064,2.622,1.012,1.012,0,0,0,.9.764l2.487.19v3.223l-2.515.153a1.011,1.011,0,0,0-.916.75,10.094,10.094,0,0,1-1.1,2.606,1.011,1.011,0,0,0,.1,1.18L35.135,28.4l-2.279,2.279L30.968,29a1.011,1.011,0,0,0-1.178-.117Zm19.345,3.65a1.012,1.012,0,0,0-.905.713,5.972,5.972,0,0,1-.483,1.139,1.011,1.011,0,0,0,.117,1.149l1.459,1.7L48.151,38.41l-1.688-1.494a1.01,1.01,0,0,0-1.148-.134,5.955,5.955,0,0,1-1.056.438,1.012,1.012,0,0,0-.713.905l-.137,2.249H41.754l-.171-2.236a1.012,1.012,0,0,0-.729-.895,5.875,5.875,0,0,1-1.145-.462,1.012,1.012,0,0,0-1.147.135L36.873,38.41,35.7,37.238l1.459-1.7a1.012,1.012,0,0,0,.117-1.149A5.948,5.948,0,0,1,36.8,33.25a1.012,1.012,0,0,0-.905-.713l-1.944-.118a1.832,1.832,0,0,0,.193-.165s3.085-3.535,3.1-3.56a1.012,1.012,0,0,0-.137-1.142l-.736-.831-.008-.009-.016-.018-.017-.019-.705-.822,1.158-1.159,1.7,1.46a1.01,1.01,0,0,0,1.15.117,5.889,5.889,0,0,1,1.23-.509,1.012,1.012,0,0,0,.728-.895l.171-2.235h1.656l.137,2.25a1.011,1.011,0,0,0,.713.905,5.974,5.974,0,0,1,1.139.484,1.01,1.01,0,0,0,1.149-.117l1.7-1.46L49.4,25.848a1.009,1.009,0,0,0-.253.321l-1.225,1.383a1.01,1.01,0,0,0-.135,1.147,5.948,5.948,0,0,1,.464,1.148,1.012,1.012,0,0,0,.894.726l.381.029a5.871,5.871,0,0,0,1.459,1.822Zm16.806,29.9H65.62l-6.01-7a1.306,1.306,0,0,1-.315-.912l.38-8.746,4.289,1.758-1.606,6.482a2.944,2.944,0,0,0,.252,2.08ZM56.37,53.7a3.11,3.11,0,0,0-.991,2.04l-.527,6.7h-.472l-.9-8.641a1.094,1.094,0,0,1,.2-.751l3.886-5.4L57.345,52.8Zm0,0"/>
        <path id="Trazado_595139" data-name="Trazado 595139" d="M67.989,65.765h-4.1a1.011,1.011,0,1,0,0,2.023h4.1a1.011,1.011,0,0,0,0-2.023Zm0,0"/>
        <path id="Trazado_595140" data-name="Trazado 595140" d="M55.941,65.765h-4.1a1.011,1.011,0,1,0,0,2.023h4.1a1.011,1.011,0,0,0,0-2.023Zm0,0"/>
        <path id="Trazado_595141" data-name="Trazado 595141" d="M44.22,17.894a11.724,11.724,0,0,1,9.205,4.423l-.754-.183a1.012,1.012,0,0,0-.477,1.966l3.14.761a1.013,1.013,0,0,0,1.3-.725l.722-2.98a1.011,1.011,0,1,0-1.966-.476l-.161.664A13.735,13.735,0,0,0,44.22,15.872a1.011,1.011,0,0,0,0,2.023Zm0,0"/>
        <path id="Trazado_595142" data-name="Trazado 595142" d="M5.127,12.612a1.091,1.091,0,0,0,1.372.81L9.833,12.2a1.011,1.011,0,1,0-.694-1.9l-.989.361A17.305,17.305,0,0,1,23.131,2.09a1.011,1.011,0,0,0,0-2.023,19.319,19.319,0,0,0-16.853,9.8L5.885,8.791a1.011,1.011,0,0,0-1.9.694Zm0,0"/>
      </g>
    </g>
    <g id="Enmascarar_grupo_62" data-name="Enmascarar grupo 62" clip-path="url(#clip-path-7)">
      <g id="discusion" transform="translate(675.413 2311.847)">
        <path id="Trazado_595129" data-name="Trazado 595129" d="M64.105,59.449c0-.012,0-.024,0-.036l-.7-9.158A3.26,3.26,0,0,0,61.84,47.71l-.16-.1-.417-3.061A4.891,4.891,0,0,0,62.549,42.9c.011-.022.021-.045.031-.067a4.833,4.833,0,0,0,.444-2.025V37.123a3.8,3.8,0,0,0-3.791-3.79H57.079A3.8,3.8,0,0,0,53.4,36.2a1.007,1.007,0,0,0-.044.1.992.992,0,0,0-.057.523c-.008.1-.013.2-.013.3V40.81A4.864,4.864,0,0,0,55.519,44.9l-.277,2.758a.99.99,0,0,0-.157.149l-6.02,7.208L44.895,55a.929.929,0,0,0-.227.025,4.381,4.381,0,0,0-1.93.991V54.653a6.3,6.3,0,0,0-4.293-5.978L36.723,48.1a1.8,1.8,0,0,1-.735-.466,1.822,1.822,0,0,1-.507-1.267V44.508l.586-.356a3.49,3.49,0,0,0,1.663-2.962V35.47a3.848,3.848,0,0,0-3.842-3.845H30.367a3.847,3.847,0,0,0-3.841,3.845v5.72a3.489,3.489,0,0,0,1.663,2.962l.586.357v1.854a1.842,1.842,0,0,1-.583,1.342,1.794,1.794,0,0,1-.66.392l-1.72.578a6.3,6.3,0,0,0-4.293,5.979v1.438a4.378,4.378,0,0,0-2.014-1.067A.952.952,0,0,0,19.279,55l-4.171.015-6.02-7.208a.971.971,0,0,0-.157-.149L8.654,44.9a4.865,4.865,0,0,0,2.232-4.088V37.123c0-.1-.006-.2-.013-.3a.994.994,0,0,0-.057-.522.954.954,0,0,0-.045-.1,3.8,3.8,0,0,0-3.677-2.868H4.943a3.8,3.8,0,0,0-3.791,3.79V40.81a4.831,4.831,0,0,0,.443,2.025c.009.023.02.046.031.068a4.894,4.894,0,0,0,1.286,1.649l-.417,3.062-.159.1A3.259,3.259,0,0,0,.771,50.253l-.7,9.16c0,.012,0,.024,0,.036s0,.026,0,.04v2.533A5.985,5.985,0,0,0,6.046,68H58.128a5.985,5.985,0,0,0,5.979-5.977V59.49c0-.014,0-.027,0-.04ZM57.079,35.325h2.152a1.8,1.8,0,0,1,1.8,1.8v3.685l-1.037-.727V39.15a1.9,1.9,0,0,0-1.208-1.776L55.594,36.11a1.8,1.8,0,0,1,1.485-.785Zm-1.8,2.8L58,39.206v.917a1.912,1.912,0,0,0,.813,1.564L60.3,42.726A2.874,2.874,0,0,1,55.28,40.81Zm2.876,7.547a4.851,4.851,0,0,0,1.229-.158l.16,1.176a5.385,5.385,0,0,0-2.2.011l.108-1.082a4.882,4.882,0,0,0,.707.052ZM45.013,56.991l4.514.016h0a.994.994,0,0,0,.764-.357l6.239-7.469a3.411,3.411,0,0,1,3.709-.108l.567.342a1.269,1.269,0,0,1,.607.991l.62,8.088H57.184V55.007l.6-.629A1,1,0,1,0,56.341,53l-5.228,5.49H43.4a2.368,2.368,0,0,1,1.612-1.5Zm-7.2-6.428a4.313,4.313,0,0,1,2.936,4.09v3.841H33.7l1.354-1.364a1,1,0,0,0,.243-1l-1.962-6.268a9.892,9.892,0,0,0,1.725-.409,3.807,3.807,0,0,0,1.029.531Zm-7.042-4.881a3.442,3.442,0,0,0,2.723,0v.682a3.833,3.833,0,0,0,.261,1.395,7.82,7.82,0,0,1-3.282.082,3.83,3.83,0,0,0,.3-1.477Zm1.3,6.791,1.152,3.68-1.164,1.172-1.035-1.153Zm-1.7-18.855H33.89a1.853,1.853,0,0,1,1.85,1.853v1.29L30.93,35.212a1,1,0,0,0-.766.065l-1.646.859V35.47a1.853,1.853,0,0,1,1.849-1.853Zm-1.849,4.767,2.2-1.147,5.022,1.616v2.337a1.486,1.486,0,0,1-.708,1.261l-2.137,1.3a1.468,1.468,0,0,1-1.532,0l-2.137-1.3a1.486,1.486,0,0,1-.708-1.261ZM26.448,50.563l1.717-.578a3.762,3.762,0,0,0,.9-.439,9.912,9.912,0,0,0,1.66.348l-1.773,6.262a1,1,0,0,0,.217.936l1.257,1.4H23.512V54.653a4.311,4.311,0,0,1,2.936-4.09ZM6.019,43.684a2.869,2.869,0,0,1-2.141-.958L5.36,41.686a1.913,1.913,0,0,0,.813-1.564v-.917l2.722-1.077V40.81a2.878,2.878,0,0,1-2.875,2.874ZM4.943,35.325H7.1a1.8,1.8,0,0,1,1.485.785L5.388,37.374A1.9,1.9,0,0,0,4.181,39.15v.931l-1.037.727V37.123a1.8,1.8,0,0,1,1.8-1.8ZM6.019,45.676a4.875,4.875,0,0,0,.706-.052l.109,1.082a5.385,5.385,0,0,0-2.2-.011l.16-1.176a4.875,4.875,0,0,0,1.229.157ZM2.758,50.4a1.266,1.266,0,0,1,.607-.988l.567-.342a3.412,3.412,0,0,1,3.709.108L13.88,56.65a1,1,0,0,0,.765.357h0l4.514-.016a2.367,2.367,0,0,1,1.612,1.5H13.062L7.833,53a1,1,0,1,0-1.442,1.374l.6.629v3.486H2.138Zm59.357,11.62a3.99,3.99,0,0,1-3.986,3.985H6.046a3.991,3.991,0,0,1-3.987-3.985V60.486H6.99v.244a4.015,4.015,0,0,0,1.092,2.757,1,1,0,1,0,1.452-1.364,2.026,2.026,0,0,1-.552-1.393V57.1l2.668,2.8v.477a3.9,3.9,0,0,0,3.893,3.892h4.2a1,1,0,1,0,0-1.992h-4.2a1.9,1.9,0,0,1-1.9-1.779H21.9a1.013,1.013,0,0,0,.144-.011H42.126a1.007,1.007,0,0,0,.144.011H50.73a1.9,1.9,0,0,1-1.9,1.779H24a1,1,0,1,0,0,1.992H48.834a3.9,3.9,0,0,0,3.893-3.892v-.647c0-.013,0-.027,0-.04l2.467-2.59v3.631a2.026,2.026,0,0,1-.551,1.393,1,1,0,0,0,1.452,1.364,4.015,4.015,0,0,0,1.092-2.757v-.244h4.932Zm0,0"/>
        <path id="Trazado_595130" data-name="Trazado 595130" d="M3.993,29.611H4.16a4.231,4.231,0,0,0,7.653,0h14.3A2.843,2.843,0,0,0,28.795,27.7a5.042,5.042,0,0,0,6.506-.473,2.843,2.843,0,0,0,2.8,2.385H52.4a4.231,4.231,0,0,0,7.653,0h.167a2.844,2.844,0,0,0,2.841-2.84V11.116a2.844,2.844,0,0,0-2.841-2.84H52.148a1,1,0,0,0,0,1.992h8.074a.85.85,0,0,1,.849.848V26.771a.849.849,0,0,1-.849.848h-.287A1.8,1.8,0,0,0,58.281,28.7a2.239,2.239,0,0,1-4.106,0,1.8,1.8,0,0,0-1.654-1.08H38.1a.849.849,0,0,1-.849-.848V25.628h8.384a3.314,3.314,0,0,0,3.31-3.309V3.309A3.313,3.313,0,0,0,45.637,0H17.9a3.314,3.314,0,0,0-3.31,3.309V8.276H3.993a2.844,2.844,0,0,0-2.841,2.84V12.53a1,1,0,1,0,1.992,0V11.116a.85.85,0,0,1,.849-.848h10.6v12.05a3.314,3.314,0,0,0,3.31,3.309h9.061v1.143a.849.849,0,0,1-.849.848H11.694A1.8,1.8,0,0,0,10.039,28.7a2.239,2.239,0,0,1-4.105,0,1.8,1.8,0,0,0-1.654-1.08H3.993a.849.849,0,0,1-.849-.848V16.725a1,1,0,1,0-1.992,0V26.771a2.844,2.844,0,0,0,2.841,2.84Zm12.59-7.293V3.309A1.319,1.319,0,0,1,17.9,1.992H45.637a1.319,1.319,0,0,1,1.318,1.317V22.318a1.319,1.319,0,0,1-1.318,1.317h-9.22a2.013,2.013,0,0,0-.341.03l-.029.005a2,2,0,0,0-1.473,1.168,3.06,3.06,0,0,1-5.611,0,2.006,2.006,0,0,0-1.843-1.2H17.9a1.319,1.319,0,0,1-1.318-1.317Zm0,0"/>
        <path id="Trazado_595131" data-name="Trazado 595131" d="M20.726,7.67H42.27a1,1,0,0,0,0-1.992H20.726a1,1,0,1,0,0,1.992Zm0,0"/>
        <path id="Trazado_595132" data-name="Trazado 595132" d="M20.726,12.788H42.27a1,1,0,0,0,0-1.992H20.726a1,1,0,1,0,0,1.992Zm0,0"/>
        <path id="Trazado_595133" data-name="Trazado 595133" d="M33.348,16.911a1,1,0,0,0-1-1H20.726a1,1,0,0,0,0,1.992H32.352A1,1,0,0,0,33.348,16.911Zm0,0"/>
      </g>
    </g>
    <g id="Enmascarar_grupo_60" data-name="Enmascarar grupo 60" clip-path="url(#clip-path-8)">
      <path id="equipo" d="M67.989,64.791H65.92V27.626a3.272,3.272,0,0,0-3.268-3.269H55.021a3.272,3.272,0,0,0-3.268,3.269v9.653l-3.676-8.4,3.051-3.335a5.95,5.95,0,0,0,1.017-6.517l-.681-1.478-1.15-2.877a1.011,1.011,0,0,0-1.878.751l.776,1.941L46.455,18.4l-1.136.426-.855.321-2.695-6.1.769-.307a1.011,1.011,0,1,0-.749-1.879L30.854,15.221a2.166,2.166,0,0,1-2.264-.409L42.316,8.388q.083-.034.164-.073l.343-.165A2.385,2.385,0,0,1,46,9.333l.972,2.431a1.011,1.011,0,0,0,1.878-.751l-.98-2.45c0-.012-.009-.023-.014-.035a4.378,4.378,0,0,0-2.481-2.34,4.5,4.5,0,0,0-.455-.143,3.021,3.021,0,0,0-.169-2.179L43.724,1.724A3.032,3.032,0,0,0,39.68.3l-.847.406A3.036,3.036,0,0,0,37.41,4.749l1.026,2.142a3.04,3.04,0,0,0,.571.812L26.673,13.476a1.012,1.012,0,0,0-.511,1.292A4.179,4.179,0,0,0,31.606,17.1l8.282-3.3,2.832,6.415-6.533,6.631a3.08,3.08,0,0,0-.442,3.757l4.775,7.9a3.259,3.259,0,0,0-.911,2.261v6.11a3.251,3.251,0,0,0-1.246-.247h-7.63a3.272,3.272,0,0,0-3.269,3.269v3a3.251,3.251,0,0,0-1.246-.247H22.112l.75-6.072a3.459,3.459,0,0,0-1.506-3.306l-5.571-3.759-.111-7.13,6.163-3.747a5.911,5.911,0,0,0,2.618-6.591A1.011,1.011,0,0,0,23,21.416L13.955,26.33a3.039,3.039,0,0,0-.294-.9l-1.082-2.114A3.031,3.031,0,0,0,8.5,22l-.835.428a3.035,3.035,0,0,0-1.316,4.08l1.082,2.114a3.015,3.015,0,0,0,.969,1.11,4.672,4.672,0,0,0-1.075,2.981V35.5a1.012,1.012,0,0,0,2.023,0V32.715a2.652,2.652,0,0,1,1.387-2.333l11.9-6.463a3.881,3.881,0,0,1-1.841,2.98l-6.625,4.027-.024.014-2.1,1.278a1.011,1.011,0,1,0,1.05,1.728l.583-.354.09,5.781L10,40.916l-.656.269v-.761a1.012,1.012,0,0,0-2.023,0v2.269a1.045,1.045,0,0,0,.029.243l1.821,7.355a.93.93,0,0,1-.079.657L5.1,58.538a3.272,3.272,0,0,0-1.925,2.979v3.274H1.011a1.012,1.012,0,0,0,0,2.023H67.989a1.012,1.012,0,0,0,0-2.023ZM40.835,6.532a1,1,0,0,1-.575-.515L39.234,3.875a1.01,1.01,0,0,1,.473-1.346l.847-.406A1.008,1.008,0,0,1,41.9,2.6l1.026,2.142a1.01,1.01,0,0,1-.473,1.345l-.484.232,0,0-.448.21a1,1,0,0,1-.682,0Zm-32.25,17.7L9.42,23.8a1.009,1.009,0,0,1,1.358.438l1.082,2.114a1.009,1.009,0,0,1-.332,1.293l-.3.165-.639.327A1.009,1.009,0,0,1,9.229,27.7L8.147,25.588A1.009,1.009,0,0,1,8.585,24.231Zm41.051-.048-3.223,3.523a1.625,1.625,0,0,0-.275,1.791l3.5,7.993h-.42L42.94,28.95l-.013-.018-.042-.056c-.01-.014-.02-.027-.031-.04a.617.617,0,0,1-.115-.558L44.757,21.2l1.43-.536L50.01,19.23l.3.647a3.931,3.931,0,0,1-.672,4.306ZM44.869,37.49,42.7,32.037l4.008,5.453Zm-7.241-9.227,4.237-4.3-1.072,3.761a2.636,2.636,0,0,0,.116,1.769l-.328.453a1.781,1.781,0,0,0-.213,1.711l2.323,5.834h-.417l-4.8-7.936a1.058,1.058,0,0,1,.152-1.291ZM20.855,46.323l-.781,6.32h-.514l-.519-5.281a2.045,2.045,0,0,0-1.225-1.68l-1.81-.781-.125-2.892,4.346,2.933a1.445,1.445,0,0,1,.629,1.381Zm-5.532,9.588V58.5a3.251,3.251,0,0,0-1.246-.247H10.536l4.9-5.7a3.331,3.331,0,0,0,.8-2.323L16.1,47.146l.911.393a.022.022,0,0,1,.013.019l.517,5.258a3.274,3.274,0,0,0-2.221,3.1Zm-4.438-4.023a2.951,2.951,0,0,0,.252-2.085L9.526,43.3l1.148-.471,3.161-1.3.381,8.78a1.32,1.32,0,0,1-.317.918l-6.029,7.02H7.542ZM5.2,61.516a1.247,1.247,0,0,1,1.246-1.246h7.63a1.247,1.247,0,0,1,1.246,1.246v3.274H5.2Zm12.144,0v-5.6a1.247,1.247,0,0,1,1.246-1.246H26.22a1.247,1.247,0,0,1,1.246,1.246v8.879H17.345V61.516Zm12.143-5.6V49.891a1.248,1.248,0,0,1,1.246-1.246h7.629a1.247,1.247,0,0,1,1.246,1.246v14.9H29.489Zm24.287,8.879V50.615a1.012,1.012,0,1,0-2.023,0V64.791H41.633V40.759a1.247,1.247,0,0,1,1.246-1.246h7.63a1.247,1.247,0,0,1,1.246,1.246v4.827a1.012,1.012,0,0,0,2.023,0V27.626a1.247,1.247,0,0,1,1.245-1.246h7.63A1.247,1.247,0,0,1,63.9,27.626V64.791H53.776Zm0,0" transform="translate(858 2312.439)"/>
    </g>
    <g id="Enmascarar_grupo_61" data-name="Enmascarar grupo 61" clip-path="url(#clip-path-9)">
      <g id="trabajo-en-equipo" transform="translate(1044 2323.288)">
        <path id="Trazado_595122" data-name="Trazado 595122" d="M57.922,41.706h2.431a1.011,1.011,0,0,0,.987-1.232l-1.619-7.2,4.172,7.9a1.011,1.011,0,0,0,.894.539h2.43a1.011,1.011,0,0,0,.972-1.289l-3-10.47a.509.509,0,0,1,.023-.34l3.7-8.481,0-.013c.006-.013.01-.026.015-.039s.013-.034.018-.052,0-.008,0-.013a.129.129,0,0,0,0-.015c0-.007,0-.014.006-.022s.008-.03.011-.045,0-.019.006-.029,0-.024.005-.036,0-.021,0-.032,0-.031,0-.046,0-.025,0-.038,0-.007,0-.011V20.73c0-.006,0-.012,0-.017L68.921,11.2c0-.013,0-.025,0-.038a4.312,4.312,0,0,0-1.438-3.034,4.479,4.479,0,0,0-.506-.392,2.973,2.973,0,0,0,.839-1.268l.747-2.2A2.994,2.994,0,0,0,66.69.467l-.872-.3a2.991,2.991,0,0,0-3.793,1.873l-.747,2.2a2.993,2.993,0,0,0,.587,2.934L47.79,8.1a1.011,1.011,0,0,0-.945,1.017,4.123,4.123,0,0,0,4.16,4.089l1.008-.007v2.135a.746.746,0,0,1-.745.745H38.7a.746.746,0,0,1-.745-.745V2.769a.747.747,0,0,1,.745-.746h12.57a.747.747,0,0,1,.745.746v2a1.011,1.011,0,0,0,2.022,0v-2A2.771,2.771,0,0,0,51.268,0H38.7a2.77,2.77,0,0,0-2.767,2.768v12.57A2.77,2.77,0,0,0,38.7,18.106h12.57a2.77,2.77,0,0,0,2.767-2.767V13.19l5.693-.04.31,7.09-6.755,7.026A3.039,3.039,0,0,0,52.8,30.9L56.988,41.08a1.01,1.01,0,0,0,.934.626ZM63.36,28.8a2.528,2.528,0,0,0-.113,1.7l2.629,9.181H65.4L60.068,29.6l-.008-.015-.1-.193a1.03,1.03,0,0,0-.111-.167.581.581,0,0,1-.112-.52l2.084-7.052,4.634.063ZM63.191,4.9l.747-2.2a.966.966,0,0,1,1.229-.607l.872.3a.97.97,0,0,1,.607,1.229l-.747,2.2a.968.968,0,0,1-1.229.607l-.872-.3A.97.97,0,0,1,63.191,4.9ZM53.032,11.175h-.018l-2.026.014A2.108,2.108,0,0,1,49.1,10.045l15.341-1A2.321,2.321,0,0,1,66.9,11.233l.07,8.463-4.934-.067-.284-6.494.792-.005a1.011,1.011,0,0,0-.007-2.022h-.007Zm1.545,18.753a1.023,1.023,0,0,1,.154-1.252l4.191-4.359-1.129,3.821a2.608,2.608,0,0,0,.136,1.8l-.258.275a.942.942,0,0,0-.083.1,1.764,1.764,0,0,0-.244,1.605l1.746,7.77H58.6l-3.953-9.617a.951.951,0,0,0-.069-.139Zm0,0"/>
        <path id="Trazado_595123" data-name="Trazado 595123" d="M67.989,43.095H63.962a1.011,1.011,0,1,0,0,2.021h4.027a1.011,1.011,0,1,0,0-2.021Zm0,0"/>
        <path id="Trazado_595124" data-name="Trazado 595124" d="M60.718,43.095H56.691a1.011,1.011,0,1,0,0,2.021h4.027a1.011,1.011,0,1,0,0-2.021Zm0,0"/>
        <path id="Trazado_595125" data-name="Trazado 595125" d="M11.928,20.227l.054-4,1.99,1.107a2.366,2.366,0,0,0,.3.141v.6a2.708,2.708,0,0,0,2.7,2.7H29.1a2.708,2.708,0,0,0,2.7-2.7V5.949a2.708,2.708,0,0,0-2.7-2.705H16.981a2.708,2.708,0,0,0-2.7,2.705v5.289L10.648,8.912a2.97,2.97,0,0,0,.88-1.849l.218-2.318a2.994,2.994,0,0,0-2.7-3.259L8.134,1.4A2.991,2.991,0,0,0,4.875,4.1L4.656,6.414a2.977,2.977,0,0,0,.554,2.029,3.628,3.628,0,0,0-.377.366l-.461.522A5.318,5.318,0,0,0,3.044,12.8L2.98,20.653l-.569,4.41a1.011,1.011,0,0,0,2.005.258l.464-3.6,4.607-.062L8.08,25.737l-.013.038-4.8,13.909h-.7L3.857,29.658a1.011,1.011,0,0,0-2-.259L.412,40.566a1.011,1.011,0,0,0,1,1.14H3.99a1.01,1.01,0,0,0,.955-.681l4.5-13.035,3.231,3.432L10.64,40.474a1.011,1.011,0,0,0,.987,1.232h2.431a1.011,1.011,0,0,0,.935-.626L19.174,30.9a3.036,3.036,0,0,0-.474-3.629ZM16.981,5.265H29.1a.684.684,0,0,1,.683.683V18.073a.684.684,0,0,1-.683.683H16.981a.684.684,0,0,1-.683-.683V17.5l4.176-.514a4.767,4.767,0,0,0,4.18-4.726,1.011,1.011,0,0,0-1.118-1.005l-7.237.771V5.949a.684.684,0,0,1,.683-.683ZM6.669,6.605l.219-2.318a.968.968,0,0,1,.963-.878.92.92,0,0,1,.093,0L8.86,3.5a.971.971,0,0,1,.874,1.057L9.516,6.874A.966.966,0,0,1,8.6,7.75,3.577,3.577,0,0,0,7.275,7.6a.97.97,0,0,1-.606-.991Zm-1.6,6.214a3.29,3.29,0,0,1,.822-2.15l.46-.522a1.577,1.577,0,0,1,.828-.5c.058.009.117.017.176.023l.829.078a1.631,1.631,0,0,1,.2.11l6.068,3.889.014.008a2.333,2.333,0,0,0,.479.224l.045.016a2.35,2.35,0,0,0,.955.1l6.434-.685a2.744,2.744,0,0,1-2.151,1.568l-5.079.625a.314.314,0,0,1-.194-.037L11.5,13.647l-.039-.022-2.342-1.3A1.011,1.011,0,1,0,8.14,14.09l1.834,1.02L9.914,19.63l-4.9.066ZM17.4,29.928a1.01,1.01,0,0,0-.07.139l-3.952,9.617h-.49l1.744-7.769a1.759,1.759,0,0,0-.244-1.606.941.941,0,0,0-.083-.1l-4.12-4.378,1.142-3.311,5.918,6.156.009.009a1.017,1.017,0,0,1,.145,1.242Zm0,0"/>
        <path id="Trazado_595126" data-name="Trazado 595126" d="M5.038,43.095H1.011a1.011,1.011,0,1,0,0,2.021H5.038a1.011,1.011,0,1,0,0-2.021Zm0,0"/>
        <path id="Trazado_595127" data-name="Trazado 595127" d="M15.287,43.095H11.26a1.011,1.011,0,1,0,0,2.021h4.027a1.011,1.011,0,1,0,0-2.021Zm0,0"/>
        <path id="Trazado_595128" data-name="Trazado 595128" d="M49.662,43.095h-2.27a3.3,3.3,0,0,0,.267-1.306V25.213a3.331,3.331,0,0,0-3.328-3.328h-9.4a1.011,1.011,0,0,0,0,2.022h9.4a1.307,1.307,0,0,1,1.306,1.306V41.789a1.308,1.308,0,0,1-1.306,1.306H27.758a1.308,1.308,0,0,1-1.306-1.306V25.213a1.307,1.307,0,0,1,1.306-1.306h2.225a1.011,1.011,0,1,0,0-2.022H27.758a3.332,3.332,0,0,0-3.328,3.328V41.789a3.3,3.3,0,0,0,.267,1.306H22.04a1.011,1.011,0,1,0,0,2.021H49.662a1.011,1.011,0,0,0,0-2.021Zm0,0"/>
      </g>
    </g>
  </g>
</svg>
